<svg width="60" height="60" viewBox="0 0 60 60" fill="none" xmlns="http://www.w3.org/2000/svg">
<path opacity="0.4" d="M5 15C5 9.47715 9.47715 5 15 5H45C50.5228 5 55 9.47715 55 15V45C55 50.5228 50.5228 55 45 55H15C9.47715 55 5 50.5228 5 45V15Z" fill="#16CA9F" style="fill:#16CA9F;fill:color(display-p3 0.0863 0.7922 0.6235);fill-opacity:1;"/>
<path fill-rule="evenodd" clip-rule="evenodd" d="M25.0426 18.1255C25.768 18.142 26.4187 18.5755 26.7134 19.2385L34.9091 37.6787L38.2591 29.3036C38.5438 28.5918 39.2333 28.125 40 28.125H45C46.0355 28.125 46.875 28.9645 46.875 30C46.875 31.0355 46.0355 31.875 45 31.875H41.2694L36.7409 43.1964C36.4609 43.8963 35.789 44.3605 35.0354 44.3747C34.2817 44.3889 33.5928 43.9504 33.2866 43.2615L24.9002 24.3922L21.6771 30.8385C21.3594 31.4737 20.7102 31.875 20 31.875H15C13.9645 31.875 13.125 31.0355 13.125 30C13.125 28.9645 13.9645 28.125 15 28.125H18.8412L23.3229 19.1615C23.6474 18.5125 24.3172 18.109 25.0426 18.1255Z" fill="#16CA9F" style="fill:#16CA9F;fill:color(display-p3 0.0863 0.7922 0.6235);fill-opacity:1;"/>
</svg>
