<svg width="100" height="100" viewBox="0 0 100 100" fill="none" xmlns="http://www.w3.org/2000/svg">
<circle cx="50" cy="50" r="50" fill="white" style="fill:white;fill:white;fill-opacity:1;"/>
<path d="M62.5919 46.5H38.1568C36.2289 46.5 34.666 48.0148 34.666 49.8833V60.0333C34.666 61.9019 36.2289 63.4167 38.1568 63.4167H62.5919C64.5198 63.4167 66.0827 61.9019 66.0827 60.0333V49.8833C66.0827 48.0148 64.5198 46.5 62.5919 46.5Z" stroke="#16CA9F" style="stroke:#16CA9F;stroke:color(display-p3 0.0863 0.7922 0.6235);stroke-opacity:1;" stroke-width="3" stroke-linecap="round" stroke-linejoin="round"/>
<path d="M50.375 39.25C52.377 39.25 54 37.627 54 35.625C54 33.623 52.377 32 50.375 32C48.373 32 46.75 33.623 46.75 35.625C46.75 37.627 48.373 39.25 50.375 39.25Z" stroke="#16CA9F" style="stroke:#16CA9F;stroke:color(display-p3 0.0863 0.7922 0.6235);stroke-opacity:1;" stroke-width="3" stroke-linecap="round" stroke-linejoin="round"/>
<path d="M43.7285 56.1667C44.7295 56.1667 45.541 55.3553 45.541 54.3542C45.541 53.3532 44.7295 52.5417 43.7285 52.5417C42.7275 52.5417 41.916 53.3532 41.916 54.3542C41.916 55.3553 42.7275 56.1667 43.7285 56.1667Z" stroke="#16CA9F" style="stroke:#16CA9F;stroke:color(display-p3 0.0863 0.7922 0.6235);stroke-opacity:1;" stroke-width="3" stroke-linecap="round" stroke-linejoin="round"/>
<path d="M58.2285 56.1667C59.2295 56.1667 60.041 55.3553 60.041 54.3542C60.041 53.3532 59.2295 52.5417 58.2285 52.5417C57.2275 52.5417 56.416 53.3532 56.416 54.3542C56.416 55.3553 57.2275 56.1667 58.2285 56.1667Z" stroke="#16CA9F" style="stroke:#16CA9F;stroke:color(display-p3 0.0863 0.7922 0.6235);stroke-opacity:1;" stroke-width="3" stroke-linecap="round" stroke-linejoin="round"/>
<path d="M50.375 39.25V46.5" stroke="#16CA9F" style="stroke:#16CA9F;stroke:color(display-p3 0.0863 0.7922 0.6235);stroke-opacity:1;" stroke-width="3" stroke-linecap="round" stroke-linejoin="round"/>
<path d="M70.9178 42.875C73.89 46.1981 75.5332 50.5 75.5332 54.9583C75.5332 59.4167 73.89 63.7186 70.9178 67.0417" stroke="#16CA9F" style="stroke:#16CA9F;stroke:color(display-p3 0.0863 0.7922 0.6235);stroke-opacity:1;" stroke-width="3" stroke-linecap="round" stroke-linejoin="round"/>
<path d="M29.6154 42.875C26.6432 46.1981 25 50.5 25 54.9583C25 59.4167 26.6432 63.7186 29.6154 67.0417" stroke="#16CA9F" style="stroke:#16CA9F;stroke:color(display-p3 0.0863 0.7922 0.6235);stroke-opacity:1;" stroke-width="3" stroke-linecap="round" stroke-linejoin="round"/>
</svg>
