<svg width="100" height="100" viewBox="0 0 100 100" fill="none" xmlns="http://www.w3.org/2000/svg">
<circle cx="50" cy="50" r="50" fill="white" style="fill:white;fill:white;fill-opacity:1;"/>
<path d="M28.25 37.9167V33.0833C28.25 31.8015 28.7592 30.5721 29.6657 29.6657C30.5721 28.7592 31.8015 28.25 33.0833 28.25H37.9167" stroke="#16CA9F" style="stroke:#16CA9F;stroke:color(display-p3 0.0863 0.7922 0.6235);stroke-opacity:1;" stroke-width="3" stroke-linecap="round" stroke-linejoin="round"/>
<path d="M62.084 28.25H66.9173C68.1992 28.25 69.4286 28.7592 70.335 29.6657C71.2414 30.5721 71.7507 31.8015 71.7507 33.0833V37.9167" stroke="#16CA9F" style="stroke:#16CA9F;stroke:color(display-p3 0.0863 0.7922 0.6235);stroke-opacity:1;" stroke-width="3" stroke-linecap="round" stroke-linejoin="round"/>
<path d="M71.7507 62.0833V66.9166C71.7507 68.1985 71.2414 69.4278 70.335 70.3343C69.4286 71.2407 68.1992 71.7499 66.9173 71.7499H62.084" stroke="#16CA9F" style="stroke:#16CA9F;stroke:color(display-p3 0.0863 0.7922 0.6235);stroke-opacity:1;" stroke-width="3" stroke-linecap="round" stroke-linejoin="round"/>
<path d="M37.9167 71.7499H33.0833C31.8015 71.7499 30.5721 71.2407 29.6657 70.3343C28.7592 69.4278 28.25 68.1985 28.25 66.9166V62.0833" stroke="#16CA9F" style="stroke:#16CA9F;stroke:color(display-p3 0.0863 0.7922 0.6235);stroke-opacity:1;" stroke-width="3" stroke-linecap="round" stroke-linejoin="round"/>
<path d="M40.334 54.8333C40.334 54.8333 43.959 59.6666 50.0007 59.6666C56.0423 59.6666 59.6673 54.8333 59.6673 54.8333" stroke="#16CA9F" style="stroke:#16CA9F;stroke:color(display-p3 0.0863 0.7922 0.6235);stroke-opacity:1;" stroke-width="3" stroke-linecap="round" stroke-linejoin="round"/>
<path d="M42.75 42.75H42.7742" stroke="#16CA9F" style="stroke:#16CA9F;stroke:color(display-p3 0.0863 0.7922 0.6235);stroke-opacity:1;" stroke-width="3" stroke-linecap="round" stroke-linejoin="round"/>
<path d="M57.25 42.75H57.2742" stroke="#16CA9F" style="stroke:#16CA9F;stroke:color(display-p3 0.0863 0.7922 0.6235);stroke-opacity:1;" stroke-width="3" stroke-linecap="round" stroke-linejoin="round"/>
</svg>
