<svg width="100" height="100" viewBox="0 0 100 100" fill="none" xmlns="http://www.w3.org/2000/svg">
<circle cx="50" cy="50" r="50" fill="white" style="fill:white;fill:white;fill-opacity:1;"/>
<path d="M57.25 54.8334C57.7333 52.4167 58.9417 50.725 60.875 48.7917C63.2917 46.6167 64.5 43.475 64.5 40.3334C64.5 36.4877 62.9723 32.7996 60.2531 30.0803C57.5338 27.361 53.8456 25.8334 50 25.8334C46.1544 25.8334 42.4662 27.361 39.747 30.0803C37.0277 32.7996 35.5 36.4877 35.5 40.3334C35.5 42.75 35.9833 45.65 39.125 48.7917C40.8167 50.4834 42.2667 52.4167 42.75 54.8334" stroke="#16CA9F" style="stroke:#16CA9F;stroke:color(display-p3 0.0863 0.7922 0.6235);stroke-opacity:1;" stroke-width="3" stroke-linecap="round" stroke-linejoin="round"/>
<path d="M42.75 64.5H57.25" stroke="#16CA9F" style="stroke:#16CA9F;stroke:color(display-p3 0.0863 0.7922 0.6235);stroke-opacity:1;" stroke-width="3" stroke-linecap="round" stroke-linejoin="round"/>
<path d="M45.166 74.1667H54.8327" stroke="#16CA9F" style="stroke:#16CA9F;stroke:color(display-p3 0.0863 0.7922 0.6235);stroke-opacity:1;" stroke-width="3" stroke-linecap="round" stroke-linejoin="round"/>
<path d="M55.7215 36.5488C55.6125 36.2874 55.326 36.15 55.0556 36.2292C54.8192 36.2983 54.5834 36.3677 54.5834 36.3677C54.2081 36.4842 53.8013 36.3838 53.522 36.1055L52.9643 35.5496C52.685 35.2712 52.5812 34.8627 52.6933 34.4837C52.6933 34.4837 52.76 34.2446 52.8262 34.0052C52.9015 33.7324 52.7617 33.446 52.5012 33.339L51.7766 33.0414C51.5159 32.9344 51.2167 33.0411 51.0814 33.2897C50.9629 33.507 50.8448 33.7241 50.8448 33.7241C50.6612 34.0735 50.3031 34.2925 49.9101 34.2942L49.1254 34.2984C48.7324 34.3006 48.3723 34.0852 48.1855 33.7377C48.1855 33.7377 48.0648 33.5212 47.9433 33.305C47.8049 33.0584 47.5049 32.9553 47.2456 33.0651L46.5243 33.3705C46.2647 33.4803 46.1282 33.7687 46.2068 34.0409C46.2755 34.2789 46.3444 34.5166 46.3444 34.5166C46.4606 34.8942 46.361 35.3038 46.0845 35.5849L45.5323 36.1464C45.2561 36.4281 44.8504 36.5326 44.4731 36.4198C44.4731 36.4198 44.2359 36.3526 43.9985 36.286C43.7272 36.21 43.4427 36.3507 43.3364 36.6129L43.0411 37.3421C42.9348 37.6046 43.0408 37.9059 43.2877 38.0421C43.5036 38.1614 43.7192 38.2804 43.7192 38.2804C44.0663 38.4651 44.2833 38.8257 44.2852 39.2214L44.2896 40.0114C44.2916 40.4068 44.0779 40.7696 43.7328 40.958C43.7328 40.958 43.5177 41.0794 43.3029 41.2015C43.058 41.3408 42.9553 41.6429 43.0644 41.904L43.3677 42.6299C43.4767 42.8913 43.7632 43.0286 44.0336 42.9495C44.27 42.8804 44.5061 42.811 44.5061 42.811C44.8811 42.6942 45.2882 42.7948 45.5675 43.0732L46.1249 43.6291C46.4042 43.9069 46.508 44.3155 46.3959 44.695C46.3959 44.695 46.3292 44.9338 46.2633 45.1729C46.188 45.4457 46.3275 45.7321 46.5882 45.8391L47.3128 46.1367C47.5736 46.2437 47.8725 46.137 48.0081 45.8887C48.1266 45.6714 48.2447 45.4546 48.2447 45.4546C48.3613 45.2314 48.5495 45.0617 48.7723 44.9675C48.8988 44.914 49.0366 44.8853 49.1791 44.8842L49.9641 44.8806C50.3568 44.8786 50.7169 45.0929 50.9037 45.4415C50.9037 45.4415 51.0247 45.658 51.1459 45.8742C51.2843 46.1209 51.5843 46.224 51.8434 46.1142L52.5646 45.8088C52.8242 45.699 52.9607 45.4106 52.8821 45.1383C52.8134 44.9003 52.7445 44.6627 52.7445 44.6627C52.6283 44.2842 52.7279 43.8755 53.0044 43.5943L53.5563 43.0323C53.8328 42.7511 54.2386 42.6466 54.6155 42.7592C54.6155 42.7592 54.8527 42.8263 55.0905 42.8926C55.3614 42.9684 55.6462 42.828 55.7522 42.5655L56.0476 41.8365C56.1538 41.5741 56.0478 41.2728 55.8007 41.1363C55.5851 41.017 55.3697 40.8986 55.3697 40.8986C55.0227 40.7133 54.8057 40.3527 54.8037 39.9576L54.7996 39.1676C54.7974 38.7719 55.0108 38.4088 55.3562 38.2207C55.3562 38.2207 55.5712 38.0992 55.786 37.9769C56.0309 37.8376 56.1334 37.5355 56.0243 37.2744L55.7215 36.5488ZM50.9214 42.8887C49.1116 43.6545 47.028 42.7979 46.2675 40.9758C45.5069 39.1537 46.3577 37.056 48.1675 36.2902C49.9773 35.5245 52.0609 36.3811 52.8215 38.2032C53.582 40.0253 52.7312 42.1233 50.9214 42.8887Z" fill="#16CA9F" style="fill:#16CA9F;fill:color(display-p3 0.0863 0.7922 0.6235);fill-opacity:1;"/>
</svg>
