<svg width="651" height="366" viewBox="0 0 651 366" fill="none" xmlns="http://www.w3.org/2000/svg">
<g clip-path="url(#clip0_1030_1402)">
<g opacity="0.15">
<path d="M599.569 323.691C592.714 336.604 576.411 342.459 561.235 343.402C546.053 344.35 530.81 341.572 515.646 342.654C476.567 345.426 452.56 359.185 413.778 353.865C385.171 349.937 350.595 342.721 322.322 337.036C279.024 328.342 241.599 347.445 198.337 356.327C176.155 360.875 149.433 370.244 127.772 363.836C123.833 362.674 119.73 361.191 117.184 358.102C114.33 354.619 114.051 349.864 114.221 345.45C114.881 327.85 120.5 309.422 113.36 293.171C103.905 271.661 83.2868 249.524 72.6744 242.818C62.0621 236.113 49.6922 229.522 46.8194 220.488C43.9406 211.453 45.0133 202.303 54.5589 191.037C59.1227 185.663 76.1048 179.17 78.1776 169.01C80.2503 158.857 67.9228 151.738 79.6261 138.016C91.3354 124.294 120.021 133.937 132.754 120.172C145.179 106.742 146.439 85.4385 161.27 74.422C175.228 64.0621 195.034 67.1081 212.61 69.1509C243.908 72.7805 275.824 71.522 306.697 65.4301C333.594 60.1225 361.54 51.1792 387.802 58.8214C410.796 65.503 428.172 83.8638 450.591 92.1383C468.706 98.82 488.761 98.443 507.773 102.267C538.659 108.481 566.762 126.355 584.611 151.118C588.017 155.848 591.151 161.089 591.357 166.816C591.836 179.911 577.841 188.678 570.762 199.914C558.914 218.718 567.575 243.183 580.005 261.653C586.442 271.223 593.884 280.288 598.587 290.727C603.29 301.166 604.963 313.562 599.575 323.703L599.569 323.691Z" fill="#29B593" style="fill:#29B593;fill:color(display-p3 0.1623 0.7083 0.5779);fill-opacity:1;"/>
</g>
<g opacity="0.07">
<path d="M561.23 51.6248C562.557 36.9787 551.8 24.0228 537.187 22.7035C522.587 21.372 509.672 32.1636 508.35 46.8036C507.12 60.4222 516.332 72.5816 529.363 75.2932C530.357 75.4938 531.357 75.6519 532.387 75.737C533.417 75.8404 534.442 75.8768 535.448 75.8404C548.751 75.5364 559.994 65.2495 561.224 51.6309L561.23 51.6248ZM533.096 67.9854C522.751 67.0491 515.132 57.8808 516.078 47.5088C517.017 37.1368 526.157 29.4946 536.49 30.4369C546.83 31.3793 554.454 40.5597 553.521 50.9195C552.581 61.2916 543.43 68.9277 533.102 67.9854H533.096Z" fill="black" style="fill:black;fill:black;fill-opacity:1;"/>
<path d="M534.677 84.3884L528.58 83.8352L529.362 75.2932C530.356 75.4938 531.356 75.6519 532.386 75.737C533.417 75.8403 534.441 75.8768 535.447 75.8403L534.677 84.3884Z" fill="black" style="fill:black;fill:black;fill-opacity:1;"/>
<path d="M527.503 83.7405L524.965 111.774L533.228 112.527L535.766 84.4934L527.503 83.7405Z" fill="black" style="fill:black;fill:black;fill-opacity:1;"/>
<path d="M398.342 37.3495C401.689 37.3495 404.403 34.6275 404.403 31.2698C404.403 27.9121 401.689 25.1901 398.342 25.1901C394.995 25.1901 392.281 27.9121 392.281 31.2698C392.281 34.6275 394.995 37.3495 398.342 37.3495Z" fill="black" style="fill:black;fill:black;fill-opacity:1;"/>
<path d="M440.192 29.835C443.539 29.835 446.252 27.113 446.252 23.7553C446.252 20.3975 443.539 17.6755 440.192 17.6755C436.844 17.6755 434.131 20.3975 434.131 23.7553C434.131 27.113 436.844 29.835 440.192 29.835Z" fill="black" style="fill:black;fill:black;fill-opacity:1;"/>
<path d="M483.877 53.5399C487.224 53.5399 489.938 50.8179 489.938 47.4602C489.938 44.1024 487.224 41.3804 483.877 41.3804C480.53 41.3804 477.816 44.1024 477.816 47.4602C477.816 50.8179 480.53 53.5399 483.877 53.5399Z" fill="black" style="fill:black;fill:black;fill-opacity:1;"/>
<path d="M535.727 53.9837C539.074 53.9837 541.787 51.2617 541.787 47.904C541.787 44.5462 539.074 41.8242 535.727 41.8242C532.379 41.8242 529.666 44.5462 529.666 47.904C529.666 51.2617 532.379 53.9837 535.727 53.9837Z" fill="black" style="fill:black;fill:black;fill-opacity:1;"/>
<path d="M593.516 62.4588C596.863 62.4588 599.577 59.7369 599.577 56.3791C599.577 53.0214 596.863 50.2994 593.516 50.2994C590.169 50.2994 587.455 53.0214 587.455 56.3791C587.455 59.7369 590.169 62.4588 593.516 62.4588Z" fill="black" style="fill:black;fill:black;fill-opacity:1;"/>
</g>
<path d="M591.75 52.7495C591.678 52.7495 591.605 52.7495 591.532 52.7313L533.846 44.2744L482.1 43.8306C481.851 43.8306 481.609 43.7637 481.391 43.6482L438.172 20.1986L396.844 27.622C396.019 27.7679 395.231 27.2207 395.086 26.3939C394.941 25.567 395.486 24.7767 396.31 24.6308L438.16 17.1162C438.499 17.0554 438.844 17.1162 439.147 17.2743L482.5 40.7968L533.973 41.2345C534.04 41.2345 534.113 41.2345 534.179 41.2528L591.968 49.7279C592.799 49.8495 593.369 50.6216 593.247 51.4546C593.138 52.2084 592.49 52.7556 591.75 52.7556V52.7495Z" fill="#3DDAB4" style="fill:#3DDAB4;fill:color(display-p3 0.2385 0.8542 0.7071);fill-opacity:1;"/>
<path d="M559.466 46.4752C560.794 31.8292 550.036 18.8733 535.424 17.554C520.823 16.2225 507.908 27.014 506.587 41.654C505.356 55.2726 514.569 67.4321 527.599 70.1437C528.593 70.3443 529.593 70.5024 530.623 70.5875C531.654 70.6908 532.678 70.7273 533.684 70.6908C546.987 70.3868 558.23 60.0999 559.46 46.4813L559.466 46.4752ZM531.333 62.8358C520.987 61.8995 513.369 52.7313 514.314 42.3593C515.253 31.9872 524.393 24.345 534.727 25.2874C545.066 26.2297 552.691 35.4101 551.757 45.77C550.818 56.142 541.666 63.7782 531.339 62.8358H531.333Z" fill="#29B593" style="fill:#29B593;fill:color(display-p3 0.1623 0.7083 0.5779);fill-opacity:1;"/>
<path d="M532.913 79.2389L526.816 78.6856L527.598 70.1436C528.592 70.3442 529.592 70.5023 530.623 70.5874C531.653 70.6908 532.677 70.7273 533.683 70.6908L532.913 79.2389Z" fill="#29B593" style="fill:#29B593;fill:color(display-p3 0.1623 0.7083 0.5779);fill-opacity:1;"/>
<path d="M525.741 78.5861L523.203 106.62L531.466 107.373L534.005 79.339L525.741 78.5861Z" fill="#29B593" style="fill:#29B593;fill:color(display-p3 0.1623 0.7083 0.5779);fill-opacity:1;"/>
<path d="M396.578 32.2C399.926 32.2 402.639 29.478 402.639 26.1203C402.639 22.7625 399.926 20.0405 396.578 20.0405C393.231 20.0405 390.518 22.7625 390.518 26.1203C390.518 29.478 393.231 32.2 396.578 32.2Z" fill="#29B593" style="fill:#29B593;fill:color(display-p3 0.1623 0.7083 0.5779);fill-opacity:1;"/>
<path d="M438.428 24.6855C441.775 24.6855 444.489 21.9635 444.489 18.6057C444.489 15.248 441.775 12.526 438.428 12.526C435.081 12.526 432.367 15.248 432.367 18.6057C432.367 21.9635 435.081 24.6855 438.428 24.6855Z" fill="#29B593" style="fill:#29B593;fill:color(display-p3 0.1623 0.7083 0.5779);fill-opacity:1;"/>
<path d="M482.108 48.3904C485.455 48.3904 488.168 45.6684 488.168 42.3106C488.168 38.9529 485.455 36.2309 482.108 36.2309C478.76 36.2309 476.047 38.9529 476.047 42.3106C476.047 45.6684 478.76 48.3904 482.108 48.3904Z" fill="#29B593" style="fill:#29B593;fill:color(display-p3 0.1623 0.7083 0.5779);fill-opacity:1;"/>
<path d="M533.957 48.8342C537.304 48.8342 540.018 46.1122 540.018 42.7544C540.018 39.3967 537.304 36.6747 533.957 36.6747C530.61 36.6747 527.896 39.3967 527.896 42.7544C527.896 46.1122 530.61 48.8342 533.957 48.8342Z" fill="#29B593" style="fill:#29B593;fill:color(display-p3 0.1623 0.7083 0.5779);fill-opacity:1;"/>
<path d="M591.752 57.3093C595.099 57.3093 597.813 54.5873 597.813 51.2296C597.813 47.8718 595.099 45.1498 591.752 45.1498C588.405 45.1498 585.691 47.8718 585.691 51.2296C585.691 54.5873 588.405 57.3093 591.752 57.3093Z" fill="#29B593" style="fill:#29B593;fill:color(display-p3 0.1623 0.7083 0.5779);fill-opacity:1;"/>
<path d="M559.466 46.4752C560.794 31.8292 550.036 18.8733 535.424 17.554C520.823 16.2225 507.908 27.014 506.587 41.654C505.356 55.2726 514.569 67.4321 527.599 70.1437C528.593 70.3443 529.593 70.5024 530.623 70.5875C531.654 70.6908 532.678 70.7273 533.684 70.6908C546.987 70.3868 558.23 60.0999 559.46 46.4813L559.466 46.4752ZM531.333 62.8358C520.987 61.8995 513.369 52.7313 514.314 42.3593C515.253 31.9872 524.393 24.345 534.727 25.2874C545.066 26.2297 552.691 35.4101 551.757 45.77C550.818 56.142 541.666 63.7782 531.339 62.8358H531.333Z" stroke="#3DDAB4" style="stroke:#3DDAB4;stroke:color(display-p3 0.2385 0.8542 0.7071);stroke-opacity:1;" stroke-width="5" stroke-linecap="round" stroke-linejoin="round"/>
<path d="M533.047 64.4348C532.435 64.4348 531.811 64.4044 531.192 64.3497C525.786 63.8633 520.895 61.2916 517.422 57.1087C513.95 52.9319 512.307 47.6426 512.798 42.2194C513.756 31.6529 522.447 23.6884 533.005 23.6884C533.617 23.6884 534.241 23.7188 534.859 23.7735C546.017 24.7949 554.272 34.7231 553.266 45.9038C552.308 56.4643 543.617 64.4348 533.053 64.4348H533.047ZM533.005 26.7283C524.023 26.7283 516.635 33.5072 515.816 42.4991C515.398 47.1136 516.792 51.6126 519.75 55.1632C522.707 58.7198 526.865 60.9025 531.465 61.322C531.992 61.3706 532.52 61.3949 533.047 61.3949C542.035 61.3949 549.429 54.616 550.241 45.6302C551.102 36.1154 544.071 27.6706 534.58 26.8012C534.059 26.7526 533.526 26.7283 533.005 26.7283Z" fill="#3DDAB4" style="fill:#3DDAB4;fill:color(display-p3 0.2385 0.8542 0.7071);fill-opacity:1;"/>
<path d="M532.913 80.7589C532.865 80.7589 532.822 80.7589 532.774 80.7528L526.677 80.1995C526.277 80.1631 525.907 79.9685 525.646 79.6584C525.392 79.3484 525.265 78.9471 525.301 78.5458L526.083 70.0038C526.119 69.5722 526.343 69.1831 526.689 68.9216C527.034 68.6663 527.471 68.5629 527.895 68.648C528.919 68.8547 529.847 68.9946 530.744 69.0675C531.738 69.1709 532.689 69.2013 533.628 69.1648C534.071 69.1466 534.483 69.3229 534.78 69.639C535.077 69.9552 535.228 70.3868 535.186 70.8185L534.41 79.3666C534.374 79.7679 534.18 80.1387 533.871 80.3941C533.598 80.6251 533.253 80.7467 532.901 80.7467L532.913 80.7589ZM528.465 77.3056L531.544 77.5852L532.028 72.2047C531.513 72.1864 530.992 72.15 530.471 72.0952C529.98 72.0527 529.483 71.998 528.962 71.9189L528.471 77.3056H528.465Z" fill="#3DDAB4" style="fill:#3DDAB4;fill:color(display-p3 0.2385 0.8542 0.7071);fill-opacity:1;"/>
<path d="M531.458 108.89C531.41 108.89 531.367 108.89 531.319 108.884L523.058 108.13C522.222 108.057 521.61 107.315 521.688 106.476L524.228 78.4425C524.264 78.0412 524.458 77.6703 524.767 77.415C525.076 77.1596 525.47 77.032 525.876 77.0684L534.137 77.8223C534.974 77.8953 535.586 78.637 535.507 79.476L532.967 107.51C532.931 107.911 532.737 108.282 532.428 108.537C532.155 108.768 531.81 108.89 531.458 108.89ZM524.846 105.242L530.089 105.722L532.355 80.7163L527.113 80.236L524.846 105.242Z" fill="#3DDAB4" style="fill:#3DDAB4;fill:color(display-p3 0.2385 0.8542 0.7071);fill-opacity:1;"/>
<path d="M396.572 33.7199C394.99 33.7199 393.475 33.2336 392.184 32.3155C388.778 29.8836 387.978 25.1293 390.402 21.7125C391.82 19.7122 394.129 18.5145 396.584 18.5145C398.166 18.5145 399.681 19.0009 400.972 19.925C404.378 22.3569 405.178 27.1113 402.754 30.5281C401.335 32.5283 399.026 33.726 396.572 33.726V33.7199ZM396.584 21.5544C395.111 21.5544 393.723 22.2718 392.875 23.4756C391.42 25.5245 391.899 28.3819 393.947 29.8411C394.723 30.3943 395.632 30.6862 396.578 30.6862C398.05 30.6862 399.438 29.9687 400.287 28.765C401.741 26.7161 401.263 23.8586 399.214 22.4056C398.438 21.8523 397.529 21.5605 396.584 21.5605V21.5544Z" fill="#3DDAB4" style="fill:#3DDAB4;fill:color(display-p3 0.2385 0.8542 0.7071);fill-opacity:1;"/>
<path d="M438.421 26.2115C436.839 26.2115 435.324 25.7251 434.033 24.801C432.384 23.6215 431.287 21.8706 430.954 19.8703C430.621 17.8701 431.075 15.8516 432.251 14.1979C433.669 12.1977 435.978 11 438.433 11C440.015 11 441.53 11.4864 442.821 12.4105C446.227 14.8424 447.027 19.5967 444.603 23.0136C443.185 25.0138 440.875 26.2115 438.421 26.2115ZM438.433 14.0459C436.96 14.0459 435.572 14.7634 434.724 15.9671C434.021 16.9581 433.742 18.168 433.948 19.3718C434.148 20.5756 434.809 21.6274 435.797 22.3326C436.572 22.8859 437.481 23.1777 438.427 23.1777C439.9 23.1777 441.288 22.4603 442.136 21.2565C443.591 19.2076 443.112 16.3502 441.063 14.8971C440.288 14.3439 439.378 14.052 438.433 14.052V14.0459Z" fill="#3DDAB4" style="fill:#3DDAB4;fill:color(display-p3 0.2385 0.8542 0.7071);fill-opacity:1;"/>
<path d="M482.107 49.9164C480.525 49.9164 479.01 49.43 477.719 48.5059C474.313 46.074 473.513 41.3196 475.937 37.9028C477.355 35.9026 479.664 34.7049 482.119 34.7049C483.701 34.7049 485.216 35.1913 486.507 36.1154C489.913 38.5473 490.713 43.3016 488.289 46.7184C486.871 48.7187 484.561 49.9164 482.107 49.9164ZM482.119 37.7508C480.646 37.7508 479.258 38.4683 478.41 39.672C476.955 41.7209 477.434 44.5784 479.483 46.0375C480.258 46.5908 481.167 46.8826 482.113 46.8826C483.586 46.8826 484.974 46.1652 485.822 44.9614C487.277 42.9125 486.798 40.0551 484.749 38.602C483.973 38.0487 483.064 37.7569 482.119 37.7569V37.7508Z" fill="#3DDAB4" style="fill:#3DDAB4;fill:color(display-p3 0.2385 0.8542 0.7071);fill-opacity:1;"/>
<path d="M533.95 50.3602C532.368 50.3602 530.853 49.8738 529.562 48.9497C527.913 47.7702 526.817 46.0192 526.483 44.019C526.144 42.0188 526.61 40.0003 527.78 38.3466C529.198 36.3464 531.507 35.1487 533.962 35.1487C535.544 35.1487 537.059 35.6351 538.35 36.5592C539.999 37.7386 541.096 39.4896 541.429 41.4898C541.768 43.4901 541.308 45.5086 540.132 47.1622C538.714 49.1625 536.405 50.3602 533.95 50.3602ZM533.962 38.1946C532.489 38.1946 531.101 38.912 530.253 40.1158C529.55 41.1068 529.271 42.3167 529.477 43.5205C529.677 44.7243 530.338 45.77 531.326 46.4813C532.101 47.0346 533.011 47.3264 533.956 47.3264C535.429 47.3264 536.817 46.609 537.665 45.4052C538.368 44.4142 538.647 43.2043 538.447 42.0005C538.247 40.7968 537.586 39.751 536.599 39.0397C535.823 38.4865 534.914 38.1946 533.968 38.1946H533.962Z" fill="#3DDAB4" style="fill:#3DDAB4;fill:color(display-p3 0.2385 0.8542 0.7071);fill-opacity:1;"/>
<path d="M591.745 58.8293C590.164 58.8293 588.648 58.3429 587.357 57.4248C583.951 54.9929 583.151 50.2386 585.576 46.8218C586.994 44.8215 589.303 43.6238 591.758 43.6238C593.339 43.6238 594.855 44.1102 596.146 45.0283C599.552 47.4602 600.352 52.2145 597.927 55.6313C596.509 57.6315 594.2 58.8293 591.745 58.8293ZM591.758 46.6637C590.285 46.6637 588.897 47.3811 588.048 48.5849C586.594 50.6338 587.073 53.4912 589.121 54.9504C589.897 55.5036 590.806 55.7955 591.752 55.7955C593.224 55.7955 594.612 55.0781 595.461 53.8743C596.915 51.8254 596.437 48.9679 594.388 47.5088C593.612 46.9555 592.703 46.6637 591.758 46.6637Z" fill="#3DDAB4" style="fill:#3DDAB4;fill:color(display-p3 0.2385 0.8542 0.7071);fill-opacity:1;"/>
<g opacity="0.07">
<path d="M126.899 265.058C129.147 271.654 125.547 275.199 121.232 276.676L100.723 283.704L99.8803 283.996L79.3708 291.024C75.0556 292.502 70.0494 291.906 67.8069 285.309C66.2796 280.816 70.9949 261.61 73.1525 246.885C74.1768 240.009 74.6374 234.1 73.6374 231.163C70.4918 221.934 67.5463 213.27 67.5463 213.27L65.9039 213.83C62.9038 214.857 59.8068 205.756 62.8068 204.728L81.3466 198.375C84.8376 197.177 87.9407 206.279 84.4436 207.476L83.1769 207.908C83.1769 207.908 86.1285 216.572 89.2679 225.801C90.268 228.737 94.2377 233.133 99.2257 237.948C109.923 248.265 125.366 260.565 126.899 265.058Z" fill="black" style="fill:black;fill:black;fill-opacity:1;"/>
</g>
<g opacity="0.07">
<path d="M50.7571 201.119C54.6468 199.786 56.7203 195.535 55.3883 191.624C54.0564 187.712 49.8233 185.622 45.9336 186.955C42.0439 188.288 39.9704 192.539 41.3024 196.45C42.6343 200.362 46.8673 202.452 50.7571 201.119Z" fill="black" style="fill:black;fill:black;fill-opacity:1;"/>
</g>
<g opacity="0.07">
<path d="M99.8253 210.151C102.67 209.176 104.186 206.068 103.212 203.208C102.239 200.348 99.1432 198.82 96.2988 199.795C93.4543 200.769 91.9379 203.878 92.9117 206.738C93.8855 209.597 96.9808 211.125 99.8253 210.151Z" fill="black" style="fill:black;fill:black;fill-opacity:1;"/>
</g>
<g opacity="0.07">
<path d="M53.0266 239.162C55.6461 238.264 57.0425 235.401 56.1455 232.767C55.2485 230.133 52.3978 228.725 49.7783 229.623C47.1587 230.52 45.7623 233.383 46.6593 236.018C47.5563 238.652 50.407 240.059 53.0266 239.162Z" fill="black" style="fill:black;fill:black;fill-opacity:1;"/>
</g>
<path d="M91.6019 236.039L65.5226 244.976C66.5408 238.088 66.9953 232.191 65.9953 229.248C62.8559 220.019 59.9043 211.355 59.9043 211.355L75.547 205.993C75.547 205.993 78.4986 214.657 81.638 223.886C82.6381 226.828 86.5957 231.218 91.6019 236.039Z" fill="white" style="fill:white;fill:white;fill-opacity:1;"/>
<path d="M119.274 263.142C121.517 269.733 117.917 273.283 113.608 274.761L93.092 281.789L92.2495 282.081L71.734 289.109C67.4248 290.586 62.4126 289.991 60.1641 283.4C58.6368 278.907 63.352 259.689 65.5218 244.976L91.6011 236.039C102.292 246.35 117.747 258.656 119.274 263.149V263.142Z" fill="#29B593" style="fill:#29B593;fill:color(display-p3 0.1623 0.7083 0.5779);fill-opacity:1;"/>
<path d="M76.8071 205.561L58.2613 211.915C55.2612 212.942 52.1642 203.841 55.1643 202.813L73.7101 196.46C77.2071 195.262 80.3041 204.364 76.8071 205.561Z" fill="#29B593" style="fill:#29B593;fill:color(display-p3 0.1623 0.7083 0.5779);fill-opacity:1;"/>
<path d="M45.8665 199.578C49.7562 198.245 51.8297 193.994 50.4977 190.082C49.1657 186.171 44.9327 184.08 41.043 185.413C37.1533 186.746 35.0798 190.998 36.4117 194.909C37.7437 198.821 41.9767 200.911 45.8665 199.578Z" fill="#29B593" style="fill:#29B593;fill:color(display-p3 0.1623 0.7083 0.5779);fill-opacity:1;"/>
<path d="M94.9346 208.61C97.7791 207.635 99.2955 204.526 98.3217 201.667C97.3479 198.807 94.2526 197.279 91.4081 198.254C88.5637 199.228 87.0472 202.337 88.0211 205.196C88.9949 208.056 92.0902 209.584 94.9346 208.61Z" fill="#29B593" style="fill:#29B593;fill:color(display-p3 0.1623 0.7083 0.5779);fill-opacity:1;"/>
<path d="M48.1379 237.621C50.7574 236.723 52.1539 233.86 51.2569 231.226C50.3599 228.592 47.5092 227.184 44.8896 228.082C42.27 228.979 40.8736 231.842 41.7706 234.476C42.6676 237.111 45.5183 238.518 48.1379 237.621Z" fill="#29B593" style="fill:#29B593;fill:color(display-p3 0.1623 0.7083 0.5779);fill-opacity:1;"/>
<path d="M65.5233 246.49C65.1718 246.49 64.8324 246.369 64.5536 246.137C64.1475 245.797 63.9475 245.268 64.0263 244.745C65.1779 236.963 65.3536 232.051 64.5657 229.728L58.4747 211.836C58.3474 211.453 58.3717 211.039 58.5474 210.674C58.7232 210.31 59.0384 210.036 59.4202 209.908L75.0629 204.546C75.8569 204.272 76.7175 204.698 76.9841 205.494L83.0752 223.387C83.8631 225.703 86.9965 229.485 92.6511 234.939C93.0329 235.303 93.1966 235.844 93.0814 236.361C92.9663 236.878 92.5905 237.298 92.0935 237.468L66.0142 246.405C65.8567 246.46 65.687 246.484 65.5233 246.484V246.49ZM61.8263 212.298L67.4325 228.749C68.3113 231.327 68.2991 235.692 67.3718 242.733L88.7844 235.395C83.76 230.391 81.0873 226.95 80.2085 224.372L74.6083 207.92L61.8324 212.298H61.8263Z" fill="#3DDAB4" style="fill:#3DDAB4;fill:color(display-p3 0.2385 0.8542 0.7071);fill-opacity:1;"/>
<path d="M68.0083 291.292C63.6507 291.292 60.3597 288.659 58.7354 283.887C57.6324 280.652 59.0263 272.675 61.39 259.932C62.3355 254.825 63.3173 249.542 64.0204 244.751C64.1052 244.186 64.4931 243.718 65.0325 243.535L91.1118 234.598C91.6451 234.416 92.2391 234.543 92.6512 234.939C96.13 238.295 100.124 241.863 103.985 245.317C113.639 253.956 119.609 259.416 120.712 262.65C122.864 268.973 120.391 274.037 114.1 276.196L72.2326 290.544C70.7841 291.042 69.3659 291.292 68.0144 291.292H68.0083ZM66.881 246.107C66.178 250.703 65.2628 255.67 64.3658 260.48C62.6446 269.751 60.6991 280.257 61.5961 282.896C62.8022 286.446 64.9598 288.246 68.0022 288.246C69.0144 288.246 70.1053 288.051 71.2387 287.662L113.106 273.314C116.385 272.189 119.864 269.599 117.827 263.629C116.93 260.984 108.973 253.865 101.954 247.584C98.318 244.332 94.5664 240.97 91.2087 237.766L66.875 246.101L66.881 246.107Z" fill="#3DDAB4" style="fill:#3DDAB4;fill:color(display-p3 0.2385 0.8542 0.7071);fill-opacity:1;"/>
<path d="M57.7825 213.514C54.7885 213.514 52.9884 209.367 52.5521 206.753C52.0975 203.999 52.8854 201.986 54.6673 201.378L73.2131 195.025C73.5828 194.897 73.9585 194.837 74.3404 194.837C77.1465 194.837 79.2071 198.162 79.7283 201.293C80.2011 204.139 79.2677 206.327 77.2919 207.002L58.7461 213.356C58.431 213.465 58.1037 213.52 57.7764 213.52L57.7825 213.514ZM74.3464 197.87C74.2979 197.87 74.2494 197.877 74.1949 197.895L55.6491 204.248C55.4612 204.424 55.237 205.707 55.8976 207.641C56.5521 209.556 57.4976 210.431 57.7764 210.468L76.3161 204.114C76.7646 203.962 76.9404 202.977 76.7465 201.78C76.3768 199.548 75.0373 197.864 74.3464 197.864V197.87Z" fill="#3DDAB4" style="fill:#3DDAB4;fill:color(display-p3 0.2385 0.8542 0.7071);fill-opacity:1;"/>
<path d="M69.8504 258.583C69.7595 258.583 69.6686 258.577 69.5716 258.558C68.7474 258.406 68.208 257.61 68.3595 256.789C68.6746 255.081 68.9958 253.354 69.3049 251.64C69.4504 250.813 70.2383 250.266 71.0625 250.411C71.8868 250.563 72.4323 251.354 72.2868 252.175C71.9777 253.895 71.6565 255.628 71.3413 257.342C71.208 258.072 70.5716 258.583 69.8504 258.583Z" fill="#3DDAB4" style="fill:#3DDAB4;fill:color(display-p3 0.2385 0.8542 0.7071);fill-opacity:1;"/>
<path d="M66.9836 282.579C66.3533 282.579 65.7654 282.184 65.5472 281.552C64.8563 279.521 65.0927 275.569 66.3533 267.909C66.4927 267.082 67.2685 266.523 68.0988 266.657C68.9231 266.796 69.4807 267.575 69.3473 268.408C68.9352 270.888 67.6927 278.439 68.414 280.573C68.6867 281.37 68.2624 282.233 67.4685 282.5C67.3049 282.555 67.1412 282.579 66.9776 282.579H66.9836Z" fill="#3DDAB4" style="fill:#3DDAB4;fill:color(display-p3 0.2385 0.8542 0.7071);fill-opacity:1;"/>
<path d="M43.4618 201.5C39.6254 201.5 36.2193 199.05 34.9768 195.402C34.2011 193.128 34.3526 190.684 35.4071 188.526C36.4617 186.368 38.286 184.75 40.5527 183.978C41.486 183.656 42.4618 183.492 43.4437 183.492C47.2801 183.492 50.6862 185.942 51.9287 189.59C52.7044 191.864 52.5529 194.308 51.4984 196.466C50.4438 198.624 48.6195 200.242 46.3528 201.02C45.4194 201.342 44.4437 201.506 43.4618 201.506V201.5ZM43.4437 186.532C42.7952 186.532 42.1527 186.641 41.5345 186.854C40.0375 187.365 38.8254 188.435 38.1284 189.863C37.4314 191.292 37.3284 192.909 37.8435 194.417C38.6678 196.837 40.9224 198.46 43.4618 198.46C44.1103 198.46 44.7528 198.351 45.371 198.138C46.868 197.627 48.0801 196.557 48.7771 195.129C49.4741 193.7 49.5771 192.083 49.0619 190.575C48.2377 188.155 45.9831 186.532 43.4437 186.532Z" fill="#3DDAB4" style="fill:#3DDAB4;fill:color(display-p3 0.2385 0.8542 0.7071);fill-opacity:1;"/>
<path d="M93.1715 210.425C90.1957 210.425 87.5472 208.522 86.5835 205.689C85.9835 203.926 86.0987 202.029 86.9169 200.351C87.7351 198.673 89.1533 197.421 90.9109 196.819C91.6382 196.569 92.3958 196.442 93.1594 196.442C96.1352 196.442 98.7838 198.345 99.7474 201.178C100.99 204.826 99.0444 208.802 95.4201 210.048C94.6928 210.297 93.9352 210.425 93.1715 210.425ZM93.1594 199.488C92.7291 199.488 92.3048 199.561 91.8927 199.7C90.9048 200.041 90.0987 200.746 89.6381 201.695C89.1775 202.643 89.1108 203.713 89.4502 204.71C89.9957 206.309 91.4927 207.385 93.1715 207.385C93.6018 207.385 94.0261 207.312 94.4382 207.172C96.4867 206.473 97.5837 204.224 96.8807 202.163C96.3352 200.564 94.8382 199.488 93.1594 199.488Z" fill="#3DDAB4" style="fill:#3DDAB4;fill:color(display-p3 0.2385 0.8542 0.7071);fill-opacity:1;"/>
<path d="M46.5099 239.413C43.7159 239.413 41.231 237.626 40.3219 234.969C39.7582 233.309 39.8673 231.534 40.637 229.959C41.4067 228.385 42.7401 227.205 44.3886 226.64C45.0735 226.409 45.7826 226.287 46.4977 226.287C49.2917 226.287 51.7766 228.075 52.6857 230.731C53.2494 232.391 53.1403 234.166 52.3706 235.741C51.6009 237.316 50.2736 238.495 48.619 239.061C47.9341 239.292 47.225 239.413 46.5099 239.413ZM46.4977 229.327C46.1159 229.327 45.7341 229.388 45.3705 229.515C44.4856 229.819 43.7704 230.452 43.3583 231.291C42.9462 232.136 42.8856 233.09 43.1886 233.978C43.6735 235.407 45.0068 236.367 46.5038 236.367C46.8856 236.367 47.2675 236.307 47.6311 236.179C48.516 235.875 49.2251 235.243 49.6372 234.404C50.0493 233.558 50.1099 232.604 49.8069 231.71C49.322 230.282 47.9887 229.321 46.4917 229.321L46.4977 229.327Z" fill="#3DDAB4" style="fill:#3DDAB4;fill:color(display-p3 0.2385 0.8542 0.7071);fill-opacity:1;"/>
<g opacity="0.07">
<path d="M609.973 269.895L602.549 258.173C613.658 251.127 617.022 236.469 610.143 225.294L621.955 218.017C632.81 235.648 627.507 258.775 609.973 269.889V269.895Z" fill="black" style="fill:black;fill:black;fill-opacity:1;"/>
<path d="M620.403 209.767L608.591 217.044C608.536 216.953 608.476 216.862 608.421 216.777C604.53 210.63 598.306 206.854 591.633 205.87L593.651 192.135C604.185 193.686 613.997 199.644 620.142 209.341C620.233 209.481 620.318 209.621 620.403 209.767Z" fill="black" style="fill:black;fill:black;fill-opacity:1;"/>
<path d="M600.954 269.117C583.281 280.322 559.874 275.075 548.674 257.395C537.474 239.715 542.716 216.302 560.396 205.097C568.371 200.039 577.517 198.337 586.178 199.614L584.16 213.348C578.669 212.533 572.869 213.615 567.814 216.819C556.614 223.92 553.286 238.761 560.383 249.966C567.487 261.171 582.317 264.496 593.523 257.395L600.948 269.117H600.954Z" fill="black" style="fill:black;fill:black;fill-opacity:1;"/>
</g>
<path d="M604.495 267.068L597.07 255.346C608.18 248.3 611.543 233.642 604.664 222.467L616.477 215.19C627.331 232.821 622.028 255.948 604.495 267.062V267.068Z" fill="white" style="fill:white;fill:white;fill-opacity:1;"/>
<path d="M614.925 206.155L603.112 213.433C603.058 213.342 602.997 213.25 602.942 213.165C599.052 207.019 592.827 203.243 586.154 202.258L588.173 188.524C598.706 190.074 608.518 196.033 614.664 205.73C614.755 205.87 614.84 206.009 614.925 206.155Z" fill="white" style="fill:white;fill:white;fill-opacity:1;"/>
<path d="M594.694 264.734C577.021 275.939 553.615 270.692 542.414 253.012C531.214 235.332 536.457 211.919 554.136 200.714C562.112 195.656 571.257 193.953 579.918 195.23L577.9 208.964C572.409 208.149 566.609 209.232 561.554 212.436C550.354 219.537 547.027 234.377 554.124 245.582C561.227 256.787 576.057 260.113 587.264 253.012L594.688 264.734H594.694Z" fill="#29B593" style="fill:#29B593;fill:color(display-p3 0.1623 0.7083 0.5779);fill-opacity:1;"/>
<path d="M604.493 268.588C603.99 268.588 603.5 268.339 603.215 267.883L595.79 256.161C595.572 255.821 595.505 255.407 595.59 255.012C595.675 254.617 595.918 254.276 596.257 254.058C606.597 247.504 609.791 233.69 603.372 223.264C603.16 222.917 603.094 222.504 603.184 222.115C603.275 221.719 603.524 221.379 603.863 221.172L615.676 213.895C616.385 213.457 617.318 213.676 617.754 214.393C629.003 232.663 623.409 256.866 605.294 268.351C605.039 268.509 604.76 268.588 604.487 268.588H604.493ZM599.136 255.778L604.942 264.946C620.239 254.331 625.045 233.544 615.948 217.299L606.706 222.99C612.718 234.201 609.451 248.336 599.13 255.778H599.136Z" fill="#3DDAB4" style="fill:#3DDAB4;fill:color(display-p3 0.2385 0.8542 0.7071);fill-opacity:1;"/>
<path d="M603.112 214.953C602.603 214.953 602.106 214.697 601.822 214.229L601.676 213.998C598.155 208.435 592.421 204.714 585.93 203.76C585.53 203.699 585.173 203.486 584.936 203.164C584.694 202.842 584.597 202.435 584.651 202.033L586.67 188.299C586.791 187.466 587.567 186.895 588.391 187.016C599.755 188.688 609.797 195.212 615.943 204.915L616.022 205.037C616.088 205.146 616.161 205.256 616.222 205.365C616.652 206.082 616.428 207.013 615.719 207.45L603.906 214.728C603.658 214.88 603.385 214.953 603.112 214.953ZM587.864 201.018C594.227 202.343 599.84 206.034 603.567 211.366L612.81 205.675C607.385 197.625 598.979 192.093 589.439 190.281L587.864 201.018Z" fill="#3DDAB4" style="fill:#3DDAB4;fill:color(display-p3 0.2385 0.8542 0.7071);fill-opacity:1;"/>
<path d="M574.45 272.145C560.856 272.145 548.401 265.299 541.135 253.827C535.504 244.938 533.668 234.39 535.965 224.121C538.262 213.834 544.432 205.067 553.329 199.425C559.65 195.419 566.929 193.297 574.378 193.297C576.299 193.297 578.238 193.437 580.147 193.722C580.547 193.783 580.905 193.996 581.141 194.318C581.384 194.64 581.481 195.048 581.426 195.449L579.408 209.183C579.347 209.584 579.135 209.943 578.814 210.18C578.493 210.417 578.081 210.521 577.687 210.466C576.596 210.302 575.487 210.223 574.384 210.223C570.135 210.223 565.984 211.433 562.377 213.719C557.299 216.941 553.777 221.944 552.468 227.817C551.159 233.678 552.207 239.697 555.42 244.774C559.571 251.322 566.68 255.231 574.444 255.231C578.699 255.231 582.857 254.021 586.469 251.729C587.178 251.279 588.111 251.492 588.56 252.197L595.984 263.919C596.202 264.259 596.269 264.673 596.184 265.068C596.099 265.463 595.857 265.804 595.517 266.022C589.196 270.029 581.911 272.151 574.462 272.151L574.45 272.145ZM574.378 196.337C567.505 196.337 560.783 198.294 554.947 201.991C546.735 207.195 541.044 215.293 538.922 224.784C536.807 234.256 538.498 243.99 543.698 252.191C550.407 262.782 561.905 269.099 574.456 269.099C580.826 269.099 587.069 267.421 592.59 264.229L586.784 255.061C583.002 257.158 578.766 258.259 574.444 258.259C565.638 258.259 557.571 253.82 552.862 246.391C549.214 240.633 548.026 233.794 549.51 227.143C551.001 220.479 554.995 214.795 560.759 211.141C565.487 208.143 571.056 206.782 576.626 207.274L578.202 196.537C576.929 196.403 575.65 196.337 574.378 196.337Z" fill="#3DDAB4" style="fill:#3DDAB4;fill:color(display-p3 0.2385 0.8542 0.7071);fill-opacity:1;"/>
<g opacity="0.05">
<path d="M517.973 336.033H185.821C163.172 336.033 165.984 316.31 165.984 316.31H193.227V109.8C193.227 102.948 198.391 98.8322 204.185 98.8322H499.627C505.427 98.8322 510.566 102.948 510.566 109.824V316.31H537.809C537.809 316.31 540.622 336.033 517.973 336.033Z" fill="black" style="fill:black;fill:black;fill-opacity:1;"/>
</g>
<path d="M479.796 113.193V316.031H359.6C359.6 320.201 354.97 321.667 349.442 321.667H320.327C314.799 321.667 310.169 320.201 310.169 316.031H189.973V113.193H479.796Z" fill="white" style="fill:white;fill:white;fill-opacity:1;"/>
<g opacity="0.07">
<path d="M265.459 260.869H234.482V316.031H265.459V260.869Z" fill="black" style="fill:black;fill:black;fill-opacity:1;"/>
</g>
<g opacity="0.07">
<path d="M327.058 243.591V321.667C321.555 321.661 316.955 320.189 316.955 316.031H296.088V243.591H327.058Z" fill="black" style="fill:black;fill:black;fill-opacity:1;"/>
</g>
<g opacity="0.07">
<path d="M450.267 145.415H419.291V316.031H450.267V145.415Z" fill="black" style="fill:black;fill:black;fill-opacity:1;"/>
</g>
<g opacity="0.07">
<path d="M388.66 187.767V316.037H366.381C366.381 319.831 362.544 321.387 357.689 321.63V187.767H388.66Z" fill="black" style="fill:black;fill:black;fill-opacity:1;"/>
</g>
<path d="M500.959 335.753H168.802C146.153 335.753 148.965 316.031 148.965 316.031H310.168C310.168 320.201 314.798 321.667 320.326 321.667H349.441C354.969 321.667 359.599 320.201 359.599 316.031H520.802C520.802 316.031 523.608 335.753 500.965 335.753H500.959Z" fill="#29B593" style="fill:#29B593;fill:color(display-p3 0.1623 0.7083 0.5779);fill-opacity:1;"/>
<path d="M493.552 109.545V316.037H479.801V113.193H189.977V316.031H176.207V109.52C176.207 102.669 181.377 98.5464 187.171 98.5464H482.613C488.407 98.5464 493.552 102.669 493.552 109.545Z" fill="#29B593" style="fill:#29B593;fill:color(display-p3 0.1623 0.7083 0.5779);fill-opacity:1;"/>
<path d="M500.959 337.273H168.802C161.147 337.273 155.395 335.109 151.704 330.835C146.292 324.573 147.413 316.171 147.468 315.818C147.577 315.07 148.213 314.511 148.965 314.511H310.168C311.004 314.511 311.683 315.192 311.683 316.031C311.683 319.612 317.095 320.147 320.326 320.147H349.441C352.666 320.147 358.078 319.612 358.078 316.031C358.078 315.192 358.757 314.511 359.593 314.511H520.796C521.548 314.511 522.19 315.07 522.293 315.818C522.342 316.171 523.469 324.573 518.057 330.835C514.366 335.109 508.608 337.273 500.959 337.273ZM150.383 317.551C150.329 319.91 150.65 324.986 154.013 328.865C157.104 332.428 162.086 334.233 168.808 334.233H500.959C507.681 334.233 512.656 332.428 515.753 328.865C519.117 324.986 519.438 319.91 519.384 317.551H360.939C360.326 320.122 357.835 323.187 349.441 323.187H320.326C311.932 323.187 309.441 320.122 308.828 317.551H150.377H150.383Z" fill="#3DDAB4" style="fill:#3DDAB4;fill:color(display-p3 0.2385 0.8542 0.7071);fill-opacity:1;"/>
<path d="M349.436 323.187H320.272C311.92 323.174 309.441 320.116 308.829 317.551H189.972C189.136 317.551 188.457 316.87 188.457 316.031V113.192C188.457 112.353 189.136 111.673 189.972 111.673H479.796C480.632 111.673 481.311 112.353 481.311 113.192V316.031C481.311 316.87 480.632 317.551 479.796 317.551H360.933C360.363 319.934 358.157 322.785 350.975 323.144C350.551 323.174 350.066 323.187 349.436 323.187ZM191.481 314.511H310.168C311.005 314.511 311.684 315.192 311.684 316.031C311.684 319.599 317.065 320.141 320.272 320.147H349.436C349.999 320.147 350.418 320.134 350.799 320.11C354.133 319.946 358.078 319.101 358.078 316.031C358.078 315.192 358.757 314.511 359.594 314.511H478.281V114.712H191.487V314.511H191.481Z" fill="#3DDAB4" style="fill:#3DDAB4;fill:color(display-p3 0.2385 0.8542 0.7071);fill-opacity:1;"/>
<path d="M493.554 317.551H479.802C478.966 317.551 478.287 316.87 478.287 316.031V114.712H191.494V316.031C191.494 316.87 190.815 317.551 189.978 317.551H176.209C175.372 317.551 174.693 316.87 174.693 316.031V109.52C174.693 102.395 180.057 97.0265 187.172 97.0265H482.614C488.802 97.0265 495.069 101.325 495.069 109.545V316.037C495.069 316.876 494.39 317.557 493.554 317.557V317.551ZM481.317 314.511H492.039V109.545C492.039 103.325 487.299 100.066 482.614 100.066H187.172C182.475 100.066 177.724 103.313 177.724 109.52V314.511H188.463V113.193C188.463 112.353 189.142 111.673 189.978 111.673H479.802C480.638 111.673 481.317 112.353 481.317 113.193V314.511Z" fill="#3DDAB4" style="fill:#3DDAB4;fill:color(display-p3 0.2385 0.8542 0.7071);fill-opacity:1;"/>
<path d="M336.09 107.575H333.666C332.829 107.575 332.15 106.894 332.15 106.055C332.15 105.216 332.829 104.535 333.666 104.535H336.09C336.926 104.535 337.605 105.216 337.605 106.055C337.605 106.894 336.926 107.575 336.09 107.575Z" fill="#3DDAB4" style="fill:#3DDAB4;fill:color(display-p3 0.2385 0.8542 0.7071);fill-opacity:1;"/>
<path d="M258.67 260.869H227.693V316.031H258.67V260.869Z" fill="white" style="fill:white;fill:white;fill-opacity:1;"/>
<path d="M320.265 243.591V321.667C314.762 321.661 310.162 320.189 310.162 316.031H289.295V243.591H320.265Z" fill="#29B593" style="fill:#29B593;fill:color(display-p3 0.1623 0.7083 0.5779);fill-opacity:1;"/>
<path d="M443.48 145.415H412.504V316.031H443.48V145.415Z" fill="#29B593" style="fill:#29B593;fill:color(display-p3 0.1623 0.7083 0.5779);fill-opacity:1;"/>
<path d="M258.669 317.551H227.693C226.857 317.551 226.178 316.87 226.178 316.031V260.869C226.178 260.03 226.857 259.349 227.693 259.349H258.669C259.506 259.349 260.184 260.03 260.184 260.869V316.031C260.184 316.87 259.506 317.551 258.669 317.551ZM229.208 314.511H257.154V262.389H229.208V314.511Z" fill="#3DDAB4" style="fill:#3DDAB4;fill:color(display-p3 0.2385 0.8542 0.7071);fill-opacity:1;"/>
<path d="M320.265 323.186C311.913 323.174 309.434 320.116 308.822 317.551H289.294C288.458 317.551 287.779 316.87 287.779 316.031V243.591C287.779 242.752 288.458 242.071 289.294 242.071H320.265C321.101 242.071 321.78 242.752 321.78 243.591V321.667C321.78 322.068 321.622 322.457 321.338 322.743C321.053 323.028 320.671 323.186 320.265 323.186ZM290.81 314.511H310.162C310.998 314.511 311.677 315.192 311.677 316.031C311.677 319.077 315.604 319.916 318.75 320.098V245.104H290.81V314.505V314.511Z" fill="#3DDAB4" style="fill:#3DDAB4;fill:color(display-p3 0.2385 0.8542 0.7071);fill-opacity:1;"/>
<path d="M381.873 187.767V316.037H359.593C359.593 319.831 355.757 321.387 350.902 321.63V187.767H381.873Z" fill="white" style="fill:white;fill:white;fill-opacity:1;"/>
<path d="M350.902 323.15C350.514 323.15 350.138 322.998 349.859 322.731C349.556 322.445 349.387 322.044 349.387 321.63V187.767C349.387 186.928 350.066 186.247 350.902 186.247H381.872C382.709 186.247 383.387 186.928 383.387 187.767V316.037C383.387 316.876 382.709 317.557 381.872 317.557H360.932C360.363 319.94 358.157 322.791 350.975 323.15C350.95 323.15 350.926 323.15 350.902 323.15ZM352.417 189.286V319.976C355.278 319.624 358.078 318.621 358.078 316.037C358.078 315.198 358.757 314.517 359.593 314.517H380.357V189.286H352.417Z" fill="#3DDAB4" style="fill:#3DDAB4;fill:color(display-p3 0.2385 0.8542 0.7071);fill-opacity:1;"/>
<path d="M443.474 317.551H412.498C411.661 317.551 410.982 316.87 410.982 316.031V145.415C410.982 144.576 411.661 143.895 412.498 143.895H443.474C444.31 143.895 444.989 144.576 444.989 145.415V316.031C444.989 316.87 444.31 317.551 443.474 317.551ZM414.013 314.511H441.959V146.935H414.013V314.511Z" fill="#3DDAB4" style="fill:#3DDAB4;fill:color(display-p3 0.2385 0.8542 0.7071);fill-opacity:1;"/>
<path d="M607.986 337.273H57.6246C56.7882 337.273 56.1094 336.592 56.1094 335.753C56.1094 334.914 56.7882 334.233 57.6246 334.233H607.986C608.823 334.233 609.502 334.914 609.502 335.753C609.502 336.592 608.823 337.273 607.986 337.273Z" fill="#3DDAB4" style="fill:#3DDAB4;fill:color(display-p3 0.2385 0.8542 0.7071);fill-opacity:1;"/>
<g opacity="0.05">
<path d="M305.393 98.6619H172.36C170.687 98.6619 169.33 100.023 169.33 101.702V217.314C169.33 218.993 170.687 220.354 172.36 220.354H305.393C307.067 220.354 308.424 218.993 308.424 217.314V101.702C308.424 100.023 307.067 98.6619 305.393 98.6619Z" fill="black" style="fill:black;fill:black;fill-opacity:1;"/>
</g>
<path d="M296.606 91.573H163.573C161.9 91.573 160.543 92.934 160.543 94.6129V210.225C160.543 211.904 161.9 213.265 163.573 213.265H296.606C298.28 213.265 299.636 211.904 299.636 210.225V94.6129C299.636 92.934 298.28 91.573 296.606 91.573Z" fill="white" style="fill:white;fill:white;fill-opacity:1;"/>
<path d="M296.606 214.785H163.573C161.064 214.785 159.027 212.742 159.027 210.225V94.6128C159.027 92.0958 161.064 90.053 163.573 90.053H296.606C299.115 90.053 301.151 92.0958 301.151 94.6128V210.225C301.151 212.742 299.115 214.785 296.606 214.785ZM163.573 93.0929C162.737 93.0929 162.058 93.7738 162.058 94.6128V210.225C162.058 211.064 162.737 211.745 163.573 211.745H296.606C297.442 211.745 298.121 211.064 298.121 210.225V94.6128C298.121 93.7738 297.442 93.0929 296.606 93.0929H163.573Z" fill="#3DDAB4" style="fill:#3DDAB4;fill:color(display-p3 0.2385 0.8542 0.7071);fill-opacity:1;"/>
<g opacity="0.07">
<path d="M279.848 157.739C281.593 168.415 278.933 179.766 271.569 188.806C266.847 194.606 260.811 198.692 254.241 200.99L241.338 164.037L279.848 157.739Z" fill="black" style="fill:black;fill:black;fill-opacity:1;"/>
</g>
<g opacity="0.07">
<path d="M202.392 128.07L226.18 159.107L239.083 196.059C226.683 200.4 212.404 198.364 201.495 189.42C184.804 175.747 182.325 151.081 195.955 134.338C197.895 131.955 200.059 129.863 202.392 128.064V128.07Z" fill="black" style="fill:black;fill:black;fill-opacity:1;"/>
</g>
<g opacity="0.07">
<path d="M260.509 118.397C268.606 125.03 273.527 134.113 275.073 143.701L234.508 150.334L209.453 117.643C224.235 106.213 245.436 106.043 260.515 118.397H260.509Z" fill="black" style="fill:black;fill:black;fill-opacity:1;"/>
</g>
<path d="M273.461 153.319C275.206 163.995 272.546 175.346 265.182 184.386C260.461 190.186 254.424 194.272 247.854 196.57L234.951 159.617L273.461 153.319Z" fill="#29B593" style="fill:#29B593;fill:color(display-p3 0.1623 0.7083 0.5779);fill-opacity:1;"/>
<path d="M195.052 126.519L218.84 157.556L231.744 194.509C219.343 198.85 205.064 196.813 194.155 187.87C177.464 174.197 174.985 149.531 188.616 132.787C190.555 130.404 192.719 128.313 195.052 126.513V126.519Z" fill="white" style="fill:white;fill:white;fill-opacity:1;"/>
<path d="M254.12 113.971C262.217 120.604 267.138 129.687 268.684 139.275L228.119 145.908L203.064 113.217C217.847 101.787 239.047 101.617 254.126 113.971H254.12Z" fill="#29B593" style="fill:#29B593;fill:color(display-p3 0.1623 0.7083 0.5779);fill-opacity:1;"/>
<path d="M247.854 198.084C247.229 198.084 246.641 197.695 246.423 197.069L233.52 160.116C233.375 159.69 233.417 159.222 233.647 158.839C233.878 158.45 234.265 158.189 234.708 158.116L273.218 151.817C274.048 151.683 274.824 152.243 274.957 153.069C276.836 164.56 273.703 176.324 266.357 185.341C261.618 191.159 255.393 195.536 248.351 197.999C248.187 198.053 248.017 198.084 247.854 198.084ZM236.981 160.821L248.775 194.6C254.702 192.253 259.945 188.411 264.011 183.42C270.484 175.467 273.424 165.211 272.181 155.064L236.981 160.821Z" fill="#3DDAB4" style="fill:#3DDAB4;fill:color(display-p3 0.2385 0.8542 0.7071);fill-opacity:1;"/>
<path d="M218.817 198.224C209.514 198.224 200.41 194.965 193.192 189.049C175.883 174.865 173.301 149.197 187.44 131.827C189.428 129.389 191.677 127.194 194.125 125.309C194.792 124.799 195.738 124.926 196.247 125.589L220.035 156.626C220.132 156.754 220.211 156.9 220.265 157.052L233.169 194.004C233.302 194.387 233.278 194.801 233.102 195.166C232.926 195.53 232.617 195.81 232.235 195.938C227.914 197.452 223.399 198.218 218.817 198.218V198.224ZM194.792 128.678C192.98 130.191 191.301 131.9 189.792 133.754C176.707 149.823 179.095 173.57 195.113 186.696C201.792 192.168 210.211 195.184 218.823 195.184C222.556 195.184 226.247 194.637 229.805 193.548L217.496 158.292L194.798 128.678H194.792Z" fill="#3DDAB4" style="fill:#3DDAB4;fill:color(display-p3 0.2385 0.8542 0.7071);fill-opacity:1;"/>
<path d="M228.114 147.427C227.648 147.427 227.205 147.215 226.914 146.832L201.859 114.141C201.35 113.478 201.471 112.524 202.138 112.013C209.526 106.298 218.762 103.155 228.144 103.155C237.526 103.155 247.49 106.578 255.084 112.797C263.163 119.412 268.521 128.732 270.182 139.037C270.315 139.864 269.757 140.642 268.927 140.782L228.363 147.415C228.284 147.427 228.199 147.434 228.12 147.434L228.114 147.427ZM205.199 113.515L228.763 144.26L266.915 138.022C265.115 129.048 260.272 120.975 253.163 115.144C246.115 109.368 237.23 106.189 228.144 106.189C219.932 106.189 211.847 108.779 205.205 113.515H205.199Z" fill="#3DDAB4" style="fill:#3DDAB4;fill:color(display-p3 0.2385 0.8542 0.7071);fill-opacity:1;"/>
<g opacity="0.07">
<path d="M104.031 64.6886V73.1082L102.111 75.0425L96.3135 80.8627L93.5533 83.6228C93.5533 83.6228 82.0879 73.8471 82.0879 62.2719C82.0879 58.3077 82.6945 53.7828 82.9978 51.7615C82.1876 57.9643 84.0118 64.054 88.2366 69.5873C89.7142 71.5303 91.4951 73.4124 93.5576 75.1989L104.035 64.6886H104.031Z" fill="black" style="fill:black;fill:black;fill-opacity:1;"/>
</g>
<g opacity="0.07">
<path d="M83.1501 50.7662C83.1458 50.8143 83.1327 50.8843 83.1152 50.9761L83.1501 50.7662Z" fill="black" style="fill:black;fill:black;fill-opacity:1;"/>
</g>
<g opacity="0.07">
<path d="M146.421 52.4701V61.9937C146.421 76.3595 133.296 88 117.095 88C112.757 88 108.645 87.1654 104.936 85.6658C104.286 85.3963 103.636 85.1181 103.017 84.8095V75.2859L104.936 73.3516L110.413 67.8574C111.124 68.0965 111.852 68.3008 112.597 68.4659C112.697 68.4877 112.801 68.5137 112.9 68.5311C113.446 68.6441 114.005 68.7354 114.564 68.805C114.677 68.818 114.79 68.8267 114.902 68.8397C114.92 68.8441 114.937 68.8441 114.95 68.8441C115.084 68.8571 115.219 68.8745 115.353 68.8789C115.5 68.8963 115.643 68.9006 115.79 68.9136C115.903 68.918 116.016 68.9267 116.133 68.931C116.306 68.9441 116.484 68.9441 116.661 68.9484C116.809 68.9484 116.952 68.9528 117.099 68.9528C125.497 68.9528 132.594 64.0149 134.899 57.2341C132.594 50.4489 125.501 45.511 117.099 45.511C111.111 45.511 105.777 48.0278 102.384 51.9354C101.023 53.5003 99.9703 55.2911 99.3117 57.2384C98.7917 55.7258 98.5187 54.1305 98.5187 52.4744C98.5187 52.344 98.5187 52.2223 98.5231 52.0963C98.5231 51.9746 98.5274 51.8529 98.5404 51.7268L87.8203 51.1443C88.6003 37.4044 101.413 26.4681 117.099 26.4681C132.785 26.4681 146.426 38.1129 146.426 52.4744L146.421 52.4701Z" fill="black" style="fill:black;fill:black;fill-opacity:1;"/>
</g>
<path d="M86.9102 46.7629L97.6303 47.3453C97.6433 47.0758 97.6649 46.8107 97.6909 46.5412C97.7082 46.4108 97.7212 46.276 97.7386 46.1456C97.7732 45.8761 97.8166 45.6153 97.8642 45.3589C97.9119 45.0981 97.9682 44.8416 98.0332 44.5852C98.0636 44.4591 98.0982 44.3331 98.1329 44.2027C98.1676 44.0766 98.2066 43.9505 98.2412 43.8245C98.2802 43.6984 98.3192 43.5724 98.3582 43.4507C98.4405 43.2029 98.5272 42.9552 98.6225 42.7117C98.6702 42.59 98.7179 42.4683 98.7699 42.3466C98.8175 42.2293 98.8695 42.1075 98.9259 41.9902C98.9735 41.8815 99.0255 41.7729 99.0775 41.6642C99.0862 41.6425 99.0948 41.6207 99.1078 41.599C99.1598 41.4947 99.2118 41.3903 99.2638 41.286C99.3808 41.0513 99.5065 40.8209 99.6365 40.5949C99.6971 40.4862 99.7621 40.3819 99.8228 40.2732C99.8965 40.1559 99.9701 40.0385 100.048 39.9168C100.117 39.8081 100.191 39.7038 100.26 39.5952C100.403 39.3778 100.559 39.1605 100.715 38.9518C100.793 38.8475 100.876 38.7432 100.958 38.6389C101.131 38.4172 101.313 38.1999 101.504 37.9825C101.669 37.7956 101.833 37.6131 102.002 37.4392C102.189 37.2479 102.375 37.0567 102.57 36.8741C102.665 36.7828 102.761 36.6916 102.86 36.6003C102.96 36.509 103.06 36.4177 103.164 36.3308C103.263 36.2439 103.367 36.1526 103.471 36.07C103.575 35.983 103.679 35.9005 103.788 35.8135C103.892 35.7266 104 35.644 104.108 35.5658C104.217 35.4832 104.329 35.4006 104.438 35.3224C104.65 35.1659 104.871 35.0181 105.092 34.8703C105.218 34.7834 105.348 34.7008 105.478 34.6182C105.59 34.5486 105.698 34.4791 105.811 34.4182C105.928 34.3443 106.049 34.2748 106.166 34.2096C106.288 34.14 106.409 34.0705 106.53 34.0096C106.656 33.9444 106.777 33.8792 106.899 33.814C107.024 33.7488 107.15 33.688 107.271 33.6271C107.371 33.5793 107.471 33.5315 107.57 33.4837C107.739 33.4055 107.913 33.3272 108.086 33.2533C108.199 33.2055 108.311 33.1577 108.428 33.1099C108.55 33.0577 108.675 33.0099 108.797 32.9621C109.07 32.8578 109.347 32.7578 109.624 32.6622C109.759 32.6144 109.897 32.5709 110.032 32.5318C110.032 32.5318 110.036 32.5318 110.04 32.5318C110.17 32.4927 110.296 32.4535 110.426 32.4188C110.539 32.384 110.651 32.3536 110.764 32.3231C110.898 32.2884 111.033 32.2536 111.171 32.2188C111.314 32.184 111.462 32.1493 111.609 32.1145C111.756 32.0797 111.903 32.0493 112.051 32.0232C112.168 31.9971 112.285 31.9754 112.397 31.958C112.579 31.9232 112.757 31.8928 112.943 31.8667C113.095 31.845 113.247 31.8189 113.394 31.8015C113.511 31.7841 113.628 31.7711 113.745 31.7581C114.391 31.6798 115.045 31.6364 115.708 31.619C115.868 31.6146 116.029 31.6146 116.189 31.6146C116.349 31.6146 116.51 31.6146 116.67 31.619C126.71 31.845 134.774 39.1388 134.774 48.0973C134.774 49.7534 134.496 51.353 133.985 52.8613C131.684 59.6421 124.586 64.58 116.189 64.58C116.042 64.58 115.894 64.58 115.747 64.5756C115.569 64.5756 115.392 64.5669 115.218 64.5582C115.101 64.5539 114.989 64.5495 114.876 64.5409C114.733 64.5322 114.586 64.5235 114.443 64.5104C114.308 64.5017 114.174 64.4887 114.044 64.4756C114.027 64.4756 114.009 64.4757 113.992 64.4713C113.879 64.4583 113.771 64.4452 113.658 64.4322C113.095 64.367 112.54 64.2757 111.994 64.1627C111.895 64.141 111.791 64.1192 111.691 64.0975C110.946 63.9323 110.218 63.728 109.512 63.4846L104.035 68.9788L102.111 70.9131C102.739 71.2174 103.38 71.5043 104.035 71.7694C107.601 73.2125 111.553 74.0427 115.712 74.0992C115.873 74.0992 116.033 74.1036 116.193 74.1036C116.354 74.1036 116.514 74.1036 116.674 74.0992C130.822 73.8993 142.53 64.8147 145.021 52.8613C145.342 51.3182 145.511 49.723 145.511 48.0973C145.511 33.7358 132.386 22.091 116.193 22.091C100.503 22.091 87.6901 33.0229 86.9145 46.7672L86.9102 46.7629Z" fill="white" style="fill:white;fill:white;fill-opacity:1;"/>
<path d="M97.6094 48.093C97.6094 49.7491 97.8867 51.3486 98.398 52.857C99.0566 50.914 100.11 49.1231 101.47 47.5583C104.863 43.6506 110.193 41.1339 116.19 41.1339C124.587 41.1339 131.681 46.0761 133.986 52.857C134.501 51.3486 134.774 49.7534 134.774 48.093C134.774 39.1344 126.71 31.8407 116.671 31.6146C116.51 31.6103 116.35 31.6103 116.19 31.6103C116.029 31.6103 115.869 31.6103 115.709 31.6146C115.046 31.632 114.391 31.6755 113.746 31.7537C113.629 31.7668 113.512 31.7842 113.395 31.7972C113.243 31.8146 113.092 31.8407 112.944 31.8624C112.762 31.8928 112.58 31.9233 112.398 31.9537C112.281 31.9754 112.164 31.9971 112.052 32.0189C111.904 32.0493 111.757 32.0797 111.61 32.1102C111.462 32.1406 111.319 32.1754 111.172 32.2145C111.033 32.2493 110.899 32.2797 110.765 32.3188C110.652 32.3492 110.539 32.3797 110.427 32.4144C110.297 32.4492 110.171 32.4883 110.041 32.5274C110.041 32.5274 110.037 32.5274 110.032 32.5274C109.898 32.5709 109.759 32.6144 109.625 32.6578C109.348 32.7491 109.066 32.8491 108.797 32.9578C108.672 33.0056 108.55 33.0534 108.429 33.1056C108.316 33.1534 108.204 33.1968 108.087 33.249C107.909 33.3229 107.74 33.4011 107.571 33.4794C107.472 33.5272 107.372 33.5707 107.272 33.6228C107.147 33.6837 107.021 33.7445 106.9 33.8097C106.774 33.8706 106.653 33.9358 106.531 34.0053C106.41 34.0705 106.289 34.1357 106.167 34.2053C106.05 34.2705 105.929 34.3444 105.812 34.4139C105.699 34.4791 105.591 34.5443 105.478 34.6139C105.348 34.6921 105.218 34.779 105.093 34.866C104.872 35.0094 104.655 35.1615 104.438 35.318C104.33 35.3963 104.217 35.4789 104.109 35.5614C104.001 35.6397 103.897 35.7266 103.788 35.8092C103.684 35.8961 103.576 35.9787 103.472 36.0657C103.368 36.1526 103.264 36.2395 103.164 36.3265C103.06 36.4134 102.961 36.5047 102.861 36.596C102.761 36.6829 102.666 36.7785 102.571 36.8698C102.376 37.0567 102.189 37.2436 102.003 37.4349C101.834 37.6131 101.669 37.7913 101.505 37.9782C101.319 38.1912 101.132 38.4129 100.959 38.6346C100.877 38.7389 100.794 38.8432 100.716 38.9475C100.556 39.1562 100.404 39.3735 100.261 39.5908C100.188 39.6951 100.118 39.8038 100.049 39.9125C99.9709 40.0298 99.8973 40.1472 99.8236 40.2689C99.7629 40.3776 99.6979 40.4819 99.6373 40.5906C99.5029 40.8166 99.3773 41.047 99.2646 41.2817C99.2083 41.386 99.1606 41.4903 99.1086 41.5947C99.0956 41.6164 99.087 41.6381 99.0783 41.6599C99.0263 41.7685 98.9743 41.8772 98.9266 41.9859C98.8703 42.1032 98.8226 42.2249 98.7706 42.3423C98.7186 42.464 98.671 42.5857 98.6233 42.7074C98.5237 42.9508 98.437 43.1986 98.359 43.4463C98.3157 43.5724 98.281 43.6941 98.242 43.8202C98.2073 43.9462 98.1683 44.0723 98.1337 44.1983C98.099 44.3244 98.0687 44.4504 98.034 44.5808C97.969 44.8373 97.9127 45.0937 97.865 45.3545C97.8174 45.6154 97.774 45.8718 97.7394 46.137C97.722 46.2717 97.709 46.4021 97.6917 46.5369C97.6614 46.802 97.6397 47.0715 97.631 47.341C97.6224 47.4627 97.618 47.5888 97.6137 47.7105C97.6094 47.8322 97.6094 47.9626 97.6094 48.0843V48.093Z" fill="white" style="fill:white;fill:white;fill-opacity:1;"/>
<path d="M102.107 70.9044V80.4281C102.736 80.7367 103.377 81.0192 104.031 81.2844C107.736 82.784 111.853 83.6185 116.19 83.6185C132.383 83.6185 145.508 71.9781 145.508 57.6122V48.0886C145.508 49.7143 145.339 51.3095 145.018 52.8526C142.527 64.806 130.819 73.8906 116.671 74.0906C116.511 74.0906 116.35 74.0949 116.19 74.0949C116.03 74.0949 115.869 74.0949 115.709 74.0906C111.549 74.0297 107.597 73.2038 104.031 71.7607C103.377 71.4956 102.731 71.2087 102.107 70.9044Z" fill="white" style="fill:white;fill:white;fill-opacity:1;"/>
<path d="M93.5527 71.0696V79.4891L96.3086 76.7246L102.106 70.9044L104.03 68.9701V60.5549L93.5527 71.0696Z" fill="#29B593" style="fill:#29B593;fill:color(display-p3 0.1623 0.7083 0.5779);fill-opacity:1;"/>
<path d="M82.084 58.1382C82.084 52.8526 83.1586 46.5586 83.1586 46.5586C81.9887 53.1308 83.7652 59.5987 88.2283 65.4493C89.7102 67.3967 91.4868 69.2744 93.5537 71.0609V79.4848C93.5537 79.4848 82.084 69.7135 82.084 58.1338V58.1382Z" fill="#29B593" style="fill:#29B593;fill:color(display-p3 0.1623 0.7083 0.5779);fill-opacity:1;"/>
<path d="M88.2325 65.4537C89.7144 67.401 91.491 69.2788 93.5579 71.0653L104.035 60.5549C103.983 60.5158 103.936 60.4767 103.884 60.4376C103.771 60.3507 103.663 60.2594 103.554 60.1724L103.546 60.1637C103.238 59.9073 102.935 59.6421 102.644 59.364C102.623 59.3466 102.601 59.3248 102.579 59.3031C102.462 59.1944 102.35 59.0814 102.237 58.9684C102.211 58.9423 102.185 58.9162 102.159 58.8902C102.029 58.7554 101.899 58.6207 101.773 58.4816C101.648 58.3468 101.522 58.2077 101.405 58.0686L101.349 58.0078C101.223 57.8643 101.102 57.7122 100.985 57.5644C100.98 57.5601 100.976 57.5557 100.972 57.547C100.868 57.4166 100.764 57.2775 100.664 57.1384C100.56 56.9993 100.461 56.8646 100.365 56.7212C100.3 56.6342 100.24 56.5429 100.183 56.456C100.118 56.3604 100.058 56.2691 99.9969 56.1691C99.9362 56.0735 99.8756 55.9779 99.8192 55.8822C99.7672 55.7997 99.7196 55.7171 99.6719 55.6345C99.3816 55.139 99.1216 54.6261 98.8919 54.1001C98.8443 54.0001 98.8009 53.8958 98.7619 53.7915C98.632 53.4829 98.515 53.1699 98.4066 52.8526C97.891 51.3443 97.618 49.7491 97.618 48.0886C97.618 47.9626 97.618 47.8365 97.6223 47.7148C97.6267 47.5931 97.631 47.467 97.6397 47.3453L86.9196 46.7629L83.1671 46.5629C83.1498 46.6542 83.1324 46.7498 83.1194 46.8411C83.0934 46.9802 83.0718 47.1193 83.0545 47.2627C83.0371 47.3584 83.0241 47.454 83.0111 47.5496C82.1792 53.7828 83.9991 59.8942 88.2368 65.4537H88.2325Z" fill="#29B593" style="fill:#29B593;fill:color(display-p3 0.1623 0.7083 0.5779);fill-opacity:1;"/>
<path d="M116.194 75.1859C116.038 75.1859 115.882 75.1859 115.73 75.1816C111.497 75.1207 107.437 74.3122 103.632 72.7735C102.969 72.5084 102.298 72.2084 101.639 71.8868C101.323 71.7347 101.102 71.4347 101.046 71.0913C100.989 70.7436 101.102 70.3915 101.349 70.1438L108.75 62.7153C109.04 62.424 109.473 62.3241 109.863 62.4545C110.535 62.6848 111.233 62.8804 111.93 63.0326C112.017 63.0543 112.099 63.0673 112.177 63.0847C112.741 63.1977 113.274 63.2847 113.794 63.3499L114.127 63.389C114.127 63.389 114.153 63.389 114.175 63.3933C114.292 63.4064 114.413 63.4151 114.534 63.4281C114.677 63.4412 114.812 63.4498 114.942 63.4585C115.059 63.4672 115.163 63.4716 115.262 63.4759C115.449 63.4846 115.609 63.4933 115.769 63.4933C115.912 63.4933 116.055 63.4977 116.194 63.4977C123.872 63.4977 130.766 58.9814 132.963 52.5136C133.448 51.0878 133.695 49.6013 133.695 48.1017C133.695 39.8255 126.048 32.923 116.649 32.71C116.489 32.7057 116.341 32.7057 116.194 32.7057C116.038 32.7057 115.895 32.7057 115.748 32.71C115.093 32.7274 114.469 32.7709 113.88 32.8404C113.772 32.8534 113.677 32.8665 113.577 32.8795L113.534 32.8839C113.395 32.9013 113.256 32.923 113.118 32.9447C112.944 32.9708 112.775 33.0012 112.606 33.0317C112.498 33.049 112.394 33.0708 112.294 33.0925C112.13 33.1229 111.991 33.1534 111.857 33.1838C111.718 33.2142 111.584 33.249 111.445 33.2838C111.311 33.3185 111.185 33.349 111.059 33.3837C110.955 33.4142 110.851 33.4402 110.747 33.4707C110.635 33.5011 110.539 33.5315 110.444 33.562L110.383 33.5793C110.383 33.5793 110.375 33.5793 110.37 33.5793C110.249 33.6185 110.123 33.6576 110.002 33.701C109.729 33.7923 109.465 33.8836 109.213 33.9836C109.092 34.0314 108.984 34.0749 108.875 34.1183C108.754 34.1705 108.646 34.214 108.542 34.2574C108.364 34.3313 108.212 34.4009 108.056 34.4748C107.957 34.5226 107.866 34.566 107.771 34.6095C107.649 34.666 107.537 34.7225 107.42 34.7834C107.29 34.8486 107.181 34.9094 107.064 34.9703C106.947 35.0355 106.835 35.0963 106.722 35.1615C106.609 35.2267 106.501 35.2919 106.388 35.3571C106.267 35.4267 106.167 35.4875 106.068 35.5527C105.942 35.631 105.825 35.7092 105.712 35.7831C105.496 35.9266 105.292 36.0657 105.088 36.2134L104.997 36.2786C104.924 36.3308 104.854 36.3873 104.781 36.4395C104.668 36.5221 104.577 36.5959 104.482 36.6698L104.391 36.7437C104.321 36.8002 104.256 36.8524 104.187 36.9089C104.079 37.0002 103.983 37.0784 103.888 37.161C103.784 37.248 103.697 37.3305 103.606 37.4131C103.52 37.4914 103.455 37.5522 103.39 37.6174L103.325 37.6783C103.147 37.8478 102.965 38.0304 102.787 38.2129C102.631 38.3737 102.48 38.5433 102.328 38.7128C102.15 38.9127 101.981 39.117 101.821 39.3213L101.579 39.6343C101.44 39.8169 101.301 40.0125 101.167 40.2124C101.089 40.3298 101.024 40.4254 100.963 40.521C100.89 40.634 100.82 40.7427 100.755 40.8514L100.582 41.1513C100.456 41.3686 100.344 41.5816 100.231 41.7946C100.188 41.8772 100.153 41.9511 100.114 42.025L100.079 42.0989C100.075 42.1163 100.066 42.1293 100.058 42.1467C100.01 42.251 99.9623 42.351 99.9146 42.4553C99.8669 42.564 99.8193 42.6726 99.7759 42.7813C99.7239 42.903 99.6806 43.0117 99.6373 43.1203C99.5463 43.3551 99.464 43.5811 99.386 43.8115C99.347 43.9288 99.3123 44.0462 99.2733 44.1636L99.165 44.5504C99.139 44.6547 99.1086 44.759 99.087 44.8634C99.0306 45.0981 98.9786 45.3372 98.931 45.5806C98.8877 45.8109 98.8487 46.0413 98.8183 46.276C98.8183 46.2847 98.8183 46.2891 98.8183 46.2978L98.7707 46.689C98.7447 46.9194 98.7273 47.1671 98.7143 47.4149C98.7013 47.7061 98.5713 47.9756 98.359 48.1712C98.1424 48.3668 97.865 48.4668 97.5747 48.4494L86.8546 47.8669C86.5686 47.8496 86.3 47.7235 86.105 47.5062C85.9143 47.2888 85.8147 47.0063 85.832 46.7194C86.6466 32.2884 99.9839 21 116.194 21C132.404 21 146.595 33.1534 146.595 48.093C146.595 49.7708 146.422 51.4486 146.084 53.0786C143.454 65.684 131.091 74.9773 116.688 75.1816C116.502 75.1816 116.346 75.1859 116.194 75.1859ZM103.979 70.5654C104.131 70.6306 104.287 70.6914 104.438 70.7566C107.996 72.1954 111.796 72.9517 115.73 73.0082C116.086 73.0126 116.337 73.0126 116.623 73.0082C130.056 72.817 141.538 64.2496 143.961 52.6309C144.273 51.1443 144.429 49.6187 144.429 48.0886C144.429 34.3487 131.763 23.169 116.194 23.169C101.548 23.169 89.4285 32.9925 88.0809 45.7327L96.6431 46.1978L96.6604 46.0413C96.6604 46.0413 96.6604 46.0066 96.6648 45.9892C96.7038 45.7066 96.7471 45.4284 96.7991 45.1503C96.8511 44.8721 96.9118 44.5982 96.9768 44.3244C97.0071 44.2027 97.0374 44.0853 97.0678 43.9679L97.1977 43.5159C97.2454 43.3638 97.2844 43.2334 97.3277 43.0986C97.4144 42.8335 97.5097 42.5683 97.6137 42.3075C97.6614 42.1815 97.7177 42.0467 97.774 41.9163C97.8217 41.7946 97.878 41.6642 97.9387 41.5338C97.982 41.4338 98.034 41.3295 98.0817 41.2295C98.099 41.1817 98.125 41.1339 98.151 41.0861L98.177 41.0339C98.2204 40.947 98.2637 40.8601 98.3114 40.7731C98.4327 40.5297 98.567 40.2819 98.71 40.0385L98.892 39.7256C98.983 39.5734 99.0653 39.4474 99.1476 39.317C99.217 39.2083 99.2906 39.0996 99.3686 38.9866C99.5246 38.7476 99.6936 38.5128 99.8669 38.2868L99.9536 38.1738C100.01 38.0999 100.066 38.026 100.123 37.9565C100.3 37.7261 100.5 37.4914 100.699 37.261C100.872 37.061 101.05 36.8654 101.232 36.6785C101.427 36.4786 101.626 36.2786 101.825 36.083L101.89 36.0222C101.977 35.9396 102.064 35.857 102.155 35.7788C102.241 35.6962 102.354 35.5962 102.467 35.5006C102.566 35.4136 102.675 35.3224 102.787 35.2267C102.861 35.1659 102.943 35.0963 103.03 35.0311L103.112 34.9659C103.229 34.8703 103.351 34.779 103.472 34.6877C103.541 34.6356 103.624 34.5747 103.706 34.5139L103.797 34.4487C104.031 34.2792 104.265 34.1183 104.499 33.9662C104.629 33.8793 104.772 33.7836 104.919 33.6924C105.028 33.6228 105.149 33.5489 105.27 33.4794C105.379 33.4098 105.509 33.3359 105.639 33.262C105.764 33.1881 105.894 33.1142 106.029 33.0447C106.154 32.9752 106.289 32.9056 106.419 32.8404C106.54 32.7752 106.674 32.71 106.809 32.6448C106.908 32.597 107.017 32.5448 107.121 32.497C107.298 32.4144 107.485 32.3275 107.68 32.2493C107.784 32.2058 107.905 32.1536 108.026 32.1058C108.143 32.0537 108.282 32.0015 108.425 31.9493C108.698 31.8407 108.997 31.7363 109.291 31.6364C109.421 31.5929 109.564 31.5451 109.707 31.5016C109.716 31.5016 109.725 31.4973 109.733 31.4929L109.807 31.4712C109.915 31.4364 110.028 31.406 110.136 31.3756C110.245 31.3451 110.362 31.3104 110.483 31.2756C110.626 31.2365 110.769 31.2017 110.916 31.1669C111.059 31.1322 111.211 31.093 111.367 31.0583C111.527 31.0235 111.688 30.9887 111.848 30.9583C111.948 30.9366 112.082 30.9105 112.212 30.8887C112.394 30.854 112.585 30.8235 112.78 30.7931C112.94 30.767 113.105 30.7409 113.265 30.7236C113.404 30.7062 113.516 30.6888 113.625 30.6801C114.275 30.6019 114.972 30.554 115.683 30.5367C116.008 30.528 116.359 30.528 116.701 30.5367C127.438 30.7757 135.853 38.4911 135.853 48.1017C135.853 49.8447 135.567 51.566 135.004 53.2177C132.474 60.668 124.912 65.671 116.185 65.671C116.034 65.671 115.878 65.671 115.726 65.6667C115.535 65.6667 115.345 65.658 115.154 65.6449C115.033 65.6406 114.916 65.6362 114.799 65.6275C114.66 65.6188 114.5 65.6102 114.344 65.5928C114.214 65.5841 114.075 65.571 113.932 65.5536C113.928 65.5536 113.924 65.5536 113.919 65.5536C113.889 65.5536 113.863 65.5493 113.833 65.545L113.529 65.5102C112.949 65.4406 112.359 65.345 111.774 65.2276C111.636 65.2016 111.536 65.1798 111.441 65.1581C110.895 65.0364 110.344 64.8929 109.803 64.7278L103.975 70.5784L103.979 70.5654Z" fill="#3DDAB4" style="fill:#3DDAB4;fill:color(display-p3 0.2385 0.8542 0.7071);fill-opacity:1;"/>
<path d="M98.4016 53.9393C97.938 53.9393 97.5263 53.6437 97.3747 53.2047C96.8114 51.5529 96.5254 49.8317 96.5254 48.0886C96.5254 47.9582 96.5254 47.8235 96.5297 47.6887C96.5297 47.5496 96.5384 47.4062 96.5471 47.2671C96.5557 47.0367 96.5774 46.7585 96.6121 46.4195L96.6554 46.0413C96.6554 46.0413 96.6554 46.0153 96.6554 45.9979C96.69 45.711 96.7377 45.4285 96.794 45.1503C96.8417 44.8895 96.9024 44.6113 96.976 44.3113C97.002 44.2027 97.0324 44.0853 97.067 43.9636L97.1927 43.5116C97.2404 43.3594 97.2794 43.229 97.3227 43.0943C97.4137 42.8161 97.509 42.5509 97.613 42.2945C97.6563 42.1771 97.7127 42.0467 97.769 41.912C97.8167 41.7903 97.8773 41.6599 97.9336 41.5295C97.977 41.4295 98.029 41.3252 98.0766 41.2252C98.094 41.1774 98.12 41.1296 98.146 41.0818L98.172 41.0296C98.2153 40.9427 98.2586 40.8557 98.302 40.7688C98.432 40.508 98.5663 40.2602 98.7049 40.0255L98.8826 39.7169C98.9736 39.5648 99.0559 39.4387 99.1383 39.3083C99.2076 39.1996 99.2812 39.091 99.3592 38.978C99.5152 38.7389 99.6842 38.5042 99.8575 38.2781L99.9442 38.1651C100.001 38.0912 100.057 38.0173 100.113 37.9478C100.291 37.7174 100.49 37.487 100.69 37.2523C100.863 37.0524 101.04 36.8568 101.222 36.6699C101.417 36.4699 101.617 36.27 101.816 36.0744L101.881 36.0135C101.968 35.9309 102.054 35.8483 102.145 35.7701C102.232 35.6875 102.345 35.5875 102.457 35.4919C102.557 35.405 102.665 35.3137 102.778 35.2181C102.852 35.1572 102.934 35.0877 103.021 35.0181L103.103 34.9529C103.22 34.8573 103.341 34.766 103.463 34.6747C103.532 34.6226 103.614 34.5617 103.697 34.5009L103.788 34.4357C104.026 34.2618 104.26 34.0966 104.498 33.9445C104.615 33.8619 104.758 33.7706 104.906 33.6793C105.014 33.6098 105.135 33.5359 105.257 33.4663C105.365 33.3968 105.495 33.3229 105.625 33.249C105.751 33.1751 105.881 33.1012 106.015 33.0317C106.141 32.9621 106.275 32.8926 106.405 32.8274C106.526 32.7622 106.661 32.697 106.795 32.6318C106.895 32.584 107.003 32.5318 107.107 32.484C107.284 32.4014 107.471 32.3145 107.666 32.2362C107.77 32.1928 107.891 32.1406 108.012 32.0928C108.129 32.0406 108.268 31.9885 108.411 31.9363C108.684 31.8276 108.983 31.7233 109.278 31.6233C109.408 31.5799 109.551 31.5321 109.694 31.4886C109.702 31.4886 109.711 31.4842 109.72 31.4799L109.793 31.4582C109.906 31.4234 110.014 31.393 110.127 31.3582C110.235 31.3278 110.352 31.293 110.474 31.2582C110.617 31.2191 110.76 31.1843 110.907 31.1495C111.05 31.1148 111.202 31.0757 111.358 31.0409C111.518 31.0061 111.678 30.9713 111.839 30.9409C111.956 30.9192 112.077 30.8931 112.203 30.8714C112.385 30.8366 112.575 30.8062 112.77 30.7757C112.931 30.7497 113.095 30.7236 113.255 30.7062C113.394 30.6888 113.507 30.6714 113.615 30.6627C114.265 30.5845 114.963 30.5367 115.673 30.5193C115.998 30.5106 116.349 30.5106 116.692 30.5193C127.429 30.7583 135.844 38.4737 135.844 48.0843C135.844 49.8273 135.558 51.5486 134.995 53.2003C134.843 53.6394 134.431 53.9349 133.968 53.9349C133.504 53.9349 133.092 53.6394 132.941 53.2003C130.744 46.7325 123.85 42.2119 116.172 42.2119C110.677 42.2119 105.612 44.4157 102.271 48.2625C100.975 49.7534 100.009 51.4139 99.4069 53.196C99.2596 53.635 98.8436 53.9306 98.38 53.9349L98.4016 53.9393ZM98.8176 46.25C98.8176 46.25 98.8176 46.2674 98.8176 46.2761L98.7699 46.6673C98.7439 46.8976 98.7223 47.1367 98.7136 47.3845C98.7049 47.5192 98.7006 47.6279 98.6963 47.7365C98.6963 47.8539 98.6919 47.9713 98.6919 48.0886C98.6919 48.5494 98.7136 49.0101 98.7613 49.4665C99.3029 48.545 99.9355 47.667 100.655 46.8368C104.407 42.5162 110.071 40.0429 116.189 40.0429C123.664 40.0429 130.285 43.7159 133.621 49.4535C133.664 49.0014 133.69 48.545 133.69 48.0886C133.69 39.8125 126.042 32.91 116.644 32.697C116.484 32.6926 116.336 32.6926 116.189 32.6926C116.037 32.6926 115.89 32.6926 115.743 32.697C115.088 32.7144 114.464 32.7578 113.875 32.8274C113.767 32.8404 113.671 32.8535 113.572 32.8665C113.572 32.8665 113.528 32.8708 113.524 32.8708C113.385 32.8882 113.247 32.91 113.108 32.9317C112.935 32.9578 112.766 32.9882 112.597 33.0186C112.48 33.0404 112.372 33.0621 112.263 33.0838C112.12 33.1099 111.982 33.1403 111.847 33.1708C111.709 33.2012 111.574 33.236 111.436 33.2707C111.301 33.3055 111.176 33.3359 111.05 33.3707C110.946 33.4011 110.842 33.4272 110.738 33.4576C110.625 33.4881 110.53 33.5185 110.43 33.5489L110.37 33.5663C110.37 33.5663 110.361 33.5663 110.357 33.5663C110.235 33.6054 110.11 33.6446 109.988 33.688C109.715 33.7793 109.451 33.8706 109.2 33.9706C109.078 34.0184 108.97 34.0618 108.862 34.1053C108.736 34.1575 108.632 34.2009 108.528 34.2444C108.35 34.3183 108.199 34.3878 108.043 34.4617C107.943 34.5095 107.852 34.553 107.757 34.5965C107.635 34.653 107.523 34.7095 107.406 34.7703C107.276 34.8355 107.167 34.8964 107.05 34.9573C106.934 35.0225 106.821 35.0833 106.708 35.1485C106.596 35.2137 106.487 35.2789 106.375 35.3441C106.253 35.4137 106.154 35.4745 106.054 35.5397C105.924 35.618 105.811 35.6962 105.699 35.7701C105.473 35.9135 105.274 36.057 105.075 36.2004L104.984 36.2656C104.91 36.3178 104.841 36.3743 104.767 36.4264C104.654 36.509 104.563 36.5829 104.468 36.6568L104.377 36.7307C104.308 36.7872 104.243 36.8394 104.173 36.8959C104.065 36.9872 103.97 37.0654 103.874 37.148C103.77 37.2349 103.684 37.3175 103.593 37.4001C103.506 37.4783 103.441 37.5392 103.376 37.6044L103.315 37.6652C103.138 37.8348 102.956 38.0173 102.778 38.1999C102.622 38.3607 102.47 38.5302 102.319 38.6998C102.141 38.8997 101.972 39.104 101.812 39.3083L101.569 39.6213C101.43 39.8038 101.292 39.9994 101.157 40.1994C101.079 40.3167 101.014 40.4124 100.954 40.508C100.88 40.621 100.811 40.7297 100.746 40.8383L100.573 41.1383C100.451 41.3426 100.343 41.5425 100.226 41.7729C100.178 41.8642 100.144 41.9381 100.105 42.0076L100.066 42.0815C100.061 42.0989 100.053 42.1119 100.044 42.1293C99.9962 42.2336 99.9485 42.3336 99.9009 42.4379C99.8489 42.5466 99.8056 42.6553 99.7622 42.7639C99.7102 42.8856 99.6669 42.9943 99.6236 43.103C99.5282 43.342 99.4502 43.5637 99.3766 43.7854C99.3332 43.9115 99.2986 44.0288 99.2639 44.1462L99.1556 44.5287C99.1296 44.633 99.0993 44.7373 99.0733 44.8416C99.0126 45.0807 98.9606 45.3111 98.9216 45.5502C98.8783 45.7892 98.8393 46.0196 98.8089 46.25H98.8176Z" fill="#3DDAB4" style="fill:#3DDAB4;fill:color(display-p3 0.2385 0.8542 0.7071);fill-opacity:1;"/>
<path d="M116.194 84.7095C111.813 84.7095 107.588 83.8967 103.628 82.2928C102.939 82.0146 102.267 81.7146 101.63 81.4017C101.257 81.2191 101.023 80.841 101.023 80.4237V70.9001C101.023 70.5262 101.214 70.1785 101.53 69.9786C101.847 69.7786 102.241 69.7569 102.579 69.9221C103.194 70.222 103.818 70.5002 104.434 70.7479C107.991 72.1867 111.791 72.943 115.726 72.9995C116.081 73.0039 116.332 73.0039 116.618 72.9995C130.051 72.8083 141.534 64.2409 143.956 52.6222C144.268 51.1356 144.424 49.6099 144.424 48.0799C144.424 47.4801 144.909 46.9932 145.507 46.9932C146.105 46.9932 146.59 47.4801 146.59 48.0799V57.6035C146.59 72.5431 132.95 84.6965 116.189 84.6965L116.194 84.7095ZM103.19 79.7412C103.593 79.9282 104.009 80.1064 104.438 80.2759C108.138 81.7755 112.095 82.5318 116.194 82.5318C131.554 82.5318 144.086 71.652 144.424 58.1686C139.948 68.1095 129.072 75.0033 116.688 75.1772C116.315 75.1816 116.038 75.1816 115.726 75.1772C111.492 75.1164 107.432 74.3079 103.628 72.7691C103.485 72.7126 103.337 72.6518 103.19 72.5866V79.7369V79.7412Z" fill="#3DDAB4" style="fill:#3DDAB4;fill:color(display-p3 0.2385 0.8542 0.7071);fill-opacity:1;"/>
<path d="M93.554 80.5759C93.4153 80.5759 93.2723 80.5498 93.138 80.4933C92.735 80.3238 92.4707 79.9282 92.4707 79.4892V71.0697C92.4707 70.7828 92.5834 70.5046 92.787 70.3003L103.264 59.7856C103.572 59.477 104.04 59.3814 104.443 59.5509C104.846 59.7204 105.11 60.116 105.11 60.555V68.9746C105.11 69.2614 104.998 69.5396 104.794 69.7439L94.3166 80.2586C94.1086 80.4672 93.8313 80.5759 93.5496 80.5759H93.554ZM94.6373 71.5174V76.8638L102.948 68.5225V63.1804L94.6373 71.5174Z" fill="#3DDAB4" style="fill:#3DDAB4;fill:color(display-p3 0.2385 0.8542 0.7071);fill-opacity:1;"/>
<path d="M93.553 80.5758C93.3017 80.5758 93.0504 80.4889 92.851 80.3194C92.3657 79.9064 81 70.0829 81 58.1425C81 53.9436 81.6673 49.1275 81.9533 47.241C81.9923 46.9498 82.0399 46.6629 82.0919 46.3717C82.1959 45.7805 82.7592 45.3893 83.3442 45.4936C83.9335 45.598 84.3278 46.1587 84.2238 46.7455C84.2238 46.7498 84.1718 47.0454 84.0938 47.554C83.2532 53.5481 84.9345 59.3466 89.0856 64.793C90.5242 66.6838 92.2661 68.5138 94.2593 70.2437C94.4976 70.448 94.6363 70.7523 94.6363 71.0653V79.4892C94.6363 79.9108 94.3893 80.2976 94.008 80.4759C93.865 80.5454 93.709 80.5758 93.553 80.5758ZM83.1709 58.5424C83.3659 66.5882 89.3846 73.7819 92.4697 76.9507V71.5608C90.5198 69.8308 88.8039 68.0008 87.3653 66.1144C85.5194 63.6889 84.1155 61.1504 83.1709 58.5424Z" fill="#3DDAB4" style="fill:#3DDAB4;fill:color(display-p3 0.2385 0.8542 0.7071);fill-opacity:1;"/>
<path d="M93.5523 72.1563C93.4136 72.1563 93.2706 72.1302 93.1363 72.0737C93.0063 72.0216 92.8893 71.9433 92.794 71.8477C90.7098 70.0351 88.8812 68.1052 87.3689 66.1144C82.9535 60.3202 81.0729 53.8524 81.9309 47.4062C81.9439 47.3019 81.9612 47.1932 81.9786 47.0889C81.9959 46.9585 82.0176 46.8151 82.0436 46.6673C82.0522 46.5977 82.0652 46.5325 82.0782 46.463L82.0912 46.3804C82.1822 45.837 82.6849 45.4458 83.2178 45.4763L97.6904 46.263C97.9807 46.2804 98.2494 46.4108 98.4444 46.6281C98.6393 46.8455 98.7347 47.1324 98.713 47.4192C98.7043 47.5236 98.7 47.6322 98.7 47.7409C98.7 47.8583 98.6957 47.9756 98.6957 48.093C98.6957 49.5969 98.9427 51.0792 99.428 52.5049C99.5276 52.8005 99.6403 53.096 99.7573 53.3742C99.8006 53.4785 99.8353 53.5655 99.8743 53.6524C100.087 54.1349 100.329 54.613 100.607 55.0912C100.654 55.1781 100.693 55.2433 100.737 55.3128C100.797 55.4172 100.849 55.4998 100.906 55.5867C100.971 55.691 101.023 55.7736 101.079 55.8562C101.135 55.9431 101.183 56.0127 101.235 56.0866C101.343 56.2474 101.434 56.3691 101.525 56.4908C101.625 56.6255 101.716 56.7516 101.816 56.869C101.82 56.8777 101.829 56.882 101.833 56.8907C101.946 57.0298 102.058 57.1689 102.171 57.3036L102.214 57.3558C102.335 57.4949 102.444 57.6209 102.561 57.7426C102.691 57.8861 102.808 58.0078 102.929 58.1339L102.998 58.2077C103.102 58.3121 103.211 58.4207 103.315 58.5207C103.328 58.5337 103.375 58.5772 103.388 58.5859C103.64 58.825 103.913 59.0684 104.229 59.3292C104.238 59.3379 104.246 59.3466 104.259 59.3553L104.277 59.3683C104.363 59.4379 104.45 59.5118 104.537 59.577C104.597 59.6248 104.636 59.6595 104.68 59.69C104.931 59.8769 105.087 60.1681 105.109 60.4811C105.13 60.794 105.018 61.1026 104.792 61.3243L94.3149 71.839C94.1069 72.0476 93.8296 72.1563 93.5479 72.1563H93.5523ZM84.0758 47.7018C83.2872 53.6437 84.9727 59.3944 89.0892 64.7973C90.3415 66.4447 91.8277 68.0487 93.5089 69.5787L102.418 60.6376C102.236 60.4811 102.067 60.3246 101.907 60.1725C101.876 60.1464 101.842 60.1116 101.811 60.0812C101.707 59.9855 101.586 59.8638 101.465 59.7378C101.43 59.703 101.391 59.6639 101.352 59.6204C101.239 59.5031 101.101 59.3596 100.966 59.2118C100.841 59.0771 100.706 58.925 100.576 58.7728L100.533 58.725C100.394 58.5598 100.264 58.4033 100.139 58.2425C100.139 58.2382 100.13 58.2295 100.126 58.2251C100.009 58.0817 99.8959 57.9296 99.7876 57.7818C99.6793 57.6383 99.5666 57.4862 99.4626 57.3297C99.4106 57.2602 99.3413 57.1558 99.272 57.0515C99.2113 56.9559 99.1377 56.8516 99.0727 56.7473C99.0163 56.656 98.947 56.5517 98.882 56.443C98.8343 56.3647 98.7737 56.2648 98.7217 56.1691C98.414 55.6388 98.128 55.0825 97.894 54.5435C97.8464 54.4435 97.7987 54.3218 97.7511 54.2044C97.6211 53.8958 97.4911 53.5524 97.3741 53.2134C96.8411 51.6486 96.5595 50.0273 96.5291 48.3799L84.0801 47.7061L84.0758 47.7018Z" fill="#3DDAB4" style="fill:#3DDAB4;fill:color(display-p3 0.2385 0.8542 0.7071);fill-opacity:1;"/>
</g>
<defs>
<clipPath id="clip0_1030_1402">
<rect width="651" height="366" fill="white" style="fill:white;fill:white;fill-opacity:1;"/>
</clipPath>
</defs>
</svg>
