<svg width="62" height="62" viewBox="0 0 62 62" fill="none" xmlns="http://www.w3.org/2000/svg">
<rect width="62" height="62" rx="14" fill="#FEEDDA" style="fill:#FEEDDA;fill:color(display-p3 0.9961 0.9294 0.8549);fill-opacity:1;"/>
<path fill-rule="evenodd" clip-rule="evenodd" d="M29.25 14.8125C27.0754 14.8125 25.3125 16.5754 25.3125 18.75V20.5C25.3125 21.2249 24.7249 21.8125 24 21.8125C23.2751 21.8125 22.6875 21.2249 22.6875 20.5V18.75C22.6875 15.1256 25.6256 12.1875 29.25 12.1875H32.75C36.3744 12.1875 39.3125 15.1256 39.3125 18.75V20.5C39.3125 21.2249 38.7249 21.8125 38 21.8125C37.2751 21.8125 36.6875 21.2249 36.6875 20.5V18.75C36.6875 16.5754 34.9246 14.8125 32.75 14.8125H29.25Z" fill="#FAA745" style="fill:#FAA745;fill:color(display-p3 0.9804 0.6549 0.2706);fill-opacity:1;"/>
<path opacity="0.4" d="M13.5 27.5C13.5 23.634 16.634 20.5 20.5 20.5H41.5C45.366 20.5 48.5 23.634 48.5 27.5V41.5C48.5 45.366 45.366 48.5 41.5 48.5H20.5C16.634 48.5 13.5 45.366 13.5 41.5V27.5Z" fill="#FAA745" style="fill:#FAA745;fill:color(display-p3 0.9804 0.6549 0.2706);fill-opacity:1;"/>
<path d="M20.5 20.5H41.5C45.366 20.5 48.5 23.634 48.5 27.5C48.5 27.5 44.4206 31.4922 34.0874 31.9564C33.8235 31.9683 33.5984 31.7677 33.5267 31.5134C33.2156 30.4107 32.2022 29.6026 31 29.6026C29.8351 29.6026 28.8475 30.3614 28.5043 31.4116C28.4225 31.6619 28.1909 31.8527 27.9284 31.8318C17.5734 31.0079 13.5 27.5 13.5 27.5C13.5 23.634 16.634 20.5 20.5 20.5Z" fill="#FAA745" style="fill:#FAA745;fill:color(display-p3 0.9804 0.6549 0.2706);fill-opacity:1;"/>
<rect x="29.6875" y="31" width="2.625" height="4.88955" rx="1.3125" fill="#FAA745" style="fill:#FAA745;fill:color(display-p3 0.9804 0.6549 0.2706);fill-opacity:1;"/>
</svg>
