<svg width="643" height="392" viewBox="0 0 643 392" fill="none" xmlns="http://www.w3.org/2000/svg">
<g clip-path="url(#clip0_2203_3435)">
<path d="M90.886 354.301H552.2C562.715 354.301 571.235 344.98 571.233 333.482L571.158 20.8173C571.156 9.32113 562.628 0 552.114 0H90.8002C80.2866 0 71.7645 9.31904 71.7666 20.8173L71.844 333.482C71.8461 344.98 80.3724 354.301 90.888 354.301H90.886Z" fill="#F1F2F3"/>
<path d="M549.169 32.5435H93.9191V317.009H549.169V32.5435Z" fill="url(#paint0_linear_2203_3435)"/>
<path d="M549.169 32.5435H93.9191V42.9416H549.169V32.5435Z" fill="#E8FCF8"/>
<path d="M568.083 346.229H0L0.167347 352.053C0.522958 364.44 13.9379 374.613 30.1245 374.613H612.88C629.066 374.613 642.481 364.44 642.837 352.053L643.004 346.229H568.087H568.083Z" fill="url(#paint1_linear_2203_3435)"/>
<path opacity="0.4" d="M364.803 346.229H265.041L265.07 348.264C265.133 352.593 267.488 356.148 270.331 356.148H372.67C375.513 356.148 377.868 352.593 377.931 348.264L377.96 346.229H364.805H364.803Z" fill="#AEB1B7"/>
<path d="M512.727 37.5981C512.727 36.0882 513.95 34.8647 515.461 34.8647H515.802C517.312 34.8647 518.536 36.0882 518.536 37.5981C518.536 39.1081 517.312 40.3315 515.802 40.3315H515.461C513.952 40.3315 512.727 39.1081 512.727 37.5981Z" fill="#0AAF60"/>
<path d="M524.738 37.5981C524.738 36.0882 525.962 34.8647 527.47 34.8647H527.811C529.319 34.8647 530.543 36.0882 530.543 37.5981C530.543 39.1081 529.319 40.3315 527.811 40.3315H527.47C525.962 40.3315 524.738 39.1081 524.738 37.5981Z" fill="#FAA745"/>
<path d="M536.747 37.5981C536.747 36.0882 537.971 34.8647 539.481 34.8647H539.822C541.33 34.8647 542.554 36.0882 542.554 37.5981C542.554 39.1081 541.33 40.3315 539.822 40.3315H539.481C537.971 40.3315 536.747 39.1081 536.747 37.5981Z" fill="#FA4545"/>
<mask id="mask0_2203_3435" style="mask-type:luminance" maskUnits="userSpaceOnUse" x="96" y="43" width="456" height="274">
<path d="M551 317C399.334 317 247.666 317 96.0002 317C96.0002 225.667 96.0002 134.335 96.0002 43C247.666 43 399.334 43 551 43C551 134.333 551 225.667 551 317Z" fill="white"/>
</mask>
<g mask="url(#mask0_2203_3435)">
<path d="M440.122 297.212C441.201 289.411 442.328 272.383 432.074 256.939C428.93 252.204 425.688 249.048 423.87 247.337C413.275 237.378 404.115 235.536 386.359 226.706C382.054 224.565 375.689 221.227 368.15 216.572C355.365 228.264 342.579 239.955 329.794 251.648H320.548C307.763 239.955 294.978 228.264 282.192 216.572C274.656 221.227 268.288 224.567 263.983 226.706C245.098 236.098 236.172 237.211 226.474 247.337C221.72 252.302 219.143 256.966 218.289 258.589C210.024 274.28 212.923 290.256 214.488 296.685C213.741 303.507 212.993 310.329 212.246 317.151C220.877 317.243 234.11 317.335 250.443 317.257C258.038 317.222 263.121 317.136 266.073 317.136C281.634 317.136 293.373 317.533 324.962 317.745H325.389C356.98 317.535 368.719 317.138 384.278 317.136C388.332 317.136 388.853 317.159 391.543 317.192C394.978 317.234 398.105 317.249 399.908 317.257C402.904 317.27 413.016 317.349 443.445 317.628C442.339 310.822 441.234 304.017 440.128 297.212H440.122Z" fill="#FCFDFF"/>
<path d="M285.826 228.061C285.826 228.061 287.774 235.27 289.405 242.086C289.426 242.178 289.445 242.253 289.462 242.318C289.591 242.868 289.721 243.42 289.849 243.97C290.139 245.21 290.426 246.451 290.71 247.693C291.282 250.175 291.84 252.66 292.392 255.149C293.974 262.272 295.331 269.453 297.001 276.551C297.141 277.149 297.285 277.762 297.434 278.381C283.657 267.906 269.874 257.428 256.086 246.944C258.281 241.837 260.46 236.676 262.625 231.458C263.527 229.285 264.42 227.116 265.305 224.952C271.1 222.291 276.894 219.629 282.69 216.969C283.278 218.945 283.858 220.951 284.433 222.986C284.912 224.692 285.376 226.384 285.828 228.061H285.826Z" fill="url(#paint2_linear_2203_3435)"/>
<path d="M289.459 236.757C277.593 249.866 265.734 262.968 253.88 276.06C277.852 309.312 301.822 342.567 325.795 375.819C313.683 329.465 301.571 283.112 289.459 236.757Z" fill="url(#paint3_linear_2203_3435)"/>
<path d="M365.726 228.061C365.726 228.061 363.778 235.27 362.146 242.086C362.125 242.178 362.107 242.253 362.09 242.318C361.96 242.868 361.831 243.42 361.701 243.97C361.41 245.21 361.123 246.451 360.839 247.693C360.268 250.175 359.709 252.66 359.157 255.149C357.576 262.272 356.218 269.453 354.549 276.551C354.409 277.149 354.264 277.762 354.116 278.381C367.893 267.906 381.676 257.428 395.463 246.944C393.269 241.837 391.089 236.676 388.924 231.458C388.022 229.285 387.129 227.116 386.244 224.952C380.45 222.291 374.656 219.629 368.859 216.969C368.271 218.945 367.692 220.951 367.117 222.986C366.638 224.692 366.173 226.384 365.723 228.061H365.726Z" fill="url(#paint4_linear_2203_3435)"/>
<path d="M362.095 236.757C373.961 249.866 385.82 262.968 397.674 276.06C373.702 309.312 349.732 342.567 325.759 375.819C337.871 329.465 349.983 283.112 362.095 236.757Z" fill="url(#paint5_linear_2203_3435)"/>
<path d="M279.804 218.056C283.117 215.737 286.431 213.418 289.742 211.098C301.774 223.421 313.806 235.741 325.839 248.061C337.873 235.622 349.909 223.182 361.944 210.743C365.06 213.211 368.177 215.678 371.294 218.146C356.126 270.704 340.958 323.262 325.793 375.819C310.464 323.232 295.133 270.645 279.804 218.056Z" fill="url(#paint6_linear_2203_3435)"/>
<path d="M377.99 303.643L374.896 302.365C378.271 294.2 380.643 285.634 381.948 276.905C383.385 267.287 385.354 254.115 380.302 238.57C378.94 234.379 375.752 224.567 367.144 215.254C366.533 214.593 351.93 199.036 330.66 196.691C318.681 195.37 306.293 198.187 294.838 204.835C283.341 211.508 273.545 221.599 266.508 234.013L263.596 232.363C270.924 219.433 281.147 208.913 293.156 201.941C305.232 194.93 318.327 191.965 331.024 193.364C353.524 195.844 368.954 212.282 369.6 212.981C378.706 222.833 382.053 233.135 383.483 237.533C388.778 253.829 386.659 268.01 385.257 277.396C383.912 286.395 381.467 295.225 377.99 303.641V303.643Z" fill="#0B3577"/>
<path d="M297.448 164.541C298.205 169.347 299.031 176.388 298.977 184.929C298.931 192.301 298.157 197.89 297.657 201.57C296.854 207.478 295.58 214.24 293.547 221.61C304.311 230.425 315.076 239.24 325.84 248.053C336.628 239.551 347.415 231.05 358.203 222.549C355.584 213.742 354.197 206.079 353.419 200.177C352.57 193.74 352.377 188.769 352.237 185.557C351.888 177.557 352.145 172.225 352.614 167.718C352.806 165.863 353.03 164.181 353.256 162.69C334.653 163.307 316.05 163.924 297.448 164.541Z" fill="url(#paint7_linear_2203_3435)"/>
<path d="M339.99 76.4931C325.222 70.6101 312.129 75.2341 309.343 76.2923C306.299 77.4467 297.854 80.7636 291.522 88.97C280.168 103.685 283.82 123.469 287.996 146.089C290.987 162.293 295.227 170.671 297.938 175.324C305.636 188.529 314.662 194.374 319.593 195.208C322.933 195.773 326.55 195.662 326.55 195.662C326.55 195.662 329.935 195.562 333.037 194.886C336.281 194.179 343.9 190.794 351.583 178.687C355.212 172.967 359.754 163.888 362.586 146.434C363.431 141.22 368.728 104.08 357.541 89.5054C351.018 81.0083 342.567 77.522 339.988 76.4931H339.99Z" fill="url(#paint8_linear_2203_3435)"/>
<path d="M278.599 139.587C277.057 147.99 285.467 161.396 289.585 159.156C291.87 157.914 292.65 151.953 292.66 148.398C292.677 142.816 290.83 135.122 286.764 133.275C283.266 131.684 279.438 135.015 278.599 139.589V139.587Z" fill="url(#paint9_linear_2203_3435)"/>
<path d="M281.189 141.875C280.467 146.411 283.394 152.79 286 152.152C287.673 151.742 289.265 148.429 288.966 144.41C288.698 140.798 287.01 138.044 285.184 137.621C283.366 137.203 281.624 139.135 281.189 141.875Z" fill="url(#paint10_radial_2203_3435)"/>
<path d="M286.107 144.537C285.458 146.729 286.343 150.577 287.573 150.755C288.364 150.87 289.322 149.477 289.47 147.35C289.602 145.443 289.029 143.701 288.226 143.128C287.429 142.559 286.498 143.213 286.107 144.537Z" fill="#F9B2A5"/>
<path d="M371.796 139.574C373.327 147.979 364.899 161.385 360.785 159.145C358.5 157.903 357.728 151.942 357.724 148.387C357.714 142.805 359.573 135.111 363.642 133.263C367.142 131.671 370.963 135 371.796 139.574Z" fill="url(#paint11_linear_2203_3435)"/>
<path d="M369.206 141.862C369.922 146.398 366.985 152.779 364.38 152.143C362.707 151.733 361.121 148.421 361.425 144.401C361.697 140.787 363.387 138.037 365.215 137.613C367.035 137.194 368.773 139.125 369.204 141.862H369.206Z" fill="url(#paint12_radial_2203_3435)"/>
<path d="M364.282 144.525C364.926 146.716 364.04 150.564 362.807 150.742C362.015 150.857 361.061 149.466 360.916 147.339C360.787 145.432 361.364 143.69 362.167 143.115C362.966 142.548 363.895 143.203 364.284 144.525H364.282Z" fill="#F9B2A5"/>
<path style="mix-blend-mode:multiply" opacity="0.6" d="M317.365 122.827H299.838V139.7H317.365V122.827Z" fill="url(#paint13_radial_2203_3435)"/>
<path style="mix-blend-mode:multiply" opacity="0.6" d="M352.602 122.823H335.075V139.694H352.602V122.823Z" fill="url(#paint14_radial_2203_3435)"/>
<path d="M310.828 135.187C310.828 137.801 309.537 139.919 307.947 139.917C306.357 139.917 305.071 137.801 305.073 135.187C305.073 132.575 306.366 130.456 307.955 130.456C309.545 130.456 310.832 132.575 310.83 135.187H310.828Z" fill="#1B3470"/>
<path d="M347.746 135.182C347.746 137.795 346.454 139.913 344.866 139.913C343.276 139.913 341.99 137.795 341.992 135.182C341.992 132.568 343.285 130.45 344.874 130.45C346.464 130.45 347.751 132.568 347.749 135.182H347.746Z" fill="#1B3470"/>
<path d="M295.688 126.23C295.073 124.32 299.88 119.834 305.034 118.96C311.015 117.946 317.29 121.38 317.727 123.592C317.834 124.646 317.104 124.927 316.859 125.019C316.443 125.178 316.039 125.052 315.681 124.897C315.303 124.732 314.964 124.494 314.751 124.352C314.395 124.124 313.91 123.833 313.313 123.542C312.828 123.304 311.864 122.837 310.623 122.551C308.803 122.126 307.306 122.296 306.459 122.4C306.09 122.446 304.651 122.635 302.89 123.337C302.051 123.67 300.999 124.088 299.817 124.948C298.97 125.565 297.355 126.92 296.642 126.878C296.642 126.878 295.907 126.865 295.686 126.23H295.688Z" fill="#174285"/>
<path d="M356.441 126.221C357.058 124.312 352.257 119.826 347.105 118.952C341.127 117.939 334.847 121.373 334.403 123.588C334.299 124.642 335.027 124.924 335.269 125.016C335.684 125.173 336.087 125.05 336.445 124.893C336.826 124.726 337.163 124.489 337.378 124.347C337.736 124.117 338.219 123.829 338.815 123.536C339.302 123.297 340.267 122.831 341.507 122.544C343.327 122.118 344.825 122.289 345.674 122.392C346.042 122.436 347.482 122.626 349.241 123.327C350.08 123.659 351.132 124.08 352.312 124.937C353.159 125.554 354.769 126.909 355.483 126.869C355.483 126.869 356.219 126.855 356.441 126.219V126.221Z" fill="#174285"/>
<path d="M331.194 126.349C330.815 127.129 330.32 128.333 330.067 129.868C329.868 131.067 329.874 132.119 329.983 133.449C330.194 136.055 330.56 136.824 330.987 139.43C331.389 141.879 331.899 146.311 332.351 149.015C332.449 149.607 332.554 150.167 332.92 150.778C333.288 151.393 333.621 151.56 334.068 152.311C334.129 152.411 334.539 153.103 334.646 153.626C334.984 155.314 332.52 157.167 332.144 157.453C331.606 157.859 329.079 159.658 325.751 159.091C323.983 158.79 322.779 157.953 322.239 157.57C320.544 156.37 319.643 154.879 319.216 154.034C319.655 153.024 320.293 151.426 320.846 149.404C321.846 145.75 321.314 145.307 322.337 139.518C322.63 137.851 323.038 135.831 323.078 133.108C323.09 132.167 323.061 131.14 322.76 129.908C322.402 128.444 321.818 127.329 321.377 126.612C324.651 126.524 327.922 126.436 331.196 126.349H331.194Z" fill="url(#paint15_linear_2203_3435)"/>
<path style="mix-blend-mode:hard-light" opacity="0.4" d="M331.824 152.371C331.767 153.402 330.863 154.124 330.577 154.352C330.236 154.626 329.575 155.153 328.623 155.147C327.736 155.138 327.125 154.668 326.755 154.383C326.427 154.128 325.481 153.405 325.414 152.371C325.329 151.016 326.768 149.435 328.621 149.437C330.466 149.437 331.897 151.008 331.822 152.369L331.824 152.371Z" fill="url(#paint16_linear_2203_3435)"/>
<path d="M315.733 174.437C318.896 174.837 322.496 175.113 326.458 175.115C330.549 175.115 334.258 174.828 337.501 174.41C336.708 175.596 334.702 178.229 331.07 179.68C329.972 180.117 325.55 181.882 320.984 179.67C317.796 178.122 316.264 175.476 315.733 174.437Z" fill="#F68C62"/>
<path d="M313.876 165.942C317.432 166.632 321.812 167.191 326.828 167.205C331.962 167.222 336.436 166.661 340.053 165.969C339.231 167.352 336.892 170.855 332.361 172.751C331.156 173.258 325.785 175.506 320.262 172.739C316.216 170.712 314.426 167.161 313.876 165.94V165.942Z" fill="white"/>
<path d="M340.97 164.612C340.775 164.583 340.624 164.579 340.557 164.576C339.296 164.555 335.541 164.748 335.541 164.748C332.604 164.898 332.437 163.899 330.379 164.29C328.847 164.579 327.701 165.365 326.977 165.978C326.27 165.39 325.139 164.618 323.614 164.323C321.559 163.93 321.394 164.905 318.445 164.75C318.445 164.75 314.761 164.558 313.429 164.581C313.362 164.581 313.211 164.587 313.016 164.616C312.602 164.681 312.263 164.823 312.012 164.961C312.286 165.177 312.724 165.503 313.293 165.858C314.069 166.342 316.395 167.69 322.49 168.445C323.591 168.581 325.13 168.738 326.988 168.813C328.85 168.738 330.389 168.581 331.489 168.445C337.583 167.69 339.915 166.342 340.691 165.856C341.26 165.499 341.7 165.17 341.972 164.959C341.721 164.823 341.384 164.679 340.97 164.614V164.612Z" fill="#F68C62"/>
<path d="M362.852 133.363C362.567 133.549 362.237 133.796 361.904 134.124C361.664 134.359 361.465 134.591 361.304 134.804C361.3 134.921 361.295 135.099 361.287 135.314C361.174 138.242 360.505 147.58 355.039 157.959C353.976 159.98 352.365 162.709 350.01 165.708C348.1 164.33 345.249 162.535 341.513 161.115C335.631 158.875 330.679 158.746 326.925 158.679C324.454 158.633 319.948 158.587 314.261 159.998C308.38 161.458 303.76 163.855 300.507 165.932C298.12 162.772 296.48 159.913 295.39 157.792C293.3 153.72 289.125 145.637 289.1 135.149C289.1 135.009 289.1 134.894 289.1 134.819C288.954 134.637 288.776 134.436 288.558 134.237C288.198 133.903 287.841 133.668 287.544 133.503C287.33 144.907 288.276 154.396 289.336 161.477C290.399 168.581 290.97 172.216 292.782 176.39C292.782 176.39 298.185 188.828 311.328 196.722C315.018 198.937 317.831 199.734 319.04 200.035C320.471 200.393 323.22 200.947 326.697 200.767C327.575 200.721 330.974 200.499 335.06 198.941C341.425 196.518 345.429 192.383 348.399 189.252C351.077 186.431 356.369 180.728 359.133 171.666C360.158 168.301 360.436 165.674 360.781 162.705C361.622 155.469 362.515 145.554 362.848 133.367L362.852 133.363ZM345.034 173.258C344.442 176.685 342.095 178.81 340.835 179.919C335.581 184.54 326.6 186.561 318.735 183.355C316.938 182.623 309.278 179.504 308.665 173.454C308.401 170.853 309.408 167.393 311.872 165.559C313.006 164.717 314.051 164.512 315.978 164.158C320.091 163.401 321.48 164.233 326.784 164.158C329.742 164.114 330.295 163.844 334.194 163.849C336.947 163.853 338.359 163.991 339.948 164.599C341.229 165.089 342.917 165.725 344.078 167.444C345.64 169.759 345.176 172.446 345.036 173.26L345.034 173.258Z" fill="#0376A0"/>
<path d="M364.429 68.594C361.672 66.2706 357.802 65.3462 355.934 64.8986C352.822 64.1562 350.144 64.0977 348.312 64.1813C346.22 62.5103 344.373 61.6487 343.214 61.197C337.033 58.7731 327.768 58.9885 325.151 57.2799C324.306 56.7277 323.789 56.1589 323.789 56.1589C322.833 55.0735 322.8 54.0466 320.773 52.5158C315.941 48.8685 310.054 49.4833 308.747 49.6193C302.773 50.2425 298.878 53.6033 297.57 54.8455C296.066 55.2387 286.806 57.8362 281.729 67.5379C276.537 77.4614 279.8 87.023 280.325 88.4786C279.641 91.1304 278.886 94.9638 278.777 99.6213C278.681 103.708 279.229 106.987 279.911 111.387C281.323 120.487 283.396 127.819 285.061 132.886C285.191 132.897 285.373 132.916 285.584 132.945C285.682 132.959 285.812 132.976 285.961 133.005C286.195 133.051 286.431 133.112 286.663 133.194C287.601 133.518 288.404 134.099 289.105 134.819C288.101 127.405 289.019 121.957 290.109 118.266C290.954 115.407 291.805 113.393 293.286 108.194C294.47 104.04 295.236 100.587 295.709 98.2514C298.57 100.209 301.003 101.338 302.043 101.817C307.05 104.13 311.251 104.718 314.271 105.113C327.645 106.872 337.748 102.57 348.607 97.9482C351.692 96.6348 354.721 95.1542 357.66 92.5902C357.773 92.6696 357.89 92.7386 357.959 92.8599C358.392 93.6379 357.941 95.3612 353.673 99.6108C353.983 101.223 354.514 103.651 355.412 106.531C356.842 111.109 358.388 114.217 358.915 115.365C362.275 122.683 361.564 131.401 361.327 134.524C361.319 134.649 361.31 134.748 361.306 134.806C361.752 134.321 362.574 133.597 363.785 133.183C364.151 133.058 364.519 132.997 364.885 132.947C366.3 128.361 368.088 121.823 369.527 113.809C371.142 104.808 371.276 101.138 371.251 99.3682C371.169 93.3305 370.038 88.4054 369.054 85.1136C369.218 83.9362 370.496 73.7095 364.432 68.5982L364.429 68.594ZM283.588 68.3515C287.741 60.4566 294.307 57.0895 296.42 56.1129C293.667 58.3255 289.594 62.1715 286.247 68.0775C281.957 75.644 281.009 82.7922 280.773 86.6591C280.367 84.3795 279.263 76.5788 283.591 68.3494L283.588 68.3515ZM366.147 78.8856C364.256 75.6084 362.183 73.3602 360.672 71.9402C356.98 68.4727 353.144 66.6867 351.15 65.7833C350.759 65.6055 350.439 65.4675 350.241 65.3838C352.188 65.5741 356.537 66.2831 360.693 69.5854C361.915 70.5557 365.049 73.1114 366.781 77.7291C367.609 79.9354 367.85 81.9013 367.916 83.2272C367.327 81.78 366.735 80.3328 366.145 78.8856H366.147Z" fill="#0376A0"/>
<path d="M325.727 248.061C317.345 252.894 308.965 257.725 300.583 262.556C296.822 245.532 293.063 228.507 289.302 211.483C290.802 209.151 292.308 206.725 293.812 204.203C295.511 201.353 297.1 198.556 298.586 195.825C300.052 203.132 302.861 213.146 308.562 224.06C314.161 234.785 320.638 242.711 325.725 248.061H325.727Z" fill="url(#paint17_linear_2203_3435)"/>
<path d="M326.018 248.084C334.4 252.917 342.78 257.748 351.162 262.579C354.923 245.556 358.682 228.53 362.443 211.506C360.918 209.062 359.391 206.592 357.866 204.099C356.184 201.351 354.528 198.617 352.896 195.896C351.532 203.12 348.84 213.142 343.184 224.082C337.596 234.89 331.074 242.812 326.02 248.082L326.018 248.084Z" fill="url(#paint18_linear_2203_3435)"/>
<path d="M205.182 257.194C206.06 278.866 211.016 294.623 215.308 304.916C219.783 315.649 224.759 323.383 232.959 344.426C236.881 354.492 240.877 365.9 237.178 377.559C234.99 384.461 231.382 387.424 230.21 388.309C224.336 392.749 217.396 392.071 214.538 391.793C203.954 390.76 197.402 383.741 196.024 382.194C190.361 375.83 189.072 368.556 188.183 363.079C183.127 331.926 181.789 302.402 181.207 290.8C180.77 282.066 180.335 274.97 180.05 270.543C188.426 266.093 196.802 261.642 205.177 257.194H205.182Z" fill="url(#paint19_linear_2203_3435)"/>
<path d="M182.048 225.039C180.408 223.577 177.987 221.482 174.952 219.077C172.622 217.23 172.628 217.341 161.713 209.833C161.713 209.833 156.055 205.943 150.965 205.153C148.568 204.78 148.064 205.429 147.949 205.609C147.591 206.169 147.957 206.997 148.091 207.3C149.923 211.446 162.393 219.186 170.235 226.344C172.588 228.492 174.641 230.548 177.178 230.274C180.063 229.96 181.514 226.543 182.048 225.041V225.039Z" fill="url(#paint20_linear_2203_3435)"/>
<path d="M171.606 230.19C168.506 227.785 166.038 225.826 164.498 224.596C159.377 220.503 148.901 212.002 141.456 210.456C140.588 210.276 138.13 209.766 137.507 210.757C137.384 210.952 137.158 211.481 137.798 212.725C140.369 217.72 151.742 224.217 159.791 231.491C162.21 233.676 164.22 235.693 166.734 235.421C169.619 235.109 171.071 231.69 171.604 230.188L171.606 230.19Z" fill="url(#paint21_linear_2203_3435)"/>
<path d="M167.462 240.735C166.142 238.823 164.343 236.385 162.031 233.697C159.5 230.755 157.023 228.465 152.172 224.004C149.484 221.53 145.305 217.768 140.46 216.057C139.327 215.655 137.67 215.197 137.078 215.896C136.53 216.544 137.08 217.977 137.333 218.634C137.816 219.89 138.517 220.694 138.607 220.798C144.221 227.258 150.016 233.562 155.597 240.051C158.375 243.28 159.636 244.953 161.789 245.081C164.686 245.252 166.686 242.124 167.462 240.733V240.735Z" fill="url(#paint22_linear_2203_3435)"/>
<path d="M169.592 251.325C168.247 249.546 166.238 247.032 163.582 244.217C159.093 239.465 158.559 240.005 154.371 235.732C149.87 231.14 146.726 226.683 142.504 225.646C141.975 225.516 140.457 225.142 139.938 225.813C139.396 226.512 140.21 228.003 140.743 228.896C144.946 235.948 155.67 246.143 158.712 249.705C159.015 250.058 160.153 251.415 161.854 253.107C162.802 254.05 163.632 254.805 164.234 255.339C166.021 254 167.807 252.664 169.594 251.325H169.592Z" fill="url(#paint23_linear_2203_3435)"/>
<path d="M198.975 239.168C196.019 232.535 190.812 228.919 184.727 224.826C180.556 222.021 178.341 220.576 175.247 220.729C168.242 221.076 163.016 229.297 161.159 235.281C159.701 239.976 160.127 243.916 160.345 245.836C161.431 255.372 167.074 261.379 170.779 265.321C174.898 269.704 179.144 274.221 184.552 273.72C185.244 273.655 187.687 273.347 190.934 270.656C198.615 264.29 203.926 250.292 198.973 239.17L198.975 239.168Z" fill="url(#paint24_linear_2203_3435)"/>
<path d="M205.52 260.306C207.997 255.115 208.137 249.807 208.315 239.407C208.468 230.374 208.545 225.859 207.202 221.124C206.577 218.924 205.753 216.749 204.882 213.512C204.41 211.751 204.125 210.44 203.958 209.66C203.487 207.464 203.173 205.558 202.962 204.065C202.297 203.239 201.412 202.461 200.441 202.526C198.364 202.664 197.224 206.589 196.672 208.309C195.576 211.713 195.678 214.629 195.925 220.315C196.141 225.282 196.463 224.811 196.235 226.196C195.672 229.609 193.973 231.355 189.89 236.883C186.794 241.072 185.248 243.165 184.659 244.34C183.636 246.382 180.184 253.262 182.929 260.23C185.006 265.501 190.712 271.036 196.216 270.16C201.195 269.365 203.864 263.773 205.518 260.304L205.52 260.306Z" fill="url(#paint25_linear_2203_3435)"/>
<path d="M168.194 279.251L207.639 269.273C211.58 285.04 216.442 301.901 222.471 319.604C227.857 335.419 233.564 350.121 239.341 363.666C223.295 367.389 207.248 371.114 191.202 374.836C186.589 359.172 182.15 342.646 178.011 325.294C174.224 309.415 170.978 294.043 168.192 279.251H168.194Z" fill="#FCFDFF"/>
</g>
<mask id="mask1_2203_3435" style="mask-type:luminance" maskUnits="userSpaceOnUse" x="233" y="243" width="64" height="68">
<path d="M296.474 243.533H233.457V310.262H255.292V290.03H275.173V310.262H296.474V243.533Z" fill="white"/>
</mask>
<g mask="url(#mask1_2203_3435)">
<path d="M265.267 307.301C254.691 307.301 246.085 298.697 246.085 288.123V251.432C246.085 240.858 254.691 232.255 265.267 232.255C275.844 232.255 284.449 240.858 284.449 251.432V288.123C284.449 298.697 275.844 307.301 265.267 307.301ZM265.267 234.973C256.189 234.973 248.805 242.358 248.805 251.432V288.123C248.805 297.199 256.191 304.582 265.267 304.582C274.344 304.582 281.73 297.197 281.73 288.123V251.432C281.73 242.356 274.344 234.973 265.267 234.973Z" fill="#CACACC"/>
</g>
<path d="M257.013 303.63C256.367 305.213 254.969 306.142 253.892 305.701C252.815 305.261 252.468 303.62 253.116 302.037C253.762 300.453 255.16 299.525 256.237 299.966C257.312 300.405 257.662 302.047 257.013 303.63Z" fill="#0B3577"/>
<path d="M273.231 303.63C273.877 305.213 275.274 306.142 276.352 305.7C277.429 305.261 277.776 303.62 277.128 302.036C276.481 300.453 275.084 299.525 274.007 299.966C272.931 300.405 272.582 302.047 273.231 303.63Z" fill="#0B3577"/>
<mask id="mask2_2203_3435" style="mask-type:luminance" maskUnits="userSpaceOnUse" x="234" y="225" width="62" height="39">
<path d="M295.116 225.677H234.024V263.462H295.116V225.677Z" fill="white"/>
</mask>
<g mask="url(#mask2_2203_3435)">
<path d="M265.268 307.614C254.518 307.614 245.772 298.87 245.772 288.123V251.432C245.772 240.685 254.518 231.941 265.268 231.941C276.018 231.941 284.764 240.685 284.764 251.432V288.123C284.764 298.87 276.018 307.614 265.268 307.614ZM265.268 235.287C256.363 235.287 249.119 242.529 249.119 251.432V288.123C249.119 297.026 256.363 304.268 265.268 304.268C274.173 304.268 281.417 297.026 281.417 288.123V251.432C281.417 242.529 274.173 235.287 265.268 235.287Z" fill="#0B3577"/>
</g>
<path d="M385.692 305.216C386.911 300.053 383.713 294.879 378.548 293.661C373.384 292.442 368.209 295.64 366.99 300.803C365.772 305.966 368.97 311.139 374.134 312.358C379.299 313.577 384.473 310.379 385.692 305.216Z" fill="#0B3577"/>
<path d="M381.332 303.028C381.332 305.776 379.102 308.005 376.354 308.005C373.605 308.005 371.375 305.776 371.375 303.028C371.375 300.28 373.605 298.05 376.354 298.05C379.102 298.05 381.332 300.28 381.332 303.028Z" fill="#14438F" stroke="#2B5BA6" stroke-width="10" stroke-miterlimit="10"/>
<mask id="mask3_2203_3435" style="mask-type:luminance" maskUnits="userSpaceOnUse" x="346" y="215" width="169" height="103">
<path d="M493.143 317.006H346.495L367.65 215.21H514.298L493.143 317.006Z" fill="white"/>
</mask>
<g mask="url(#mask3_2203_3435)">
<path d="M390.395 347.471L396.704 261.849C396.865 259.662 398.791 257.89 401.009 257.89H460.032C462.247 257.89 463.914 259.662 463.753 261.849L457.444 347.471C457.283 349.656 455.357 351.43 453.139 351.43H394.116C391.899 351.43 390.234 349.656 390.395 347.471Z" fill="url(#paint26_linear_2203_3435)"/>
<path d="M455.409 317.889C454.754 317.084 453.819 316.04 452.564 314.961C451.25 313.832 450.175 313.156 448.951 312.403C446.548 310.927 443.672 309.367 439.616 308.264C437.185 307.604 435.158 307.361 433.033 305.878C431.813 305.029 431.183 304.205 431.154 303.302C431.148 303.139 431.129 302.52 431.533 302.016C432.229 301.143 433.677 301.252 436.304 301.486C437.258 301.572 438.022 301.681 438.58 301.771C439.507 301.919 441.212 302.197 443.272 302.752C446.86 303.716 449.464 304.937 450.265 305.324C451.75 306.039 452.803 306.663 453.97 307.361C456.35 308.781 458.243 310.117 459.582 311.117C458.879 310.226 457.848 309.055 456.447 307.852C454.953 306.573 453.675 305.813 452.581 305.159C450.418 303.866 448.682 303.162 446.883 302.43C445.9 302.03 443.621 301.143 441.58 300.593C440.833 300.393 440.097 300.217 438.992 299.92C438.662 299.832 437.971 299.644 437.555 299.523C434.926 298.755 433.035 298.209 432.33 296.752C432.035 296.139 431.786 295.028 432.305 294.246C432.526 293.914 433.141 293.257 438.557 293.548C441.013 293.679 442.302 293.748 444.153 294.15C446.343 294.625 448.042 295.29 449.573 295.957C455.468 298.531 462.203 302.628 464.015 303.741C461.743 300.43 459.624 297.812 457.98 295.909C455.882 293.483 454.832 292.272 453.361 291.015C451.863 289.735 450.363 288.712 447.178 286.04C445.546 284.67 444.423 283.664 444.301 282.154C444.241 281.386 444.416 280.249 445.161 279.81C445.981 279.327 447.134 279.904 447.922 280.312C454.146 283.53 457.356 286 457.356 286C459.348 287.531 460.344 288.296 461.58 289.409C463.469 291.109 464.845 292.671 467.521 295.727C469.253 297.705 471.296 300.048 473.775 303.323C474.018 303.645 474.986 304.927 476.233 306.688C478.415 309.766 479.883 312.098 480.203 312.6C481.716 314.967 485.272 319.851 494.304 330.937C494.043 332.662 493.503 335.092 492.282 337.784C490.416 341.895 487.954 344.43 486.414 345.99C482.55 349.897 478.39 352.17 475.254 353.494C472.378 352.264 469.985 350.976 468.102 349.853C467.163 349.293 465.245 348.115 462.94 346.402C460.559 344.635 459.055 343.527 457.34 341.716C454.229 338.434 452.731 335.304 452.399 334.588C451.941 333.607 451.037 331.589 450.504 328.833C450.156 327.041 450.269 326.488 449.849 325.246C449.113 323.075 447.736 321.733 446.5 320.551C442.917 317.13 438.476 315.72 435.371 314.735C435.361 314.733 435.35 314.729 435.334 314.723C434.359 314.411 431.384 313.457 430.922 311.485C430.872 311.274 430.717 310.609 431.056 310.053C431.591 309.174 433.001 309.147 434.489 309.137C435.752 309.128 436.685 309.289 437.67 309.467C438.084 309.54 439.689 309.852 441.887 310.554C443.509 311.073 444.709 311.604 445.121 311.78C445.734 312.044 448.184 313.108 451.24 315.007C452.367 315.708 453.802 316.659 455.405 317.891L455.409 317.889Z" fill="url(#paint27_linear_2203_3435)"/>
</g>
<path d="M91.5652 217.063H54.1277C44.363 217.063 36.4371 209.139 36.4371 199.377V161.948C36.4371 152.185 44.3651 144.261 54.1277 144.261H91.5652C101.33 144.261 109.256 152.185 109.256 161.948V199.377C109.256 209.139 101.33 217.063 91.5652 217.063Z" fill="url(#paint28_linear_2203_3435)"/>
<path d="M49.6847 174.786L78.7214 203.816C83.4949 208.589 91.2326 208.589 96.0041 203.816C100.778 199.044 100.778 191.308 96.0041 186.538L66.9674 157.506C62.1938 152.735 54.4561 152.735 49.6847 157.506C44.9111 162.278 44.9111 170.014 49.6847 174.784V174.786Z" fill="url(#paint29_linear_2203_3435)"/>
<mask id="mask4_2203_3435" style="mask-type:luminance" maskUnits="userSpaceOnUse" x="46" y="153" width="54" height="55">
<path d="M49.6847 174.786L78.7214 203.816C83.4949 208.589 91.2326 208.589 96.0041 203.816C100.778 199.044 100.778 191.308 96.0041 186.538L66.9674 157.506C62.1938 152.735 54.4561 152.735 49.6847 157.506C44.9111 162.278 44.9111 170.014 49.6847 174.784V174.786Z" fill="white"/>
</mask>
<g mask="url(#mask4_2203_3435)">
<path d="M55.3153 198.189L84.3495 227.217L121.034 190.541L91.9996 161.513L55.3153 198.189Z" fill="#0297CB"/>
</g>
<path style="mix-blend-mode:screen" d="M57.9604 166.584L86.9302 195.547C89.0492 197.666 92.484 197.666 94.603 195.547C96.722 193.429 96.722 189.995 94.603 187.876L65.6332 158.913C63.5142 156.794 60.0794 156.794 57.9604 158.913C55.8413 161.032 55.8413 164.466 57.9604 166.584Z" fill="url(#paint30_linear_2203_3435)" fill-opacity="0.2"/>
<path d="M565.496 70.9385H474.495C446.404 70.9385 423.63 93.7049 423.63 121.792C423.651 126.209 424.28 140.344 434.673 153.423C443.366 164.365 454.16 168.615 458.614 170.091C454.631 177.225 450.65 184.356 446.667 191.49C461.515 185.208 476.363 178.925 491.213 172.641H565.496C593.587 172.641 616.361 149.874 616.361 121.788C616.361 93.7028 593.587 70.9343 565.496 70.9343V70.9385Z" fill="url(#paint31_linear_2203_3435)"/>
<path d="M469.297 130.274C469.297 127.685 471.397 125.587 473.987 125.587H474.572C477.162 125.587 479.26 127.687 479.26 130.274C479.26 132.861 477.16 134.961 474.572 134.961H473.987C471.397 134.961 469.297 132.863 469.297 130.274ZM487.466 130.274C487.466 127.685 489.564 125.587 492.154 125.587H492.74C495.33 125.587 497.428 127.687 497.428 130.274C497.428 132.861 495.327 134.961 492.74 134.961H492.154C489.564 134.961 487.466 132.863 487.466 130.274ZM505.634 130.274C505.634 127.685 507.734 125.587 510.322 125.587H510.907C513.497 125.587 515.595 127.687 515.595 130.274C515.595 132.861 513.497 134.961 510.907 134.961H510.322C507.732 134.961 505.634 132.863 505.634 130.274ZM523.801 130.274C523.801 127.685 525.902 125.587 528.491 125.587H529.077C531.667 125.587 533.767 127.687 533.767 130.274C533.767 132.861 531.667 134.961 529.077 134.961H528.491C525.902 134.961 523.801 132.863 523.801 130.274ZM541.969 130.274C541.969 127.685 544.069 125.587 546.657 125.587H547.243C549.832 125.587 551.93 127.687 551.93 130.274C551.93 132.861 549.832 134.961 547.243 134.961H546.657C544.067 134.961 541.969 132.863 541.969 130.274ZM560.137 130.274C560.137 127.685 562.235 125.587 564.824 125.587H565.41C568 125.587 570.1 127.687 570.1 130.274C570.1 132.861 568 134.961 565.41 134.961H564.824C562.235 134.961 560.137 132.863 560.137 130.274ZM469.297 113.307C469.297 110.718 471.397 108.62 473.987 108.62H474.572C477.162 108.62 479.26 110.72 479.26 113.307C479.26 115.894 477.16 117.994 474.572 117.994H473.987C471.397 117.994 469.297 115.894 469.297 113.307ZM487.466 113.307C487.466 110.718 489.564 108.62 492.154 108.62H492.74C495.33 108.62 497.428 110.72 497.428 113.307C497.428 115.894 495.327 117.994 492.74 117.994H492.154C489.564 117.994 487.466 115.894 487.466 113.307ZM505.634 113.307C505.634 110.718 507.734 108.62 510.322 108.62H510.907C513.497 108.62 515.595 110.72 515.595 113.307C515.595 115.894 513.497 117.994 510.907 117.994H510.322C507.732 117.994 505.634 115.894 505.634 113.307ZM523.801 113.307C523.801 110.718 525.902 108.62 528.491 108.62H529.077C531.667 108.62 533.767 110.72 533.767 113.307C533.767 115.894 531.667 117.994 529.077 117.994H528.491C525.902 117.994 523.801 115.894 523.801 113.307ZM541.969 113.307C541.969 110.718 544.069 108.62 546.657 108.62H547.243C549.832 108.62 551.93 110.72 551.93 113.307C551.93 115.894 549.832 117.994 547.243 117.994H546.657C544.067 117.994 541.969 115.894 541.969 113.307ZM560.137 113.307C560.137 110.718 562.235 108.62 564.824 108.62H565.41C568 108.62 570.1 110.72 570.1 113.307C570.1 115.894 568 117.994 565.41 117.994H564.824C562.235 117.994 560.137 115.894 560.137 113.307Z" fill="#0376A0"/>
<path d="M229.843 170.687H156.798C146.504 170.687 138.147 162.332 138.147 152.041V79.0131C138.147 68.7215 146.504 60.3687 156.796 60.3687L229.84 60.3687C240.134 60.3687 248.491 68.7236 248.491 79.0152V152.043C248.491 162.334 240.134 170.687 229.843 170.687Z" fill="url(#paint32_linear_2203_3435)"/>
<path fill-rule="evenodd" clip-rule="evenodd" d="M149.274 102.961C150.267 94.0813 157.693 84.7497 171.006 83.1937C184.318 81.6378 193.227 94.303 193.227 94.303C193.227 94.303 193.3 94.3741 193.39 94.3992C193.48 94.3741 193.553 94.303 193.553 94.303C193.553 94.303 202.463 81.6378 215.775 83.1937C229.09 84.7497 236.513 94.0813 237.507 102.961C238.501 111.841 239.003 127.189 216.756 146.089C216.756 146.089 201.659 158.572 196.495 161.283C196.495 161.283 194.501 162.424 193.39 162.427C192.277 162.427 190.286 161.283 190.286 161.283C185.121 158.572 170.025 146.089 170.025 146.089C147.778 127.189 148.28 111.841 149.274 102.961Z" fill="url(#paint33_linear_2203_3435)"/>
<path style="mix-blend-mode:screen" d="M242.415 118.817C254.88 106.355 254.88 86.1495 242.415 73.6871C229.95 61.2247 209.74 61.2247 197.274 73.6871C184.809 86.1495 184.809 106.355 197.274 118.817C209.74 131.28 229.95 131.28 242.415 118.817Z" fill="url(#paint34_radial_2203_3435)"/>
<path style="mix-blend-mode:screen" d="M184.966 129.496C184.966 144.642 172.685 156.922 157.534 156.922C142.383 156.922 130.102 144.644 130.102 129.496C130.102 114.349 142.383 102.07 157.534 102.07C172.685 102.07 184.966 114.349 184.966 129.496Z" fill="url(#paint35_radial_2203_3435)"/>
<path fill-rule="evenodd" clip-rule="evenodd" d="M155.521 130.084C155.25 129.661 154.99 129.241 154.739 128.823H165.782L170.673 113.497L173.645 120.091L178.81 101.349L186.824 132.146L191.258 120.599L194.89 128.821H232.041C231.79 129.237 231.53 129.657 231.258 130.082H194.07L191.34 123.904L186.594 136.262L178.774 106.217L173.932 123.793L170.871 117.011L166.7 130.082H155.519L155.521 130.084Z" fill="url(#paint36_radial_2203_3435)"/>
<path d="M584.808 283.735H530.565C522.379 283.735 515.733 277.091 515.733 268.907V214.677C515.733 206.493 522.379 199.851 530.562 199.851H584.806C592.991 199.851 599.637 206.495 599.637 214.679V268.909C599.637 277.093 592.991 283.737 584.806 283.737L584.808 283.735Z" fill="url(#paint37_linear_2203_3435)"/>
<path d="M527.646 223.517C537.622 220.476 547.272 215.515 556.558 207.294C556.825 207.058 557.302 206.612 557.687 206.276C558.072 206.614 558.549 207.058 558.817 207.294C568.102 215.515 577.754 220.476 587.732 223.517C588.468 223.74 589.736 224.065 589.736 224.065C589.736 224.065 589.399 225.671 589.192 226.67C587.458 235 586 242.494 584.718 249.267C583.705 254.619 582.335 259.377 579.375 263.731C574.215 271.321 566.383 275.464 558.308 278.291C558.135 278.352 557.915 278.427 557.698 278.5C557.48 278.427 557.26 278.352 557.087 278.291C549.01 275.464 541.178 271.321 536.016 263.731C533.056 259.379 531.684 254.621 530.671 249.267C529.389 242.494 527.927 235 526.193 226.67C525.983 225.669 525.647 224.065 525.647 224.065C525.647 224.065 526.912 223.743 527.651 223.517H527.646Z" fill="url(#paint38_linear_2203_3435)"/>
<path d="M531.638 226.622C540.311 224.017 548.686 219.777 556.715 212.794C556.945 212.594 557.357 212.219 557.688 211.933C558.018 212.219 558.43 212.594 558.66 212.794C566.689 219.777 575.064 224.017 583.739 226.622C584.381 226.815 585.482 227.093 585.482 227.093C585.482 227.093 585.21 228.473 585.04 229.335C583.628 236.531 582.436 243.048 581.386 248.975C580.551 253.684 579.392 257.888 576.822 261.749C572.316 268.516 565.398 272.23 558.236 274.774C558.083 274.828 557.886 274.897 557.694 274.962C557.501 274.897 557.305 274.828 557.152 274.774C549.99 272.233 543.07 268.516 538.564 261.749C535.993 257.888 534.834 253.682 533.998 248.975C532.945 243.048 531.753 236.529 530.339 229.335C530.17 228.473 529.898 227.093 529.898 227.093C529.898 227.093 530.998 226.815 531.64 226.622H531.638Z" fill="#6BC9D9"/>
<path d="M557.363 279.743C557.156 279.674 556.942 279.6 556.731 279.527L556.624 279.49C555.238 279.009 551.527 277.72 547.366 275.388C544.979 274.05 542.789 272.561 540.858 270.957C538.476 268.978 536.451 266.791 534.842 264.449C533.386 262.326 532.213 260.004 531.259 257.336C530.464 255.111 529.805 252.597 529.182 249.401C527.569 241.122 526.08 233.794 524.506 226.438C524.291 225.432 523.942 223.801 523.938 223.784L523.703 222.697L524.67 222.448C524.682 222.444 525.95 222.12 526.672 221.898C530.439 220.744 534.083 219.332 537.507 217.699C541.174 215.95 544.747 213.874 548.132 211.512C551.78 208.969 554.903 206.236 555.781 205.452C556.162 205.113 556.545 204.764 556.919 204.419L557.666 203.728L558.423 204.402C558.654 204.607 558.915 204.845 559.145 205.056C559.312 205.209 559.469 205.353 559.58 205.452C561.913 207.533 564.331 209.461 566.768 211.186C569.1 212.838 571.529 214.359 573.987 215.712C576.336 217.006 578.792 218.188 581.285 219.227C583.664 220.221 586.155 221.118 588.696 221.896C589.418 222.118 590.686 222.444 590.698 222.446L591.665 222.695L591.431 223.782C591.426 223.799 591.077 225.428 590.862 226.436C589.291 233.791 587.803 241.12 586.193 249.399C585.571 252.595 584.912 255.107 584.117 257.334C583.166 260.002 581.992 262.326 580.536 264.446C579.2 266.396 577.639 268.203 575.899 269.827C574.305 271.314 572.506 272.701 570.55 273.95C567.226 276.072 563.331 277.892 558.651 279.521C558.53 279.563 558.288 279.646 558.02 279.736L557.689 279.845L557.359 279.736L557.363 279.743ZM587.86 224.272C585.274 223.485 582.735 222.58 580.312 221.578C577.767 220.524 575.259 219.328 572.857 218.019C570.343 216.647 567.856 215.103 565.465 213.428C562.967 211.678 560.488 209.72 558.095 207.608C557.984 207.51 557.842 207.38 557.687 207.242C557.549 207.365 557.413 207.487 557.275 207.608C556.373 208.405 553.171 211.178 549.431 213.758C545.962 216.153 542.306 218.259 538.557 220.03C535.062 221.681 531.349 223.107 527.515 224.272C527.19 224.37 526.774 224.485 526.4 224.587C526.506 225.102 526.632 225.704 526.728 226.173C528.251 233.555 529.692 240.91 531.248 249.215C531.828 252.31 532.445 254.734 533.19 256.867C534.066 259.377 535.15 261.558 536.497 263.547C537.99 265.749 539.886 267.814 542.124 269.689C543.961 271.229 546.05 272.661 548.339 273.954C552.357 276.223 555.961 277.482 557.309 277.952L557.417 277.99C557.509 278.021 557.601 278.055 557.693 278.086C557.808 278.046 557.907 278.013 557.97 277.99C562.521 276.394 566.293 274.623 569.489 272.563C571.345 271.369 573.047 270.045 574.549 268.629C576.181 267.092 577.641 265.383 578.886 263.543C580.235 261.554 581.316 259.373 582.193 256.863C582.938 254.73 583.555 252.306 584.134 249.211C585.688 240.906 587.128 233.551 588.648 226.171C588.745 225.702 588.87 225.1 588.977 224.585C588.602 224.485 588.186 224.37 587.862 224.27L587.86 224.272Z" fill="#6BC9D9"/>
<path d="M542.651 238.97L552.236 238.982C552.524 238.982 552.759 238.752 552.759 238.466L552.719 228.938C552.719 228.647 552.953 228.411 553.248 228.411L562.235 228.423C562.527 228.423 562.764 228.659 562.762 228.952L562.695 238.48C562.695 238.765 562.927 238.997 563.216 238.997L572.8 239.009C573.091 239.009 573.321 239.242 573.315 239.526L573.154 248.161C573.148 248.439 572.911 248.665 572.625 248.665L563.142 248.653C562.856 248.653 562.622 248.879 562.619 249.157L562.557 258.269C562.557 258.543 562.322 258.762 562.04 258.762L553.353 258.752C553.068 258.752 552.838 258.53 552.838 258.258L552.8 249.146C552.8 248.868 552.566 248.642 552.279 248.64L542.797 248.628C542.511 248.628 542.274 248.402 542.27 248.121L542.132 239.486C542.128 239.202 542.36 238.972 542.649 238.972L542.651 238.97Z" fill="url(#paint39_linear_2203_3435)"/>
<mask id="mask5_2203_3435" style="mask-type:luminance" maskUnits="userSpaceOnUse" x="523" y="203" width="69" height="77">
<path d="M524.674 222.45C524.686 222.446 525.954 222.122 526.676 221.9C530.443 220.746 534.087 219.334 537.511 217.701C541.178 215.953 544.751 213.876 548.136 211.515C551.784 208.972 554.907 206.238 555.786 205.454C556.166 205.115 556.549 204.766 556.924 204.421L557.67 203.731L558.428 204.404C558.658 204.609 558.919 204.848 559.149 205.059C559.317 205.212 559.474 205.356 559.584 205.454C561.917 207.535 564.335 209.463 566.772 211.189C569.104 212.841 571.533 214.361 573.991 215.714C576.34 217.007 578.796 218.19 581.289 219.23C583.668 220.223 586.159 221.12 588.701 221.898C589.422 222.12 590.69 222.446 590.703 222.448L591.669 222.697L591.435 223.785C591.431 223.802 591.081 225.431 590.866 226.439C589.295 233.794 587.807 241.122 586.197 249.402C585.575 252.597 584.917 255.109 584.122 257.336C583.17 260.005 581.996 262.328 580.54 264.449C579.204 266.398 577.643 268.205 575.903 269.83C574.309 271.317 572.51 272.703 570.554 273.952C567.23 276.075 563.335 277.894 558.656 279.523C558.534 279.565 558.292 279.649 558.024 279.739L557.693 279.848L557.363 279.739C557.156 279.67 556.942 279.597 556.731 279.523L556.624 279.486C555.238 279.005 551.527 277.716 547.366 275.385C544.979 274.046 542.789 272.557 540.858 270.953C538.476 268.975 536.451 266.787 534.842 264.445C533.386 262.322 532.213 260.001 531.259 257.332C530.464 255.107 529.805 252.593 529.182 249.398C527.569 241.118 526.08 233.79 524.506 226.434C524.291 225.429 523.942 223.797 523.938 223.781L523.703 222.693L524.67 222.444L524.674 222.45Z" fill="white"/>
</mask>
<g mask="url(#mask5_2203_3435)">
<path style="mix-blend-mode:screen" fill-rule="evenodd" clip-rule="evenodd" d="M557.681 284.289H598.216L602.377 196.269H557.668L557.681 284.289Z" fill="url(#paint40_linear_2203_3435)"/>
</g>
</g>
<defs>
<linearGradient id="paint0_linear_2203_3435" x1="321.546" y1="317.009" x2="321.546" y2="32.5435" gradientUnits="userSpaceOnUse">
<stop stop-color="#B5F1E1"/>
<stop offset="1" stop-color="#16CA9F"/>
</linearGradient>
<linearGradient id="paint1_linear_2203_3435" x1="321.5" y1="374.613" x2="321.5" y2="346.229" gradientUnits="userSpaceOnUse">
<stop stop-color="#BFBDC1"/>
<stop offset="0.37" stop-color="#D0CFD1"/>
<stop offset="1" stop-color="#ECECEC"/>
</linearGradient>
<linearGradient id="paint2_linear_2203_3435" x1="352.766" y1="272.369" x2="260.974" y2="235.025" gradientUnits="userSpaceOnUse">
<stop offset="0.49" stop-color="#CCD9F0"/>
<stop offset="0.63" stop-color="#D1DDF2"/>
<stop offset="0.81" stop-color="#E0E9F8"/>
<stop offset="0.94" stop-color="#F0F6FF"/>
</linearGradient>
<linearGradient id="paint3_linear_2203_3435" x1="343.136" y1="357.457" x2="254.986" y2="240.074" gradientUnits="userSpaceOnUse">
<stop stop-color="#D9E7FF"/>
<stop offset="0.36" stop-color="#DDE9FF"/>
<stop offset="0.73" stop-color="#E9F1FF"/>
<stop offset="0.8" stop-color="#EDF3FF"/>
</linearGradient>
<linearGradient id="paint4_linear_2203_3435" x1="298.746" y1="272.357" x2="390.538" y2="235.014" gradientUnits="userSpaceOnUse">
<stop offset="0.49" stop-color="#CCD9F0"/>
<stop offset="0.63" stop-color="#D1DDF2"/>
<stop offset="0.81" stop-color="#E0E9F8"/>
<stop offset="0.94" stop-color="#F0F6FF"/>
</linearGradient>
<linearGradient id="paint5_linear_2203_3435" x1="308.366" y1="357.515" x2="396.516" y2="240.134" gradientUnits="userSpaceOnUse">
<stop stop-color="#D9E7FF"/>
<stop offset="0.36" stop-color="#DDE9FF"/>
<stop offset="0.73" stop-color="#E9F1FF"/>
<stop offset="0.8" stop-color="#EDF3FF"/>
</linearGradient>
<linearGradient id="paint6_linear_2203_3435" x1="379.692" y1="332.419" x2="283.493" y2="215.554" gradientUnits="userSpaceOnUse">
<stop stop-color="#93E3F2"/>
<stop offset="0.35" stop-color="#8AD9F0"/>
<stop offset="0.93" stop-color="#72C0ED"/>
<stop offset="1" stop-color="#6FBDED"/>
</linearGradient>
<linearGradient id="paint7_linear_2203_3435" x1="325.086" y1="163.083" x2="326.331" y2="248.029" gradientUnits="userSpaceOnUse">
<stop stop-color="#F98F65"/>
<stop offset="0.16" stop-color="#F89F81"/>
<stop offset="0.33" stop-color="#F8AD98"/>
<stop offset="0.52" stop-color="#F8B7A8"/>
<stop offset="0.73" stop-color="#F8BDB1"/>
<stop offset="1" stop-color="#F8BFB5"/>
</linearGradient>
<linearGradient id="paint8_linear_2203_3435" x1="324.529" y1="195.654" x2="324.422" y2="73.5447" gradientUnits="userSpaceOnUse">
<stop offset="0.15" stop-color="#F7C0B5"/>
<stop offset="0.58" stop-color="#F8A58A"/>
<stop offset="1" stop-color="#F98F65"/>
</linearGradient>
<linearGradient id="paint9_linear_2203_3435" x1="293.37" y1="142.907" x2="280.2" y2="149.295" gradientUnits="userSpaceOnUse">
<stop stop-color="#F6AE9C"/>
<stop offset="1" stop-color="#F3A993"/>
</linearGradient>
<radialGradient id="paint10_radial_2203_3435" cx="0" cy="0" r="1" gradientUnits="userSpaceOnUse" gradientTransform="translate(271.665 158.264) rotate(139.507) scale(5.11654 6.69548)">
<stop stop-color="#C67E6D"/>
<stop offset="0.13" stop-color="#D28674"/>
<stop offset="0.41" stop-color="#E49481"/>
<stop offset="0.7" stop-color="#F09D88"/>
<stop offset="1" stop-color="#F4A08B"/>
</radialGradient>
<linearGradient id="paint11_linear_2203_3435" x1="357.578" y1="142.975" x2="370.768" y2="149.361" gradientUnits="userSpaceOnUse">
<stop stop-color="#F6AE9C"/>
<stop offset="1" stop-color="#F3A993"/>
</linearGradient>
<radialGradient id="paint12_radial_2203_3435" cx="0" cy="0" r="1" gradientUnits="userSpaceOnUse" gradientTransform="translate(400.35 176.88) rotate(40.9234) scale(5.07846 6.79222)">
<stop stop-color="#C67E6D"/>
<stop offset="0.13" stop-color="#D28674"/>
<stop offset="0.41" stop-color="#E49481"/>
<stop offset="0.7" stop-color="#F09D88"/>
<stop offset="1" stop-color="#F4A08B"/>
</radialGradient>
<radialGradient id="paint13_radial_2203_3435" cx="0" cy="0" r="1" gradientUnits="userSpaceOnUse" gradientTransform="translate(308.102 132.06) scale(8.63308 8.63107)">
<stop stop-color="#F68C62"/>
<stop offset="0.21" stop-color="#F8AF91"/>
<stop offset="0.45" stop-color="#FBD1C0"/>
<stop offset="0.66" stop-color="#FDEAE2"/>
<stop offset="0.83" stop-color="#FEF9F7"/>
<stop offset="0.95" stop-color="white"/>
</radialGradient>
<radialGradient id="paint14_radial_2203_3435" cx="0" cy="0" r="1" gradientUnits="userSpaceOnUse" gradientTransform="translate(343.223 132.06) scale(8.63107 8.62907)">
<stop stop-color="#F68C62"/>
<stop offset="0.21" stop-color="#F8AF91"/>
<stop offset="0.45" stop-color="#FBD1C0"/>
<stop offset="0.66" stop-color="#FDEAE2"/>
<stop offset="0.83" stop-color="#FEF9F7"/>
<stop offset="0.95" stop-color="white"/>
</radialGradient>
<linearGradient id="paint15_linear_2203_3435" x1="327.192" y1="126.332" x2="327.221" y2="159.179" gradientUnits="userSpaceOnUse">
<stop stop-color="#F8AA91"/>
<stop offset="0.27" stop-color="#F7C0B5"/>
<stop offset="0.44" stop-color="#F6BDB1"/>
<stop offset="0.58" stop-color="#F5B7A7"/>
<stop offset="0.7" stop-color="#F4AC96"/>
<stop offset="0.82" stop-color="#F29C7E"/>
<stop offset="0.94" stop-color="#F08960"/>
</linearGradient>
<linearGradient id="paint16_linear_2203_3435" x1="328.883" y1="149.417" x2="328.888" y2="155.126" gradientUnits="userSpaceOnUse">
<stop stop-color="#808080"/>
<stop offset="0.16" stop-color="#848484"/>
<stop offset="0.34" stop-color="#939393"/>
<stop offset="0.54" stop-color="#AAAAAA"/>
<stop offset="0.74" stop-color="#CBCBCB"/>
<stop offset="0.96" stop-color="#F5F5F5"/>
<stop offset="1" stop-color="white"/>
</linearGradient>
<linearGradient id="paint17_linear_2203_3435" x1="318.058" y1="202.698" x2="296.854" y2="260.872" gradientUnits="userSpaceOnUse">
<stop stop-color="#95E4F2"/>
<stop offset="0.29" stop-color="#8BDBF1"/>
<stop offset="0.78" stop-color="#72C3EE"/>
<stop offset="1" stop-color="#65B7ED"/>
</linearGradient>
<linearGradient id="paint18_linear_2203_3435" x1="333.586" y1="202.682" x2="354.805" y2="260.899" gradientUnits="userSpaceOnUse">
<stop stop-color="#95E4F2"/>
<stop offset="0.29" stop-color="#8BDBF1"/>
<stop offset="0.78" stop-color="#72C3EE"/>
<stop offset="1" stop-color="#65B7ED"/>
</linearGradient>
<linearGradient id="paint19_linear_2203_3435" x1="236.116" y1="273.985" x2="180.797" y2="375.895" gradientUnits="userSpaceOnUse">
<stop stop-color="#F98F65"/>
<stop offset="0.04" stop-color="#F8956F"/>
<stop offset="0.17" stop-color="#F8A488"/>
<stop offset="0.3" stop-color="#F8B09C"/>
<stop offset="0.46" stop-color="#F8B8AA"/>
<stop offset="0.65" stop-color="#F8BDB2"/>
<stop offset="1" stop-color="#F8BFB5"/>
</linearGradient>
<linearGradient id="paint20_linear_2203_3435" x1="179.137" y1="229.605" x2="150.438" y2="202.883" gradientUnits="userSpaceOnUse">
<stop stop-color="#F7C0B5"/>
<stop offset="0.2" stop-color="#F7BCAF"/>
<stop offset="0.45" stop-color="#F7B29E"/>
<stop offset="0.74" stop-color="#F8A284"/>
<stop offset="1" stop-color="#F98F65"/>
</linearGradient>
<linearGradient id="paint21_linear_2203_3435" x1="168.645" y1="234.809" x2="139.945" y2="208.086" gradientUnits="userSpaceOnUse">
<stop stop-color="#F7C0B5"/>
<stop offset="0.2" stop-color="#F7BCAF"/>
<stop offset="0.45" stop-color="#F7B29E"/>
<stop offset="0.74" stop-color="#F8A284"/>
<stop offset="1" stop-color="#F98F65"/>
</linearGradient>
<linearGradient id="paint22_linear_2203_3435" x1="165.635" y1="243.279" x2="136.676" y2="216.326" gradientUnits="userSpaceOnUse">
<stop stop-color="#F7C0B5"/>
<stop offset="0.2" stop-color="#F7BCAF"/>
<stop offset="0.45" stop-color="#F7B29E"/>
<stop offset="0.74" stop-color="#F8A284"/>
<stop offset="1" stop-color="#F98F65"/>
</linearGradient>
<linearGradient id="paint23_linear_2203_3435" x1="167.844" y1="253.163" x2="139.23" y2="226.527" gradientUnits="userSpaceOnUse">
<stop stop-color="#F7C0B5"/>
<stop offset="0.2" stop-color="#F7BCAF"/>
<stop offset="0.45" stop-color="#F7B29E"/>
<stop offset="0.74" stop-color="#F8A284"/>
<stop offset="1" stop-color="#F98F65"/>
</linearGradient>
<linearGradient id="paint24_linear_2203_3435" x1="174.481" y1="271.816" x2="185.755" y2="222.77" gradientUnits="userSpaceOnUse">
<stop stop-color="#F89672"/>
<stop offset="0.18" stop-color="#F7A183"/>
<stop offset="0.5" stop-color="#F7B29E"/>
<stop offset="0.78" stop-color="#F7BCAF"/>
<stop offset="1" stop-color="#F7C0B5"/>
</linearGradient>
<linearGradient id="paint25_linear_2203_3435" x1="216.939" y1="216.216" x2="178.96" y2="259.235" gradientUnits="userSpaceOnUse">
<stop stop-color="#F98F65"/>
<stop offset="0.26" stop-color="#F9A183"/>
<stop offset="0.55" stop-color="#F9B19E"/>
<stop offset="0.8" stop-color="#F9BBAF"/>
<stop offset="1" stop-color="#FABFB5"/>
</linearGradient>
<linearGradient id="paint26_linear_2203_3435" x1="490.399" y1="338.577" x2="490.399" y2="258.225" gradientUnits="userSpaceOnUse">
<stop stop-color="#FFBCC0"/>
<stop offset="1" stop-color="#FFCAC1"/>
</linearGradient>
<linearGradient id="paint27_linear_2203_3435" x1="430.667" y1="296.725" x2="492.723" y2="337.677" gradientUnits="userSpaceOnUse">
<stop stop-color="#FAAA94"/>
<stop offset="0.71" stop-color="#FABFB5"/>
<stop offset="0.79" stop-color="#FAB9AC"/>
<stop offset="0.9" stop-color="#FAAA94"/>
<stop offset="1" stop-color="#FA9C7C"/>
</linearGradient>
<linearGradient id="paint28_linear_2203_3435" x1="109.256" y1="180.663" x2="36.4371" y2="180.663" gradientUnits="userSpaceOnUse">
<stop stop-color="#F2F6FB"/>
<stop offset="1" stop-color="#FBFFFF"/>
</linearGradient>
<linearGradient id="paint29_linear_2203_3435" x1="81.4889" y1="172.022" x2="64.2081" y2="189.306" gradientUnits="userSpaceOnUse">
<stop stop-color="#F2F2F2"/>
<stop offset="0.51" stop-color="#F0F0F0"/>
<stop offset="0.7" stop-color="#E9E9E9"/>
<stop offset="0.83" stop-color="#DDDDDD"/>
<stop offset="0.94" stop-color="#CCCCCC"/>
<stop offset="1" stop-color="#BFBFBF"/>
</linearGradient>
<linearGradient id="paint30_linear_2203_3435" x1="-5.34148" y1="151.41" x2="-35.4566" y2="152.683" gradientUnits="userSpaceOnUse">
<stop stop-color="#F2F2F2"/>
<stop offset="0.33" stop-color="#9E9E9E"/>
<stop offset="0.79" stop-color="#2D2D2D"/>
<stop offset="1"/>
</linearGradient>
<linearGradient id="paint31_linear_2203_3435" x1="519.996" y1="191.492" x2="519.996" y2="70.9385" gradientUnits="userSpaceOnUse">
<stop stop-color="#F6F8FB"/>
<stop offset="1" stop-color="white"/>
</linearGradient>
<linearGradient id="paint32_linear_2203_3435" x1="248.493" y1="115.528" x2="138.149" y2="115.528" gradientUnits="userSpaceOnUse">
<stop stop-color="#F2F6FB"/>
<stop offset="1" stop-color="#FBFFFF"/>
</linearGradient>
<linearGradient id="paint33_linear_2203_3435" x1="193.392" y1="162.424" x2="193.392" y2="83.062" gradientUnits="userSpaceOnUse">
<stop stop-color="#FFBCC0"/>
<stop offset="1" stop-color="#FFCAC1"/>
</linearGradient>
<radialGradient id="paint34_radial_2203_3435" cx="0" cy="0" r="1" gradientUnits="userSpaceOnUse" gradientTransform="translate(219.845 96.2518) scale(31.9193 31.9119)">
<stop stop-color="#FF809B"/>
<stop offset="0.08" stop-color="#F57B95"/>
<stop offset="0.22" stop-color="#DB6D85"/>
<stop offset="0.4" stop-color="#B0586B"/>
<stop offset="0.61" stop-color="#753A47"/>
<stop offset="0.85" stop-color="#2A1519"/>
<stop offset="0.97"/>
</radialGradient>
<radialGradient id="paint35_radial_2203_3435" cx="0" cy="0" r="1" gradientUnits="userSpaceOnUse" gradientTransform="translate(157.534 129.496) scale(27.4323 27.4259)">
<stop stop-color="#FB7E98"/>
<stop offset="0.12" stop-color="#C16175"/>
<stop offset="0.24" stop-color="#8D4756"/>
<stop offset="0.36" stop-color="#62313B"/>
<stop offset="0.48" stop-color="#3E1F26"/>
<stop offset="0.6" stop-color="#231115"/>
<stop offset="0.72" stop-color="#0F0709"/>
<stop offset="0.85" stop-color="#030102"/>
<stop offset="0.97"/>
</radialGradient>
<radialGradient id="paint36_radial_2203_3435" cx="0" cy="0" r="1" gradientUnits="userSpaceOnUse" gradientTransform="translate(193.392 118.807) rotate(180) scale(41.5354 41.5258)">
<stop offset="0.35" stop-color="white"/>
<stop offset="1" stop-color="white"/>
</radialGradient>
<linearGradient id="paint37_linear_2203_3435" x1="599.639" y1="241.791" x2="515.733" y2="241.791" gradientUnits="userSpaceOnUse">
<stop stop-color="#F2F6FB"/>
<stop offset="1" stop-color="#FBFFFF"/>
</linearGradient>
<linearGradient id="paint38_linear_2203_3435" x1="557.689" y1="206.276" x2="557.689" y2="278.5" gradientUnits="userSpaceOnUse">
<stop stop-color="#E4FBFF"/>
<stop offset="1" stop-color="#F4FFFF"/>
</linearGradient>
<linearGradient id="paint39_linear_2203_3435" x1="557.727" y1="228.411" x2="557.727" y2="258.76" gradientUnits="userSpaceOnUse">
<stop stop-color="#E4FBFF"/>
<stop offset="1" stop-color="#F4FFFF"/>
</linearGradient>
<linearGradient id="paint40_linear_2203_3435" x1="580.024" y1="284.289" x2="580.024" y2="196.269" gradientUnits="userSpaceOnUse">
<stop/>
<stop offset="0.65" stop-color="#808787"/>
<stop offset="1" stop-color="#C1CCCC"/>
</linearGradient>
<clipPath id="clip0_2203_3435">
<rect width="643" height="392" fill="white"/>
</clipPath>
</defs>
</svg>
