<svg width="60" height="60" viewBox="0 0 60 60" fill="none" xmlns="http://www.w3.org/2000/svg">
<path opacity="0.4" d="M30 5C34.1113 5 38.1591 6.01393 41.7849 7.95197C45.4107 9.89001 48.5026 12.6923 50.7867 16.1107C53.0708 19.5291 54.4766 23.4581 54.8796 27.5496C55.2826 31.641 54.6703 35.7688 53.097 39.5671C51.5237 43.3654 49.0379 46.7171 45.8598 49.3253C42.6818 51.9334 38.9095 53.7176 34.8773 54.5196C30.845 55.3217 26.6771 55.1169 22.7429 53.9235C18.8086 52.7301 15.2294 50.5848 12.3223 47.6777L21.2242 38.7758C22.6674 40.219 24.4442 41.284 26.3973 41.8765C28.3504 42.469 30.4195 42.5706 32.4213 42.1724C34.423 41.7743 36.2957 40.8886 37.8734 39.5938C39.4511 38.299 40.6851 36.6351 41.4662 34.7495C42.2472 32.8638 42.5512 30.8147 42.3512 28.7835C42.1511 26.7524 41.4532 24.8019 40.3193 23.1049C39.1854 21.4078 37.6505 20.0167 35.8505 19.0545C34.0505 18.0924 32.041 17.5891 30 17.5891L30 5Z" fill="#16CA9F"/>
<path d="M12.3223 47.6777C8.82602 44.1814 6.445 39.7268 5.48037 34.8773C4.51574 30.0277 5.01082 25.0011 6.90301 20.4329C8.7952 15.8648 11.9995 11.9603 16.1107 9.21326C20.222 6.46622 25.0555 5 30 5L30 17.5891C27.5454 17.5891 25.1458 18.317 23.1049 19.6807C21.0639 21.0444 19.4732 22.9827 18.5338 25.2505C17.5944 27.5183 17.3487 30.0138 17.8276 32.4213C18.3064 34.8287 19.4885 37.0401 21.2242 38.7758L12.3223 47.6777Z" fill="#16CA9F"/>
<path d="M55 30C55 33.283 54.3534 36.5339 53.097 39.5671C51.8406 42.6002 49.9991 45.3562 47.6777 47.6777L38.7758 38.7758C39.9283 37.6234 40.8425 36.2552 41.4662 34.7495C42.0899 33.2437 42.4109 31.6298 42.4109 30H55Z" fill="#16CA9F"/>
</svg>
