<svg width="209" height="187" viewBox="0 0 209 187" fill="none" xmlns="http://www.w3.org/2000/svg">
<path d="M99.9993 47.4834C65.0393 47.4834 36.666 75.8567 36.666 110.817C36.666 145.777 65.0393 174.15 99.9993 174.15C134.959 174.15 163.333 145.777 163.333 110.817C163.333 75.8567 134.959 47.4834 99.9993 47.4834ZM125.523 99.4168L95.9459 128.93C95.0593 129.88 93.8559 130.323 92.5893 130.323C91.3859 130.323 90.1826 129.88 89.2326 128.93L74.476 114.174C72.6394 112.337 72.6394 109.297 74.476 107.46C76.3127 105.623 79.3527 105.623 81.1893 107.46L92.5893 118.86L118.809 92.7035C120.646 90.8035 123.686 90.8035 125.523 92.7035C127.359 94.5401 127.359 97.5168 125.523 99.4168Z" fill="#16CA9F" style="fill:#16CA9F;fill:color(display-p3 0.0863 0.7922 0.6235);fill-opacity:1;"/>
<circle cx="137" cy="4.81671" r="3" fill="#FF21FB" fill-opacity="0.9" style="fill:#FF21FB;fill:color(display-p3 1.0000 0.1300 0.9850);fill-opacity:0.9;"/>
<circle cx="29" cy="37.8167" r="5" fill="#FC9E1C" fill-opacity="0.45" style="fill:#FC9E1C;fill:color(display-p3 0.9900 0.6210 0.1090);fill-opacity:0.45;"/>
<path d="M175.554 48.2907L171.436 44.4505L166.511 47.1804L168.891 42.0772L164.773 38.237L170.361 38.9233L172.741 33.8201L173.815 39.3474L179.404 40.0336L174.479 42.7634L175.554 48.2907Z" fill="#480CA7" fill-opacity="0.75" style="fill:#480CA7;fill:color(display-p3 0.2810 0.0460 0.6560);fill-opacity:0.75;"/>
<rect x="69.5586" y="9.35785" width="14.8698" height="3.44956" transform="rotate(-39 69.5586 9.35785)" fill="#C9FCBE" fill-opacity="0.45" style="fill:#C9FCBE;fill:color(display-p3 0.7890 0.9900 0.7460);fill-opacity:0.45;"/>
<circle cx="3.85659" cy="76.6733" r="3" transform="rotate(-20.3685 3.85659 76.6733)" fill="#F54721" fill-opacity="0.65" style="fill:#F54721;fill:color(display-p3 0.9600 0.2770 0.1290);fill-opacity:0.65;"/>
<path d="M207.013 123.804L204.286 124.553L202.273 122.566L202.987 119.83L205.715 119.08L207.727 121.067L207.013 123.804Z" fill="#F62584" fill-opacity="0.6" style="fill:#F62584;fill:color(display-p3 0.9640 0.1440 0.5190);fill-opacity:0.6;"/>
<path d="M45.6843 169.708L46.7934 171.334L48.4545 170.278L47.6008 172.052L49.3458 172.963L47.383 173.11L47.4668 175.077L46.3577 173.45L44.6966 174.506L45.5503 172.733L43.8053 171.822L45.7681 171.675L45.6843 169.708Z" fill="#F54721" fill-opacity="0.75" style="fill:#F54721;fill:color(display-p3 0.9600 0.2770 0.1290);fill-opacity:0.75;"/>
</svg>
