<svg width="14" height="14" viewBox="0 0 14 14" fill="none" xmlns="http://www.w3.org/2000/svg">
<path opacity="0.4" d="M1.16699 10.4993V3.49935C1.16699 2.21068 2.21166 1.16602 3.50033 1.16602H10.5003C11.789 1.16602 12.8337 2.21068 12.8337 3.49935V10.4993C12.8337 11.788 11.789 12.8327 10.5003 12.8327H3.50033C2.21166 12.8327 1.16699 11.788 1.16699 10.4993Z" fill="#16CA9F"/>
<path fill-rule="evenodd" clip-rule="evenodd" d="M13.1267 1.42481C13.3063 1.58645 13.3208 1.86308 13.1592 2.04268L8.06226 7.64112C7.49378 8.27276 6.53135 8.35149 5.86778 7.82063L3.8107 6.17497C3.62202 6.02403 3.59143 5.74871 3.74237 5.56003C3.89331 5.37136 4.16863 5.34076 4.3573 5.49171L6.41438 7.13737C6.71601 7.37867 7.15348 7.34289 7.41188 7.05577L12.5088 1.45733C12.6704 1.27773 12.9471 1.26317 13.1267 1.42481Z" fill="#16CA9F"/>
</svg>
