<svg width="60" height="60" viewBox="0 0 60 60" fill="none" xmlns="http://www.w3.org/2000/svg">
<circle cx="15" cy="10" r="5" fill="#16CA9F" style="fill:#16CA9F;fill:color(display-p3 0.0863 0.7922 0.6235);fill-opacity:1;"/>
<ellipse opacity="0.4" cx="15" cy="20" rx="7.5" ry="5" fill="#16CA9F" style="fill:#16CA9F;fill:color(display-p3 0.0863 0.7922 0.6235);fill-opacity:1;"/>
<circle cx="45" cy="40" r="5" fill="#16CA9F" style="fill:#16CA9F;fill:color(display-p3 0.0863 0.7922 0.6235);fill-opacity:1;"/>
<path fill-rule="evenodd" clip-rule="evenodd" d="M28.125 5C28.125 3.96447 28.9645 3.125 30 3.125C44.8427 3.125 56.875 15.1573 56.875 30C56.875 31.0355 56.0355 31.875 55 31.875C53.9645 31.875 53.125 31.0355 53.125 30C53.125 17.2284 42.7716 6.875 30 6.875C28.9645 6.875 28.125 6.03553 28.125 5ZM5 28.125C6.03553 28.125 6.875 28.9645 6.875 30C6.875 42.7716 17.2284 53.125 30 53.125C31.0355 53.125 31.875 53.9645 31.875 55C31.875 56.0355 31.0355 56.875 30 56.875C15.1573 56.875 3.125 44.8427 3.125 30C3.125 28.9645 3.96447 28.125 5 28.125Z" fill="#16CA9F" style="fill:#16CA9F;fill:color(display-p3 0.0863 0.7922 0.6235);fill-opacity:1;"/>
<ellipse opacity="0.4" cx="45" cy="50" rx="7.5" ry="5" fill="#16CA9F" style="fill:#16CA9F;fill:color(display-p3 0.0863 0.7922 0.6235);fill-opacity:1;"/>
</svg>
