<svg width="60" height="60" viewBox="0 0 60 60" fill="none" xmlns="http://www.w3.org/2000/svg">
<g opacity="0.4">
<path d="M3 29.75C3 40.1053 11.5473 48.5 22.0909 48.5H43.9091C51.4402 48.5 57.5455 42.5038 57.5455 35.1071C57.5455 30.8674 55.5396 27.0878 52.409 24.6338C50.078 22.8066 47.1234 21.7143 43.9091 21.7143C42.422 21.7143 40.9905 21.9481 39.6506 22.3803C36.7354 15.6886 29.9706 11 22.0909 11C20.1994 11 18.3721 11.2702 16.6468 11.7734C8.75558 14.0751 3 21.2524 3 29.75Z" fill="#16CA9F"/>
</g>
<path fill-rule="evenodd" clip-rule="evenodd" d="M21 21C18.3766 21 16.25 23.1266 16.25 25.75V26.25C16.25 26.2966 16.2542 26.3421 16.2624 26.3864H15C13.8954 26.3864 13 27.2818 13 28.3864V37.75C13 38.8545 13.8954 39.75 15 39.75H27C28.1046 39.75 29 38.8545 29 37.75V28.3864C29 27.2818 28.1046 26.3864 27 26.3864H25.7376C25.7458 26.3421 25.75 26.2966 25.75 26.25V25.75C25.75 23.1266 23.6234 21 21 21ZM24.2624 26.3864C24.2542 26.3421 24.25 26.2966 24.25 26.25V25.75C24.25 23.9551 22.7949 22.5 21 22.5C19.2051 22.5 17.75 23.9551 17.75 25.75V26.25C17.75 26.2966 17.7458 26.3421 17.7376 26.3864H24.2624ZM23 33.0682C23 34.1225 22.1046 34.9773 21 34.9773C19.8954 34.9773 19 34.1225 19 33.0682C19 32.0138 19.8954 31.1591 21 31.1591C22.1046 31.1591 23 32.0138 23 33.0682Z" fill="#16CA9F"/>
</svg>
