<svg width="15" height="16" viewBox="0 0 15 16" fill="none" xmlns="http://www.w3.org/2000/svg">
<path fill-rule="evenodd" clip-rule="evenodd" d="M12.8519 2.8409C12.8519 2.66903 12.7851 2.50746 12.6637 2.38579C12.4201 2.14311 11.9986 2.14311 11.755 2.38579L5.74289 8.40837L5.4081 9.65396L6.65152 9.31858L12.6637 3.296C12.7851 3.17434 12.8519 3.01277 12.8519 2.8409ZM14.1371 2.8409C14.1371 3.35651 13.936 3.84187 13.5723 4.20621L7.43806 10.3511C7.35838 10.4309 7.25942 10.4882 7.15082 10.5178L4.66526 11.1873C4.60999 11.2021 4.55409 11.2092 4.49818 11.2092C4.32982 11.2092 4.16596 11.1429 4.04386 11.0206C3.88129 10.8577 3.81767 10.6208 3.87743 10.3981L4.54573 7.90821C4.57529 7.79942 4.63248 7.70029 4.71217 7.62047L10.8464 1.47558C11.5745 0.746257 12.8442 0.746257 13.5723 1.47558C13.936 1.83993 14.1371 2.32529 14.1371 2.8409ZM12.8519 8.63432V13.1403C12.8519 14.205 11.987 15.0714 10.9242 15.0714H1.92779C0.864936 15.0714 0 14.205 0 13.1403V4.12833C0 3.06362 0.864936 2.19719 1.92779 2.19719H6.42597C6.78133 2.19719 7.06857 2.48493 7.06857 2.8409C7.06857 3.19687 6.78133 3.48461 6.42597 3.48461H1.92779C1.57308 3.48461 1.28519 3.773 1.28519 4.12833V13.1403C1.28519 13.4956 1.57308 13.784 1.92779 13.784H10.9242C11.2789 13.784 11.5667 13.4956 11.5667 13.1403V8.63432C11.5667 8.27834 11.854 7.9906 12.2093 7.9906C12.5647 7.9906 12.8519 8.27834 12.8519 8.63432Z" fill="#919CA2" style="fill:#919CA2;fill:color(display-p3 0.5686 0.6118 0.6353);fill-opacity:1;"/>
</svg>
