<svg width="15" height="16" viewBox="0 0 15 16" fill="none" xmlns="http://www.w3.org/2000/svg">
<path fill-rule="evenodd" clip-rule="evenodd" d="M13.2863 8.00002C13.2863 4.80952 10.6884 2.2143 7.49467 2.2143C4.30091 2.2143 1.70304 4.80952 1.70304 8.00002C1.70304 11.1905 4.30091 13.7857 7.49467 13.7857C10.6884 13.7857 13.2863 11.1905 13.2863 8.00002ZM14.5733 8.00002C14.5733 11.8989 11.3976 15.0714 7.49467 15.0714C3.59176 15.0714 0.416016 11.8989 0.416016 8.00002C0.416016 4.10109 3.59176 0.928589 7.49467 0.928589C11.3976 0.928589 14.5733 4.10109 14.5733 8.00002ZM11.5357 9.88553C11.4263 10.1195 11.1946 10.2565 10.952 10.2565C10.8607 10.2565 10.7686 10.2365 10.6805 10.196L7.22287 8.58246C6.99635 8.47639 6.85156 8.25011 6.85156 8.00003V4.06253C6.85156 3.70703 7.13921 3.41968 7.49508 3.41968C7.85094 3.41968 8.13859 3.70703 8.13859 4.06253V7.59053L11.2249 9.03118C11.5473 9.18161 11.6863 9.56411 11.5357 9.88553Z" fill="white" style="fill:white;fill:white;fill-opacity:1;"/>
</svg>
