<svg width="60" height="60" viewBox="0 0 60 60" fill="none" xmlns="http://www.w3.org/2000/svg">
<path d="M41.1476 7.36429L40 8.50587L38.8524 7.36429C35.6835 4.21191 30.5456 4.2119 27.3767 7.36429C24.2078 10.5167 24.2078 15.6277 27.3767 18.7801L37.7049 29.0543C38.9724 30.3152 41.0276 30.3152 42.2951 29.0543L52.6233 18.7801C55.7922 15.6277 55.7922 10.5167 52.6233 7.36429C49.4544 4.2119 44.3165 4.2119 41.1476 7.36429Z" fill="#16CA9F"/>
<path opacity="0.4" d="M10 25H5V47.5L15.7771 52.8885C18.5542 54.2771 21.6165 55 24.7214 55H45C47.7614 55 50 52.7614 50 50C50 47.2386 47.7614 45 45 45H41.041C38.7123 45 36.4156 44.4578 34.3328 43.4164L27.5477 39.1151C27.7779 38.8112 27.9751 38.4747 28.132 38.1086C29.166 35.6961 28.0602 32.9013 25.6556 31.8493L10 25Z" fill="#16CA9F"/>
</svg>
