<svg width="161" height="70" viewBox="0 0 161 70" fill="none" xmlns="http://www.w3.org/2000/svg">
<path d="M97.2323 35.0628C97.2323 37.354 97.2323 39.6452 97.2323 41.9363C97.2323 42.7659 96.9431 42.9634 95.979 42.9634C95.4005 42.9634 94.8703 42.9634 94.2919 42.9634C93.5688 42.9634 93.135 42.6869 93.135 42.0944C93.135 40.3957 93.135 38.6576 93.1832 36.9589C93.1832 36.2874 93.2314 36.2479 92.4119 36.2479C90.5802 36.2479 88.7003 36.2479 86.8685 36.2479C86.2419 36.2479 86.1455 36.4059 86.1455 36.8799C86.1937 38.5786 86.1455 40.3167 86.1455 42.0153C86.1455 42.7659 85.8563 42.9634 84.9404 43.0029C84.3138 43.0029 83.6871 43.0029 83.0605 43.0029C82.3374 43.0029 82 42.7264 82 42.1339C82 41.4623 82 40.8302 82 40.1587C82 36.2479 82 32.337 82 28.4262C82 27.3596 82.241 27.1621 83.5425 27.1621C84.0245 27.1621 84.5066 27.1621 84.9886 27.1621C85.8563 27.1621 86.1455 27.3991 86.1455 28.1102C86.1455 29.6113 86.1455 31.1124 86.1455 32.6136C86.1455 32.7716 86.1455 32.9296 86.1455 33.0481C86.0973 33.3641 86.2901 33.4826 86.6757 33.4826C88.7003 33.4826 90.6766 33.4826 92.7012 33.4826C93.0386 33.4826 93.1832 33.4036 93.1832 33.0876C93.135 31.5075 93.135 29.8878 93.135 28.3077C93.135 27.4386 93.4724 27.1621 94.5811 27.1621C95.1113 27.1621 95.6416 27.1621 96.22 27.1621C96.9431 27.1621 97.2323 27.3991 97.2805 27.9917C97.3287 28.4657 97.2805 28.9398 97.2805 29.4138C97.2323 31.2309 97.2323 33.1271 97.2323 35.0628Z" fill="#16CA9F"/>
<path d="M158.884 42.9241C158.499 42.9241 158.113 42.8846 157.728 42.9241C157.053 43.0031 156.763 42.7266 156.571 42.2525C156.233 41.423 155.944 40.5934 155.558 39.7638C155.462 39.5663 155.173 39.3688 154.932 39.3688C152.763 39.3293 150.642 39.3293 148.472 39.3688C148.28 39.3688 148.039 39.5663 147.942 39.7243C147.508 40.6329 147.123 41.5415 146.737 42.4501C146.593 42.7661 146.351 42.9241 145.918 42.9241C145.098 42.8846 144.327 42.8846 143.507 42.9241C143.074 42.9241 142.881 42.8056 142.881 42.4896C142.929 42.055 142.977 41.6205 143.122 41.2254C144.038 39.1318 144.954 36.9986 145.869 34.9049C146.834 32.6927 147.798 30.4411 148.81 28.2289C148.858 28.1104 148.954 28.0313 149.003 27.9128C149.292 27.2413 149.774 26.9648 150.69 27.0043C151.606 27.0833 152.522 27.0438 153.437 27.0043C154.016 26.9648 154.401 27.2018 154.594 27.6363C155.076 28.6634 155.558 29.6905 155.992 30.7176C156.667 32.2977 157.342 33.9173 158.017 35.4975C158.788 37.3146 159.607 39.1318 160.379 40.9489C160.572 41.423 160.764 41.897 160.861 42.371C160.957 42.6871 160.716 42.8846 160.282 42.8846C159.897 42.9241 159.415 42.9241 158.884 42.9241ZM151.798 30.4015C151.75 30.4015 151.702 30.4015 151.654 30.4015C150.738 32.5347 149.87 34.7074 148.954 36.8801C150.834 36.8801 152.618 36.8801 154.45 36.8801C153.582 34.7074 152.714 32.5347 151.798 30.4015Z" fill="#16CA9F"/>
<path d="M133.241 27.0825C133.723 27.0825 134.253 27.122 134.735 27.0825C135.313 27.043 135.699 27.28 135.892 27.7145C136.374 28.7416 136.856 29.7687 137.29 30.7958C137.965 32.3759 138.639 33.9956 139.314 35.5757C140.086 37.3533 140.857 39.1705 141.628 40.9481C141.821 41.3827 142.014 41.8567 142.11 42.2912C142.207 42.7258 141.965 42.9233 141.387 42.9233C140.519 42.8838 139.604 42.8838 138.736 42.9233C138.254 42.9233 137.965 42.8048 137.82 42.4493C137.483 41.6197 137.097 40.7901 136.76 39.921C136.615 39.526 136.374 39.368 135.892 39.368C133.867 39.368 131.795 39.368 129.77 39.368C129.384 39.368 129.24 39.4865 129.095 39.763C128.758 40.6716 128.324 41.5802 127.938 42.4493C127.794 42.7653 127.553 42.9233 127.119 42.8838C126.299 42.8443 125.528 42.8443 124.709 42.8838C124.275 42.8838 124.082 42.7258 124.082 42.4493C124.082 42.0937 124.13 41.7777 124.275 41.4617C125.287 39.0915 126.348 36.7213 127.36 34.3511C128.228 32.3759 129.047 30.4007 129.915 28.4256C130.541 27.043 130.541 27.043 132.325 27.043C132.71 27.0825 133 27.0825 133.241 27.0825ZM133 30.4007C132.951 30.4007 132.903 30.4007 132.855 30.4007C131.939 32.5339 131.072 34.7066 130.156 36.8793C132.036 36.8793 133.819 36.8793 135.651 36.8793C134.783 34.7066 133.916 32.5339 133 30.4007Z" fill="#16CA9F"/>
<path d="M109.476 35.1016C109.476 32.929 109.476 30.7563 109.476 28.5836C109.476 27.3985 109.91 27.043 111.356 27.043C113.333 27.043 115.309 27.043 117.237 27.043C117.526 27.043 117.815 27.201 118.105 27.28C118.298 27.3195 118.442 27.3985 118.587 27.438C121.142 27.675 122.877 29.7292 122.877 31.3488C122.877 32.2574 122.877 33.1265 122.491 34.0351C121.913 35.2202 120.997 36.1287 119.551 36.6423C119.069 36.8003 118.49 36.8003 118.105 37.0373C116.803 37.7484 115.405 37.2743 114.104 37.3928C113.67 37.4323 113.525 37.5508 113.525 37.9064C113.525 39.2495 113.525 40.5926 113.525 41.9357C113.525 42.7258 113.236 42.9233 112.272 42.9233C111.645 42.9233 110.971 42.8838 110.344 42.9233C109.814 42.9628 109.573 42.7258 109.476 42.3307C109.428 42.0542 109.38 41.7777 109.38 41.5012C109.476 39.368 109.476 37.2348 109.476 35.1016ZM113.622 32.2179C113.622 32.8895 113.622 33.6005 113.622 34.2721C113.622 34.9831 113.622 34.9831 114.441 34.9831C114.827 34.9831 115.212 34.9436 115.598 34.9831C117.092 35.1016 118.49 34.1141 118.587 32.929C118.635 32.3364 118.635 31.7044 118.539 31.1118C118.346 30.2427 117.141 29.4922 116.032 29.4922C115.454 29.4922 114.827 29.4922 114.248 29.4922C113.766 29.4922 113.67 29.6107 113.67 29.9662C113.622 30.7168 113.622 31.4673 113.622 32.2179Z" fill="#16CA9F"/>
<path d="M105.427 35.0636C105.427 37.3548 105.427 39.646 105.427 41.9372C105.427 42.7273 105.138 42.9643 104.173 42.9643C103.595 42.9643 103.017 42.9643 102.438 42.9643C101.619 42.9643 101.329 42.6878 101.281 42.0162C101.281 40.3176 101.281 38.5794 101.281 36.8808C101.281 34.0366 101.281 31.1528 101.281 28.3086C101.281 27.321 101.522 27.084 102.776 27.084C103.306 27.084 103.836 27.084 104.318 27.084C105.089 27.084 105.379 27.321 105.427 27.9926C105.427 28.6641 105.427 29.3752 105.427 30.0467C105.427 31.7059 105.427 33.365 105.427 35.0636Z" fill="#16CA9F"/>
<path d="M31.4669 12.2788C30.8638 12.3142 30.2607 12.2788 29.6931 12.4202C27.529 12.915 25.6133 13.8694 24.3361 15.8134C24.1942 16.0255 24.0523 16.0962 23.804 16.0608C23.2009 15.9548 22.5978 15.9195 21.9947 15.8488C21.8883 15.8488 21.7819 15.8134 21.498 15.7781C21.7109 15.6013 21.8173 15.46 21.9592 15.4246C24.4426 14.3996 26.784 13.1625 29.09 11.784C29.2674 11.6779 29.4802 11.6426 29.6576 11.6426C30.6509 11.7133 31.6088 11.8193 32.6021 11.9253C32.815 11.9607 33.0278 12.0667 33.2407 12.1374C33.0278 12.2435 32.815 12.3495 32.6021 12.4202C32.4957 12.4555 32.3538 12.4202 32.1055 12.4555C32.2828 12.5616 32.3893 12.5969 32.4602 12.6323C33.4181 12.8797 34.1986 13.4099 34.8371 14.1522C35.1564 14.541 35.1564 14.8591 34.7307 15.1065C33.7019 15.7781 32.6021 16.1669 31.3959 15.7781C31.0766 15.672 30.7574 15.566 30.4026 15.5306C29.0545 15.2832 27.7773 16.591 27.6354 17.8635C27.6 18.2523 27.5645 18.6411 27.529 18.9946C27.4581 19.8429 27.8483 20.4791 28.5223 20.9739C29.764 21.9283 31.2185 22.3524 32.744 22.5292C34.3759 22.7059 36.0433 22.7413 37.6752 22.918C39.6264 23.1301 41.5067 23.6249 43.0676 24.862C44.806 26.2759 45.5155 28.0785 45.0898 30.27C44.806 31.7545 43.7417 32.7089 42.4645 33.4511C42.3581 33.5218 42.1098 33.4865 42.0033 33.3804C41.1519 32.7442 40.265 32.2847 39.2362 32.0373C39.1298 32.0019 39.0588 31.9312 38.8459 31.8252C39.1298 31.7545 39.3071 31.6838 39.449 31.6485C40.3359 31.4717 41.1164 31.0476 41.755 30.4114C42.2871 29.9165 42.3936 29.351 42.1807 28.6794C41.8969 27.7251 41.2583 27.0535 40.3714 26.7354C39.4845 26.4172 38.5621 26.1698 37.6397 26.0284C36.2917 25.8517 34.9081 25.8164 33.5245 25.7457C31.7862 25.6396 30.0478 25.3569 28.4514 24.6853C27.1388 24.1198 26.0035 23.3068 25.1521 22.1404C23.0945 19.4541 24.1588 15.3186 27.2807 13.6927C28.345 13.1271 29.5157 12.8443 30.6864 12.703C30.9347 12.6676 31.1476 12.5616 31.3959 12.4909C31.5024 12.3848 31.4669 12.3495 31.4669 12.2788ZM32.5666 13.4806C32.4247 13.3392 32.3183 13.2332 32.2474 13.2332C32.1764 13.2332 32.1055 13.3392 31.999 13.4099C32.07 13.4806 32.1409 13.5866 32.2119 13.622C32.3183 13.6573 32.4247 13.5513 32.5666 13.4806Z" fill="#16CA9F"/>
<path d="M23.9465 8.00399C24.6915 7.72122 25.3301 7.4738 25.9687 7.22638C25.9332 7.19103 25.8977 7.15568 25.8977 7.08499C25.0463 7.22638 24.1949 7.40311 23.3434 7.54449C21.747 7.82726 20.1506 7.79191 18.6606 7.15568C18.1994 6.97895 17.8091 6.66084 17.3834 6.37807C17.0996 6.16599 17.0996 5.91857 17.4189 5.70649C20.0796 4.00988 22.8113 2.45465 25.7913 1.39427C26.4299 1.18219 27.1394 0.970118 27.8134 0.970118C29.9775 0.899426 30.687 1.95981 30.5806 3.90384C30.5451 4.61077 30.5096 5.35303 30.5096 6.05996C30.5806 7.9333 31.8932 9.27645 33.8089 9.3118C34.4475 9.3118 34.8023 9.55922 35.0151 10.1248C35.228 10.5843 35.4408 11.0438 35.6892 11.5033C35.5828 11.5386 35.5118 11.5739 35.4408 11.5739C34.0218 11.5739 32.6382 11.5739 31.2192 11.5739C31.0773 11.5739 30.9354 11.4679 30.7935 11.3972C30.8289 11.2912 30.8999 11.1851 30.9708 11.0084C30.8289 11.0084 30.6515 11.0084 30.5096 11.0084C29.9065 11.0791 29.3744 11.0791 28.8423 10.6196C28.523 10.3368 28.0618 10.1601 27.6715 9.91268C27.5651 9.84199 27.4587 9.7713 27.2458 9.66526C27.8134 9.48853 28.2392 9.3118 28.7004 9.17041C28.7004 9.13507 28.6649 9.06437 28.6649 9.02903C28.2392 9.06437 27.8134 9.13507 27.3877 9.17041C26.962 9.20576 26.5363 9.27645 26.1106 9.3118C25.9687 9.3118 25.8268 9.34714 25.7203 9.27645C25.1882 8.88764 24.6206 8.46349 23.9465 8.00399Z" fill="#16CA9F"/>
<path d="M45.6932 7.22538C46.3317 7.47281 46.9703 7.72023 47.6444 7.96765C46.6865 8.8513 45.7641 9.62892 44.3451 9.16942C43.8839 9.02803 43.3872 9.06338 42.8905 8.99269C42.8905 9.02803 42.8551 9.06338 42.8551 9.09873C43.3162 9.27546 43.742 9.45219 44.3096 9.69961C43.8839 9.91169 43.5646 10.0884 43.2808 10.2651C43.1389 10.3358 42.926 10.4065 42.8196 10.5479C42.252 11.1841 41.5424 11.1135 40.8329 11.0074C40.691 10.9721 40.5136 11.0074 40.3362 11.1135C40.4781 11.1488 40.62 11.2195 40.8684 11.2902C40.7265 11.4316 40.5846 11.573 40.4781 11.6083C38.9881 11.6436 37.5336 11.6083 35.9727 11.6083C36.0081 11.3962 36.0436 11.2548 36.0791 11.1488C36.2565 10.76 36.4693 10.3712 36.6467 9.94703C36.8596 9.48753 37.1434 9.34615 37.64 9.3108C38.8108 9.27546 39.8041 8.88665 40.4781 7.86161C40.9039 7.22538 41.0812 6.51846 41.0812 5.77619C41.0812 4.99858 41.0103 4.22096 41.0103 3.44335C40.9393 1.46397 42.3229 0.757047 43.9903 1.00447C46.1543 1.32258 48.0701 2.24158 49.9503 3.26662C51.3694 4.00889 52.7175 4.89254 54.101 5.7055C54.5267 5.95292 54.5267 6.09431 54.172 6.41242C53.7817 6.73054 53.356 7.01331 52.8948 7.19004C51.2275 7.86161 49.4891 7.86161 47.7508 7.50815C47.0767 7.36677 46.3672 7.26073 45.6577 7.15469C45.7641 7.15469 45.7286 7.19004 45.6932 7.22538Z" fill="#16CA9F"/>
<path d="M32.071 26.2764C31.4324 26.7006 30.7583 27.0541 30.1907 27.5489C29.091 28.5739 29.2683 29.9524 30.51 30.8007C31.6452 31.5784 32.9224 31.8258 34.2705 31.9318C35.6541 32.0379 37.0376 32.1085 38.4212 32.2853C41.011 32.6741 42.9267 34.6888 43.2105 37.2691C43.3879 38.8243 42.7138 40.0614 41.4367 40.9451C41.2948 41.0511 41.011 41.0511 40.8691 40.9804C40.0886 40.5916 39.3436 40.1675 38.5276 39.7433C38.6341 39.708 38.705 39.6373 38.776 39.6019C38.8469 39.5666 38.9179 39.5666 38.9888 39.5312C40.7981 39.0364 41.1529 37.8346 40.266 36.2087C39.8757 35.5371 39.2017 35.113 38.4567 35.0069C37.7472 34.9009 37.0376 34.8302 36.3636 34.7948C34.3769 34.7595 32.3902 34.6535 30.4745 33.9112C29.3393 33.487 28.3105 32.8862 27.53 31.9318C26.1819 30.2352 26.2883 27.5842 27.7429 25.7462C27.8493 25.6049 27.9202 25.4635 28.0621 25.3928C28.1686 25.3221 28.3814 25.2514 28.4879 25.2867C29.6231 25.7462 30.7583 26.0997 31.9645 26.2057C32.0355 26.2411 32.071 26.2764 32.071 26.2764Z" fill="#16CA9F"/>
<path d="M37.2149 47.2015C38.7049 46.53 40.1239 45.7877 39.3434 43.8083C38.9177 42.7479 37.5696 42.0057 36.5053 42.1824C36.5053 42.8893 36.5053 43.6316 36.5053 44.3385C36.5053 45.0454 36.5053 45.717 36.5053 46.4239C36.5053 46.7774 36.3989 46.9541 36.0087 46.9541C35.1927 46.9541 35.1572 46.9541 35.1572 46.1412C35.1218 45.0101 35.1218 43.9144 35.0863 42.7833C35.0863 42.4298 35.1927 42.2531 35.5829 42.2884C35.7249 42.2884 35.8668 42.2884 36.0087 42.2178C35.2637 42.1824 34.4832 42.1471 33.7382 42.0764C32.6739 41.9703 31.6451 41.7229 30.6872 41.1927C29.0908 40.3091 28.3103 38.6124 28.736 36.8098C28.9134 36.0322 29.3036 35.2899 29.6229 34.583C29.6939 34.4416 29.9777 34.3002 30.1196 34.3356C30.971 34.583 31.8225 34.8658 32.6384 35.1132C32.6739 35.1132 32.7094 35.1839 32.7803 35.2192C32.0353 35.502 31.5741 35.9968 31.2903 36.7038C30.7936 37.9409 31.1484 38.7892 32.3546 39.3547C33.2415 39.7435 34.1639 39.8496 35.0508 39.8849C35.0153 38.4004 34.9798 36.9512 34.9798 35.502C34.9798 35.396 35.1572 35.2899 35.2282 35.2192H35.2637C36.6472 35.1132 36.6827 35.1132 36.6472 36.4917C36.6472 37.446 36.6118 38.4004 36.5763 39.3547C36.5763 39.6728 36.4699 39.7789 36.1506 39.7435C35.9022 39.7082 35.6894 39.7435 35.441 39.8142C36.0796 39.8849 36.7537 39.9556 37.3922 40.0616C39.4499 40.3798 41.0108 41.8996 41.4365 43.8437C41.7558 45.4342 41.0108 47.0955 39.6272 47.9438C39.4853 48.0145 39.308 48.0852 39.1661 48.0499C38.5275 47.8024 37.8889 47.5197 37.2149 47.2015Z" fill="#16CA9F"/>
<path d="M0 9.70025C5.64073 9.02867 11.1395 7.93294 16.4965 6.23633C16.9577 7.72086 18.2703 7.86225 19.5474 8.07432C19.9377 8.14502 20.3279 8.14502 20.7181 8.18036C20.8246 8.18036 20.9665 8.21571 21.0729 8.35709C20.7536 8.46313 20.4698 8.56917 20.1505 8.67521C17.0641 9.91232 13.9422 10.9374 10.7138 11.6089C9.29478 11.8917 7.84026 12.0684 6.38573 12.1745C4.96668 12.2805 3.54763 12.1038 2.19953 11.5736C1.45453 11.2908 0.851431 10.8313 0.319286 10.1951C0.212858 10.0537 0.141905 9.91232 0 9.70025Z" fill="#16CA9F"/>
<path d="M50.4834 8.21469C51.2284 8.14399 51.9025 8.10865 52.541 7.96726C53.0022 7.89657 53.4634 7.71984 53.9246 7.54311C54.4213 7.33103 54.847 7.01292 55.0244 6.48273C55.0953 6.27065 55.2017 6.19996 55.4501 6.27065C57.5077 6.83619 59.5298 7.50776 61.6229 7.96726C64.4256 8.56815 67.2637 8.9923 70.1018 9.48714C70.563 9.55784 70.9887 9.62853 71.5208 9.73457C71.4499 9.84061 71.4144 9.94664 71.3434 10.0173C70.1727 11.2544 68.7182 11.9614 67.0153 12.1028C65.3125 12.2795 63.6451 12.0321 62.0132 11.7139C58.9268 11.1484 55.9113 10.2294 52.9313 9.16903C52.1508 8.88626 51.3703 8.63884 50.5898 8.35607C50.5898 8.35607 50.5544 8.32072 50.4834 8.21469Z" fill="#16CA9F"/>
<path d="M39.3787 22.4235C39.8399 22.3175 40.2301 22.2115 40.6558 22.1054C41.6137 21.8933 42.4651 21.5045 43.2456 20.9037C44.0261 20.3028 44.3454 19.5252 44.2035 18.5355C44.168 18.3587 44.168 18.2174 44.168 18.0406C44.1325 16.9095 43.5294 16.1319 42.607 15.6017C42.0039 15.2483 41.3299 15.3543 40.7268 15.6017C39.6625 15.9905 38.6337 15.8138 37.6403 15.3897C37.5339 15.3543 37.392 15.2836 37.2856 15.1776C36.6115 14.7181 36.6115 14.4707 37.1437 13.8344C38.2434 12.562 39.627 12.3146 41.2235 12.5973C42.5361 12.8447 43.8132 13.1629 44.9485 13.8698C46.403 14.7888 47.2899 16.1319 47.4673 17.8285C47.5382 18.6062 47.5382 19.3838 47.3963 20.1614C47.077 21.858 45.9063 22.9184 44.5937 23.8727C43.9906 24.3322 43.5294 24.2969 42.8554 23.9434C41.7911 23.3779 40.6558 22.9891 39.5206 22.5296C39.5206 22.5649 39.5206 22.5296 39.3787 22.4235ZM39.8399 13.587C39.8399 13.5163 39.8399 13.4103 39.8754 13.3396C39.698 13.3396 39.5206 13.3042 39.3432 13.3042C39.3432 13.3042 39.3077 13.481 39.3077 13.5517C39.4851 13.587 39.6625 13.587 39.8399 13.587Z" fill="#16CA9F"/>
<path d="M6.38509 12.7749C6.84628 12.7042 7.30747 12.6689 7.76866 12.5982C12.1677 11.8559 16.4249 10.6542 20.5401 8.92221C20.9304 8.74548 21.3206 8.5334 21.7463 8.35667C22.4913 8.00321 23.2008 8.0739 23.8394 8.63944C24.2297 8.95756 24.6199 9.27567 25.0811 9.62913C25.0811 9.62913 25.0456 9.73517 24.9747 9.77052C22.2075 11.5378 19.263 12.9517 16.0701 13.7293C13.4094 14.3655 10.7487 14.3655 8.08795 13.6939C7.48485 13.5525 6.91723 13.2344 6.34961 12.987C6.34961 12.9163 6.38509 12.8456 6.38509 12.7749Z" fill="#16CA9F"/>
<path d="M65.2406 12.9503C64.3892 13.233 63.5732 13.5511 62.7218 13.7632C59.7418 14.4701 56.8327 14.152 53.9591 13.1977C51.5468 12.3847 49.2408 11.3243 47.0767 9.98119C46.9348 9.87515 46.7575 9.8398 46.5801 9.73377C46.651 9.62773 46.6865 9.55703 46.7575 9.48634C47.1122 9.20357 47.5025 8.95615 47.8217 8.63804C48.4958 8.0725 49.2053 8.00181 49.9858 8.39061C52.7529 9.73377 55.662 10.7235 58.642 11.4657C60.4513 11.9252 62.2961 12.2787 64.1408 12.6675C64.4956 12.7382 64.8504 12.7382 65.2051 12.7735C65.2051 12.8089 65.2051 12.8796 65.2406 12.9503Z" fill="#16CA9F"/>
<path d="M57.6137 14.5418C56.9042 15.1427 56.1592 15.3901 55.3787 15.5315C52.8244 15.991 50.412 15.4608 48.1415 14.3297C46.4032 13.4461 44.6649 12.4918 42.9265 11.5728C42.6782 11.4314 42.6427 11.2546 42.8556 11.1486C43.5651 10.7598 44.2746 10.3356 45.0551 10.0175C45.4808 9.80545 45.942 9.94683 46.3677 10.1943C48.5318 11.4667 50.8023 12.6331 53.2147 13.3754C54.5628 13.7996 55.9463 14.0823 57.3299 14.4004C57.3654 14.4711 57.4363 14.5065 57.6137 14.5418Z" fill="#16CA9F"/>
<path d="M14.0488 14.5079C14.51 14.4372 14.8648 14.4019 15.2195 14.3312C18.0222 13.7657 20.6119 12.7053 23.1308 11.3975C23.8048 11.044 24.5143 10.6905 25.1529 10.2664C25.827 9.84224 26.4655 9.84224 27.1396 10.1604C27.7427 10.4431 28.2748 10.8319 28.8424 11.1854C28.9134 11.2207 28.8779 11.5035 28.8424 11.5388C26.501 12.776 24.2305 14.2252 21.7117 15.0735C19.796 15.7097 17.8448 15.8864 15.8581 15.4269C15.2195 15.3209 14.6164 15.0735 14.0488 14.5079Z" fill="#16CA9F"/>
<path d="M33.3831 42.7135C33.2057 42.8549 33.0993 42.9609 32.9928 43.0316C31.9285 43.9506 31.964 45.5058 33.0993 46.3541C34.0571 47.0964 35.1569 47.3085 36.3276 47.4499C37.5338 47.6266 38.6336 47.98 39.3786 49.0404C40.5848 50.737 39.7688 52.9638 38.2078 53.8475C38.0659 53.9182 37.8531 53.9182 37.7112 53.8828C37.4274 53.8121 37.1081 53.7061 36.8243 53.6001C36.7533 53.5647 36.6469 53.494 36.6114 53.4233C36.6114 53.388 36.6824 53.282 36.7533 53.2466C36.9662 53.1406 37.179 53.0345 37.3919 52.9285C38.0305 52.5397 38.4207 51.9742 38.4917 51.1965C38.5626 50.0301 37.6757 49.1818 36.2921 49.1465C35.0859 49.1111 33.9507 48.899 32.8864 48.3689C31.4319 47.6266 30.4385 46.5309 30.3321 44.8342C30.2612 43.8799 30.5804 43.0316 31.0771 42.254C31.1481 42.1479 31.3964 42.0419 31.5028 42.0772C32.0704 42.254 32.6735 42.4661 33.3831 42.7135Z" fill="#16CA9F"/>
<path d="M35.122 55.0134C34.0577 55.9324 33.8094 56.9928 34.3061 58.2299C34.5189 58.7248 34.8737 59.0429 35.4768 59.2196C35.4768 58.8662 35.4768 58.6187 35.4768 58.336C35.4413 57.417 35.4413 56.498 35.3703 55.5436C35.3703 55.1548 35.5122 55.0488 35.867 55.0488C36.2572 55.0488 36.2218 55.2962 36.2218 55.5083C36.1863 56.5687 36.1863 57.6644 36.1508 58.7248C36.1508 58.8662 36.1508 59.0075 36.1508 59.1843C36.683 59.1843 37.0732 58.9369 37.3215 58.5481C38.2084 57.2049 37.7473 55.1195 35.867 54.6246C35.0156 54.3772 34.1287 54.1298 33.3837 53.6349C32.0356 52.822 31.5744 51.09 32.1065 49.6055C32.4258 48.7572 32.6387 48.6511 33.4546 49.0046C33.7384 49.1106 33.9868 49.2167 34.4125 49.3934C34.2706 49.4641 34.1996 49.4995 34.1287 49.4995C33.0999 49.8883 33.0289 51.6202 33.7739 52.3625C34.3061 52.928 35.0156 53.2108 35.7251 53.4582C36.9668 53.847 37.9956 54.4833 38.3858 55.7911C38.6696 56.6747 38.4923 57.5584 38.1375 58.3713C37.8182 59.0429 37.2506 59.3964 36.5411 59.5024C36.1508 59.5731 36.0444 59.7852 36.0799 60.1386C36.1153 60.8102 36.0799 61.4818 36.0799 62.1534C36.0799 62.2947 36.0444 62.4361 36.0444 62.5775C36.0089 62.5775 35.938 62.6129 35.9025 62.6129C35.8315 62.4361 35.7251 62.2594 35.6896 62.0473C35.6187 61.3757 35.5832 60.6688 35.5832 59.9972C35.5832 59.7145 35.4768 59.5731 35.2284 59.467C33.3482 58.7955 32.6741 56.4273 33.8803 54.8014C34.1641 54.5186 34.4834 54.5539 35.122 55.0134Z" fill="#16CA9F"/>
<path d="M38.4919 2.63035C38.4209 4.46834 37.0019 5.24596 35.8312 5.24596C34.2702 5.21061 33.0995 3.93815 33.2059 2.41827C33.2769 1.2872 34.1638 -0.161995 36.2569 0.0147357C37.4986 0.120774 38.5629 1.32254 38.4919 2.63035Z" fill="#16CA9F"/>
<path d="M35.9016 14.0469C36.008 14.2943 36.079 14.5417 36.2209 14.7891C36.753 15.7788 36.9304 16.8039 36.8595 17.9349C36.7885 19.1721 36.824 20.4445 36.8595 21.6816C36.8595 22.0704 36.7176 22.2118 36.3273 22.1765C35.9726 22.1411 35.5823 22.1765 35.2276 22.1765C34.9437 22.1765 34.8373 22.0704 34.8728 21.823C34.8728 20.0204 34.8728 18.2177 34.8728 16.4504C34.8728 16.3797 34.8728 16.309 34.9083 16.2383C35.1921 15.5314 35.5114 14.8245 35.7952 14.0822C35.8307 14.0469 35.8661 14.0469 35.9016 14.0469Z" fill="#16CA9F"/>
<path d="M36.7533 28.9992C36.7533 29.7061 36.7178 30.413 36.7533 31.12C36.7533 31.4734 36.6114 31.6148 36.2921 31.6148C35.9373 31.6148 35.5826 31.6148 35.2278 31.6148C34.9795 31.6148 34.873 31.5088 34.873 31.226C34.873 29.7415 34.873 28.2923 34.873 26.8077C34.873 26.4896 34.9795 26.3129 35.3342 26.3482C35.6535 26.3836 35.9728 26.3836 36.2921 26.3482C36.6114 26.3129 36.7533 26.4189 36.7533 26.7724C36.7533 27.5147 36.7888 28.2569 36.7533 28.9992Z" fill="#16CA9F"/>
<path d="M50.0575 15.7431C49.277 15.8491 48.532 15.9552 47.7516 16.0259C47.5742 16.0259 47.3613 15.8491 47.2549 15.6724C46.0487 13.8344 44.2749 12.8094 42.1463 12.4206C41.2594 12.2438 40.3015 12.3852 39.3792 12.3499C39.1308 12.3499 38.8825 12.3499 38.6342 12.3145C38.5632 12.3145 38.4213 12.1731 38.4568 12.1378C38.4568 12.0318 38.5632 11.9257 38.6342 11.8904C38.7761 11.855 38.918 11.855 39.0599 11.855C40.0532 11.749 41.082 11.643 42.0754 11.5723C42.2527 11.5723 42.4301 11.6076 42.572 11.6783C44.9135 13.0215 47.2549 14.2939 49.7382 15.3543C49.8801 15.425 50.022 15.531 50.1285 15.6017C50.093 15.6724 50.0575 15.7078 50.0575 15.7431Z" fill="#16CA9F"/>
<path d="M35.9373 10.6886C35.9018 10.6533 35.8309 10.6533 35.7954 10.6179C35.2633 9.69893 34.5537 8.77994 34.8021 7.61351C34.8376 7.40144 34.9795 7.15401 35.1568 7.04798C35.9728 6.51778 36.8952 7.04798 36.9307 8.00232C36.9661 8.49717 36.8597 8.92132 36.6114 9.34547C36.3985 9.76963 36.1857 10.2291 35.9373 10.6886Z" fill="#16CA9F"/>
<path d="M36.3989 49.3926C36.3989 50.0642 36.3989 50.665 36.3989 51.2659C36.3989 51.7961 36.3634 52.3617 36.3634 52.8918C36.3634 53.1746 36.2215 53.2806 35.9732 53.2806C35.7249 53.2453 35.3701 53.3867 35.3346 52.9272C35.2991 51.8668 35.2637 50.8064 35.2637 49.7814C35.2637 49.534 35.3701 49.3926 35.6539 49.4279C35.8313 49.4279 36.0796 49.3926 36.3989 49.3926Z" fill="#16CA9F"/>
<path d="M33.9505 5.17383C34.1634 5.20917 34.4117 5.20917 34.6246 5.24452C35.4405 5.52729 36.2565 5.52729 37.1079 5.24452C37.2853 5.17383 37.5336 5.24452 37.711 5.27987C37.6755 5.4566 37.6755 5.70402 37.5691 5.8454C37.1434 6.48163 36.5048 6.83509 35.7243 6.7644C34.8729 6.69371 34.2698 6.19886 33.9505 5.42125C33.9505 5.3859 33.915 5.35056 33.915 5.27987C33.915 5.27987 33.915 5.24452 33.9505 5.17383Z" fill="#16CA9F"/>
<path d="M35.9023 12.6686C36.0088 11.785 35.9023 11.8557 36.7538 11.891C37.1795 11.9264 37.6052 12.1384 38.0309 12.3152C38.2438 12.4212 38.2438 12.5979 38.0664 12.7747C37.6052 13.1635 37.144 13.5876 36.6828 13.9764C36.6119 14.0118 36.3281 13.9411 36.3281 13.8704C36.1507 13.4816 36.0442 13.0574 35.9023 12.6686Z" fill="#16CA9F"/>
<path d="M35.334 13.9053C35.2275 13.8346 35.1566 13.7639 35.0501 13.7285C34.589 13.3751 34.1278 13.0216 33.6666 12.6681C33.4182 12.4914 33.3828 12.3147 33.6666 12.244C34.2342 12.0673 34.8018 11.9612 35.3694 11.8552C35.4759 11.8198 35.6532 11.9612 35.6887 12.0319C35.7951 12.6681 35.7242 13.3044 35.334 13.9053Z" fill="#16CA9F"/>
</svg>
