<svg xmlns="http://www.w3.org/2000/svg" viewBox="0 0 1000 400">
      <rect width="1000" height="400" fill="#f8fafc"/>
      
      <!-- Hero Container -->
      <rect x="50" y="50" width="900" height="300" rx="12" fill="white" stroke="#e2e8f0" stroke-width="2"/>
      
      <!-- Header -->
      <rect x="60" y="60" width="880" height="50" rx="6" fill="#10b981" fill-opacity="0.05"/>
      <text x="80" y="80" font-family="Arial, sans-serif" font-size="16" font-weight="600" fill="#374151">Home Health Care Management</text>
      <text x="80" y="98" font-family="Arial, sans-serif" font-size="12" fill="#6b7280">Streamlined care delivery from home to EHR</text>
      
      <!-- Revenue icon -->
      <rect x="750" y="70" width="100" height="25" rx="12" fill="#10b981"/>
      <text x="800" y="85" font-family="Arial, sans-serif" font-size="10" font-weight="600" fill="white" text-anchor="middle">💰 Revenue+</text>
      
      <!-- Left Panel - Episode Overview -->
      <rect x="80" y="130" width="280" height="200" rx="8" fill="#f8fafc" stroke="#e2e8f0"/>
      <text x="95" y="155" font-family="Arial, sans-serif" font-size="13" font-weight="600" fill="#374151">Episode Overview</text>
      
      <!-- Patient cards -->
      <rect x="95" y="170" width="250" height="35" rx="6" fill="white" stroke="#e2e8f0"/>
      <text x="105" y="185" font-family="Arial, sans-serif" font-size="10" font-weight="600" fill="#374151">Maria Santos - CHF Management</text>
      <text x="105" y="198" font-family="Arial, sans-serif" font-size="9" fill="#6b7280">Day 8 of 60 | Next visit: Tomorrow 10 AM</text>
      
      <rect x="95" y="210" width="250" height="35" rx="6" fill="white" stroke="#e2e8f0"/>
      <text x="105" y="225" font-family="Arial, sans-serif" font-size="10" font-weight="600" fill="#374151">Robert Kim - Post-Surgical</text>
      <text x="105" y="238" font-family="Arial, sans-serif" font-size="9" fill="#6b7280">Day 15 of 30 | Wound healing on track</text>
      
      <rect x="95" y="250" width="250" height="35" rx="6" fill="white" stroke="#e2e8f0"/>
      <text x="105" y="265" font-family="Arial, sans-serif" font-size="10" font-weight="600" fill="#374151">Janet Thompson - Diabetes Mgmt</text>
      <text x="105" y="278" font-family="Arial, sans-serif" font-size="9" fill="#6b7280">Day 22 of 45 | A1C trending down</text>
      
      <!-- Quality metrics -->
      <rect x="95" y="295" width="250" height="25" rx="4" fill="#ecfdf5"/>
      <text x="105" y="310" font-family="Arial, sans-serif" font-size="9" font-weight="600" fill="#065f46">Zero readmissions this quarter 🎯</text>
      
      <!-- Right Panel - Revenue & Analytics -->
      <rect x="380" y="130" width="280" height="200" rx="8" fill="white" stroke="#e2e8f0"/>
      <text x="395" y="155" font-family="Arial, sans-serif" font-size="13" font-weight="600" fill="#374151">Revenue per Episode</text>
      
      <!-- Revenue chart representation -->
      <rect x="395" y="170" width="250" height="60" rx="6" fill="#f8fafc"/>
      
      <!-- Bar chart -->
      <rect x="410" y="200" width="30" height="25" fill="#10b981"/>
      <rect x="450" y="190" width="30" height="35" fill="#10b981"/>
      <rect x="490" y="180" width="30" height="45" fill="#10b981"/>
      <rect x="530" y="175" width="30" height="50" fill="#10b981"/>
      <rect x="570" y="185" width="30" height="40" fill="#10b981"/>
      <rect x="610" y="195" width="30" height="30" fill="#10b981"/>
      
      <!-- Revenue numbers -->
      <text x="395" y="250" font-family="Arial, sans-serif" font-size="11" fill="#6b7280">Avg Episode Value: $3,240</text>
      <text x="395" y="265" font-family="Arial, sans-serif" font-size="11" fill="#6b7280">Quality Bonus Rate: 94%</text>
      <text x="395" y="280" font-family="Arial, sans-serif" font-size="11" fill="#6b7280">YTD Revenue: $2.8M (+18%)</text>
      
      <!-- Performance indicator -->
      <rect x="395" y="295" width="250" height="25" rx="4" fill="#dbeafe"/>
      <text x="405" y="310" font-family="Arial, sans-serif" font-size="9" font-weight="600" fill="#1e40af">Performance above benchmark 📈</text>
      
      <!-- Far Right Panel - Mobile Integration -->
      <rect x="680" y="130" width="250" height="200" rx="8" fill="#f8fafc" stroke="#e2e8f0"/>
      <text x="695" y="155" font-family="Arial, sans-serif" font-size="13" font-weight="600" fill="#374151">Mobile Integration</text>
      
      <!-- Mobile device mockup -->
      <rect x="735" y="170" width="140" height="120" rx="12" fill="#1f2937"/>
      <rect x="745" y="180" width="120" height="100" rx="8" fill="white"/>
      
      <!-- Mobile screen content -->
      <rect x="755" y="190" width="100" height="20" rx="4" fill="#10b981"/>
      <text x="805" y="202" font-family="Arial, sans-serif" font-size="8" font-weight="600" fill="white" text-anchor="middle">Visit Complete</text>
      
      <text x="765" y="220" font-family="Arial, sans-serif" font-size="7" fill="#374151">Vitals recorded</text>
      <text x="765" y="235" font-family="Arial, sans-serif" font-size="7" fill="#374151">Notes documented</text>
      <text x="765" y="250" font-family="Arial, sans-serif" font-size="7" fill="#374151">Care plan updated</text>
      
      <rect x="755" y="260" width="100" height="15" rx="3" fill="#3b82f6"/>
      <text x="805" y="270" font-family="Arial, sans-serif" font-size="7" font-weight="600" fill="white" text-anchor="middle">Sync to EHR</text>
      
      <!-- Sync status -->
      <text x="695" y="310" font-family="Arial, sans-serif" font-size="9" fill="#10b981">Real-time sync enabled ✓</text>
      <text x="695" y="325" font-family="Arial, sans-serif" font-size="8" fill="#6b7280">All visits auto-documented</text>
    </svg>