<svg width="273" height="80" viewBox="0 0 273 80" fill="none" xmlns="http://www.w3.org/2000/svg">
<mask id="mask0_1803_11550" style="mask-type:luminance" maskUnits="userSpaceOnUse" x="0" y="0" width="273" height="79">
<path d="M272.897 0H0V78.4539H272.897V0Z" fill="white"/>
</mask>
<g mask="url(#mask0_1803_11550)">
<path d="M66.1301 57.6466C63.3021 56.4218 61.0642 54.7487 59.4309 52.6127C57.7976 50.4765 56.8752 48.0864 56.6787 45.4425H69.2604C69.4117 46.8614 70.077 48.0117 71.2717 48.893C72.4664 49.7744 73.9332 50.2226 75.6572 50.2226C77.245 50.2226 78.4699 49.9239 79.3469 49.2964C80.2089 48.6839 80.6475 47.8923 80.6475 46.9063C80.6475 45.7262 80.0274 44.8599 78.7875 44.2923C77.5474 43.7247 75.5361 43.0971 72.7537 42.4101C69.7745 41.7229 67.2944 41.0058 65.3136 40.2441C63.3325 39.4821 61.6086 38.2872 60.1718 36.6441C58.7352 35.0008 58.0095 32.79 58.0095 29.9967C58.0095 27.6365 58.6598 25.5003 59.9753 23.5584C61.2909 21.6166 63.2267 20.0928 65.7822 18.9575C68.3379 17.8372 71.3775 17.2695 74.901 17.2695C80.1182 17.2695 84.2164 18.5393 87.2257 21.0936C90.2199 23.648 91.9591 27.024 92.3974 31.2365H80.6325C80.4358 29.8173 79.8007 28.6821 78.727 27.8605C77.6532 27.024 76.262 26.6058 74.5229 26.6058C73.041 26.6058 71.8918 26.8895 71.1052 27.4571C70.3039 28.0248 69.9107 28.7867 69.9107 29.7727C69.9107 30.9528 70.5458 31.8339 71.8161 32.4166C73.0863 32.9992 75.0523 33.5967 77.7288 34.1793C80.7987 34.9709 83.309 35.7328 85.2446 36.4946C87.1802 37.2564 88.874 38.4813 90.341 40.1693C91.8078 41.8573 92.5639 44.128 92.6093 46.966C92.6093 49.3711 91.9286 51.5073 90.5677 53.4043C89.2067 55.2864 87.2409 56.7803 84.6852 57.8558C82.1295 58.9313 79.1654 59.469 75.7932 59.469C72.1639 59.469 68.9429 58.8568 66.1149 57.6318L66.1301 57.6466Z" fill="#16CA9F"/>
<path d="M101.364 11.6523C99.9428 10.3527 99.2471 8.7543 99.2471 6.84224C99.2471 4.9302 99.958 3.25715 101.364 1.95756C102.786 0.657954 104.601 0.015625 106.838 0.015625C109.077 0.015625 110.816 0.672893 112.237 1.95756C113.659 3.25715 114.354 4.88538 114.354 6.84224C114.354 8.79912 113.644 10.3527 112.237 11.6523C110.816 12.9518 109.031 13.5942 106.838 13.5942C104.646 13.5942 102.786 12.9518 101.364 11.6523ZM113.16 17.8664V58.9008H100.427V17.8664H113.16Z" fill="#16CA9F"/>
<path d="M187.713 22.0643C190.767 25.1566 192.295 29.4436 192.295 34.9259V58.9011H179.637V36.6288C179.637 33.9849 178.927 31.9382 177.52 30.4892C176.099 29.0403 174.163 28.3234 171.683 28.3234C169.203 28.3234 167.252 29.0403 165.846 30.4892C164.424 31.9382 163.729 33.9849 163.729 36.6288V58.9011H151.071V36.6288C151.071 33.9849 150.361 31.9382 148.954 30.4892C147.533 29.0403 145.597 28.3234 143.117 28.3234C140.637 28.3234 138.686 29.0403 137.28 30.4892C135.858 31.9382 135.163 33.9849 135.163 36.6288V58.9011H122.43V17.8668H135.163V23.0204C136.448 21.3025 138.142 19.9431 140.229 18.9423C142.316 17.9415 144.675 17.4336 147.306 17.4336C150.436 17.4336 153.219 18.0909 155.684 19.4203C158.133 20.7497 160.069 22.6321 161.445 25.0818C162.882 22.8262 164.848 20.9888 167.328 19.5696C169.808 18.1506 172.515 17.4336 175.449 17.4336C180.605 17.4336 184.718 18.9722 187.773 22.0643H187.713Z" fill="#16CA9F"/>
<path d="M219.092 19.0459C221.269 17.8658 223.824 17.2832 226.758 17.2832C230.177 17.2832 233.276 18.1347 236.058 19.8525C238.842 21.5704 241.034 24.0201 242.652 27.202C244.27 30.3837 245.071 34.0884 245.071 38.3009C245.071 42.5134 244.27 46.2328 242.652 49.4445C241.034 52.6562 238.842 55.1358 236.058 56.8687C233.276 58.6164 230.177 59.4828 226.758 59.4828C223.885 59.4828 221.329 58.9001 219.121 57.72C216.914 56.5399 215.189 55.0313 213.949 53.1641V78.4539H201.217V17.8658H213.949V23.6767C215.189 21.7645 216.899 20.226 219.092 19.0459ZM229.481 30.9216C227.711 29.129 225.549 28.2326 222.963 28.2326C220.376 28.2326 218.29 29.1438 216.52 30.9515C214.751 32.7589 213.873 35.2385 213.873 38.3755C213.873 41.5124 214.751 43.9922 216.52 45.7997C218.275 47.6071 220.423 48.5183 222.963 48.5183C225.503 48.5183 227.651 47.5922 229.434 45.7548C231.22 43.9175 232.113 41.4229 232.113 38.2859C232.113 35.1489 231.235 32.6841 229.466 30.8916L229.481 30.9216Z" fill="#16CA9F"/>
<path d="M264.49 4.48242V58.8863H251.758V4.48242H264.49Z" fill="#16CA9F"/>
<path d="M30.5176 27.5158C30.5176 27.5158 9.66396 41.2137 13.9284 58.0787C13.9284 58.0787 58.6149 60.1999 47.2278 0.597656C47.2278 0.597656 45.5795 6.24419 39.0164 10.367C31.8181 14.8932 -7.40913 22.7357 1.24083 55.0313C1.24083 55.0313 3.84188 66.3693 19.6143 77.8565C19.6143 77.8565 -10.8419 48.7127 30.5176 27.5158Z" fill="#16CA9F"/>
</g>
</svg>
