<svg width="50" height="50" viewBox="0 0 50 50" fill="none" xmlns="http://www.w3.org/2000/svg">
<circle cx="25" cy="25" r="25" fill="white" style="fill:white;fill:white;fill-opacity:1;"/>
<path d="M23.153 18.5568C23.203 18.6598 23.237 18.7708 23.253 18.8848L23.531 23.0248L23.669 25.1058C23.67 25.3198 23.704 25.5328 23.769 25.7368C23.936 26.1338 24.337 26.3858 24.774 26.3678L31.431 25.9328C31.72 25.9278 31.998 26.0358 32.205 26.2328C32.378 26.3958 32.489 26.6108 32.525 26.8408L32.536 26.9808C32.261 30.7958 29.459 33.9778 25.652 34.7988C21.846 35.6198 17.942 33.8848 16.061 30.5358C15.5193 29.5654 15.1801 28.4951 15.064 27.3898C15.016 27.0634 14.995 26.7336 15.001 26.4038C14.995 22.3138 17.907 18.7778 21.984 17.9258C22.475 17.8488 22.956 18.1088 23.153 18.5558V18.5568Z" fill="#16CA9F" style="fill:#16CA9F;fill:color(display-p3 0.0863 0.7922 0.6235);fill-opacity:1;"/>
<path opacity="0.4" d="M25.8702 15.0008C30.4302 15.1178 34.2622 18.3968 35.0002 22.8128L34.9932 22.8458L34.9732 22.8928L34.9762 23.0228C34.9654 23.1969 34.898 23.3626 34.7842 23.4948C34.6647 23.6343 34.5022 23.73 34.3222 23.7668L34.2122 23.7818L26.5322 24.2798C26.4062 24.2924 26.2789 24.2787 26.1585 24.2396C26.038 24.2006 25.9269 24.137 25.8322 24.0528C25.6752 23.9138 25.5728 23.7235 25.5432 23.5158L25.0282 15.8458C25.0192 15.8199 25.0192 15.7917 25.0282 15.7658C25.0319 15.6608 25.0566 15.5575 25.1009 15.4622C25.1452 15.3668 25.2082 15.2814 25.2862 15.2108C25.4456 15.0666 25.6555 14.9911 25.8702 15.0008Z" fill="#16CA9F" style="fill:#16CA9F;fill:color(display-p3 0.0863 0.7922 0.6235);fill-opacity:1;"/>
</svg>
