<svg width="60" height="60" viewBox="0 0 60 60" fill="none" xmlns="http://www.w3.org/2000/svg">
<path opacity="0.4" d="M39.9994 37.5C39.9994 27.835 32.1644 20 22.4994 20C21.7049 20 20.9227 20.053 20.1562 20.1555C20.6494 16.4871 22.3057 12.945 25.1251 10.1256C31.9592 3.29146 43.0396 3.29146 49.8738 10.1256C56.708 16.9598 56.708 28.0402 49.8738 34.8744C47.0544 37.6938 43.5124 39.35 39.8439 39.8432C39.9465 39.0767 39.9994 38.2945 39.9994 37.5Z" fill="#16CA9F"/>
<path d="M49.8741 34.8745C56.7082 28.0403 56.7082 16.9599 49.8741 10.1257L34.8743 25.1259C38.041 28.2928 39.9997 32.6677 39.9997 37.5001C39.9997 38.2946 39.9467 39.0768 39.8442 39.8433C43.5126 39.3501 47.0547 37.6939 49.8741 34.8745Z" fill="#16CA9F"/>
<path opacity="0.4" d="M40 37.5C40 47.165 32.165 55 22.5 55C12.835 55 5 47.165 5 37.5C5 27.835 12.835 20 22.5 20C32.165 20 40 27.835 40 37.5Z" fill="#16CA9F"/>
<path fill-rule="evenodd" clip-rule="evenodd" d="M23 25C24.1046 25 25 25.8954 25 27V37.6667C25 38.7712 24.1046 39.6667 23 39.6667C21.8954 39.6667 21 38.7712 21 37.6667V27C21 25.8954 21.8954 25 23 25Z" fill="#16CA9F"/>
<path fill-rule="evenodd" clip-rule="evenodd" d="M23 43.6666C24.1046 43.6666 25 44.5621 25 45.6666V48.3333C25 49.4379 24.1046 50.3333 23 50.3333C21.8954 50.3333 21 49.4379 21 48.3333V45.6666C21 44.5621 21.8954 43.6666 23 43.6666Z" fill="#16CA9F"/>
</svg>
