<svg xmlns="http://www.w3.org/2000/svg" viewBox="0 0 600 300">
      <defs>
        <linearGradient id="pmGrad" x1="0%" y1="0%" x2="100%" y2="100%">
          <stop offset="0%" style="stop-color:#f0f9ff;stop-opacity:1" />
          <stop offset="100%" style="stop-color:#10b981;stop-opacity:0.1" />
        </linearGradient>
      </defs>
      
      <rect width="600" height="300" fill="url(#pmGrad)"/>
      
      <!-- Practice Management Interface -->
      <rect x="20" y="20" width="560" height="260" rx="10" fill="white" stroke="#10b981"/>
      
      <!-- Header -->
      <rect x="30" y="30" width="540" height="40" rx="5" fill="#10b981" fill-opacity="0.1"/>
      <text x="50" y="55" font-family="Arial, sans-serif" font-size="18" font-weight="bold" fill="#10b981">Practice Management Hub</text>
      
      <!-- Calendar Widget -->
      <rect x="40" y="90" width="160" height="120" rx="5" fill="#f9fafb" stroke="#e5e7eb"/>
      <text x="120" y="110" font-family="Arial, sans-serif" font-size="12" font-weight="bold" fill="#374151" text-anchor="middle">Schedule</text>
      
      <!-- Calendar Grid -->
      <rect x="50" y="120" width="20" height="15" fill="#10b981" fill-opacity="0.3"/>
      <rect x="75" y="120" width="20" height="15" fill="#f3f4f6"/>
      <rect x="100" y="120" width="20" height="15" fill="#f3f4f6"/>
      <rect x="125" y="120" width="20" height="15" fill="#10b981"/>
      <rect x="150" y="120" width="20" height="15" fill="#f3f4f6"/>
      
      <text x="120" y="155" font-family="Arial, sans-serif" font-size="10" fill="#10b981" text-anchor="middle">15 Appointments Today</text>
      
      <!-- Billing Widget -->
      <rect x="220" y="90" width="160" height="120" rx="5" fill="#f9fafb" stroke="#e5e7eb"/>
      <text x="300" y="110" font-family="Arial, sans-serif" font-size="12" font-weight="bold" fill="#374151" text-anchor="middle">Billing</text>
      
      <!-- Billing Chart -->
      <circle cx="300" cy="150" r="25" fill="none" stroke="#e5e7eb" stroke-width="8"/>
      <circle cx="300" cy="150" r="25" fill="none" stroke="#10b981" stroke-width="8" 
              stroke-dasharray="120" stroke-dashoffset="30" transform="rotate(-90 300 150)"/>
      <text x="300" y="155" font-family="Arial, sans-serif" font-size="12" font-weight="bold" fill="#10b981" text-anchor="middle">75%</text>
      <text x="300" y="185" font-family="Arial, sans-serif" font-size="10" fill="#6b7280" text-anchor="middle">Collection Rate</text>
      
      <!-- Analytics Widget -->
      <rect x="400" y="90" width="160" height="120" rx="5" fill="#f9fafb" stroke="#e5e7eb"/>
      <text x="480" y="110" font-family="Arial, sans-serif" font-size="12" font-weight="bold" fill="#374151" text-anchor="middle">Analytics</text>
      
      <!-- Bar Chart -->
      <rect x="420" y="160" width="15" height="30" fill="#10b981"/>
      <rect x="440" y="150" width="15" height="40" fill="#10b981"/>
      <rect x="460" y="140" width="15" height="50" fill="#10b981"/>
      <rect x="480" y="130" width="15" height="60" fill="#10b981"/>
      <rect x="500" y="170" width="15" height="20" fill="#10b981"/>
      <rect x="520" y="145" width="15" height="45" fill="#10b981"/>
      
      <!-- Bottom Summary -->
      <rect x="40" y="230" width="520" height="30" rx="5" fill="#10b981" fill-opacity="0.1"/>
      <text x="300" y="250" font-family="Arial, sans-serif" font-size="14" font-weight="bold" fill="#10b981" text-anchor="middle">All-in-One Practice Operations</text>
    </svg>