<svg width="80" height="80" viewBox="0 0 80 80" fill="none" xmlns="http://www.w3.org/2000/svg">
<circle cx="40" cy="40" r="40" fill="white"/>
<path fill-rule="evenodd" clip-rule="evenodd" d="M26.6277 28.4431L38.3756 23.2219C39.4098 22.7622 40.5904 22.7622 41.6247 23.2219L53.3527 28.4343C54.8084 29.0813 55.7512 30.5343 55.6934 32.1262C55.231 44.8749 52.0152 49.8053 42.078 56.1991C40.814 57.0123 39.1876 57.0106 37.9237 56.1972C28.0403 49.8363 24.6711 45.0025 24.2879 32.1057C24.241 30.5244 25.1821 29.0856 26.6277 28.4431ZM45.8145 36.9937C46.0873 36.682 46.0557 36.2082 45.744 35.9354C45.4323 35.6627 44.9584 35.6943 44.6857 36.006L39.1908 42.2859C39.1027 42.3866 38.9509 42.4 38.8465 42.3165L35.2186 39.4142C34.8952 39.1555 34.4232 39.2079 34.1645 39.5313C33.9057 39.8548 33.9581 40.3268 34.2816 40.5855L37.9094 43.4878C38.6407 44.0728 39.7029 43.9784 40.3196 43.2736L45.8145 36.9937Z" fill="#16CA9F"/>
</svg>
