<svg width="188" height="188" viewBox="0 0 188 188" fill="none" xmlns="http://www.w3.org/2000/svg">
<g filter="url(#filter0_d_1803_11561)">
<rect x="4" width="180" height="180" rx="90" fill="#E0FFF8" fill-opacity="0.5" shape-rendering="crispEdges"/>
</g>
<rect x="14.5107" y="10.5117" width="160.292" height="160.292" rx="80.146" fill="white"/>
<g clip-path="url(#clip0_1803_11561)">
<path d="M173.855 95.5021C173.875 95.1654 173.697 94.789 174.033 94.5117C174.31 94.9079 174.428 95.2644 173.855 95.5021Z" fill="#F2F7FC"/>
<path d="M173.44 81.0423C173.143 80.8244 173.262 80.5273 173.262 80.25C173.776 80.4085 173.697 80.7056 173.44 81.0423Z" fill="#F2F7FC"/>
<path d="M173.637 98.2767C173.657 97.9994 173.519 97.6825 173.815 97.4844C174.112 97.8211 174.171 98.1182 173.637 98.2767Z" fill="#F2F7FC"/>
<path d="M172.847 77.0809C172.847 77.0215 172.847 76.9422 172.847 76.8828C172.985 76.9422 172.985 77.0215 172.847 77.0809Z" fill="#C6DFF6"/>
<path d="M14.4543 93.7999C14.4543 91.9578 14.4543 90.1156 14.4543 88.2734C14.4543 87.7386 14.4741 87.2037 14.4741 86.6887C14.5335 81.9743 15.3245 77.3787 16.3529 72.803C17.7768 66.4841 20.0314 60.4821 22.9385 54.7179C25.5491 49.5479 28.6936 44.7146 32.4314 40.2577C34.5475 37.742 36.7031 35.266 39.1159 33.0078C43.8029 28.6301 48.8856 24.7675 54.4626 21.5783C59.4067 18.7457 64.5882 16.4281 70.007 14.7048C72.7758 13.8332 75.5841 13.1597 78.4319 12.5655C82.0313 11.8128 85.6702 11.5156 89.3091 11.1789C92.1767 10.9214 95.0245 10.9808 97.8922 11.0601C100.562 11.1393 103.212 11.6741 105.862 11.9316C110.292 12.3872 114.544 13.5361 118.776 14.8038C121.604 15.6556 124.353 16.7451 127.023 17.9732C131.572 20.1125 135.962 22.4895 140.056 25.3816C142.706 27.2634 145.238 29.2838 147.67 31.4231C150.162 33.6219 152.476 36.0187 154.671 38.4948C156.312 40.3369 157.855 42.2386 159.22 44.2986C159.22 44.576 159.358 44.774 159.615 44.8929C159.635 45.2891 159.892 45.5069 160.208 45.6852C160.466 46.0814 160.742 46.4776 161 46.8737C161 47.1511 161.118 47.3689 161.395 47.468C161.395 47.7651 161.514 47.9632 161.791 48.0622C164.282 51.9447 166.339 56.045 168.159 60.3039C169.246 62.8393 170.136 65.4342 170.967 68.0292C171.778 70.6043 172.391 73.2586 172.846 75.9327C172.885 76.2299 172.984 76.5072 173.044 76.7845C173.044 76.8439 173.044 76.9231 173.044 76.9826C173.083 78.0522 173.538 79.0625 173.459 80.1519C173.459 80.4292 173.34 80.7264 173.637 80.9443C174.21 85.421 174.369 89.8977 174.23 94.414C173.894 94.6913 174.072 95.0677 174.052 95.4044C174.052 96.0581 174.032 96.7118 174.032 97.3853C173.736 97.6032 173.854 97.9003 173.854 98.1776C173.716 100.951 173.301 103.684 172.786 106.398C172.43 108.32 171.897 110.201 171.501 112.103C171.323 112.955 170.908 113.291 170.077 113.212C170.037 112.955 169.978 112.737 169.682 113.034C167.091 112.103 164.421 111.39 161.81 110.578C159.18 109.746 156.51 108.993 153.84 108.28C153.623 108.221 153.405 108.161 153.188 108.082C152.1 107.705 151.942 107.408 152.318 106.339C152.99 104.397 153.287 102.357 153.643 100.357C154.453 95.86 154.631 91.3041 154.434 86.7481C154.374 85.5794 154.038 84.4305 153.959 83.2618C153.9 82.4893 153.722 81.7366 153.682 80.9641C153.979 80.6669 153.742 80.6075 153.504 80.5679C153.504 80.3698 153.504 80.1717 153.484 79.9737C153.781 79.6765 153.544 79.6171 153.306 79.5775C153.227 78.9832 153.168 78.389 153.089 77.7947C153.386 77.4976 153.148 77.4382 152.911 77.3986C152.911 77.3391 152.911 77.2599 152.911 77.2005C153.208 76.8835 153.128 76.6854 152.713 76.6062C152.693 76.2893 152.693 75.9723 152.674 75.6554C152.693 75.3583 152.733 75.0612 152.318 75.0215C151.685 72.1889 150.656 69.4752 149.49 66.8208C149.371 66.5237 149.252 66.2266 149.134 65.9097C149.43 65.6125 149.213 65.5531 148.956 65.5135C148.046 63.6911 147.215 61.8093 146.167 60.0662C145.139 58.323 143.912 56.6789 142.706 55.0546C140.471 52.0437 138.078 49.1715 135.31 46.636C132.541 44.0807 129.594 41.7037 126.41 39.6635C119.844 35.4244 112.646 32.8097 105.012 31.3043C102.896 30.8883 100.76 30.5714 98.5646 30.611C97.3384 30.6308 96.0727 30.4129 94.8268 30.4723C90.8714 30.6704 86.9359 30.8487 83.0399 31.5816C77.4629 32.6315 72.1627 34.3944 67.0999 36.9695C62.7886 39.1682 58.8134 41.8622 55.1548 45.0315C50.8237 48.7952 46.9672 52.9945 43.8425 57.808C40.7573 62.6016 38.3446 67.7122 36.7229 73.219C35.8132 76.3091 35.0616 79.419 34.6463 82.6082C34.0926 86.9264 34.0333 91.2843 34.2706 95.6223C34.3892 97.8211 34.7057 100.02 35.299 102.199C35.6352 103.387 35.912 104.655 35.9912 105.943C35.9912 106.101 36.0109 106.259 36.1889 106.339C36.1889 106.477 36.2087 106.596 36.2087 106.735C36.2087 106.933 36.1889 107.131 36.1889 107.349C36.1296 107.349 36.0505 107.369 35.9912 107.369C35.9318 107.428 35.8527 107.488 35.7934 107.547C34.7848 107.666 33.8355 108.082 32.906 108.399C30.8888 109.112 28.7924 109.607 26.7554 110.241C24.8371 110.835 22.8792 111.35 20.9411 111.905C20.0116 112.162 19.0623 112.4 18.113 112.638C17.5197 112.796 17.1044 112.559 17.0253 111.964C16.7089 109.785 15.9178 107.745 15.5816 105.566C15.1268 102.595 14.573 99.6434 14.6323 96.6128C14.6323 96.2166 14.6719 95.8204 14.4346 95.4639C14.4543 94.8696 14.4543 94.3348 14.4543 93.7999Z" fill="#1AA484"/>
<path d="M97.2598 171.27C94.0956 170.954 90.9313 171.27 87.767 171.013C84.8994 170.795 82.0515 170.34 79.2235 169.844C75.7032 169.23 72.2423 168.26 68.8407 167.131C64.8656 165.803 61.0685 164.06 57.3505 162.178C52.7623 159.841 48.451 157.048 44.4363 153.819C41.628 151.581 38.9582 149.184 36.4861 146.569C32.9658 142.826 29.8213 138.804 27.013 134.526C24.9167 131.317 23.1368 127.91 21.4756 124.463C20.0121 121.432 18.9442 118.223 17.8564 115.034C17.6587 114.44 17.7773 113.925 18.5684 113.727C24.2641 112.202 29.9202 110.498 35.5764 108.795C36.4267 108.537 36.9409 108.735 37.2771 109.686C38.8988 114.381 40.9358 118.857 43.6255 123.057C46.2755 127.217 49.3014 131.079 52.9403 134.427C56.421 137.636 60.1983 140.429 64.3316 142.806C68.4452 145.183 72.717 147.124 77.2458 148.491C79.7377 149.243 82.2691 149.897 84.8401 150.194C86.264 150.353 87.6879 151.046 89.1712 150.491C92.1772 151.264 95.2228 150.808 98.2684 150.808C99.4353 150.808 100.602 150.67 101.789 150.412C102.619 150.234 103.588 150.234 104.498 150.075C107.623 149.541 110.668 148.748 113.655 147.698C116.977 146.53 120.122 144.985 123.246 143.36C126.964 141.439 130.307 139.003 133.491 136.348C136.002 134.249 138.257 131.891 140.353 129.356C142.647 126.583 144.684 123.651 146.484 120.561C148.422 117.213 150.123 113.727 151.171 109.983C151.428 109.092 151.843 108.874 152.714 109.151C155.7 110.082 158.706 110.993 161.712 111.905C164.382 112.697 167.032 113.489 169.702 114.262C170.434 114.48 170.77 114.698 170.473 115.609C168.495 121.809 165.766 127.632 162.365 133.179C158.983 138.686 154.968 143.677 150.38 148.213C145.456 153.086 140.017 157.266 133.985 160.693C128.804 163.644 123.365 165.982 117.689 167.764C115.771 168.378 113.793 168.814 111.835 169.309C109.581 169.884 107.287 170.221 105.012 170.656C103.608 170.914 102.164 171.053 100.741 171.053C99.5935 171.033 98.4464 171.37 97.2598 171.27ZM123.029 150.234C121.17 150.274 119.924 151.185 118.54 151.779C118.263 151.898 118.282 152.017 118.421 152.294C119.39 154.314 120.3 156.355 121.249 158.375C121.447 158.791 121.526 159.346 122.277 159.009C123.049 158.653 122.89 158.217 122.614 157.662C122.396 157.226 122.178 156.771 122 156.315C121.902 156.038 121.368 155.76 121.822 155.424C122.218 155.127 122.653 155.067 123.088 155.444C123.642 155.919 124.295 156.236 124.809 156.751C125.323 157.266 125.956 157.345 126.628 157.008C127.123 156.771 127.419 156.533 126.707 156.117C125.976 155.681 125.283 155.166 124.571 154.711C124.136 154.433 124.057 154.156 124.433 153.78C125.185 153.027 125.105 152.195 124.67 151.343C124.295 150.531 123.662 150.135 123.029 150.234ZM56.0254 148.511C56.1045 147.203 55.353 146.252 54.1269 146.153C53.5336 146.094 53.2172 145.935 53.0787 145.361C52.8809 144.529 52.2481 144.093 51.457 143.974C51.0417 143.915 50.8835 143.816 50.7451 143.38C50.488 142.568 49.8353 142.528 49.3014 143.222C48.5103 144.232 47.7588 145.262 46.9479 146.252C46.5524 146.728 46.6513 147.065 47.0864 147.401C47.561 147.758 47.8379 147.56 48.1345 147.144C48.6092 146.51 49.1036 145.896 49.598 145.282C50.1122 144.648 50.6857 144.628 51.2988 145.123C51.8723 145.599 51.6746 146.114 51.3186 146.589C50.8242 147.243 50.3891 147.976 49.7958 148.511C49.3211 148.966 49.4596 149.184 49.8156 149.521C50.2111 149.858 50.5868 150.016 50.9626 149.481C51.4175 148.847 51.9119 148.233 52.4063 147.599C52.8612 147.045 53.4347 146.787 54.028 147.263C54.6213 147.718 54.5224 148.372 54.1467 148.927C53.7313 149.56 53.2567 150.155 52.7623 150.729C52.3668 151.185 52.4459 151.482 52.9007 151.858C53.3754 152.254 53.6325 152.056 53.9291 151.66C54.4235 150.967 54.9575 150.293 55.4915 149.64C55.8474 149.263 56.0254 148.828 56.0254 148.511ZM91.6037 164.694C92.3552 164.773 92.4541 164.437 92.197 163.763C91.4059 161.604 90.6544 159.445 89.9029 157.266C89.7447 156.81 89.626 156.414 89.0129 156.394C88.4196 156.375 88.0637 156.553 87.767 157.107C86.7188 159.108 85.5718 161.089 84.5236 163.09C84.3852 163.347 83.9303 163.525 84.1874 163.922C84.4248 164.298 84.8401 164.1 85.196 164.139C85.7498 164.219 85.908 163.823 86.0662 163.407C86.3629 162.634 86.8771 162.317 87.7472 162.535C88.2021 162.654 88.6767 162.872 89.1712 162.753C89.982 162.594 90.3578 162.991 90.5753 163.743C90.694 164.199 90.8324 164.773 91.6037 164.694ZM115.969 158.771C115.81 157.405 115.395 156.157 114.644 155.008C113.833 153.76 112.587 153.938 111.459 154.057C110.51 154.156 110.016 154.929 109.699 155.84C109.027 157.781 109.759 159.425 110.807 160.95C111.697 162.258 113.042 162.495 114.446 161.842C115.751 161.208 115.751 159.94 115.969 158.771ZM144.17 138.587C144.348 137.596 145.04 136.903 145.732 136.328C146.346 135.813 146.682 136.764 147.176 137.022C147.473 137.18 147.71 137.398 147.987 137.596C149.114 138.369 150.202 138.151 150.855 136.942C151.013 136.626 151.191 136.249 150.815 135.972C150.459 135.695 150.143 135.794 149.886 136.15C149.51 136.685 149.094 136.645 148.64 136.249C148.363 136.011 148.066 135.794 147.769 135.595C147.176 135.199 146.662 134.803 147.394 134.07C147.671 133.793 147.591 133.476 147.255 133.238C146.919 133.001 146.682 133.001 146.444 133.377C146.108 133.951 145.673 134.09 145.179 133.555C144.585 132.921 144.348 133.595 144.012 133.852C143.517 134.229 143.913 134.427 144.19 134.664C144.803 135.199 144.803 135.754 144.15 136.21C143.755 136.487 143.419 136.883 143.32 137.279C143.181 137.774 143.043 137.972 142.548 138.171C141.836 138.448 141.797 138.983 142.37 139.518C143.359 140.449 144.348 141.36 145.357 142.251C145.535 142.41 145.653 142.707 145.99 142.429C146.86 141.716 146.86 141.578 146.029 140.845C145.515 140.389 145.04 139.874 144.526 139.419C144.269 139.161 144.131 138.923 144.17 138.587ZM138.257 148.431C138.257 146.966 137.446 145.737 136.22 145.361C135.014 145.004 133.886 145.5 133.036 146.767C132.818 147.104 132.64 147.401 132.185 147.5C131.137 147.698 131.078 147.916 131.75 148.808C132.996 150.472 134.242 152.116 135.429 153.819C135.725 154.255 135.903 154.532 136.457 154.156C137.011 153.76 136.952 153.364 136.615 152.908C136.378 152.591 136.161 152.254 135.903 151.957C135.35 151.343 135.389 151.066 136.259 150.868C137.565 150.571 138.257 149.679 138.257 148.431ZM95.5195 164.892C96.1325 164.991 96.6467 164.734 97.1609 164.536C98.308 164.12 98.8222 163.288 98.8024 162.02C98.7628 160.95 98.0904 160.376 97.1609 160.039C96.5676 159.821 95.9743 159.643 95.381 159.445C94.9459 159.286 94.7284 158.969 94.8075 158.534C94.8866 158.078 95.1437 157.741 95.6777 157.801C96.2314 157.84 96.7852 157.722 97.3389 157.959C97.9916 158.237 98.2486 157.662 98.4266 157.246C98.664 156.711 98.0904 156.711 97.8136 156.592C96.5874 156.058 95.4008 156.137 94.2538 156.83C92.7705 157.722 92.7903 159.702 94.234 160.653C94.9262 161.109 95.737 161.208 96.449 161.545C97.2598 161.941 97.3587 162.377 96.7852 163.03C96.0337 163.882 95.2426 163.525 94.4911 163.129C93.8385 162.792 93.4627 163.189 93.2254 163.605C92.909 164.199 93.6209 164.397 93.8978 164.456C94.4515 164.575 94.9064 165.11 95.5195 164.892ZM81.7351 155.206C80.0343 155.206 79.2235 155.741 78.8675 157.048C78.5709 158.098 79.0653 158.91 80.4496 159.663C80.7661 159.841 81.0627 160.039 81.3791 160.198C82.0516 160.554 82.1109 161.247 81.7944 161.723C81.4978 162.178 80.9045 162.594 80.1925 162.119C79.797 161.861 79.441 161.584 79.085 161.307C78.5115 160.871 78.2742 161.505 77.938 161.723C77.5622 161.98 77.9182 162.238 78.0962 162.436C78.5906 162.951 79.2433 163.169 79.8959 163.426C81.0627 163.902 82.7833 163.367 83.3964 162.277C84.0885 161.069 83.7128 159.841 82.368 159.009C81.8736 158.692 81.3198 158.454 80.8452 158.098C80.5683 157.9 80.2321 157.603 80.3903 157.206C80.5485 156.81 80.8452 156.513 81.3791 156.533C82.012 156.553 82.6053 156.573 83.0997 157.088C83.7128 157.741 83.9106 156.909 84.227 156.691C84.7016 156.355 84.3852 156.097 84.0292 155.879C83.2777 155.463 82.5262 155.087 81.7351 155.206ZM35.0819 133.397C35.2006 133.318 35.339 133.238 35.4775 133.159C35.9917 132.822 36.5454 132.505 37.02 132.109C37.5936 131.634 37.91 131.772 38.266 132.347C38.622 132.941 39.0373 133.496 39.413 134.07C39.7295 134.585 40.0854 134.447 40.481 134.209C40.9754 133.932 40.7776 133.634 40.5601 133.318C40.1448 132.723 39.769 132.109 39.3141 131.535C38.8593 130.98 38.9779 130.604 39.5515 130.287C40.0261 130.029 40.5007 129.435 41.0149 130.307C41.4105 130.98 41.9444 131.594 42.3598 132.248C42.6762 132.743 42.9926 132.703 43.4079 132.426C43.8826 132.109 43.7046 131.772 43.4672 131.416C42.7355 130.366 41.9642 129.336 41.2523 128.266C40.9161 127.771 40.6392 127.672 40.1448 128.029C38.3253 129.316 36.4663 130.584 34.6468 131.852C34.4293 131.99 34.1327 132.149 34.3304 132.466C34.4886 132.842 34.6271 133.218 35.0819 133.397ZM69.6318 159.148C69.6516 161.247 69.6516 161.247 67.7135 161.327C67.3377 161.346 67.1795 161.525 67.0806 161.822C66.9619 162.178 67.1597 162.357 67.4366 162.535C68.3463 163.109 69.3549 163.03 70.1262 162.178C71.6886 160.475 73.1718 158.732 74.7144 157.008C75.1495 156.513 74.9913 156.256 74.398 156.157C73.9036 156.077 73.4883 156.216 73.1718 156.632C72.717 157.207 72.2621 157.761 71.7875 158.316C71.649 158.494 71.5304 158.771 71.2733 158.692C70.9766 158.593 70.9964 158.276 71.0162 158.019C71.0162 157.127 70.9371 156.256 70.8382 155.384C70.7393 154.631 70.1262 154.711 69.7505 154.671C69.2165 154.612 69.5131 155.127 69.4736 155.404C69.2758 156.691 69.7109 157.9 69.6318 159.148ZM137.683 144.034C137.683 145.48 138.91 146.906 140.195 146.866C142.113 146.827 143.597 145.718 143.715 143.638C143.794 142.211 142.628 140.825 140.729 140.924C138.989 141.023 137.683 142.271 137.683 144.034ZM129.16 155.206C130.504 155.166 131.493 154.552 132.166 153.383C132.324 153.106 132.522 152.73 132.126 152.532C131.77 152.353 131.276 152.314 131.098 152.769C130.781 153.601 130.148 153.819 129.357 153.938C129.021 153.998 128.784 154.017 128.606 153.72C128.369 153.324 128.744 153.205 128.982 153.067C129.773 152.591 130.544 152.096 131.355 151.66C131.889 151.363 131.948 151.046 131.612 150.551C130.88 149.481 129.555 149.045 128.408 149.501C126.984 150.075 126.134 151.521 126.411 152.868C126.688 154.196 127.854 155.186 129.16 155.206ZM44.9307 138.388C44.9307 136.606 43.5068 135.16 41.7862 135.16C40.1843 135.16 38.9582 136.447 38.9582 138.072C38.9779 139.537 40.6392 141.3 42.0433 141.32C43.665 141.36 44.9307 140.052 44.9307 138.388ZM58.9128 155.186C59.1699 155.087 59.5852 155.404 59.7237 154.948C59.8028 154.691 59.7435 154.414 59.5655 154.196C59.3084 153.898 58.9524 154.017 58.636 154.017C57.7658 154.037 57.39 153.423 57.0143 152.829C56.8956 152.651 56.8758 152.274 57.0736 152.076C57.2911 151.858 57.4889 152.096 57.6867 152.195C58.4975 152.67 59.3281 153.146 60.139 153.661C60.5741 153.938 61.0092 153.958 61.1872 153.443C61.4047 152.809 61.6816 152.175 61.4838 151.462C61.108 150.115 60.0599 149.323 58.458 149.303C56.6385 149.263 55.3926 151.343 55.5904 152.532C55.8474 153.918 57.3703 155.146 58.9128 155.186ZM108.295 156.196C108.295 155.523 108.058 155.107 107.346 155.206C105.882 155.424 104.399 155.582 102.975 155.998C102.501 156.137 102.422 156.414 102.501 156.81C102.58 157.167 102.797 157.345 103.213 157.286C104.043 157.147 104.894 157.147 105.685 156.87C106.436 156.612 106.594 156.989 106.416 157.583C105.863 159.425 105.289 161.267 104.716 163.109C104.656 163.327 104.281 163.486 104.597 163.783C104.854 164.021 105.17 164.001 105.428 163.902C105.863 163.763 106.219 163.446 106.357 162.971C106.515 162.416 106.674 161.842 106.852 161.287C107.326 159.564 107.801 157.88 108.295 156.196ZM153.505 132.109C153.762 131.515 153.169 131.059 152.674 130.782C152.101 130.465 151.408 130.544 150.874 131.079C150.598 131.356 150.281 131.594 149.984 131.852C149.727 132.07 149.431 132.149 149.193 131.911C148.936 131.654 149.114 131.317 149.292 131.119C149.49 130.881 149.787 130.703 150.044 130.505C150.459 130.168 150.321 129.792 150.103 129.455C149.866 129.059 149.609 129.376 149.352 129.494C148.521 129.891 148.086 130.663 147.789 131.436C147.512 132.169 147.73 132.921 148.501 133.357C149.193 133.753 149.806 133.694 150.38 133.139C150.696 132.842 151.013 132.565 151.349 132.307C151.586 132.129 151.843 131.951 152.14 132.208C152.437 132.466 152.298 132.763 152.199 133.02C152.061 133.417 151.764 133.674 151.369 133.793C150.756 133.991 150.736 134.387 150.973 134.882C151.27 135.516 151.606 135.061 151.903 134.882C152.911 134.308 153.445 133.456 153.505 132.109ZM66.428 159.168C66.784 159.207 66.8631 158.851 66.9817 158.553C67.8717 156.434 68.7418 154.314 69.6713 152.215C69.9087 151.66 70.0471 151.264 69.3549 150.947C68.6232 150.63 68.5243 151.165 68.3265 151.601C67.397 153.681 66.6851 155.86 65.5578 157.88C65.2809 158.375 65.7753 159.148 66.428 159.168ZM66.4675 153.641C66.5862 152.789 66.0127 152.809 65.4589 152.809C65.0041 152.789 64.5887 152.967 64.3514 152.274C64.1339 151.66 63.4021 151.739 63.0857 152.353C62.4726 153.562 61.9387 154.79 61.3058 155.998C61.0092 156.573 61.1871 156.81 61.7013 157.048C62.2749 157.325 62.4726 157.008 62.6704 156.573C62.9077 156.038 63.1648 155.503 63.4417 154.988C64.0152 153.958 64.4899 153.7 65.5578 154.176C66.25 154.433 66.3686 154.156 66.4675 153.641ZM49.2816 142.033C49.1629 141.558 48.9454 141.221 48.451 141.142C48.0159 141.082 47.7192 140.983 47.6599 140.389C47.5808 139.636 46.7897 139.478 46.2558 140.013C45.3263 140.944 44.4363 141.914 43.487 142.806C43.0322 143.242 43.2101 143.519 43.5266 143.856C43.9023 144.252 44.1594 144.291 44.5154 143.776C44.9505 143.123 45.5042 142.548 46.1964 142.132C47.0666 141.617 47.6995 142.033 48.3719 142.588C48.5301 142.746 49.1629 142.509 49.2816 142.033Z" fill="#1AA484"/>
<path d="M88.5968 107.883C88.5968 108.279 88.5968 108.675 88.5968 109.052C88.3001 109.19 88.4385 109.448 88.4583 109.646C88.3397 113.113 86.5004 115.608 83.8108 117.47C83 118.045 82.0507 118.421 81.1014 118.659C79.8752 118.956 78.4315 119.055 77.1856 118.897C73.4083 118.461 70.066 116.222 68.6816 112.598C67.1786 108.616 67.5741 104.654 70.6 101.406C73.5071 98.276 78.2733 97.345 82.3671 99.0882C85.6105 100.455 87.5486 102.852 88.3792 106.199C88.4781 106.615 88.4385 107.051 88.4583 107.467C88.4188 107.645 88.3792 107.804 88.5968 107.883ZM78.0756 115.192C79.8752 115.291 81.4771 114.876 82.7033 113.37C84.0481 111.746 84.4239 109.923 84.2854 107.883C84.1272 105.328 83.0988 103.426 80.6861 102.396C78.3327 101.406 75.0695 101.842 73.3885 104.199C72.1426 105.962 71.8657 107.883 72.1623 110.062C72.5381 112.598 75.0497 115.628 78.0756 115.192Z" fill="#25292B"/>
<path d="M94.3329 109.27C94.4911 111.964 95.7766 114.618 98.4663 115.054C100.958 115.45 103.173 115.371 104.735 112.994C104.993 112.598 105.23 112.38 105.724 112.38C107.049 112.4 108.355 112.38 109.68 112.38C108.948 115.787 105.23 119.095 99.8902 118.936C94.0956 118.758 90.3183 114.103 90.0414 109.468C89.6854 103.644 93.0474 99.2468 98.3674 98.4148C103.529 97.6225 108.177 99.7618 109.739 104.714C108.651 104.714 105.942 105.209 105.032 104.476C104.854 104.338 104.735 104.139 104.617 103.961C102.422 100.851 97.3192 101.505 95.3811 104.536C94.6098 105.764 94.234 107.527 94.3329 109.27Z" fill="#24282A"/>
<path d="M63.5995 103.962C63.2633 103.962 62.9468 103.962 62.6106 103.962C61.958 103.962 61.4636 104.041 61.1076 103.11C60.5143 101.585 57.2116 100.931 55.9855 102.912C55.5899 103.566 55.7877 104.576 56.3019 105.131C57.4094 106.319 58.8926 106.636 60.3363 107.111C62.2942 107.765 64.4696 108.201 65.5178 110.36C66.7044 112.757 66.0913 115.847 63.7775 117.551C62.67 118.363 61.424 118.66 60.1188 118.838C57.2512 119.234 54.6802 118.62 52.6827 116.421C51.9312 115.609 51.595 114.559 51.4368 113.45C51.3577 112.975 51.5752 112.836 52.0499 112.836C53.0783 112.856 54.0869 112.876 55.1153 112.836C55.6097 112.816 55.7877 113.034 55.9261 113.43C56.7765 115.649 58.8135 116.283 60.8307 115.015C62.4129 114.025 62.0173 111.866 60.633 111.152C59.0311 110.34 57.2709 110.083 55.6295 109.429C52.8805 108.34 51.417 106.755 51.4764 104.061C51.5555 101.308 52.8014 99.4852 55.7284 98.6137C58.4773 97.8015 61.2065 98.0194 63.6786 99.7229C65.0234 100.634 65.5771 101.941 65.854 103.447C65.9331 103.843 65.7354 103.962 65.3596 103.942C64.7861 103.942 64.1928 103.962 63.5995 103.962Z" fill="#25292B"/>
<path d="M133.234 104.537C132.403 108.518 128.626 112.837 125.976 114.54C125.837 114.619 125.718 114.718 125.58 114.798C125.54 114.857 125.481 114.917 125.442 114.956C125.481 114.976 125.54 114.996 125.58 115.016C125.778 115.016 125.995 114.996 126.193 114.996C128.408 115.016 130.603 115.055 132.818 115.035C133.51 115.035 133.866 115.134 133.768 115.927C133.688 116.699 134.005 117.749 133.609 118.225C133.135 118.779 132.067 118.403 131.256 118.403C127.637 118.423 124.018 118.403 120.379 118.423C119.687 118.423 119.588 118.205 119.469 117.551C119.113 115.531 120.319 114.52 121.664 113.431C123.761 111.747 125.798 109.964 127.479 107.845C128.606 106.419 129.377 104.814 129.1 102.972C128.863 101.427 128.052 100.674 126.015 100.714C124.354 100.754 123.464 102.219 123.424 103.348C123.405 104.161 123.147 104.299 122.436 104.26C121.684 104.2 120.913 104.22 120.161 104.26C119.489 104.279 119.251 104.22 119.37 103.348C119.568 102.021 119.924 100.853 120.715 99.7433C121.862 98.1388 123.503 97.4257 125.303 97.2078C127.162 96.9899 128.962 97.2871 130.643 98.3171C133.174 99.882 133.728 102.14 133.234 104.537Z" fill="#1AA484"/>
<path d="M132.62 79.9549C131.354 79.8954 130.88 78.6871 130.326 77.5977C129.752 76.4884 129.179 75.3593 128.665 74.2104C128.368 73.5567 127.735 73.6756 127.32 73.6756C125.125 73.6558 122.929 73.4775 120.734 73.7548C120.339 73.8142 120.161 73.9727 120.022 74.2896C119.31 75.7555 118.579 77.2213 117.867 78.6871C117.313 79.8558 115.79 80.3708 114.781 79.6577C114.267 79.3012 114.623 78.8852 114.801 78.5287C116.265 75.5574 117.748 72.5861 119.231 69.6148C120.794 66.5247 122.376 63.4544 123.958 60.3841C124.057 60.186 123.958 59.8097 124.353 59.7899C124.769 59.77 124.808 60.1266 124.927 60.3643C126.39 63.2959 127.854 66.2474 129.297 69.1989C130.82 72.289 132.323 75.3791 133.826 78.4692C134.38 79.6181 134.182 79.9351 132.62 79.9549ZM124.373 71.1995C125.026 71.1995 125.678 71.1599 126.351 71.1995C127.003 71.2391 127.122 70.9222 126.905 70.427C126.232 69.0008 125.5 67.6142 124.788 66.2078C124.571 65.7918 124.353 65.7522 124.116 66.2078C123.384 67.634 122.633 69.0602 121.921 70.5062C121.664 71.0212 121.881 71.2193 122.435 71.1995C123.068 71.1995 123.72 71.1995 124.373 71.1995Z" fill="#1AA484"/>
<path d="M92.9083 80.1524C90.0406 80.2515 87.4894 79.7166 85.314 78.1122C82.9804 76.3888 81.8135 73.9722 81.4971 71.0802C81.1807 68.307 81.9717 65.8904 83.6725 63.7907C85.3536 61.691 87.6477 60.6609 90.2977 60.3242C92.2358 60.0865 94.0949 60.1855 95.9539 60.7402C97.8524 61.2948 99.395 62.3644 100.7 63.8303C101.017 64.1868 100.997 64.5632 100.641 64.8603C100.206 65.2169 99.751 65.4942 99.2961 65.8111C98.9995 66.0092 98.861 65.7517 98.7424 65.5932C97.4173 64.1274 95.7956 63.2162 93.8575 62.82C90.713 62.1664 86.0655 63.7312 84.6614 67.6137C82.921 72.4469 86.4017 76.9237 90.6339 77.617C93.6795 78.1122 96.1912 77.3793 98.3666 75.2796C99.0786 74.5863 99.5928 74.6655 100.661 75.6955C101.274 76.2898 100.68 76.7256 100.325 77.0821C98.1688 79.0234 95.7956 80.4496 92.9083 80.1524Z" fill="#1AA484"/>
<path d="M72.7558 79.9541C71.8263 80.0135 70.7583 79.2013 70.4024 78.2902C69.8684 76.9432 69.1366 75.6556 68.5038 74.3483C68.2665 73.8531 67.8116 73.8333 67.337 73.7738C65.122 73.5361 62.8872 73.5757 60.6722 73.754C60.1383 73.7936 59.8812 74.0313 59.6636 74.5067C59.011 75.8933 58.2397 77.2403 57.6068 78.6467C57.2509 79.439 56.7564 79.9343 55.8863 79.7362C55.3325 79.5975 54.6601 80.271 54.2844 79.6173C53.9284 79.0231 54.6008 78.5477 54.8579 78.0525C57.7453 72.2288 60.6524 66.4051 63.5596 60.5814C63.7178 60.2645 63.7772 59.7891 64.1925 59.7891C64.5682 59.7891 64.588 60.2645 64.7264 60.5616C67.6929 66.5636 70.6594 72.5655 73.6259 78.5675C74.1599 79.6371 73.9622 79.9343 72.7558 79.9541ZM64.2122 65.5731C63.3025 67.3559 62.4917 68.9802 61.6611 70.6045C61.4633 70.9808 61.5622 71.1987 61.9775 71.1987C63.4607 71.2185 64.9242 71.1987 66.4075 71.1987C66.8228 71.1987 66.9217 71.0006 66.7437 70.6243C65.913 69 65.1022 67.3559 64.2122 65.5731Z" fill="#1AA484"/>
<path d="M104.478 70.0296C104.478 67.1772 104.478 64.3248 104.478 61.4526C104.478 60.8979 104.537 60.4423 105.209 60.4423C108.156 60.4225 111.123 60.2839 114.01 60.9772C116.086 61.4724 117.392 63.374 117.51 65.4539C117.669 68.029 116.245 69.6929 114.287 70.5248C112.408 71.3172 110.49 71.0003 108.571 71.0201C107.306 71.0399 107.147 71.1389 107.167 72.4265C107.167 74.5063 107.147 76.5862 107.207 78.6463C107.226 79.3 107.029 79.7952 106.376 79.8744C105.051 80.0131 104.537 79.6764 104.537 78.7057C104.517 75.8137 104.537 72.9019 104.537 70.0098C104.497 70.0296 104.478 70.0296 104.478 70.0296ZM107.187 65.7906C107.187 66.4443 107.227 67.1178 107.187 67.7715C107.147 68.445 107.385 68.7421 108.077 68.7025C109.165 68.6629 110.252 68.6232 111.32 68.6629C112.111 68.7025 112.784 68.4648 113.456 68.1082C114.465 67.5536 114.88 66.6226 114.722 65.2558C114.623 64.305 113.951 63.6513 112.883 63.3146C111.973 63.0174 111.004 63.0373 110.094 62.9778C107.187 62.7996 107.187 62.859 107.187 65.7906Z" fill="#1AA484"/>
<path d="M78.3334 70.1483C78.3334 73.0206 78.3334 75.8928 78.3334 78.765C78.3334 79.6762 78.0565 79.9139 77.0875 79.7554C75.7229 79.5574 75.7229 79.5574 75.7229 78.1708C75.7229 72.664 75.7427 67.1573 75.7031 61.6307C75.7031 60.6205 76.1184 60.5016 76.9293 60.5214C77.7006 60.5412 78.3334 60.5016 78.3136 61.6307C78.2543 64.4633 78.2939 67.3157 78.2939 70.1483C78.3334 70.1483 78.3334 70.1483 78.3334 70.1483Z" fill="#1AA484"/>
<path d="M14.4548 93.8008C14.4548 94.3356 14.4548 94.8704 14.4746 95.3855C13.8417 94.8704 13.8615 94.3356 14.4548 93.8008Z" fill="#F2F7FC"/>
<path d="M14.4742 86.6895C14.4742 87.2243 14.4544 87.7591 14.4544 88.2741C13.8611 87.7393 13.8216 87.2045 14.4742 86.6895Z" fill="#F2F7FC"/>
<path d="M160.209 45.6849C159.892 45.5264 159.635 45.3086 159.615 44.8926C160.11 44.9322 160.228 45.2491 160.209 45.6849Z" fill="#F2F7FC"/>
<path d="M36.2285 107.29C36.2285 107.092 36.2483 106.894 36.2483 106.676C36.4065 106.715 36.5647 106.735 36.5845 106.933C36.6043 107.211 36.4263 107.25 36.2285 107.29Z" fill="#F2F7FC"/>
<path d="M161.396 47.4673C161.119 47.3683 161 47.1702 161 46.873C161.396 46.8929 161.396 47.1702 161.396 47.4673Z" fill="#F2F7FC"/>
<path d="M161.791 48.063C161.514 47.964 161.396 47.7659 161.396 47.4688C161.791 47.4886 161.791 47.7659 161.791 48.063Z" fill="#F2F7FC"/>
<path d="M152.318 75.002C152.733 75.0416 152.694 75.3387 152.674 75.6358C152.456 75.4774 152.278 75.2991 152.318 75.002Z" fill="#C6DFF6"/>
<path d="M152.713 76.5859C153.128 76.6652 153.207 76.8633 152.911 77.1802C152.832 76.9821 152.772 76.784 152.713 76.5859Z" fill="#C6DFF6"/>
<path d="M159.615 44.8931C159.358 44.794 159.22 44.596 159.22 44.2988C159.615 44.3186 159.615 44.6158 159.615 44.8931Z" fill="#F2F7FC"/>
<path d="M153.504 80.5488C153.761 80.5884 153.979 80.6479 153.682 80.945C153.504 80.8658 153.484 80.7073 153.504 80.5488Z" fill="#C6DFF6"/>
<path d="M152.91 77.3789C153.168 77.4185 153.385 77.4779 153.088 77.7751C152.91 77.6958 152.891 77.5374 152.91 77.3789Z" fill="#C6DFF6"/>
<path d="M36.229 106.299C36.051 106.219 36.0312 106.061 36.0312 105.902C36.2883 105.942 36.5257 105.982 36.229 106.299Z" fill="#F2F7FC"/>
<path d="M148.955 65.4941C149.212 65.5338 149.43 65.5932 149.133 65.8903C148.955 65.8111 148.936 65.6526 148.955 65.4941Z" fill="#C6DFF6"/>
<path d="M169.682 113.034C169.978 112.737 170.038 112.955 170.077 113.212C169.919 113.212 169.781 113.192 169.682 113.034Z" fill="#C6DFF6"/>
<path d="M153.307 79.5586C153.564 79.5982 153.782 79.6576 153.485 79.9548C153.307 79.8755 153.287 79.7171 153.307 79.5586Z" fill="#C6DFF6"/>
<path d="M35.833 107.487C35.8923 107.427 35.9714 107.368 36.0308 107.309C35.9517 107.368 35.8923 107.427 35.833 107.487Z" fill="#F2F7FC"/>
<path d="M123.029 150.235C123.661 150.136 124.275 150.552 124.69 151.325C125.125 152.196 125.224 153.028 124.453 153.761C124.057 154.137 124.136 154.415 124.591 154.692C125.323 155.148 125.995 155.663 126.727 156.098C127.419 156.514 127.142 156.752 126.648 156.99C125.975 157.307 125.343 157.228 124.828 156.732C124.314 156.217 123.662 155.9 123.108 155.425C122.673 155.068 122.238 155.128 121.842 155.405C121.387 155.742 121.921 156.019 122.02 156.297C122.178 156.752 122.396 157.208 122.633 157.643C122.91 158.198 123.068 158.634 122.297 158.99C121.526 159.347 121.447 158.773 121.269 158.357C120.319 156.336 119.41 154.296 118.44 152.275C118.302 151.998 118.282 151.879 118.559 151.76C119.924 151.186 121.17 150.255 123.029 150.235ZM122.396 151.642C121.387 151.642 120.181 152.295 120.299 152.771C120.438 153.365 120.636 153.999 121.427 154.038C122.317 154.078 123.226 153.286 123.246 152.533C123.266 151.859 123.009 151.542 122.396 151.642Z" fill="#FAFCFD"/>
<path d="M56.0252 148.51C56.0252 148.847 55.8472 149.283 55.5308 149.679C54.9771 150.333 54.4629 151.006 53.9685 151.7C53.6718 152.116 53.4345 152.294 52.9401 151.898C52.4852 151.521 52.4061 151.224 52.8016 150.769C53.2961 150.194 53.7707 149.6 54.186 148.966C54.5618 148.411 54.6606 147.758 54.0673 147.302C53.4543 146.827 52.8807 147.064 52.4457 147.639C51.9512 148.253 51.4568 148.867 51.002 149.521C50.6064 150.055 50.2307 149.897 49.8549 149.56C49.4792 149.243 49.3407 149.006 49.8351 148.55C50.4284 147.995 50.8635 147.282 51.3579 146.629C51.7139 146.133 51.9117 145.638 51.3382 145.163C50.7251 144.668 50.1516 144.687 49.6374 145.321C49.143 145.935 48.6288 146.549 48.1739 147.183C47.8772 147.579 47.6004 147.797 47.1257 147.441C46.6709 147.104 46.5918 146.767 46.9873 146.292C47.7981 145.301 48.5694 144.271 49.3407 143.261C49.8747 142.568 50.5273 142.608 50.7844 143.42C50.9229 143.855 51.0811 143.954 51.4964 144.014C52.2874 144.133 52.9203 144.569 53.1181 145.401C53.2565 145.975 53.5729 146.133 54.1662 146.193C55.3528 146.232 56.1043 147.183 56.0252 148.51Z" fill="#FAFCFD"/>
<path d="M91.6031 164.694C90.8318 164.793 90.6933 164.199 90.5549 163.723C90.3374 162.991 89.9616 162.575 89.1508 162.733C88.6366 162.832 88.1817 162.614 87.7268 162.515C86.8567 162.297 86.3425 162.614 86.0458 163.387C85.8876 163.803 85.7294 164.199 85.1757 164.12C84.8394 164.08 84.4241 164.278 84.167 163.902C83.9099 163.506 84.3846 163.327 84.5032 163.07C85.5712 161.069 86.6985 159.108 87.7466 157.088C88.0433 156.533 88.3795 156.355 88.9926 156.375C89.6056 156.394 89.7243 156.81 89.8825 157.246C90.634 159.405 91.3855 161.584 92.1766 163.743C92.4535 164.437 92.3546 164.753 91.6031 164.694ZM88.7355 158.078C88.3004 158.969 87.9839 159.603 87.6675 160.237C87.5093 160.554 87.1929 160.93 87.5884 161.188C88.1422 161.545 88.775 161.366 89.3485 161.148C89.8429 160.95 89.4672 160.614 89.4079 160.356C89.2496 159.683 89.0321 159.049 88.7355 158.078Z" fill="#FAFCFD"/>
<path d="M115.968 158.771C115.75 159.94 115.77 161.188 114.425 161.822C113.021 162.495 111.676 162.257 110.786 160.93C109.758 159.405 109.006 157.761 109.679 155.82C109.995 154.908 110.49 154.136 111.439 154.037C112.586 153.918 113.812 153.74 114.623 154.988C115.394 156.156 115.81 157.404 115.968 158.771ZM114.346 158.731C114.504 157.86 114.129 156.909 113.595 156.037C113.258 155.503 112.803 155.047 112.052 155.245C111.3 155.443 111.004 155.958 110.964 156.691C110.905 158.018 111.32 159.207 112.072 160.276C112.448 160.811 112.981 160.871 113.555 160.712C113.99 160.593 114.326 160.316 114.346 159.821C114.346 159.524 114.346 159.227 114.346 158.731Z" fill="#FAFCFD"/>
<path d="M144.17 138.587C144.131 138.924 144.269 139.161 144.506 139.379C145.02 139.855 145.495 140.35 146.009 140.806C146.84 141.538 146.84 141.697 145.97 142.39C145.634 142.667 145.495 142.37 145.337 142.212C144.328 141.301 143.339 140.39 142.351 139.478C141.777 138.944 141.817 138.409 142.529 138.131C143.023 137.933 143.181 137.735 143.3 137.24C143.399 136.844 143.735 136.467 144.131 136.17C144.783 135.715 144.783 135.16 144.17 134.625C143.893 134.388 143.517 134.189 143.992 133.813C144.328 133.556 144.566 132.882 145.159 133.516C145.653 134.051 146.088 133.912 146.425 133.338C146.662 132.961 146.899 132.961 147.235 133.199C147.572 133.437 147.651 133.774 147.374 134.031C146.622 134.784 147.156 135.16 147.75 135.556C148.046 135.754 148.343 135.972 148.62 136.21C149.075 136.606 149.49 136.646 149.866 136.111C150.123 135.754 150.439 135.655 150.795 135.933C151.171 136.23 151.013 136.606 150.835 136.903C150.182 138.092 149.114 138.329 147.967 137.557C147.69 137.379 147.453 137.141 147.156 136.982C146.682 136.725 146.326 135.794 145.713 136.289C145.04 136.883 144.348 137.597 144.17 138.587Z" fill="#FAFCFD"/>
<path d="M138.256 148.431C138.256 149.679 137.564 150.59 136.259 150.867C135.389 151.066 135.329 151.343 135.903 151.957C136.16 152.254 136.377 152.571 136.615 152.908C136.951 153.363 137.01 153.76 136.457 154.156C135.903 154.532 135.745 154.255 135.428 153.819C134.242 152.135 132.976 150.471 131.75 148.807C131.077 147.916 131.137 147.698 132.185 147.5C132.64 147.421 132.818 147.104 133.035 146.767C133.886 145.499 135.013 145.004 136.219 145.361C137.445 145.717 138.256 146.965 138.256 148.431ZM136.674 148.332C136.674 147.302 136.16 146.688 135.29 146.668C134.479 146.648 133.549 147.54 133.53 148.332C133.51 149.105 134.4 150.055 135.112 150.036C136.081 150.036 136.694 149.362 136.674 148.332Z" fill="#FAFCFD"/>
<path d="M95.5193 164.892C94.9063 165.109 94.4514 164.555 93.8779 164.436C93.601 164.377 92.889 164.198 93.2055 163.584C93.4428 163.148 93.8185 162.752 94.4712 163.109C95.2227 163.505 96.0138 163.881 96.7653 163.01C97.3586 162.336 97.2597 161.9 96.4291 161.524C95.6973 161.187 94.9063 161.088 94.2141 160.633C92.7704 159.682 92.7506 157.701 94.2339 156.81C95.3809 156.116 96.5675 156.037 97.7937 156.572C98.0705 156.691 98.644 156.671 98.4067 157.226C98.209 157.642 97.9716 158.216 97.319 157.939C96.7653 157.701 96.2115 157.84 95.6578 157.78C95.1238 157.741 94.8667 158.058 94.7876 158.513C94.7085 158.949 94.9458 159.286 95.3611 159.424C95.9544 159.642 96.5477 159.821 97.141 160.019C98.0705 160.355 98.7429 160.93 98.7825 162C98.822 163.267 98.3078 164.099 97.141 164.515C96.6466 164.733 96.1324 164.991 95.5193 164.892Z" fill="#FAFCFD"/>
<path d="M81.7349 155.206C82.526 155.087 83.2775 155.463 84.0092 155.939C84.3454 156.157 84.6619 156.414 84.207 156.751C83.8906 156.988 83.6928 157.801 83.0797 157.147C82.6051 156.632 82.0118 156.612 81.3592 156.592C80.8252 156.573 80.5285 156.87 80.3703 157.266C80.2121 157.642 80.5681 157.959 80.8252 158.157C81.2998 158.514 81.8536 158.751 82.348 159.068C83.673 159.9 84.0488 161.128 83.3764 162.337C82.7633 163.426 81.0625 163.961 79.8759 163.486C79.243 163.228 78.5706 163.01 78.0762 162.495C77.8785 162.297 77.5225 162.04 77.918 161.782C78.2542 161.544 78.4915 160.911 79.0651 161.366C79.421 161.643 79.777 161.921 80.1726 162.178C80.8845 162.654 81.4778 162.238 81.7745 161.782C82.0909 161.307 82.0316 160.633 81.3592 160.257C81.0427 160.079 80.7461 159.881 80.4296 159.722C79.0453 158.969 78.5706 158.157 78.8475 157.107C79.2035 155.741 80.0341 155.206 81.7349 155.206Z" fill="#FAFCFD"/>
<path d="M35.0818 133.397C34.6467 133.219 34.4885 132.822 34.3105 132.506C34.1326 132.189 34.4292 132.03 34.627 131.891C36.4662 130.624 38.3054 129.356 40.1249 128.068C40.6193 127.712 40.8962 127.811 41.2324 128.306C41.9443 129.376 42.6959 130.406 43.4474 131.456C43.6847 131.792 43.8825 132.129 43.388 132.466C42.9727 132.743 42.6365 132.783 42.3399 132.288C41.9246 131.614 41.4104 131.02 40.9951 130.346C40.4809 129.475 40.026 130.069 39.5316 130.327C38.9581 130.644 38.8394 131.02 39.2943 131.575C39.7491 132.129 40.1249 132.763 40.5402 133.357C40.7577 133.674 40.9555 133.971 40.4611 134.249C40.0458 134.486 39.7096 134.625 39.3931 134.11C39.0372 133.516 38.6021 132.981 38.2461 132.387C37.9099 131.812 37.5737 131.654 37.0002 132.149C36.5255 132.545 35.9718 132.862 35.4576 133.199C35.3389 133.258 35.2005 133.338 35.0818 133.397Z" fill="#FAFCFD"/>
<path d="M69.6314 159.147C69.7105 157.899 69.2754 156.671 69.4534 155.423C69.493 155.146 69.1963 154.631 69.7303 154.69C70.1258 154.73 70.7389 154.631 70.818 155.403C70.9169 156.275 70.996 157.166 70.996 158.038C70.996 158.295 70.9565 158.612 71.2531 158.711C71.5102 158.791 71.6289 158.513 71.7673 158.335C72.2222 157.78 72.6968 157.226 73.1517 156.651C73.4681 156.235 73.8834 156.097 74.3778 156.176C74.9514 156.275 75.1293 156.532 74.6943 157.028C73.1715 158.751 71.6684 160.514 70.1061 162.198C69.3348 163.049 68.3262 163.109 67.4164 162.554C67.1396 162.376 66.922 162.198 67.0605 161.841C67.1593 161.544 67.3176 161.346 67.6933 161.346C69.6512 161.247 69.6512 161.247 69.6314 159.147Z" fill="#FAFCFD"/>
<path d="M137.683 144.035C137.683 142.272 138.988 141.024 140.728 140.925C142.627 140.826 143.813 142.212 143.715 143.639C143.596 145.719 142.093 146.808 140.194 146.867C138.909 146.907 137.683 145.481 137.683 144.035ZM142.211 143.797C142.211 142.727 141.816 142.331 140.748 142.331C139.641 142.331 139.027 142.866 139.027 143.837C139.027 144.649 139.838 145.501 140.61 145.501C141.539 145.501 142.211 144.788 142.211 143.797Z" fill="#FAFCFD"/>
<path d="M129.159 155.206C127.854 155.186 126.687 154.196 126.41 152.869C126.134 151.522 126.984 150.076 128.408 149.501C129.535 149.046 130.86 149.482 131.612 150.551C131.948 151.047 131.869 151.363 131.355 151.661C130.544 152.096 129.773 152.592 128.981 153.067C128.744 153.206 128.388 153.305 128.606 153.721C128.784 154.018 129.021 153.998 129.357 153.939C130.148 153.82 130.781 153.582 131.098 152.77C131.276 152.294 131.77 152.354 132.126 152.532C132.541 152.73 132.324 153.126 132.165 153.384C131.513 154.553 130.504 155.167 129.159 155.206ZM129.239 150.492C128.685 150.472 127.755 151.066 127.597 151.581C127.538 151.819 127.478 152.096 127.736 152.294C127.973 152.493 128.171 152.294 128.349 152.195C128.744 151.978 129.14 151.74 129.515 151.502C129.733 151.363 130.01 151.245 129.911 150.908C129.832 150.551 129.476 150.611 129.239 150.492Z" fill="#FAFCFD"/>
<path d="M44.9298 138.389C44.9298 140.053 43.6641 141.36 42.0424 141.34C40.6383 141.321 38.977 139.558 38.9573 138.092C38.9375 136.448 40.1834 135.18 41.7853 135.18C43.5059 135.16 44.91 136.626 44.9298 138.389ZM41.9831 136.566C41.0734 136.547 40.3614 137.24 40.3614 138.171C40.3614 138.963 41.1723 139.914 41.8842 139.974C42.5764 140.013 43.6048 139.102 43.6443 138.389C43.7234 137.458 42.9126 136.586 41.9831 136.566Z" fill="#FAFCFD"/>
<path d="M58.9123 155.187C57.3697 155.147 55.8469 153.919 55.6096 152.513C55.392 151.324 56.638 149.244 58.4772 149.284C60.0593 149.323 61.1273 150.116 61.503 151.443C61.7008 152.176 61.4239 152.81 61.2064 153.424C61.0284 153.939 60.6131 153.919 60.1582 153.642C59.3474 153.146 58.5168 152.671 57.7059 152.176C57.5081 152.057 57.3104 151.839 57.0928 152.057C56.8951 152.255 56.9148 152.612 57.0335 152.81C57.4093 153.404 57.8048 154.018 58.6552 153.998C58.9716 153.998 59.3276 153.86 59.5847 154.176C59.7627 154.394 59.822 154.672 59.7429 154.929C59.5649 155.385 59.1694 155.088 58.9123 155.187ZM58.8727 150.452C58.497 150.433 58.0619 150.373 57.9037 150.769C57.7257 151.225 58.2597 151.225 58.4772 151.403C58.6947 151.582 58.9716 151.74 59.2287 151.859C59.5056 151.978 59.8418 152.473 60.0989 152.057C60.2967 151.74 60.2571 151.245 59.9011 150.888C59.5847 150.611 59.2683 150.413 58.8727 150.452Z" fill="#FAFCFD"/>
<path d="M108.295 156.197C107.801 157.88 107.326 159.584 106.832 161.268C106.673 161.822 106.495 162.397 106.337 162.951C106.199 163.427 105.843 163.744 105.408 163.882C105.151 163.962 104.834 164.001 104.577 163.763C104.261 163.466 104.636 163.308 104.696 163.09C105.269 161.248 105.843 159.425 106.397 157.563C106.575 156.949 106.436 156.573 105.665 156.85C104.874 157.128 104.023 157.128 103.193 157.266C102.758 157.326 102.56 157.147 102.481 156.791C102.402 156.414 102.481 156.117 102.955 155.979C104.399 155.583 105.863 155.404 107.326 155.186C108.038 155.087 108.295 155.503 108.295 156.197Z" fill="#FAFCFD"/>
<path d="M153.505 132.109C153.425 133.456 152.911 134.308 151.942 134.882C151.646 135.061 151.309 135.516 151.013 134.882C150.775 134.387 150.795 133.991 151.408 133.793C151.804 133.674 152.1 133.417 152.239 133.02C152.338 132.743 152.476 132.466 152.18 132.208C151.883 131.951 151.626 132.109 151.388 132.307C151.052 132.565 150.736 132.842 150.419 133.139C149.846 133.694 149.213 133.753 148.541 133.357C147.769 132.921 147.532 132.169 147.829 131.436C148.125 130.663 148.56 129.891 149.391 129.494C149.648 129.376 149.885 129.059 150.143 129.455C150.36 129.792 150.479 130.188 150.083 130.505C149.826 130.703 149.529 130.881 149.332 131.119C149.154 131.337 148.976 131.654 149.233 131.911C149.47 132.149 149.767 132.07 150.024 131.852C150.321 131.594 150.637 131.356 150.914 131.079C151.448 130.544 152.14 130.445 152.714 130.782C153.168 131.059 153.762 131.515 153.505 132.109Z" fill="#FAFCFD"/>
<path d="M66.428 159.168C65.7754 159.128 65.2809 158.376 65.538 157.88C66.6455 155.88 67.3773 153.701 68.3068 151.601C68.5045 151.146 68.6034 150.631 69.3352 150.948C70.0273 151.245 69.9087 151.661 69.6516 152.215C68.7419 154.315 67.8717 156.434 66.962 158.554C66.8631 158.851 66.8037 159.227 66.428 159.168Z" fill="#FAFCFD"/>
<path d="M66.4674 153.642C66.3685 154.157 66.2301 154.434 65.5577 154.137C64.4898 153.681 63.9953 153.919 63.4416 154.949C63.1647 155.464 62.9076 155.999 62.6703 156.534C62.4725 156.97 62.2748 157.286 61.7012 157.009C61.187 156.771 61.0091 156.514 61.3057 155.959C61.9386 154.771 62.4923 153.523 63.0856 152.315C63.3823 151.701 64.1338 151.621 64.3513 152.235C64.5886 152.929 65.0039 152.77 65.4588 152.77C66.0126 152.83 66.6059 152.79 66.4674 153.642Z" fill="#FAFCFD"/>
<path d="M49.2815 142.033C49.1629 142.508 48.53 142.726 48.3718 142.607C47.6994 142.053 47.0665 141.637 46.1964 142.152C45.5042 142.568 44.9504 143.142 44.5153 143.796C44.1594 144.311 43.8825 144.271 43.5265 143.875C43.2101 143.538 43.0321 143.261 43.487 142.825C44.4362 141.934 45.346 140.963 46.2557 140.032C46.7897 139.497 47.561 139.656 47.6598 140.409C47.7192 141.003 48.0356 141.082 48.4509 141.161C48.9453 141.24 49.1629 141.557 49.2815 142.033Z" fill="#FEFEFF"/>
<path d="M125.441 114.957C125.481 114.897 125.541 114.837 125.581 114.797L125.441 114.957Z" fill="#A6A7A8"/>
<path d="M122.395 151.641C123.008 151.542 123.265 151.859 123.246 152.532C123.226 153.285 122.316 154.057 121.426 154.038C120.615 153.998 120.417 153.364 120.299 152.77C120.16 152.295 121.387 151.641 122.395 151.641Z" fill="#3874BA"/>
<path d="M88.7355 158.078C89.0322 159.049 89.2497 159.683 89.4079 160.356C89.4672 160.614 89.8628 160.95 89.3486 161.148C88.7751 161.386 88.1422 161.564 87.5885 161.188C87.1929 160.931 87.5094 160.554 87.6676 160.237C87.984 159.603 88.3004 158.97 88.7355 158.078Z" fill="#3874BA"/>
<path d="M114.346 158.733C114.346 159.228 114.346 159.525 114.346 159.822C114.326 160.317 113.99 160.595 113.555 160.714C112.982 160.872 112.448 160.813 112.072 160.278C111.32 159.208 110.885 158.02 110.964 156.692C111.004 155.96 111.32 155.445 112.052 155.246C112.804 155.048 113.239 155.504 113.595 156.039C114.129 156.91 114.504 157.861 114.346 158.733Z" fill="#3874BA"/>
<path d="M136.674 148.333C136.674 149.363 136.081 150.036 135.112 150.056C134.4 150.076 133.51 149.105 133.53 148.353C133.549 147.541 134.479 146.649 135.29 146.689C136.16 146.709 136.674 147.303 136.674 148.333Z" fill="#3874BA"/>
<path d="M142.211 143.796C142.211 144.767 141.539 145.499 140.609 145.499C139.838 145.499 139.027 144.628 139.027 143.836C139.027 142.865 139.64 142.33 140.748 142.33C141.816 142.33 142.211 142.746 142.211 143.796Z" fill="#3471B9"/>
<path d="M129.239 150.492C129.476 150.611 129.832 150.551 129.931 150.908C130.01 151.245 129.753 151.364 129.535 151.502C129.159 151.74 128.764 151.978 128.368 152.196C128.19 152.295 127.993 152.493 127.755 152.295C127.498 152.097 127.557 151.819 127.617 151.582C127.755 151.067 128.685 150.452 129.239 150.492Z" fill="#3874BA"/>
<path d="M41.9831 136.567C42.8929 136.587 43.7235 137.458 43.6641 138.369C43.6246 139.082 42.5962 139.994 41.904 139.954C41.1723 139.914 40.3614 138.944 40.3812 138.151C40.3812 137.24 41.0932 136.547 41.9831 136.567Z" fill="#3874BA"/>
<path d="M58.8729 150.453C59.2685 150.413 59.6047 150.591 59.9013 150.888C60.2771 151.245 60.2969 151.74 60.0991 152.057C59.842 152.473 59.5058 151.978 59.2289 151.859C58.9718 151.74 58.6949 151.602 58.4774 151.403C58.2599 151.225 57.7259 151.225 57.9039 150.77C58.0423 150.373 58.4774 150.433 58.8729 150.453Z" fill="#3874BA"/>
</g>
<defs>
<filter id="filter0_d_1803_11561" x="0" y="0" width="188" height="188" filterUnits="userSpaceOnUse" color-interpolation-filters="sRGB">
<feFlood flood-opacity="0" result="BackgroundImageFix"/>
<feColorMatrix in="SourceAlpha" type="matrix" values="0 0 0 0 0 0 0 0 0 0 0 0 0 0 0 0 0 0 127 0" result="hardAlpha"/>
<feOffset dy="4"/>
<feGaussianBlur stdDeviation="2"/>
<feComposite in2="hardAlpha" operator="out"/>
<feColorMatrix type="matrix" values="0 0 0 0 0 0 0 0 0 0 0 0 0 0 0 0 0 0 0.25 0"/>
<feBlend mode="normal" in2="BackgroundImageFix" result="effect1_dropShadow_1803_11561"/>
<feBlend mode="normal" in="SourceGraphic" in2="effect1_dropShadow_1803_11561" result="shape"/>
</filter>
<clipPath id="clip0_1803_11561">
<rect width="160.29" height="160.29" fill="white" transform="translate(14 11)"/>
</clipPath>
</defs>
</svg>
