<svg width="41" height="42" viewBox="0 0 41 42" fill="none" xmlns="http://www.w3.org/2000/svg">
<g clip-path="url(#clip0_532_558)">
<path d="M20.5 4.1916C25.9773 4.1916 26.626 4.21562 28.7801 4.31172C30.782 4.3998 31.8631 4.73613 32.5838 5.01641C33.5367 5.38477 34.2254 5.8332 34.9381 6.5459C35.6588 7.2666 36.0992 7.94727 36.4676 8.9002C36.7479 9.6209 37.0842 10.71 37.1723 12.7039C37.2684 14.866 37.2924 15.5146 37.2924 20.984C37.2924 26.4613 37.2684 27.11 37.1723 29.2641C37.0842 31.266 36.7479 32.3471 36.4676 33.0678C36.0992 34.0207 35.6508 34.7094 34.9381 35.4221C34.2174 36.1428 33.5367 36.5832 32.5838 36.9516C31.8631 37.2318 30.774 37.5682 28.7801 37.6562C26.618 37.7523 25.9693 37.7764 20.5 37.7764C15.0227 37.7764 14.374 37.7523 12.2199 37.6562C10.218 37.5682 9.13692 37.2318 8.41621 36.9516C7.46328 36.5832 6.77461 36.1348 6.06191 35.4221C5.34121 34.7014 4.90078 34.0207 4.53242 33.0678C4.25215 32.3471 3.91582 31.258 3.82773 29.2641C3.73164 27.102 3.70762 26.4533 3.70762 20.984C3.70762 15.5066 3.73164 14.858 3.82773 12.7039C3.91582 10.702 4.25215 9.6209 4.53242 8.9002C4.90078 7.94727 5.34922 7.25859 6.06191 6.5459C6.78262 5.82519 7.46328 5.38477 8.41621 5.01641C9.13692 4.73613 10.226 4.3998 12.2199 4.31172C14.374 4.21562 15.0227 4.1916 20.5 4.1916ZM20.5 0.5C14.9346 0.5 14.2379 0.524023 12.0518 0.620117C9.87363 0.716211 8.37617 1.06855 7.07891 1.57305C5.72559 2.10156 4.58047 2.79824 3.44336 3.94336C2.29824 5.08047 1.60156 6.22559 1.07305 7.5709C0.568555 8.87617 0.216211 10.3656 0.120117 12.5437C0.0240234 14.7379 0 15.4346 0 21C0 26.5654 0.0240234 27.2621 0.120117 29.4482C0.216211 31.6264 0.568555 33.1238 1.07305 34.4211C1.60156 35.7744 2.29824 36.9195 3.44336 38.0566C4.58047 39.1937 5.72559 39.8984 7.0709 40.4189C8.37617 40.9234 9.86563 41.2758 12.0438 41.3719C14.2299 41.468 14.9266 41.492 20.492 41.492C26.0574 41.492 26.7541 41.468 28.9402 41.3719C31.1184 41.2758 32.6158 40.9234 33.9131 40.4189C35.2584 39.8984 36.4035 39.1937 37.5406 38.0566C38.6777 36.9195 39.3824 35.7744 39.9029 34.4291C40.4074 33.1238 40.7598 31.6344 40.8559 29.4562C40.952 27.2701 40.976 26.5734 40.976 21.008C40.976 15.4426 40.952 14.7459 40.8559 12.5598C40.7598 10.3816 40.4074 8.88418 39.9029 7.58691C39.3984 6.22559 38.7018 5.08047 37.5566 3.94336C36.4195 2.80625 35.2744 2.10156 33.9291 1.58105C32.6238 1.07656 31.1344 0.724219 28.9563 0.628125C26.7621 0.524023 26.0654 0.5 20.5 0.5Z" fill="white" style="fill:white;fill:white;fill-opacity:1;"/>
<path d="M20.5 10.4697C14.6863 10.4697 9.96973 15.1863 9.96973 21C9.96973 26.8137 14.6863 31.5303 20.5 31.5303C26.3137 31.5303 31.0303 26.8137 31.0303 21C31.0303 15.1863 26.3137 10.4697 20.5 10.4697ZM20.5 27.8307C16.7283 27.8307 13.6693 24.7717 13.6693 21C13.6693 17.2283 16.7283 14.1693 20.5 14.1693C24.2717 14.1693 27.3307 17.2283 27.3307 21C27.3307 24.7717 24.2717 27.8307 20.5 27.8307Z" fill="white" style="fill:white;fill:white;fill-opacity:1;"/>
<path d="M33.9051 10.0531C33.9051 11.4145 32.8 12.5115 31.4467 12.5115C30.0854 12.5115 28.9883 11.4065 28.9883 10.0531C28.9883 8.6918 30.0934 7.59473 31.4467 7.59473C32.8 7.59473 33.9051 8.69981 33.9051 10.0531Z" fill="white" style="fill:white;fill:white;fill-opacity:1;"/>
</g>
<defs>
<clipPath id="clip0_532_558">
<rect width="41" height="41" fill="white" style="fill:white;fill:white;fill-opacity:1;" transform="translate(0 0.5)"/>
</clipPath>
</defs>
</svg>
