<svg width="62" height="62" viewBox="0 0 62 62" fill="none" xmlns="http://www.w3.org/2000/svg">
<rect width="62" height="62" rx="14" fill="#E8FCF8"/>
<path opacity="0.4" fill-rule="evenodd" clip-rule="evenodd" d="M40.1875 28.8125C38.2545 28.8125 36.6875 30.3795 36.6875 32.3125V41.9375C36.6875 46.2867 33.1617 49.8125 28.8125 49.8125C24.4633 49.8125 20.9375 46.2867 20.9375 41.9375V32.75C20.9375 32.0251 21.5251 31.4375 22.25 31.4375C22.9749 31.4375 23.5625 32.0251 23.5625 32.75V41.9375C23.5625 44.837 25.913 47.1875 28.8125 47.1875C31.712 47.1875 34.0625 44.837 34.0625 41.9375V32.3125C34.0625 28.9298 36.8048 26.1875 40.1875 26.1875C43.5702 26.1875 46.3125 28.9298 46.3125 32.3125V34.5C46.3125 35.2249 45.7249 35.8125 45 35.8125C44.2751 35.8125 43.6875 35.2249 43.6875 34.5V32.3125C43.6875 30.3795 42.1205 28.8125 40.1875 28.8125Z" fill="#16CA9F"/>
<path d="M48.5 38C48.5 39.933 46.933 41.5 45 41.5C43.067 41.5 41.5 39.933 41.5 38C41.5 36.067 43.067 34.5 45 34.5C46.933 34.5 48.5 36.067 48.5 38Z" fill="#16CA9F"/>
<path fill-rule="evenodd" clip-rule="evenodd" d="M15.6875 14.1187C13.6676 14.69 12.1875 16.5471 12.1875 18.75V24C12.1875 29.5574 16.6926 34.0625 22.25 34.0625C27.8074 34.0625 32.3125 29.5574 32.3125 24V18.75C32.3125 16.5471 30.8324 14.69 28.8125 14.1187V16.9998C29.3438 17.3989 29.6875 18.0343 29.6875 18.75V24C29.6875 28.1076 26.3576 31.4375 22.25 31.4375C18.1424 31.4375 14.8125 28.1076 14.8125 24V18.75C14.8125 18.0343 15.1562 17.3989 15.6875 16.9998V14.1187Z" fill="#16CA9F"/>
<path opacity="0.4" fill-rule="evenodd" clip-rule="evenodd" d="M27.5 12.1875C28.2249 12.1875 28.8125 12.7751 28.8125 13.5V17C28.8125 17.7249 28.2249 18.3125 27.5 18.3125C26.7751 18.3125 26.1875 17.7249 26.1875 17V13.5C26.1875 12.7751 26.7751 12.1875 27.5 12.1875Z" fill="#16CA9F"/>
<path opacity="0.4" fill-rule="evenodd" clip-rule="evenodd" d="M17 12.1875C17.7249 12.1875 18.3125 12.7751 18.3125 13.5V17C18.3125 17.7249 17.7249 18.3125 17 18.3125C16.2751 18.3125 15.6875 17.7249 15.6875 17V13.5C15.6875 12.7751 16.2751 12.1875 17 12.1875Z" fill="#16CA9F"/>
</svg>
