<svg width="80" height="80" viewBox="0 0 80 80" fill="none" xmlns="http://www.w3.org/2000/svg">
<circle cx="40" cy="40" r="40" fill="white"/>
<path d="M42.8525 46.51C42.8525 48.085 41.575 49.3625 40 49.3625C38.88 49.3625 37.9175 48.715 37.4625 47.7875L41.2775 43.9725C42.205 44.4275 42.8525 45.39 42.8525 46.51Z" fill="#16CA9F"/>
<path d="M57.0975 22.9025C56.5725 22.3775 55.715 22.3775 55.19 22.9025L50.2725 27.82C48.925 24.285 45.4775 22.5 40 22.5C30.1475 22.5 29.01 28.765 29.01 33.49V35.6775C29.0275 35.6775 29.045 35.6775 29.0625 35.6775C24.11 36.2725 22.5 38.74 22.5 44.8825V48.1375C22.5 50.9375 22.8325 52.9675 23.6725 54.42L22.885 55.2075C22.36 55.7325 22.36 56.59 22.885 57.115C23.165 57.36 23.4975 57.5 23.8475 57.5C24.1975 57.5 24.53 57.36 24.7925 57.0975L57.0975 24.7925C57.64 24.2675 57.64 23.4275 57.0975 22.9025ZM31.8625 35.52C31.7225 35.52 31.6 35.52 31.46 35.52V33.49C31.46 28.3625 32.9125 24.95 40 24.95C45.95 24.95 47.8225 27.225 48.3475 29.7625L42.59 35.52H31.8625V35.52Z" fill="#16CA9F"/>
<path d="M57.5 44.8825V48.1375C57.5 55.3125 55.3125 57.5 48.1375 57.5H31.9675C30.41 57.5 29.64 55.61 30.7425 54.5075L35.6775 49.5725C35.8 49.7475 35.94 49.905 36.08 50.0625C37.305 51.3925 39.125 52.0925 41.1375 51.6725C41.295 51.6375 41.4525 51.6025 41.61 51.5325C41.7675 51.4975 41.9075 51.445 42.0475 51.375C42.3975 51.2525 42.73 51.06 43.045 50.8325C43.1675 50.7625 43.2725 50.675 43.36 50.5875C43.6225 50.3775 43.8675 50.1325 44.0775 49.87C44.165 49.7825 44.2525 49.6775 44.3225 49.555C44.55 49.24 44.7425 48.9075 44.865 48.5575C44.935 48.4175 44.9875 48.2775 45.0225 48.12C45.0925 47.9625 45.1275 47.805 45.1625 47.6475C45.5825 45.635 44.8825 43.815 43.5525 42.59C43.4125 42.45 43.2375 42.31 43.0625 42.1875L48.5225 36.7275C48.61 36.64 48.68 36.57 48.7675 36.5C49.4675 35.9225 50.36 35.6425 51.2525 35.7125C51.41 35.73 51.585 35.7475 51.7425 35.7825C52.04 35.835 52.3375 35.905 52.6175 35.975C52.8975 36.045 53.16 36.1325 53.4225 36.22C53.93 36.4125 54.3675 36.64 54.77 36.9025C55.1725 37.165 55.505 37.48 55.82 37.8475C55.9775 38.04 56.135 38.25 56.2575 38.4775C56.38 38.67 56.485 38.88 56.59 39.1075C56.695 39.335 56.7825 39.58 56.87 39.825C56.975 40.1225 57.0625 40.455 57.1325 40.805C57.2025 41.05 57.2375 41.3125 57.29 41.5925C57.325 41.855 57.36 42.135 57.395 42.4325C57.465 43.1675 57.5 43.99 57.5 44.8825Z" fill="#16CA9F"/>
</svg>
