<svg width="216" height="64" viewBox="0 0 216 64" fill="none" xmlns="http://www.w3.org/2000/svg">
<path d="M208 1.28C209.782 1.28 211.492 1.988 212.752 3.24824C214.012 4.50849 214.72 6.21775 214.72 8V56C214.72 57.7823 214.012 59.4915 212.752 60.7518C211.492 62.012 209.782 62.72 208 62.72H8C6.21775 62.72 4.50849 62.012 3.24824 60.7518C1.988 59.4915 1.28 57.7823 1.28 56V8C1.28 6.21775 1.988 4.50849 3.24824 3.24824C4.50849 1.988 6.21775 1.28 8 1.28H208ZM208 0H8C5.87827 0 3.84344 0.842855 2.34315 2.34315C0.842855 3.84344 0 5.87827 0 8V56C0 58.1217 0.842855 60.1566 2.34315 61.6569C3.84344 63.1571 5.87827 64 8 64H208C210.122 64 212.157 63.1571 213.657 61.6569C215.157 60.1566 216 58.1217 216 56V8C216 5.87827 215.157 3.84344 213.657 2.34315C212.157 0.842855 210.122 0 208 0Z" fill="white" style="fill:white;fill:white;fill-opacity:1;"/>
<path d="M51.3809 30.9008C51.3366 25.9874 55.404 23.597 55.59 23.4857C53.2865 20.1272 49.7161 19.6684 48.4615 19.6318C45.4628 19.3162 42.5541 21.4261 41.0265 21.4261C39.4685 21.4261 37.1162 19.6623 34.581 19.7141C31.3186 19.7644 28.2665 21.6533 26.5926 24.5864C23.1382 30.5669 25.7145 39.3556 29.0242 44.1898C30.6798 46.5573 32.6144 49.2008 35.1466 49.1078C37.6239 49.0057 38.5492 47.5284 41.5387 47.5284C44.5008 47.5284 45.3698 49.1078 47.9523 49.0483C50.611 49.0057 52.2849 46.6701 53.8825 44.2813C55.7958 41.5677 56.5641 38.8952 56.5946 38.758C56.5321 38.7367 51.4312 36.7899 51.3809 30.9008Z" fill="white" style="fill:white;fill:white;fill-opacity:1;"/>
<path d="M46.5027 16.4517C47.8351 14.7854 48.7468 12.5185 48.4937 10.218C46.5652 10.3034 44.1535 11.5519 42.7647 13.1816C41.536 14.6177 40.4383 16.9715 40.7219 19.1851C42.8882 19.3467 45.1124 18.092 46.5027 16.4517Z" fill="white" style="fill:white;fill:white;fill-opacity:1;"/>
<path d="M87.2312 48.7674H83.769L81.8726 42.8082H75.2807L73.4742 48.7674H70.1035L76.6344 28.4795H80.6682L87.2312 48.7674ZM81.3009 40.308L79.5858 35.0104C79.4044 34.4692 79.0645 33.1947 78.5629 31.1885H78.5019C78.3022 32.0514 77.9806 33.3258 77.5385 35.0104L75.8539 40.308H81.3009Z" fill="white" style="fill:white;fill:white;fill-opacity:1;"/>
<path d="M104.026 41.2731C104.026 43.761 103.354 45.7276 102.009 47.1713C100.805 48.4565 99.3095 49.0983 97.5243 49.0983C95.5974 49.0983 94.2131 48.4062 93.3701 47.0219H93.3091V54.7282H90.0589V38.9543C90.0589 37.3902 90.0178 35.7849 89.9385 34.1385H92.7969L92.9783 36.4572H93.0393C94.1232 34.7101 95.7681 33.8381 97.9756 33.8381C99.7013 33.8381 101.142 34.5196 102.294 35.884C103.45 37.2499 104.026 39.0458 104.026 41.2731ZM100.715 41.392C100.715 39.9681 100.395 38.7943 99.7516 37.8704C99.0488 36.9069 98.1052 36.4252 96.9222 36.4252C96.1203 36.4252 95.3916 36.6935 94.7406 37.2225C94.0881 37.7561 93.6613 38.4528 93.4616 39.3156C93.361 39.7181 93.3106 40.0474 93.3106 40.3065V42.7457C93.3106 43.8098 93.6369 44.7077 94.2894 45.441C94.9419 46.1743 95.7895 46.5402 96.8322 46.5402C98.0564 46.5402 99.0092 46.0676 99.6906 45.1255C100.374 44.1818 100.715 42.9378 100.715 41.392Z" fill="white" style="fill:white;fill:white;fill-opacity:1;"/>
<path d="M120.852 41.2731C120.852 43.761 120.18 45.7276 118.833 47.1713C117.631 48.4565 116.135 49.0983 114.35 49.0983C112.423 49.0983 111.039 48.4062 110.197 47.0219H110.136V54.7282H106.886V38.9543C106.886 37.3902 106.845 35.7849 106.766 34.1385H109.624L109.805 36.4572H109.866C110.949 34.7101 112.594 33.8381 114.803 33.8381C116.527 33.8381 117.968 34.5196 119.123 35.884C120.274 37.2499 120.852 39.0458 120.852 41.2731ZM117.541 41.392C117.541 39.9681 117.219 38.7943 116.576 37.8704C115.873 36.9069 114.932 36.4252 113.748 36.4252C112.944 36.4252 112.217 36.6935 111.565 37.2225C110.912 37.7561 110.487 38.4528 110.287 39.3156C110.188 39.7181 110.136 40.0474 110.136 40.3065V42.7457C110.136 43.8098 110.463 44.7077 111.112 45.441C111.764 46.1728 112.612 46.5402 113.658 46.5402C114.882 46.5402 115.835 46.0676 116.516 45.1255C117.199 44.1818 117.541 42.9378 117.541 41.392Z" fill="white" style="fill:white;fill:white;fill-opacity:1;"/>
<path d="M139.664 43.0782C139.664 44.8039 139.065 46.2079 137.862 47.2919C136.541 48.4764 134.701 49.0679 132.336 49.0679C130.153 49.0679 128.403 48.6471 127.078 47.8041L127.831 45.0951C129.258 45.9579 130.824 46.3909 132.53 46.3909C133.754 46.3909 134.707 46.1134 135.391 45.5616C136.073 45.0097 136.413 44.2688 136.413 43.345C136.413 42.5217 136.132 41.8281 135.57 41.2655C135.01 40.703 134.076 40.1801 132.771 39.6968C129.219 38.3721 127.444 36.4314 127.444 33.8794C127.444 32.2116 128.066 30.8441 129.312 29.78C130.552 28.7144 132.208 28.1824 134.278 28.1824C136.124 28.1824 137.658 28.504 138.882 29.1459L138.07 31.7954C136.926 31.1734 135.634 30.8624 134.187 30.8624C133.043 30.8624 132.15 31.1445 131.51 31.7055C130.969 32.207 130.697 32.8183 130.697 33.5425C130.697 34.3444 131.007 35.0075 131.629 35.5289C132.17 36.0106 133.153 36.532 134.58 37.0945C136.326 37.7973 137.608 38.619 138.433 39.5612C139.254 40.5003 139.664 41.6756 139.664 43.0782Z" fill="white" style="fill:white;fill:white;fill-opacity:1;"/>
<path d="M150.41 36.5776H146.828V43.6802C146.828 45.4868 147.459 46.3893 148.724 46.3893C149.305 46.3893 149.787 46.339 150.168 46.2383L150.258 48.7065C149.617 48.9458 148.774 49.0663 147.73 49.0663C146.446 49.0663 145.443 48.6745 144.719 47.8924C143.998 47.1088 143.635 45.7947 143.635 43.9486V36.5746H141.501V34.1354H143.635V31.4569L146.828 30.4934V34.1354H150.41V36.5776Z" fill="white" style="fill:white;fill:white;fill-opacity:1;"/>
<path d="M166.575 41.3327C166.575 43.5813 165.931 45.4275 164.648 46.8712C163.302 48.3576 161.515 49.0985 159.288 49.0985C157.141 49.0985 155.432 48.3865 154.158 46.9627C152.883 45.5388 152.246 43.7414 152.246 41.5751C152.246 39.3082 152.902 37.4514 154.217 36.0077C155.53 34.5625 157.301 33.8398 159.529 33.8398C161.675 33.8398 163.402 34.5518 164.706 35.9772C165.953 37.3599 166.575 39.1451 166.575 41.3327ZM163.203 41.4379C163.203 40.0887 162.914 38.9316 162.331 37.9666C161.649 36.7989 160.675 36.2165 159.413 36.2165C158.106 36.2165 157.114 36.8004 156.432 37.9666C155.848 38.9332 155.56 40.1085 155.56 41.4989C155.56 42.8481 155.848 44.0051 156.432 44.9686C157.135 46.1364 158.117 46.7187 159.384 46.7187C160.625 46.7187 161.599 46.1242 162.302 44.9381C162.901 43.9548 163.203 42.7856 163.203 41.4379Z" fill="white" style="fill:white;fill:white;fill-opacity:1;"/>
<path d="M177.139 36.9969C176.818 36.9374 176.475 36.9069 176.115 36.9069C174.971 36.9069 174.087 37.3384 173.465 38.2027C172.924 38.965 172.653 39.9285 172.653 41.0917V48.7675H169.404L169.434 38.7455C169.434 37.0594 169.393 35.5242 169.312 34.14H172.143L172.262 36.9389H172.352C172.695 35.977 173.237 35.2026 173.977 34.6217C174.702 34.0988 175.484 33.8381 176.327 33.8381C176.627 33.8381 176.898 33.8595 177.139 33.8976V36.9969Z" fill="white" style="fill:white;fill:white;fill-opacity:1;"/>
<path d="M191.676 40.7609C191.676 41.3433 191.638 41.8342 191.557 42.2351H181.806C181.844 43.6803 182.315 44.7856 183.221 45.5478C184.043 46.2293 185.105 46.5708 186.41 46.5708C187.854 46.5708 189.171 46.3406 190.355 45.8787L190.865 48.1349C189.48 48.7386 187.846 49.0389 185.96 49.0389C183.692 49.0389 181.911 48.3712 180.615 47.0373C179.323 45.7033 178.675 43.9121 178.675 41.665C178.675 39.459 179.277 37.622 180.483 36.157C181.745 34.5929 183.451 33.8108 185.598 33.8108C187.706 33.8108 189.302 34.5929 190.386 36.157C191.244 37.3994 191.676 38.9361 191.676 40.7609ZM188.576 39.9179C188.598 38.9544 188.386 38.122 187.945 37.4193C187.383 36.5152 186.518 36.064 185.355 36.064C184.293 36.064 183.428 36.5046 182.768 37.3888C182.227 38.0916 181.905 38.9346 181.806 39.9164H188.576V39.9179Z" fill="white" style="fill:white;fill:white;fill-opacity:1;"/>
<path d="M71 19.82L73.6461 11.18H75.7035L78.3496 19.82H76.9042L74.5029 12.068H74.8176L72.4454 19.82H71ZM72.4746 17.948V16.598H76.8808V17.948H72.4746Z" fill="white" style="fill:white;fill:white;fill-opacity:1;"/>
<path d="M80.6385 19.82L78.3538 13.34H79.7584L81.3437 18.038L82.9232 13.34H84.3337L82.049 19.82H80.6385Z" fill="white" style="fill:white;fill:white;fill-opacity:1;"/>
<path d="M86.787 20C86.3324 20 85.9477 19.912 85.633 19.736C85.3183 19.556 85.0793 19.318 84.9161 19.022C84.7568 18.726 84.6771 18.4 84.6771 18.044C84.6771 17.732 84.7276 17.452 84.8287 17.204C84.9297 16.952 85.0851 16.736 85.2949 16.556C85.5048 16.372 85.7768 16.222 86.1109 16.106C86.3635 16.022 86.6588 15.946 86.9968 15.878C87.3388 15.81 87.7079 15.748 88.1042 15.692C88.5044 15.632 88.9221 15.568 89.3573 15.5L88.8561 15.794C88.86 15.346 88.7628 15.016 88.5647 14.804C88.3665 14.592 88.0323 14.486 87.5622 14.486C87.2785 14.486 87.0046 14.554 86.7404 14.69C86.4762 14.826 86.2916 15.06 86.1867 15.392L84.9044 14.978C85.0599 14.43 85.3552 13.99 85.7904 13.658C86.2294 13.326 86.82 13.16 87.5622 13.16C88.1217 13.16 88.6132 13.254 89.0368 13.442C89.4642 13.63 89.7809 13.938 89.9868 14.366C90.0995 14.594 90.1675 14.828 90.1908 15.068C90.2141 15.304 90.2258 15.562 90.2258 15.842V19.82H88.996V18.416L89.2 18.644C88.9163 19.112 88.5841 19.456 88.2033 19.676C87.8264 19.892 87.3543 20 86.787 20ZM87.0668 18.848C87.3854 18.848 87.6574 18.79 87.8827 18.674C88.1081 18.558 88.2868 18.416 88.419 18.248C88.5549 18.08 88.6463 17.922 88.6929 17.774C88.7667 17.59 88.8075 17.38 88.8153 17.144C88.8269 16.904 88.8328 16.71 88.8328 16.562L89.2641 16.694C88.8405 16.762 88.4772 16.822 88.1742 16.874C87.8711 16.926 87.6108 16.976 87.3932 17.024C87.1756 17.068 86.9832 17.118 86.8161 17.174C86.653 17.234 86.515 17.304 86.4023 17.384C86.2896 17.464 86.2022 17.556 86.1401 17.66C86.0818 17.764 86.0526 17.886 86.0526 18.026C86.0526 18.186 86.0915 18.328 86.1692 18.452C86.2469 18.572 86.3596 18.668 86.5072 18.74C86.6588 18.812 86.8453 18.848 87.0668 18.848Z" fill="white" style="fill:white;fill:white;fill-opacity:1;"/>
<path d="M91.8597 12.356V11.03H93.2643V12.356H91.8597ZM91.8597 19.82V13.34H93.2643V19.82H91.8597Z" fill="white" style="fill:white;fill:white;fill-opacity:1;"/>
<path d="M95.1268 19.82V11H96.5314V19.82H95.1268Z" fill="white" style="fill:white;fill:white;fill-opacity:1;"/>
<path d="M100.037 20C99.5829 20 99.1982 19.912 98.8835 19.736C98.5687 19.556 98.3298 19.318 98.1666 19.022C98.0073 18.726 97.9276 18.4 97.9276 18.044C97.9276 17.732 97.9781 17.452 98.0791 17.204C98.1802 16.952 98.3356 16.736 98.5454 16.556C98.7552 16.372 99.0272 16.222 99.3614 16.106C99.6139 16.022 99.9093 15.946 100.247 15.878C100.589 15.81 100.958 15.748 101.355 15.692C101.755 15.632 102.173 15.568 102.608 15.5L102.107 15.794C102.11 15.346 102.013 15.016 101.815 14.804C101.617 14.592 101.283 14.486 100.813 14.486C100.529 14.486 100.255 14.554 99.9908 14.69C99.7266 14.826 99.5421 15.06 99.4372 15.392L98.1549 14.978C98.3103 14.43 98.6056 13.99 99.0408 13.658C99.4799 13.326 100.071 13.16 100.813 13.16C101.372 13.16 101.864 13.254 102.287 13.442C102.715 13.63 103.031 13.938 103.237 14.366C103.35 14.594 103.418 14.828 103.441 15.068C103.465 15.304 103.476 15.562 103.476 15.842V19.82H102.246V18.416L102.45 18.644C102.167 19.112 101.835 19.456 101.454 19.676C101.077 19.892 100.605 20 100.037 20ZM100.317 18.848C100.636 18.848 100.908 18.79 101.133 18.674C101.359 18.558 101.537 18.416 101.669 18.248C101.805 18.08 101.897 17.922 101.943 17.774C102.017 17.59 102.058 17.38 102.066 17.144C102.077 16.904 102.083 16.71 102.083 16.562L102.515 16.694C102.091 16.762 101.728 16.822 101.425 16.874C101.122 16.926 100.861 16.976 100.644 17.024C100.426 17.068 100.234 17.118 100.067 17.174C99.9034 17.234 99.7655 17.304 99.6528 17.384C99.5401 17.464 99.4527 17.556 99.3905 17.66C99.3322 17.764 99.3031 17.886 99.3031 18.026C99.3031 18.186 99.342 18.328 99.4197 18.452C99.4974 18.572 99.6101 18.668 99.7577 18.74C99.9093 18.812 100.096 18.848 100.317 18.848Z" fill="white" style="fill:white;fill:white;fill-opacity:1;"/>
<path d="M108.019 20C107.405 20 106.89 19.85 106.474 19.55C106.058 19.25 105.745 18.842 105.536 18.326C105.326 17.806 105.221 17.224 105.221 16.58C105.221 15.928 105.326 15.344 105.536 14.828C105.745 14.312 106.052 13.906 106.457 13.61C106.865 13.31 107.368 13.16 107.966 13.16C108.561 13.16 109.075 13.31 109.511 13.61C109.95 13.906 110.29 14.312 110.531 14.828C110.771 15.34 110.892 15.924 110.892 16.58C110.892 17.228 110.773 17.81 110.536 18.326C110.299 18.842 109.965 19.25 109.534 19.55C109.103 19.85 108.597 20 108.019 20ZM104.982 19.82V11.18H106.398V15.272H106.223V19.82H104.982ZM107.803 18.704C108.168 18.704 108.469 18.61 108.706 18.422C108.943 18.234 109.118 17.98 109.231 17.66C109.347 17.336 109.406 16.976 109.406 16.58C109.406 16.188 109.347 15.832 109.231 15.512C109.114 15.188 108.934 14.932 108.689 14.744C108.444 14.552 108.133 14.456 107.756 14.456C107.399 14.456 107.107 14.546 106.882 14.726C106.657 14.902 106.49 15.15 106.381 15.47C106.276 15.786 106.223 16.156 106.223 16.58C106.223 17 106.276 17.37 106.381 17.69C106.49 18.01 106.659 18.26 106.888 18.44C107.121 18.616 107.426 18.704 107.803 18.704Z" fill="white" style="fill:white;fill:white;fill-opacity:1;"/>
<path d="M112.293 19.82V11H113.698V19.82H112.293Z" fill="white" style="fill:white;fill:white;fill-opacity:1;"/>
<path d="M118.305 20C117.668 20 117.109 19.858 116.627 19.574C116.145 19.29 115.768 18.896 115.496 18.392C115.228 17.888 115.094 17.308 115.094 16.652C115.094 15.944 115.226 15.33 115.49 14.81C115.755 14.286 116.122 13.88 116.592 13.592C117.062 13.304 117.606 13.16 118.224 13.16C118.877 13.16 119.43 13.318 119.885 13.634C120.343 13.946 120.683 14.388 120.905 14.96C121.126 15.532 121.21 16.206 121.156 16.982H119.763V16.454C119.759 15.75 119.638 15.236 119.401 14.912C119.164 14.588 118.791 14.426 118.282 14.426C117.707 14.426 117.28 14.61 117 14.978C116.72 15.342 116.58 15.876 116.58 16.58C116.58 17.236 116.72 17.744 117 18.104C117.28 18.464 117.688 18.644 118.224 18.644C118.57 18.644 118.867 18.566 119.116 18.41C119.368 18.25 119.562 18.02 119.698 17.72L121.086 18.152C120.845 18.736 120.472 19.19 119.967 19.514C119.465 19.838 118.912 20 118.305 20ZM116.137 16.982V15.89H120.468V16.982H116.137Z" fill="white" style="fill:white;fill:white;fill-opacity:1;"/>
<path d="M127.896 20C127.282 20 126.729 19.89 126.235 19.67C125.745 19.45 125.341 19.136 125.023 18.728C124.708 18.316 124.508 17.828 124.422 17.264L125.88 17.036C126.004 17.548 126.258 17.944 126.643 18.224C127.032 18.504 127.478 18.644 127.984 18.644C128.283 18.644 128.564 18.596 128.829 18.5C129.093 18.404 129.307 18.264 129.47 18.08C129.637 17.896 129.72 17.67 129.72 17.402C129.72 17.282 129.701 17.172 129.662 17.072C129.623 16.968 129.565 16.876 129.487 16.796C129.413 16.716 129.316 16.644 129.196 16.58C129.079 16.512 128.943 16.454 128.788 16.406L126.62 15.746C126.433 15.69 126.231 15.616 126.014 15.524C125.8 15.428 125.596 15.298 125.402 15.134C125.211 14.966 125.054 14.754 124.93 14.498C124.809 14.238 124.749 13.918 124.749 13.538C124.749 12.982 124.885 12.516 125.157 12.14C125.433 11.76 125.802 11.476 126.264 11.288C126.73 11.1 127.247 11.008 127.815 11.012C128.39 11.016 128.903 11.118 129.353 11.318C129.804 11.514 130.181 11.8 130.484 12.176C130.787 12.552 131.001 13.006 131.125 13.538L129.616 13.808C129.553 13.504 129.433 13.246 129.254 13.034C129.079 12.818 128.864 12.654 128.607 12.542C128.355 12.43 128.085 12.37 127.797 12.362C127.517 12.358 127.257 12.402 127.016 12.494C126.779 12.582 126.587 12.71 126.439 12.878C126.295 13.046 126.223 13.242 126.223 13.466C126.223 13.678 126.286 13.852 126.41 13.988C126.534 14.12 126.688 14.226 126.87 14.306C127.057 14.382 127.245 14.446 127.436 14.498L128.939 14.93C129.145 14.986 129.377 15.062 129.633 15.158C129.889 15.254 130.136 15.388 130.373 15.56C130.61 15.732 130.805 15.958 130.956 16.238C131.111 16.518 131.189 16.874 131.189 17.306C131.189 17.754 131.098 18.148 130.915 18.488C130.737 18.824 130.494 19.104 130.187 19.328C129.88 19.552 129.528 19.72 129.132 19.832C128.739 19.944 128.327 20 127.896 20Z" fill="white" style="fill:white;fill:white;fill-opacity:1;"/>
<path d="M135.231 20C134.601 20 134.052 19.854 133.581 19.562C133.111 19.27 132.746 18.868 132.486 18.356C132.229 17.84 132.101 17.248 132.101 16.58C132.101 15.9 132.233 15.304 132.497 14.792C132.762 14.28 133.129 13.88 133.599 13.592C134.069 13.304 134.613 13.16 135.231 13.16C135.864 13.16 136.416 13.306 136.886 13.598C137.356 13.89 137.722 14.294 137.982 14.81C138.242 15.322 138.372 15.912 138.372 16.58C138.372 17.252 138.24 17.846 137.976 18.362C137.716 18.874 137.351 19.276 136.88 19.568C136.41 19.856 135.86 20 135.231 20ZM135.231 18.644C135.79 18.644 136.206 18.452 136.478 18.068C136.75 17.684 136.886 17.188 136.886 16.58C136.886 15.952 136.748 15.452 136.472 15.08C136.196 14.704 135.783 14.516 135.231 14.516C134.854 14.516 134.543 14.604 134.298 14.78C134.057 14.952 133.879 15.194 133.762 15.506C133.646 15.814 133.587 16.172 133.587 16.58C133.587 17.208 133.725 17.71 134.001 18.086C134.281 18.458 134.691 18.644 135.231 18.644Z" fill="white" style="fill:white;fill:white;fill-opacity:1;"/>
<path d="M142.437 20C141.807 20 141.257 19.854 140.787 19.562C140.317 19.27 139.952 18.868 139.692 18.356C139.435 17.84 139.307 17.248 139.307 16.58C139.307 15.9 139.439 15.304 139.703 14.792C139.967 14.28 140.335 13.88 140.805 13.592C141.275 13.304 141.819 13.16 142.437 13.16C143.07 13.16 143.622 13.306 144.092 13.598C144.562 13.89 144.927 14.294 145.188 14.81C145.448 15.322 145.578 15.912 145.578 16.58C145.578 17.252 145.446 17.846 145.182 18.362C144.922 18.874 144.556 19.276 144.086 19.568C143.616 19.856 143.066 20 142.437 20ZM142.437 18.644C142.996 18.644 143.412 18.452 143.684 18.068C143.956 17.684 144.092 17.188 144.092 16.58C144.092 15.952 143.954 15.452 143.678 15.08C143.402 14.704 142.988 14.516 142.437 14.516C142.06 14.516 141.749 14.604 141.504 14.78C141.263 14.952 141.085 15.194 140.968 15.506C140.851 15.814 140.793 16.172 140.793 16.58C140.793 17.208 140.931 17.71 141.207 18.086C141.487 18.458 141.897 18.644 142.437 18.644Z" fill="white" style="fill:white;fill:white;fill-opacity:1;"/>
<path d="M151.216 19.82V16.7C151.216 16.496 151.203 16.27 151.175 16.022C151.148 15.774 151.084 15.536 150.983 15.308C150.886 15.076 150.738 14.886 150.54 14.738C150.346 14.59 150.082 14.516 149.747 14.516C149.569 14.516 149.392 14.546 149.217 14.606C149.042 14.666 148.883 14.77 148.739 14.918C148.599 15.062 148.487 15.262 148.401 15.518C148.316 15.77 148.273 16.094 148.273 16.49L147.439 16.124C147.439 15.572 147.542 15.072 147.748 14.624C147.958 14.176 148.265 13.82 148.669 13.556C149.073 13.288 149.571 13.154 150.161 13.154C150.628 13.154 151.012 13.234 151.315 13.394C151.618 13.554 151.859 13.758 152.038 14.006C152.217 14.254 152.349 14.518 152.434 14.798C152.52 15.078 152.574 15.344 152.598 15.596C152.625 15.844 152.638 16.046 152.638 16.202V19.82H151.216ZM146.851 19.82V13.34H148.104V15.35H148.273V19.82H146.851Z" fill="white" style="fill:white;fill:white;fill-opacity:1;"/>
<path d="M160.042 20C159.203 20 158.484 19.812 157.886 19.436C157.287 19.056 156.827 18.528 156.505 17.852C156.186 17.176 156.027 16.392 156.027 15.5C156.027 14.608 156.186 13.824 156.505 13.148C156.827 12.472 157.287 11.946 157.886 11.57C158.484 11.19 159.203 11 160.042 11C160.882 11 161.6 11.19 162.199 11.57C162.801 11.946 163.262 12.472 163.58 13.148C163.903 13.824 164.064 14.608 164.064 15.5C164.064 16.392 163.903 17.176 163.58 17.852C163.262 18.528 162.801 19.056 162.199 19.436C161.6 19.812 160.882 20 160.042 20ZM160.042 18.638C160.606 18.642 161.074 18.514 161.447 18.254C161.824 17.994 162.106 17.628 162.292 17.156C162.483 16.684 162.578 16.132 162.578 15.5C162.578 14.868 162.483 14.32 162.292 13.856C162.106 13.388 161.824 13.024 161.447 12.764C161.074 12.504 160.606 12.37 160.042 12.362C159.479 12.358 159.011 12.486 158.638 12.746C158.265 13.006 157.983 13.372 157.793 13.844C157.606 14.316 157.513 14.868 157.513 15.5C157.513 16.132 157.606 16.682 157.793 17.15C157.979 17.614 158.259 17.976 158.632 18.236C159.009 18.496 159.479 18.63 160.042 18.638Z" fill="white" style="fill:white;fill:white;fill-opacity:1;"/>
<path d="M169.578 19.82V16.7C169.578 16.496 169.564 16.27 169.537 16.022C169.51 15.774 169.446 15.536 169.345 15.308C169.248 15.076 169.1 14.886 168.902 14.738C168.708 14.59 168.443 14.516 168.109 14.516C167.93 14.516 167.754 14.546 167.579 14.606C167.404 14.666 167.245 14.77 167.101 14.918C166.961 15.062 166.848 15.262 166.763 15.518C166.677 15.77 166.635 16.094 166.635 16.49L165.801 16.124C165.801 15.572 165.904 15.072 166.11 14.624C166.32 14.176 166.627 13.82 167.031 13.556C167.435 13.288 167.932 13.154 168.523 13.154C168.989 13.154 169.374 13.234 169.677 13.394C169.98 13.554 170.221 13.758 170.4 14.006C170.578 14.254 170.711 14.518 170.796 14.798C170.881 15.078 170.936 15.344 170.959 15.596C170.986 15.844 171 16.046 171 16.202V19.82H169.578ZM165.212 19.82V13.34H166.466V15.35H166.635V19.82H165.212Z" fill="white" style="fill:white;fill:white;fill-opacity:1;"/>
</svg>
