<svg width="39" height="39" viewBox="0 0 39 39" fill="none" xmlns="http://www.w3.org/2000/svg">
<path fill-rule="evenodd" clip-rule="evenodd" d="M17.349 2.78327C14.9536 2.78327 13.0117 4.65243 13.0117 6.95817V8.81368C13.0117 9.58225 12.3644 10.2053 11.5659 10.2053C10.7674 10.2053 10.1201 9.58225 10.1201 8.81368V6.95817C10.1201 3.11528 13.3566 0 17.349 0H21.2044C25.1969 0 28.4334 3.11528 28.4334 6.95817V8.81368C28.4334 9.58225 27.7861 10.2053 26.9876 10.2053C26.1891 10.2053 25.5418 9.58225 25.5418 8.81368V6.95817C25.5418 4.65243 23.5999 2.78327 21.2044 2.78327H17.349Z" fill="#18B791"/>
<path d="M7.71084 8.8125H30.8434C35.1019 8.8125 38.5542 12.1355 38.5542 16.2345C38.5542 16.2345 33.9736 20.5493 22.3473 20.9728C22.2417 20.9766 22.1496 20.8971 22.1322 20.7929C21.9119 19.4662 20.7175 18.4525 19.2771 18.4525C17.8775 18.4525 16.7101 19.4096 16.443 20.681C16.4214 20.7838 16.3268 20.8591 16.2221 20.8517C4.57313 20.0253 0 16.2345 0 16.2345C0 12.1355 3.45226 8.8125 7.71084 8.8125Z" fill="#18B791"/>
<path d="M16.3855 23.281C16.3855 23.1757 16.302 23.0884 16.197 23.081C7.04867 22.4374 1.94167 20.1263 0 19.0412V31.0786C0 35.1777 3.45226 38.5007 7.71084 38.5007H30.8434C35.1019 38.5007 38.5542 35.1777 38.5542 31.0786V19.1187C36.6078 20.3464 31.4873 22.9213 22.3637 23.2731C22.256 23.2772 22.1687 23.3657 22.1687 23.4734V23.8334C22.1687 25.3706 20.8741 26.6167 19.2771 26.6167C17.6801 26.6167 16.3855 25.3706 16.3855 23.8334V23.281Z" fill="#18B791"/>
<rect x="17.832" y="19.9473" width="2.89156" height="5.18435" rx="1.44578" fill="#18B791"/>
</svg>
