<svg width="60" height="60" viewBox="0 0 60 60" fill="none" xmlns="http://www.w3.org/2000/svg">
<path opacity="0.4" d="M7.5 18.75C7.5 13.2272 11.9772 8.75 17.5 8.75H42.5C48.0228 8.75 52.5 13.2272 52.5 18.75V22.5V45C52.5 50.5228 48.0228 55 42.5 55H17.5C11.9772 55 7.5 50.5228 7.5 45V22.5V18.75Z" fill="#16CA9F"/>
<path d="M42.5 8.75H17.5C11.9772 8.75 7.5 13.2272 7.5 18.75V22.5H52.5V18.75C52.5 13.2272 48.0228 8.75 42.5 8.75Z" fill="#16CA9F"/>
<path opacity="0.4" fill-rule="evenodd" clip-rule="evenodd" d="M20 3.125C21.0355 3.125 21.875 3.96447 21.875 5V12.5C21.875 13.5355 21.0355 14.375 20 14.375C18.9645 14.375 18.125 13.5355 18.125 12.5V5C18.125 3.96447 18.9645 3.125 20 3.125ZM40 3.125C41.0355 3.125 41.875 3.96447 41.875 5V12.5C41.875 13.5355 41.0355 14.375 40 14.375C38.9645 14.375 38.125 13.5355 38.125 12.5V5C38.125 3.96447 38.9645 3.125 40 3.125Z" fill="#16CA9F"/>
<circle cx="30" cy="37.5" r="2.5" fill="#16CA9F"/>
<circle cx="40" cy="37.5" r="2.5" fill="#16CA9F"/>
<circle cx="20" cy="37.5" r="2.5" fill="#16CA9F"/>
</svg>
