<svg width="60" height="60" viewBox="0 0 60 60" fill="none" xmlns="http://www.w3.org/2000/svg">
<path opacity="0.4" d="M5 15C5 9.47715 9.47715 5 15 5H45C50.5228 5 55 9.47715 55 15V45C55 50.5228 50.5228 55 45 55H15C9.47715 55 5 50.5228 5 45V15Z" fill="#16CA9F"/>
<path fill-rule="evenodd" clip-rule="evenodd" d="M25 19.375C23.2741 19.375 21.875 20.7741 21.875 22.5V25C21.875 28.797 18.797 31.875 15 31.875H12.5C11.4645 31.875 10.625 31.0355 10.625 30C10.625 28.9645 11.4645 28.125 12.5 28.125H15C16.7259 28.125 18.125 26.7259 18.125 25V22.5C18.125 18.703 21.203 15.625 25 15.625C28.797 15.625 31.875 18.703 31.875 22.5V37.5C31.875 39.2259 33.2741 40.625 35 40.625C36.7259 40.625 38.125 39.2259 38.125 37.5V35C38.125 31.203 41.203 28.125 45 28.125H47.5C48.5355 28.125 49.375 28.9645 49.375 30C49.375 31.0355 48.5355 31.875 47.5 31.875H45C43.2741 31.875 41.875 33.2741 41.875 35V37.5C41.875 41.297 38.797 44.375 35 44.375C31.203 44.375 28.125 41.297 28.125 37.5V22.5C28.125 20.7741 26.7259 19.375 25 19.375Z" fill="#16CA9F"/>
</svg>
