<svg width="60" height="60" viewBox="0 0 60 60" fill="none" xmlns="http://www.w3.org/2000/svg">
<path opacity="0.4" d="M32.5 10H27.5C15.0736 10 5 20.0736 5 32.5V45C5 50.5228 9.47715 55 15 55H32.5C44.9264 55 55 44.9264 55 32.5C55 20.0736 44.9264 10 32.5 10Z" fill="#16CA9F"/>
<path d="M55 15C55 20.5228 50.5228 25 45 25C39.4772 25 35 20.5228 35 15C35 9.47715 39.4772 5 45 5C50.5228 5 55 9.47715 55 15Z" fill="#16CA9F"/>
<path fill-rule="evenodd" clip-rule="evenodd" d="M18.125 27.5C18.125 26.4645 18.9645 25.625 20 25.625H30C31.0355 25.625 31.875 26.4645 31.875 27.5C31.875 28.5355 31.0355 29.375 30 29.375H20C18.9645 29.375 18.125 28.5355 18.125 27.5ZM18.125 37.5C18.125 36.4645 18.9645 35.625 20 35.625H40C41.0355 35.625 41.875 36.4645 41.875 37.5C41.875 38.5355 41.0355 39.375 40 39.375H20C18.9645 39.375 18.125 38.5355 18.125 37.5Z" fill="#16CA9F"/>
</svg>
