<svg width="80" height="80" viewBox="0 0 80 80" fill="none" xmlns="http://www.w3.org/2000/svg">
<circle cx="40" cy="40" r="40" fill="white"/>
<path d="M47.3325 22.5H32.6675C26.2975 22.5 22.5 26.2975 22.5 32.6675V47.3325C22.5 53.7025 26.2975 57.5 32.6675 57.5H47.3325C53.7025 57.5 57.5 53.7025 57.5 47.3325V32.6675C57.5 26.2975 53.7025 22.5 47.3325 22.5ZM36.4475 45.075L32.51 49.0125C32.2475 49.275 31.915 49.3975 31.5825 49.3975C31.25 49.3975 30.9 49.275 30.655 49.0125L29.3425 47.7C28.8175 47.1925 28.8175 46.3525 29.3425 45.845C29.85 45.3375 30.6725 45.3375 31.1975 45.845L31.5825 46.23L34.5925 43.22C35.1 42.7125 35.9225 42.7125 36.4475 43.22C36.955 43.7275 36.955 44.5675 36.4475 45.075ZM36.4475 32.825L32.51 36.7625C32.2475 37.025 31.915 37.1475 31.5825 37.1475C31.25 37.1475 30.9 37.025 30.655 36.7625L29.3425 35.45C28.8175 34.9425 28.8175 34.1025 29.3425 33.595C29.85 33.0875 30.6725 33.0875 31.1975 33.595L31.5825 33.98L34.5925 30.97C35.1 30.4625 35.9225 30.4625 36.4475 30.97C36.955 31.4775 36.955 32.3175 36.4475 32.825ZM49.73 48.085H40.5425C39.825 48.085 39.23 47.49 39.23 46.7725C39.23 46.055 39.825 45.46 40.5425 45.46H49.73C50.465 45.46 51.0425 46.055 51.0425 46.7725C51.0425 47.49 50.465 48.085 49.73 48.085ZM49.73 35.835H40.5425C39.825 35.835 39.23 35.24 39.23 34.5225C39.23 33.805 39.825 33.21 40.5425 33.21H49.73C50.465 33.21 51.0425 33.805 51.0425 34.5225C51.0425 35.24 50.465 35.835 49.73 35.835Z" fill="#16CA9F"/>
</svg>
