<svg width="60" height="60" viewBox="0 0 60 60" fill="none" xmlns="http://www.w3.org/2000/svg">
<path opacity="0.4" d="M52.5 45V20C52.5 14.4772 48.0228 10 42.5 10H20H17.5C11.9772 10 7.5 14.4772 7.5 20V45C7.5 50.5228 11.9772 55 17.5 55H42.5C48.0228 55 52.5 50.5228 52.5 45Z" fill="#16CA9F"/>
<rect x="20" y="5" width="20" height="10" rx="4" fill="#16CA9F"/>
<path fill-rule="evenodd" clip-rule="evenodd" d="M18.125 25C18.125 23.9645 18.9645 23.125 20 23.125H40C41.0355 23.125 41.875 23.9645 41.875 25C41.875 26.0355 41.0355 26.875 40 26.875H20C18.9645 26.875 18.125 26.0355 18.125 25Z" fill="#16CA9F"/>
<g opacity="0.4">
<path fill-rule="evenodd" clip-rule="evenodd" d="M27 9.99988C27 9.58566 27.2121 9.24988 27.4737 9.24988H32.5263C32.7879 9.24988 33 9.58566 33 9.99988C33 10.4141 32.7879 10.7499 32.5263 10.7499H27.4737C27.2121 10.7499 27 10.4141 27 9.99988Z" fill="#16CA9F"/>
<path fill-rule="evenodd" clip-rule="evenodd" d="M30 6.99988C30.4142 6.99988 30.75 7.21195 30.75 7.47356L30.75 12.5262C30.75 12.7878 30.4142 12.9999 30 12.9999C29.5858 12.9999 29.25 12.7878 29.25 12.5262L29.25 7.47356C29.25 7.21195 29.5858 6.99988 30 6.99988Z" fill="#16CA9F"/>
</g>
<path fill-rule="evenodd" clip-rule="evenodd" d="M18.125 35C18.125 33.9645 18.9645 33.125 20 33.125H40C41.0355 33.125 41.875 33.9645 41.875 35C41.875 36.0355 41.0355 36.875 40 36.875H20C18.9645 36.875 18.125 36.0355 18.125 35Z" fill="#16CA9F"/>
<path fill-rule="evenodd" clip-rule="evenodd" d="M18.125 45C18.125 43.9645 18.9645 43.125 20 43.125H30C31.0355 43.125 31.875 43.9645 31.875 45C31.875 46.0355 31.0355 46.875 30 46.875H20C18.9645 46.875 18.125 46.0355 18.125 45Z" fill="#16CA9F"/>
</svg>
