<svg width="910" height="153" viewBox="0 0 910 153" fill="none" xmlns="http://www.w3.org/2000/svg">
<path d="M55.124 117.34C43.892 117.34 34.194 114.896 26.03 110.008C17.918 105.12 11.652 98.282 7.232 89.494C2.864 80.706 0.68 70.488 0.68 58.84C0.68 47.192 2.864 36.974 7.232 28.186C11.652 19.398 17.918 12.56 26.03 7.672C34.194 2.784 43.892 0.339998 55.124 0.339998C68.02 0.339998 78.836 3.538 87.572 9.93399C96.36 16.33 102.548 24.988 106.136 35.908L84.764 41.836C82.684 35.024 79.174 29.746 74.234 26.002C69.294 22.206 62.924 20.308 55.124 20.308C48 20.308 42.046 21.894 37.262 25.066C32.53 28.238 28.968 32.71 26.576 38.482C24.184 44.254 22.988 51.04 22.988 58.84C22.988 66.64 24.184 73.426 26.576 79.198C28.968 84.97 32.53 89.442 37.262 92.614C42.046 95.786 48 97.372 55.124 97.372C62.924 97.372 69.294 95.474 74.234 91.678C79.174 87.882 82.684 82.604 84.764 75.844L106.136 81.772C102.548 92.692 96.36 101.35 87.572 107.746C78.836 114.142 68.02 117.34 55.124 117.34ZM161.219 117.34C152.743 117.34 145.307 115.442 138.911 111.646C132.515 107.85 127.523 102.624 123.935 95.968C120.399 89.26 118.631 81.564 118.631 72.88C118.631 64.092 120.451 56.37 124.091 49.714C127.731 43.006 132.749 37.78 139.145 34.036C145.541 30.292 152.899 28.42 161.219 28.42C169.695 28.42 177.131 30.318 183.527 34.114C189.975 37.91 194.993 43.162 198.581 49.87C202.169 56.526 203.963 64.196 203.963 72.88C203.963 81.616 202.143 89.338 198.503 96.046C194.915 102.702 189.897 107.928 183.449 111.724C177.053 115.468 169.643 117.34 161.219 117.34ZM161.219 97.528C168.031 97.528 173.101 95.24 176.429 90.664C179.809 86.036 181.499 80.108 181.499 72.88C181.499 65.392 179.783 59.412 176.351 54.94C172.971 50.468 167.927 48.232 161.219 48.232C156.591 48.232 152.795 49.272 149.831 51.352C146.867 53.432 144.657 56.318 143.201 60.01C141.797 63.702 141.095 67.992 141.095 72.88C141.095 80.42 142.785 86.426 146.165 90.898C149.597 95.318 154.615 97.528 161.219 97.528ZM322.515 115V65.236C322.515 59.672 321.189 55.356 318.537 52.288C315.937 49.168 312.323 47.608 307.695 47.608C304.731 47.608 302.157 48.31 299.973 49.714C297.789 51.066 296.073 52.99 294.825 55.486C293.629 57.93 293.031 60.764 293.031 63.988L284.139 58.06C284.139 52.288 285.491 47.192 288.195 42.772C290.951 38.352 294.617 34.92 299.193 32.476C303.821 29.98 308.943 28.732 314.559 28.732C324.179 28.732 331.433 31.592 336.321 37.312C341.261 42.98 343.731 50.416 343.731 59.62V115H322.515ZM220.959 115V30.76H239.679V58.684H242.331V115H220.959ZM271.815 115V65.236C271.815 59.672 270.489 55.356 267.837 52.288C265.237 49.168 261.623 47.608 256.995 47.608C252.575 47.608 249.013 49.142 246.309 52.21C243.657 55.226 242.331 59.152 242.331 63.988L233.439 57.748C233.439 52.236 234.817 47.296 237.573 42.928C240.329 38.56 244.021 35.102 248.649 32.554C253.329 30.006 258.555 28.732 264.327 28.732C270.931 28.732 276.339 30.136 280.551 32.944C284.815 35.752 287.961 39.496 289.989 44.176C292.017 48.856 293.031 54.004 293.031 59.62V115H271.815ZM405.354 117.34C396.982 117.34 389.988 115.39 384.372 111.49C378.756 107.59 374.518 102.286 371.658 95.578C368.85 88.87 367.446 81.304 367.446 72.88C367.446 64.456 368.85 56.89 371.658 50.182C374.466 43.474 378.6 38.17 384.06 34.27C389.52 30.37 396.254 28.42 404.262 28.42C412.322 28.42 419.342 30.344 425.322 34.192C431.302 38.04 435.93 43.318 439.206 50.026C442.534 56.682 444.198 64.3 444.198 72.88C444.198 81.304 442.56 88.87 439.284 95.578C436.06 102.286 431.536 107.59 425.712 111.49C419.888 115.39 413.102 117.34 405.354 117.34ZM363.858 152.44V30.76H382.578V88.48H385.23V152.44H363.858ZM401.922 98.464C406.498 98.464 410.242 97.32 413.154 95.032C416.066 92.744 418.224 89.676 419.628 85.828C421.032 81.928 421.734 77.612 421.734 72.88C421.734 68.2 421.006 63.936 419.55 60.088C418.094 56.188 415.832 53.094 412.764 50.806C409.748 48.466 405.874 47.296 401.142 47.296C396.722 47.296 393.134 48.362 390.378 50.494C387.674 52.626 385.698 55.616 384.45 59.464C383.202 63.312 382.578 67.784 382.578 72.88C382.578 77.976 383.202 82.448 384.45 86.296C385.698 90.144 387.726 93.134 390.534 95.266C393.394 97.398 397.19 98.464 401.922 98.464ZM462.921 115V0.339998H484.137V115H462.921ZM509.082 19.06V0.339998H530.298V19.06H509.082ZM509.082 115V30.76H530.298V115H509.082ZM577.082 117.34C571.05 117.34 565.928 116.196 561.716 113.908C557.556 111.568 554.384 108.474 552.2 104.626C550.068 100.726 549.002 96.436 549.002 91.756C549.002 87.856 549.6 84.294 550.796 81.07C551.992 77.846 553.916 75.012 556.568 72.568C559.272 70.072 562.886 67.992 567.41 66.328C570.53 65.184 574.248 64.17 578.564 63.286C582.88 62.402 587.768 61.57 593.228 60.79C598.688 59.958 604.694 59.048 611.246 58.06L603.602 62.272C603.602 57.28 602.406 53.614 600.014 51.274C597.622 48.934 593.618 47.764 588.002 47.764C584.882 47.764 581.632 48.518 578.252 50.026C574.872 51.534 572.506 54.212 571.154 58.06L551.966 51.976C554.098 45.008 558.102 39.34 563.978 34.972C569.854 30.604 577.862 28.42 588.002 28.42C595.438 28.42 602.042 29.564 607.814 31.852C613.586 34.14 617.954 38.092 620.918 43.708C622.582 46.828 623.57 49.948 623.882 53.068C624.194 56.188 624.35 59.672 624.35 63.52V115H605.786V97.684L608.438 101.272C604.33 106.94 599.884 111.048 595.1 113.596C590.368 116.092 584.362 117.34 577.082 117.34ZM581.606 100.648C585.506 100.648 588.782 99.972 591.434 98.62C594.138 97.216 596.27 95.63 597.83 93.862C599.442 92.094 600.534 90.612 601.106 89.416C602.198 87.128 602.822 84.476 602.978 81.46C603.186 78.392 603.29 75.844 603.29 73.816L609.53 75.376C603.238 76.416 598.142 77.3 594.242 78.028C590.342 78.704 587.196 79.328 584.804 79.9C582.412 80.472 580.306 81.096 578.486 81.772C576.406 82.604 574.716 83.514 573.416 84.502C572.168 85.438 571.232 86.478 570.608 87.622C570.036 88.766 569.75 90.04 569.75 91.444C569.75 93.368 570.218 95.032 571.154 96.436C572.142 97.788 573.52 98.828 575.288 99.556C577.056 100.284 579.162 100.648 581.606 100.648ZM702.039 115V75.22C702.039 73.296 701.935 70.852 701.727 67.888C701.519 64.872 700.869 61.856 699.777 58.84C698.685 55.824 696.891 53.302 694.395 51.274C691.951 49.246 688.467 48.232 683.943 48.232C682.123 48.232 680.173 48.518 678.093 49.09C676.013 49.662 674.063 50.78 672.243 52.444C670.423 54.056 668.915 56.448 667.719 59.62C666.575 62.792 666.003 67.004 666.003 72.256L653.835 66.484C653.835 59.828 655.187 53.588 657.891 47.764C660.595 41.94 664.651 37.234 670.059 33.646C675.519 30.058 682.383 28.264 690.651 28.264C697.255 28.264 702.637 29.382 706.797 31.618C710.957 33.854 714.181 36.688 716.469 40.12C718.809 43.552 720.473 47.14 721.461 50.884C722.449 54.576 723.047 57.956 723.255 61.024C723.463 64.092 723.567 66.328 723.567 67.732V115H702.039ZM644.475 115V30.76H663.351V58.684H666.003V115H644.475ZM779.411 117.34C770.675 117.34 763.187 115.39 756.947 111.49C750.707 107.59 745.923 102.286 742.595 95.578C739.267 88.87 737.603 81.304 737.603 72.88C737.603 64.352 739.319 56.734 742.751 50.026C746.235 43.318 751.123 38.04 757.415 34.192C763.707 30.344 771.143 28.42 779.723 28.42C789.655 28.42 797.975 30.942 804.683 35.986C811.443 40.978 815.759 47.816 817.631 56.5L796.415 62.116C795.167 57.748 792.983 54.342 789.863 51.898C786.795 49.454 783.311 48.232 779.411 48.232C774.939 48.232 771.273 49.324 768.413 51.508C765.553 53.64 763.447 56.578 762.095 60.322C760.743 64.014 760.067 68.2 760.067 72.88C760.067 80.212 761.679 86.166 764.903 90.742C768.179 95.266 773.015 97.528 779.411 97.528C784.195 97.528 787.835 96.436 790.331 94.252C792.827 92.068 794.699 88.948 795.947 84.892L817.631 89.416C815.239 98.36 810.715 105.25 804.059 110.086C797.403 114.922 789.187 117.34 779.411 117.34ZM870.103 117.34C861.471 117.34 853.853 115.494 847.249 111.802C840.697 108.058 835.549 102.936 831.805 96.436C828.113 89.884 826.267 82.396 826.267 73.972C826.267 64.768 828.087 56.76 831.727 49.948C835.367 43.136 840.385 37.858 846.781 34.114C853.177 30.318 860.535 28.42 868.855 28.42C877.695 28.42 885.209 30.5 891.397 34.66C897.585 38.82 902.161 44.67 905.125 52.21C908.089 59.75 909.129 68.616 908.245 78.808H887.263V71.008C887.263 62.428 885.885 56.266 883.129 52.522C880.425 48.726 875.979 46.828 869.791 46.828C862.563 46.828 857.233 49.038 853.801 53.458C850.421 57.826 848.731 64.3 848.731 72.88C848.731 80.732 850.421 86.816 853.801 91.132C857.233 95.396 862.251 97.528 868.855 97.528C873.015 97.528 876.577 96.618 879.541 94.798C882.505 92.978 884.767 90.352 886.327 86.92L907.543 93.004C904.371 100.7 899.353 106.68 892.489 110.944C885.677 115.208 878.215 117.34 870.103 117.34ZM842.179 78.808V63.052H898.027V78.808H842.179Z" fill="#1AA484" fill-opacity="0.05"/>
</svg>
