<svg width="15" height="16" viewBox="0 0 15 16" fill="none" xmlns="http://www.w3.org/2000/svg">
<path fill-rule="evenodd" clip-rule="evenodd" d="M12.9846 8.00002C12.9846 4.80952 10.3905 2.2143 7.20132 2.2143C4.01214 2.2143 1.418 4.80952 1.418 8.00002C1.418 11.1905 4.01214 13.7857 7.20132 13.7857C10.3905 13.7857 12.9846 11.1905 12.9846 8.00002ZM14.2698 8.00002C14.2698 11.8989 11.0986 15.0714 7.20132 15.0714C3.304 15.0714 0.132812 11.8989 0.132812 8.00002C0.132812 4.10109 3.304 0.928589 7.20132 0.928589C11.0986 0.928589 14.2698 4.10109 14.2698 8.00002ZM11.2361 9.88552C11.1269 10.1195 10.8956 10.2564 10.6533 10.2564C10.5621 10.2564 10.4702 10.2365 10.3821 10.196L6.9295 8.58245C6.70331 8.47637 6.55873 8.25009 6.55873 8.00002V4.06252C6.55873 3.70702 6.84596 3.41966 7.20132 3.41966C7.55667 3.41966 7.84391 3.70702 7.84391 4.06252V7.59052L10.9258 9.03116C11.2477 9.18159 11.3865 9.56409 11.2361 9.88552Z" fill="#919CA2" style="fill:#919CA2;fill:color(display-p3 0.5686 0.6118 0.6353);fill-opacity:1;"/>
</svg>
