<svg width="15" height="16" viewBox="0 0 15 16" fill="none" xmlns="http://www.w3.org/2000/svg">
<path fill-rule="evenodd" clip-rule="evenodd" d="M12.8704 2.8409C12.8704 2.66903 12.8035 2.50746 12.6818 2.38579C12.4379 2.14311 12.0158 2.14311 11.7719 2.38579L5.75113 8.40837L5.41586 9.65396L6.66107 9.31858L12.6818 3.296C12.8035 3.17434 12.8704 3.01277 12.8704 2.8409ZM14.1579 2.8409C14.1579 3.35651 13.9564 3.84187 13.5922 4.20621L7.44917 10.3511C7.36938 10.4309 7.27027 10.4882 7.16152 10.5178L4.67239 11.1873C4.61704 11.2021 4.56106 11.2092 4.50507 11.2092C4.33647 11.2092 4.17237 11.1429 4.0501 11.0206C3.88729 10.8577 3.82358 10.6208 3.88343 10.3981L4.55269 7.90821C4.58229 7.79942 4.63957 7.70029 4.71936 7.62047L10.8624 1.47558C11.5915 0.746257 12.8631 0.746257 13.5922 1.47558C13.9564 1.83993 14.1579 2.32529 14.1579 2.8409ZM12.8704 8.63432V13.1403C12.8704 14.205 12.0042 15.0714 10.9398 15.0714H1.93056C0.866177 15.0714 0 14.205 0 13.1403V4.12833C0 3.06362 0.866177 2.19719 1.93056 2.19719H6.4352C6.79106 2.19719 7.07872 2.48493 7.07872 2.8409C7.07872 3.19687 6.79106 3.48461 6.4352 3.48461H1.93056C1.57534 3.48461 1.28704 3.773 1.28704 4.12833V13.1403C1.28704 13.4956 1.57534 13.784 1.93056 13.784H10.9398C11.2951 13.784 11.5834 13.4956 11.5834 13.1403V8.63432C11.5834 8.27834 11.871 7.9906 12.2269 7.9906C12.5827 7.9906 12.8704 8.27834 12.8704 8.63432Z" fill="white" style="fill:white;fill:white;fill-opacity:1;"/>
</svg>
