<svg width="60" height="60" viewBox="0 0 60 60" fill="none" xmlns="http://www.w3.org/2000/svg">
<path opacity="0.4" d="M40 12.5C40 8.35786 43.3579 5 47.5 5C51.6421 5 55 8.35786 55 12.5V27.5C55 31.6421 51.6421 35 47.5 35C43.3579 35 40 31.6421 40 27.5V12.5Z" fill="#16CA9F"/>
<path d="M40 20H55V27.5C55 31.6421 51.6421 35 47.5 35C43.3579 35 40 31.6421 40 27.5V20Z" fill="#16CA9F"/>
<path opacity="0.4" d="M10 25H5V47.5L15.7771 52.8885C18.5542 54.2771 21.6165 55 24.7214 55H45C47.7614 55 50 52.7614 50 50C50 47.2386 47.7614 45 45 45H41.041C38.7123 45 36.4156 44.4578 34.3328 43.4164L27.5477 39.1151C27.7779 38.8112 27.9751 38.4747 28.132 38.1086C29.166 35.6961 28.0602 32.9013 25.6556 31.8493L10 25Z" fill="#16CA9F"/>
</svg>
