<svg width="216" height="64" viewBox="0 0 216 64" fill="none" xmlns="http://www.w3.org/2000/svg">
<path d="M208 1.28C209.782 1.28 211.492 1.988 212.752 3.24824C214.012 4.50849 214.72 6.21775 214.72 8V56C214.72 57.7823 214.012 59.4915 212.752 60.7518C211.492 62.012 209.782 62.72 208 62.72H8C6.21775 62.72 4.50849 62.012 3.24824 60.7518C1.988 59.4915 1.28 57.7823 1.28 56V8C1.28 6.21775 1.988 4.50849 3.24824 3.24824C4.50849 1.988 6.21775 1.28 8 1.28H208ZM208 0H8C5.87827 0 3.84344 0.842855 2.34315 2.34315C0.842855 3.84344 0 5.87827 0 8V56C0 58.1217 0.842855 60.1566 2.34315 61.6569C3.84344 63.1571 5.87827 64 8 64H208C210.122 64 212.157 63.1571 213.657 61.6569C215.157 60.1566 216 58.1217 216 56V8C216 5.87827 215.157 3.84344 213.657 2.34315C212.157 0.842855 210.122 0 208 0Z" fill="white" style="fill:white;fill:white;fill-opacity:1;"/>
<path d="M109.024 34.7999C107.68 34.8062 106.369 35.2104 105.255 35.9614C104.141 36.7125 103.274 37.7767 102.764 39.0197C102.254 40.2628 102.124 41.6291 102.39 42.946C102.656 44.263 103.306 45.4716 104.259 46.4194C105.211 47.3672 106.423 48.0117 107.741 48.2715C109.059 48.5313 110.425 48.3948 111.665 47.8792C112.906 47.3636 113.966 46.492 114.712 45.3744C115.458 44.2569 115.856 42.9434 115.856 41.5999C115.869 40.7006 115.701 39.8079 115.362 38.9748C115.023 38.1418 114.519 37.3856 113.882 36.7511C113.244 36.1166 112.486 35.6169 111.651 35.2817C110.817 34.9465 109.923 34.7826 109.024 34.7999ZM109.024 45.7279C108.197 45.7857 107.373 45.5936 106.657 45.1765C105.942 44.7595 105.368 44.1368 105.011 43.3894C104.654 42.642 104.53 41.8045 104.655 40.9857C104.78 40.167 105.149 39.4048 105.713 38.7984C106.277 38.1919 107.011 37.7692 107.819 37.5851C108.626 37.4011 109.47 37.4643 110.242 37.7664C111.013 38.0686 111.675 38.5958 112.143 39.2794C112.611 39.9631 112.862 40.7716 112.864 41.5999C112.89 42.1247 112.81 42.6494 112.63 43.143C112.45 43.6366 112.172 44.089 111.814 44.4738C111.457 44.8585 111.025 45.1677 110.546 45.3831C110.067 45.5985 109.549 45.7157 109.024 45.7279ZM94.1278 34.7999C92.7835 34.8031 91.4704 35.2046 90.3543 35.9537C89.2381 36.7028 88.369 37.7659 87.8568 39.0087C87.3446 40.2515 87.2122 41.6183 87.4764 42.9363C87.7406 44.2543 88.3895 45.4645 89.3411 46.4139C90.2927 47.3632 91.5044 48.0093 92.823 48.2704C94.1417 48.5315 95.5081 48.3959 96.7497 47.8807C97.9913 47.3656 99.0524 46.494 99.7989 45.3761C100.545 44.2582 100.944 42.9441 100.944 41.5999C100.957 40.7006 100.789 39.8079 100.45 38.9748C100.111 38.1418 99.6072 37.3856 98.9698 36.7511C98.3323 36.1166 97.5737 35.6169 96.7391 35.2817C95.9045 34.9465 95.011 34.7826 94.1118 34.7999H94.1278ZM94.1278 45.7279C93.3011 45.7889 92.4752 45.5997 91.7576 45.1848C91.04 44.7699 90.4639 44.1485 90.1043 43.4016C89.7448 42.6548 89.6184 41.8169 89.7417 40.9972C89.865 40.1775 90.2322 39.4139 90.7955 38.8058C91.3588 38.1977 92.0921 37.7733 92.9 37.5878C93.7079 37.4023 94.553 37.4643 95.3251 37.7658C96.0973 38.0673 96.7608 38.5942 97.2293 39.2781C97.6978 39.9619 97.9495 40.771 97.9518 41.5999C97.9775 42.1247 97.898 42.6494 97.7177 43.143C97.5375 43.6366 97.2603 44.089 96.9024 44.4738C96.5445 44.8585 96.1132 45.1677 95.6339 45.3831C95.1546 45.5985 94.6371 45.7157 94.1118 45.7279H94.1278ZM76.3838 36.8959V39.7759H83.2958C83.1874 41.1324 82.6235 42.4124 81.6958 43.4079C81.0043 44.1123 80.1729 44.6641 79.2553 45.0278C78.3377 45.3916 77.3541 45.5592 76.3678 45.5199C74.3309 45.5199 72.3775 44.7108 70.9372 43.2705C69.4969 41.8302 68.6878 39.8768 68.6878 37.8399C68.6878 35.803 69.4969 33.8496 70.9372 32.4093C72.3775 30.969 74.3309 30.1599 76.3678 30.1599C78.3162 30.1281 80.1978 30.8704 81.5998 32.2239L83.6318 30.1919C82.6853 29.2335 81.5562 28.4749 80.3112 27.961C79.0661 27.447 77.7306 27.1882 76.3838 27.1999C74.9614 27.1445 73.5424 27.3769 72.212 27.883C70.8815 28.3892 69.6669 29.1587 68.641 30.1455C67.615 31.1323 66.7989 32.316 66.2414 33.6258C65.6839 34.9356 65.3965 36.3444 65.3965 37.7679C65.3965 39.1914 65.6839 40.6002 66.2414 41.91C66.7989 43.2197 67.615 44.4035 68.641 45.3903C69.6669 46.3771 70.8815 47.1466 72.212 47.6527C73.5424 48.1589 74.9614 48.3913 76.3838 48.3359C77.7533 48.3978 79.1202 48.1656 80.3925 47.6551C81.6648 47.1445 82.8129 46.3673 83.7598 45.3759C85.436 43.5342 86.331 41.1131 86.2558 38.6239C86.2609 38.0175 86.2073 37.412 86.0958 36.8159L76.3838 36.8959ZM148.88 39.1359C148.463 37.9083 147.682 36.8364 146.642 36.0621C145.602 35.2878 144.351 34.8476 143.056 34.7999C142.181 34.7982 141.314 34.976 140.511 35.3224C139.707 35.6687 138.983 36.1762 138.383 36.8135C137.783 37.4509 137.32 38.2045 137.023 39.0277C136.726 39.851 136.601 40.7264 136.656 41.5999C136.636 42.4942 136.797 43.3832 137.129 44.2138C137.461 45.0445 137.957 45.7997 138.587 46.4344C139.217 47.0691 139.969 47.5703 140.797 47.908C141.626 48.2457 142.513 48.413 143.408 48.3999C144.527 48.4059 145.63 48.1343 146.619 47.6094C147.607 47.0844 148.45 46.3225 149.072 45.3919L146.752 43.7919C146.406 44.3692 145.915 44.8466 145.329 45.1776C144.743 45.5085 144.081 45.6816 143.408 45.6799C142.715 45.7063 142.03 45.5236 141.442 45.1555C140.854 44.7874 140.391 44.2509 140.112 43.6159L149.216 39.8559L148.88 39.1359ZM139.6 41.4079C139.567 40.913 139.634 40.4166 139.796 39.9478C139.958 39.479 140.211 39.0472 140.542 38.6776C140.873 38.3081 141.274 38.0083 141.722 37.7958C142.17 37.5832 142.656 37.4623 143.152 37.4399C143.668 37.4059 144.183 37.5242 144.632 37.7802C145.081 38.0362 145.446 38.4186 145.68 38.8799L139.6 41.4079ZM132.208 47.9999H135.2V27.9999H132.208V47.9999ZM127.312 36.3199H127.2C126.749 35.8157 126.196 35.4126 125.579 35.1368C124.961 34.8611 124.292 34.719 123.616 34.7199C121.867 34.8047 120.218 35.559 119.011 36.8264C117.803 38.0939 117.13 39.7773 117.13 41.5279C117.13 43.2785 117.803 44.9619 119.011 46.2294C120.218 47.4968 121.867 48.2511 123.616 48.3359C124.294 48.3473 124.966 48.2099 125.585 47.9335C126.204 47.6571 126.756 47.2483 127.2 46.7359H127.296V47.7119C127.296 50.3199 125.904 51.7119 123.664 51.7119C122.918 51.6944 122.194 51.4554 121.584 51.0251C120.974 50.5949 120.506 49.9929 120.24 49.2959L117.632 50.3839C118.123 51.5781 118.959 52.5984 120.034 53.3139C121.109 54.0294 122.373 54.4076 123.664 54.3999C127.168 54.3999 130.064 52.3359 130.064 47.3119V35.1999H127.312V36.3199ZM123.888 45.7279C122.856 45.6369 121.895 45.1627 121.195 44.3986C120.496 43.6345 120.108 42.636 120.108 41.5999C120.108 40.5638 120.496 39.5653 121.195 38.8012C121.895 38.0371 122.856 37.5629 123.888 37.4719C124.399 37.4982 124.901 37.6266 125.362 37.8496C125.823 38.0725 126.235 38.3856 126.574 38.7703C126.912 39.155 127.17 39.6035 127.333 40.0895C127.495 40.5754 127.559 41.089 127.52 41.5999C127.563 42.113 127.503 42.6296 127.341 43.1185C127.179 43.6075 126.92 44.0585 126.579 44.4444C126.238 44.8302 125.822 45.1429 125.357 45.3636C124.892 45.5842 124.386 45.7081 123.872 45.7279H123.888ZM162.896 27.9999H155.744V47.9999H158.736V40.4159H162.912C163.764 40.4772 164.621 40.3621 165.427 40.0779C166.233 39.7936 166.972 39.3463 167.598 38.7639C168.224 38.1814 168.723 37.4763 169.064 36.6924C169.406 35.9086 169.582 35.0628 169.582 34.2079C169.582 33.353 169.406 32.5072 169.064 31.7234C168.723 30.9395 168.224 30.2344 167.598 29.6519C166.972 29.0694 166.233 28.6222 165.427 28.3379C164.621 28.0537 163.764 27.9386 162.912 27.9999H162.896ZM162.896 37.5999H158.72V30.7839H162.96C163.87 30.7839 164.743 31.1455 165.387 31.7891C166.03 32.4327 166.392 33.3057 166.392 34.2159C166.392 35.1261 166.03 35.9991 165.387 36.6427C164.743 37.2863 163.87 37.6479 162.96 37.6479L162.896 37.5999ZM181.344 34.7199C180.255 34.6548 179.17 34.9093 178.223 35.4523C177.277 35.9952 176.51 36.8028 176.016 37.7759L178.672 38.8799C178.934 38.3973 179.33 38.0012 179.813 37.7398C180.296 37.4785 180.844 37.3631 181.392 37.4079C181.772 37.3635 182.156 37.3953 182.524 37.5012C182.891 37.6072 183.234 37.7852 183.532 38.025C183.83 38.2648 184.077 38.5615 184.259 38.8979C184.441 39.2342 184.554 39.6034 184.592 39.9839V40.1919C183.631 39.6831 182.559 39.4193 181.472 39.4239C178.608 39.4239 175.712 41.0239 175.712 43.9199C175.74 44.5374 175.892 45.143 176.158 45.7008C176.424 46.2586 176.8 46.7574 177.262 47.1676C177.725 47.5778 178.265 47.8911 178.85 48.089C179.436 48.287 180.055 48.3655 180.672 48.3199C181.425 48.374 182.179 48.2243 182.855 47.8865C183.531 47.5486 184.103 47.0351 184.512 46.3999H184.608V47.9999H187.488V40.3039C187.488 36.7999 184.832 34.7679 181.424 34.7679L181.344 34.7199ZM180.976 45.6799C180 45.6799 178.64 45.1839 178.64 43.9839C178.64 42.3839 180.336 41.8559 181.84 41.8559C182.79 41.8324 183.73 42.0645 184.56 42.5279C184.46 43.3941 184.05 44.195 183.406 44.7831C182.762 45.3711 181.928 45.7067 181.056 45.7279L180.976 45.6799ZM197.984 35.1999L194.56 43.8719H194.464L190.912 35.1999H187.712L193.04 47.3279L190 54.0639H193.12L201.312 35.1999H197.984ZM171.088 47.9999H174.08V27.9999H171.088V47.9999Z" fill="white" style="fill:white;fill:white;fill-opacity:1;"/>
<path d="M16.7923 52.3174L36.3932 31.9874L16.8087 11.6938C16.2856 12.0098 15.9619 12.7413 15.9619 13.6989V50.3318C15.9689 51.2894 16.2809 51.9674 16.7923 52.3174Z" fill="white" style="fill:white;fill:white;fill-opacity:1;"/>
<path d="M37.095 31.426L42.9335 25.3695L19.1572 11.847C18.7568 11.6057 18.302 11.4782 17.8389 11.4775L37.0926 31.4235L37.095 31.426Z" fill="white" style="fill:white;fill:white;fill-opacity:1;"/>
<path d="M37.095 32.5513L17.7803 52.5848C18.2651 52.5932 18.7426 52.4619 19.1596 52.2057L42.9828 38.6466L37.095 32.5513Z" fill="white" style="fill:white;fill:white;fill-opacity:1;"/>
<path d="M51.5469 30.2764L43.6347 25.7681L37.6367 31.9898L43.6793 38.2504L51.5445 33.7543C53.217 32.7991 53.217 31.2267 51.5469 30.2764Z" fill="white" style="fill:white;fill:white;fill-opacity:1;"/>
<path d="M65 19.82L67.6461 11.18H69.7035L72.3496 19.82H70.9042L68.5029 12.068H68.8176L66.4454 19.82H65ZM66.4746 17.948V16.598H70.8808V17.948H66.4746Z" fill="white" style="fill:white;fill:white;fill-opacity:1;"/>
<path d="M74.6385 19.82L72.3538 13.34H73.7584L75.3437 18.038L76.9232 13.34H78.3337L76.049 19.82H74.6385Z" fill="white" style="fill:white;fill:white;fill-opacity:1;"/>
<path d="M80.787 20C80.3324 20 79.9477 19.912 79.633 19.736C79.3183 19.556 79.0793 19.318 78.9161 19.022C78.7568 18.726 78.6771 18.4 78.6771 18.044C78.6771 17.732 78.7276 17.452 78.8287 17.204C78.9297 16.952 79.0851 16.736 79.2949 16.556C79.5048 16.372 79.7768 16.222 80.1109 16.106C80.3635 16.022 80.6588 15.946 80.9968 15.878C81.3388 15.81 81.7079 15.748 82.1042 15.692C82.5044 15.632 82.9221 15.568 83.3573 15.5L82.8561 15.794C82.86 15.346 82.7628 15.016 82.5647 14.804C82.3665 14.592 82.0323 14.486 81.5622 14.486C81.2785 14.486 81.0046 14.554 80.7404 14.69C80.4762 14.826 80.2916 15.06 80.1867 15.392L78.9044 14.978C79.0599 14.43 79.3552 13.99 79.7904 13.658C80.2294 13.326 80.82 13.16 81.5622 13.16C82.1217 13.16 82.6132 13.254 83.0368 13.442C83.4642 13.63 83.7809 13.938 83.9868 14.366C84.0995 14.594 84.1675 14.828 84.1908 15.068C84.2141 15.304 84.2258 15.562 84.2258 15.842V19.82H82.996V18.416L83.2 18.644C82.9163 19.112 82.5841 19.456 82.2033 19.676C81.8264 19.892 81.3543 20 80.787 20ZM81.0668 18.848C81.3854 18.848 81.6574 18.79 81.8827 18.674C82.1081 18.558 82.2868 18.416 82.419 18.248C82.5549 18.08 82.6463 17.922 82.6929 17.774C82.7667 17.59 82.8075 17.38 82.8153 17.144C82.8269 16.904 82.8328 16.71 82.8328 16.562L83.2641 16.694C82.8405 16.762 82.4772 16.822 82.1742 16.874C81.8711 16.926 81.6108 16.976 81.3932 17.024C81.1756 17.068 80.9832 17.118 80.8161 17.174C80.653 17.234 80.515 17.304 80.4023 17.384C80.2896 17.464 80.2022 17.556 80.1401 17.66C80.0818 17.764 80.0526 17.886 80.0526 18.026C80.0526 18.186 80.0915 18.328 80.1692 18.452C80.2469 18.572 80.3596 18.668 80.5072 18.74C80.6588 18.812 80.8453 18.848 81.0668 18.848Z" fill="white" style="fill:white;fill:white;fill-opacity:1;"/>
<path d="M85.8597 12.356V11.03H87.2643V12.356H85.8597ZM85.8597 19.82V13.34H87.2643V19.82H85.8597Z" fill="white" style="fill:white;fill:white;fill-opacity:1;"/>
<path d="M89.1268 19.82V11H90.5314V19.82H89.1268Z" fill="white" style="fill:white;fill:white;fill-opacity:1;"/>
<path d="M94.0375 20C93.5829 20 93.1982 19.912 92.8835 19.736C92.5687 19.556 92.3298 19.318 92.1666 19.022C92.0073 18.726 91.9276 18.4 91.9276 18.044C91.9276 17.732 91.9781 17.452 92.0791 17.204C92.1802 16.952 92.3356 16.736 92.5454 16.556C92.7552 16.372 93.0272 16.222 93.3614 16.106C93.6139 16.022 93.9093 15.946 94.2473 15.878C94.5892 15.81 94.9584 15.748 95.3547 15.692C95.7549 15.632 96.1726 15.568 96.6078 15.5L96.1066 15.794C96.1104 15.346 96.0133 15.016 95.8151 14.804C95.617 14.592 95.2828 14.486 94.8127 14.486C94.529 14.486 94.2551 14.554 93.9908 14.69C93.7266 14.826 93.5421 15.06 93.4372 15.392L92.1549 14.978C92.3103 14.43 92.6056 13.99 93.0408 13.658C93.4799 13.326 94.0705 13.16 94.8127 13.16C95.3722 13.16 95.8637 13.254 96.2872 13.442C96.7146 13.63 97.0313 13.938 97.2373 14.366C97.3499 14.594 97.4179 14.828 97.4413 15.068C97.4646 15.304 97.4762 15.562 97.4762 15.842V19.82H96.2464V18.416L96.4504 18.644C96.1668 19.112 95.8346 19.456 95.4538 19.676C95.0769 19.892 94.6048 20 94.0375 20ZM94.3172 18.848C94.6359 18.848 94.9078 18.79 95.1332 18.674C95.3586 18.558 95.5373 18.416 95.6694 18.248C95.8054 18.08 95.8967 17.922 95.9434 17.774C96.0172 17.59 96.058 17.38 96.0658 17.144C96.0774 16.904 96.0832 16.71 96.0832 16.562L96.5145 16.694C96.091 16.762 95.7277 16.822 95.4246 16.874C95.1216 16.926 94.8612 16.976 94.6436 17.024C94.426 17.068 94.2337 17.118 94.0666 17.174C93.9034 17.234 93.7655 17.304 93.6528 17.384C93.5401 17.464 93.4527 17.556 93.3905 17.66C93.3322 17.764 93.3031 17.886 93.3031 18.026C93.3031 18.186 93.342 18.328 93.4197 18.452C93.4974 18.572 93.6101 18.668 93.7577 18.74C93.9093 18.812 94.0958 18.848 94.3172 18.848Z" fill="white" style="fill:white;fill:white;fill-opacity:1;"/>
<path d="M102.019 20C101.405 20 100.89 19.85 100.474 19.55C100.058 19.25 99.7455 18.842 99.5356 18.326C99.3258 17.806 99.2209 17.224 99.2209 16.58C99.2209 15.928 99.3258 15.344 99.5356 14.828C99.7455 14.312 100.052 13.906 100.457 13.61C100.865 13.31 101.368 13.16 101.966 13.16C102.561 13.16 103.075 13.31 103.511 13.61C103.95 13.906 104.29 14.312 104.531 14.828C104.771 15.34 104.892 15.924 104.892 16.58C104.892 17.228 104.773 17.81 104.536 18.326C104.299 18.842 103.965 19.25 103.534 19.55C103.103 19.85 102.597 20 102.019 20ZM98.982 19.82V11.18H100.398V15.272H100.223V19.82H98.982ZM101.803 18.704C102.168 18.704 102.469 18.61 102.706 18.422C102.943 18.234 103.118 17.98 103.231 17.66C103.347 17.336 103.406 16.976 103.406 16.58C103.406 16.188 103.347 15.832 103.231 15.512C103.114 15.188 102.934 14.932 102.689 14.744C102.444 14.552 102.133 14.456 101.756 14.456C101.399 14.456 101.107 14.546 100.882 14.726C100.657 14.902 100.49 15.15 100.381 15.47C100.276 15.786 100.223 16.156 100.223 16.58C100.223 17 100.276 17.37 100.381 17.69C100.49 18.01 100.659 18.26 100.888 18.44C101.121 18.616 101.426 18.704 101.803 18.704Z" fill="white" style="fill:white;fill:white;fill-opacity:1;"/>
<path d="M106.293 19.82V11H107.698V19.82H106.293Z" fill="white" style="fill:white;fill:white;fill-opacity:1;"/>
<path d="M112.305 20C111.668 20 111.109 19.858 110.627 19.574C110.145 19.29 109.768 18.896 109.496 18.392C109.228 17.888 109.094 17.308 109.094 16.652C109.094 15.944 109.226 15.33 109.49 14.81C109.755 14.286 110.122 13.88 110.592 13.592C111.062 13.304 111.606 13.16 112.224 13.16C112.877 13.16 113.43 13.318 113.885 13.634C114.343 13.946 114.683 14.388 114.905 14.96C115.126 15.532 115.21 16.206 115.156 16.982H113.763V16.454C113.759 15.75 113.638 15.236 113.401 14.912C113.164 14.588 112.791 14.426 112.282 14.426C111.707 14.426 111.28 14.61 111 14.978C110.72 15.342 110.58 15.876 110.58 16.58C110.58 17.236 110.72 17.744 111 18.104C111.28 18.464 111.688 18.644 112.224 18.644C112.57 18.644 112.867 18.566 113.116 18.41C113.368 18.25 113.562 18.02 113.698 17.72L115.086 18.152C114.845 18.736 114.472 19.19 113.967 19.514C113.465 19.838 112.912 20 112.305 20ZM110.137 16.982V15.89H114.468V16.982H110.137Z" fill="white" style="fill:white;fill:white;fill-opacity:1;"/>
<path d="M121.896 20C121.282 20 120.729 19.89 120.235 19.67C119.745 19.45 119.341 19.136 119.023 18.728C118.708 18.316 118.508 17.828 118.422 17.264L119.88 17.036C120.004 17.548 120.258 17.944 120.643 18.224C121.032 18.504 121.478 18.644 121.984 18.644C122.283 18.644 122.564 18.596 122.829 18.5C123.093 18.404 123.307 18.264 123.47 18.08C123.637 17.896 123.72 17.67 123.72 17.402C123.72 17.282 123.701 17.172 123.662 17.072C123.623 16.968 123.565 16.876 123.487 16.796C123.413 16.716 123.316 16.644 123.196 16.58C123.079 16.512 122.943 16.454 122.788 16.406L120.62 15.746C120.433 15.69 120.231 15.616 120.014 15.524C119.8 15.428 119.596 15.298 119.402 15.134C119.211 14.966 119.054 14.754 118.93 14.498C118.809 14.238 118.749 13.918 118.749 13.538C118.749 12.982 118.885 12.516 119.157 12.14C119.433 11.76 119.802 11.476 120.264 11.288C120.73 11.1 121.247 11.008 121.815 11.012C122.39 11.016 122.903 11.118 123.353 11.318C123.804 11.514 124.181 11.8 124.484 12.176C124.787 12.552 125.001 13.006 125.125 13.538L123.616 13.808C123.553 13.504 123.433 13.246 123.254 13.034C123.079 12.818 122.864 12.654 122.607 12.542C122.355 12.43 122.085 12.37 121.797 12.362C121.517 12.358 121.257 12.402 121.016 12.494C120.779 12.582 120.587 12.71 120.439 12.878C120.295 13.046 120.223 13.242 120.223 13.466C120.223 13.678 120.286 13.852 120.41 13.988C120.534 14.12 120.688 14.226 120.87 14.306C121.057 14.382 121.245 14.446 121.436 14.498L122.939 14.93C123.145 14.986 123.377 15.062 123.633 15.158C123.889 15.254 124.136 15.388 124.373 15.56C124.61 15.732 124.805 15.958 124.956 16.238C125.111 16.518 125.189 16.874 125.189 17.306C125.189 17.754 125.098 18.148 124.915 18.488C124.737 18.824 124.494 19.104 124.187 19.328C123.88 19.552 123.528 19.72 123.132 19.832C122.739 19.944 122.327 20 121.896 20Z" fill="white" style="fill:white;fill:white;fill-opacity:1;"/>
<path d="M129.231 20C128.601 20 128.052 19.854 127.581 19.562C127.111 19.27 126.746 18.868 126.486 18.356C126.229 17.84 126.101 17.248 126.101 16.58C126.101 15.9 126.233 15.304 126.497 14.792C126.762 14.28 127.129 13.88 127.599 13.592C128.069 13.304 128.613 13.16 129.231 13.16C129.864 13.16 130.416 13.306 130.886 13.598C131.356 13.89 131.722 14.294 131.982 14.81C132.242 15.322 132.372 15.912 132.372 16.58C132.372 17.252 132.24 17.846 131.976 18.362C131.716 18.874 131.351 19.276 130.88 19.568C130.41 19.856 129.86 20 129.231 20ZM129.231 18.644C129.79 18.644 130.206 18.452 130.478 18.068C130.75 17.684 130.886 17.188 130.886 16.58C130.886 15.952 130.748 15.452 130.472 15.08C130.196 14.704 129.783 14.516 129.231 14.516C128.854 14.516 128.543 14.604 128.298 14.78C128.057 14.952 127.879 15.194 127.762 15.506C127.646 15.814 127.587 16.172 127.587 16.58C127.587 17.208 127.725 17.71 128.001 18.086C128.281 18.458 128.691 18.644 129.231 18.644Z" fill="white" style="fill:white;fill:white;fill-opacity:1;"/>
<path d="M136.437 20C135.807 20 135.257 19.854 134.787 19.562C134.317 19.27 133.952 18.868 133.692 18.356C133.435 17.84 133.307 17.248 133.307 16.58C133.307 15.9 133.439 15.304 133.703 14.792C133.967 14.28 134.335 13.88 134.805 13.592C135.275 13.304 135.819 13.16 136.437 13.16C137.07 13.16 137.622 13.306 138.092 13.598C138.562 13.89 138.927 14.294 139.188 14.81C139.448 15.322 139.578 15.912 139.578 16.58C139.578 17.252 139.446 17.846 139.182 18.362C138.922 18.874 138.556 19.276 138.086 19.568C137.616 19.856 137.066 20 136.437 20ZM136.437 18.644C136.996 18.644 137.412 18.452 137.684 18.068C137.956 17.684 138.092 17.188 138.092 16.58C138.092 15.952 137.954 15.452 137.678 15.08C137.402 14.704 136.988 14.516 136.437 14.516C136.06 14.516 135.749 14.604 135.504 14.78C135.263 14.952 135.085 15.194 134.968 15.506C134.851 15.814 134.793 16.172 134.793 16.58C134.793 17.208 134.931 17.71 135.207 18.086C135.487 18.458 135.897 18.644 136.437 18.644Z" fill="white" style="fill:white;fill:white;fill-opacity:1;"/>
<path d="M145.216 19.82V16.7C145.216 16.496 145.203 16.27 145.175 16.022C145.148 15.774 145.084 15.536 144.983 15.308C144.886 15.076 144.738 14.886 144.54 14.738C144.346 14.59 144.082 14.516 143.747 14.516C143.569 14.516 143.392 14.546 143.217 14.606C143.042 14.666 142.883 14.77 142.739 14.918C142.599 15.062 142.487 15.262 142.401 15.518C142.316 15.77 142.273 16.094 142.273 16.49L141.439 16.124C141.439 15.572 141.542 15.072 141.748 14.624C141.958 14.176 142.265 13.82 142.669 13.556C143.073 13.288 143.571 13.154 144.161 13.154C144.628 13.154 145.012 13.234 145.315 13.394C145.618 13.554 145.859 13.758 146.038 14.006C146.217 14.254 146.349 14.518 146.434 14.798C146.52 15.078 146.574 15.344 146.598 15.596C146.625 15.844 146.638 16.046 146.638 16.202V19.82H145.216ZM140.851 19.82V13.34H142.104V15.35H142.273V19.82H140.851Z" fill="white" style="fill:white;fill:white;fill-opacity:1;"/>
<path d="M154.042 20C153.203 20 152.484 19.812 151.886 19.436C151.287 19.056 150.827 18.528 150.505 17.852C150.186 17.176 150.027 16.392 150.027 15.5C150.027 14.608 150.186 13.824 150.505 13.148C150.827 12.472 151.287 11.946 151.886 11.57C152.484 11.19 153.203 11 154.042 11C154.882 11 155.6 11.19 156.199 11.57C156.801 11.946 157.262 12.472 157.58 13.148C157.903 13.824 158.064 14.608 158.064 15.5C158.064 16.392 157.903 17.176 157.58 17.852C157.262 18.528 156.801 19.056 156.199 19.436C155.6 19.812 154.882 20 154.042 20ZM154.042 18.638C154.606 18.642 155.074 18.514 155.447 18.254C155.824 17.994 156.106 17.628 156.292 17.156C156.483 16.684 156.578 16.132 156.578 15.5C156.578 14.868 156.483 14.32 156.292 13.856C156.106 13.388 155.824 13.024 155.447 12.764C155.074 12.504 154.606 12.37 154.042 12.362C153.479 12.358 153.011 12.486 152.638 12.746C152.265 13.006 151.983 13.372 151.793 13.844C151.606 14.316 151.513 14.868 151.513 15.5C151.513 16.132 151.606 16.682 151.793 17.15C151.979 17.614 152.259 17.976 152.632 18.236C153.009 18.496 153.479 18.63 154.042 18.638Z" fill="white" style="fill:white;fill:white;fill-opacity:1;"/>
<path d="M163.578 19.82V16.7C163.578 16.496 163.564 16.27 163.537 16.022C163.51 15.774 163.446 15.536 163.345 15.308C163.248 15.076 163.1 14.886 162.902 14.738C162.708 14.59 162.443 14.516 162.109 14.516C161.93 14.516 161.754 14.546 161.579 14.606C161.404 14.666 161.245 14.77 161.101 14.918C160.961 15.062 160.848 15.262 160.763 15.518C160.677 15.77 160.635 16.094 160.635 16.49L159.801 16.124C159.801 15.572 159.904 15.072 160.11 14.624C160.32 14.176 160.627 13.82 161.031 13.556C161.435 13.288 161.932 13.154 162.523 13.154C162.989 13.154 163.374 13.234 163.677 13.394C163.98 13.554 164.221 13.758 164.4 14.006C164.578 14.254 164.711 14.518 164.796 14.798C164.881 15.078 164.936 15.344 164.959 15.596C164.986 15.844 165 16.046 165 16.202V19.82H163.578ZM159.212 19.82V13.34H160.466V15.35H160.635V19.82H159.212Z" fill="white" style="fill:white;fill:white;fill-opacity:1;"/>
</svg>
