<svg width="188" height="188" viewBox="0 0 188 188" fill="none" xmlns="http://www.w3.org/2000/svg">
<g filter="url(#filter0_d_1781_11716)">
<rect x="4" width="180" height="180" rx="90" fill="#1AA484" fill-opacity="0.1" shape-rendering="crispEdges"/>
</g>
<rect x="14.5107" y="10.5117" width="160.292" height="160.292" rx="80.146" fill="white"/>
<g clip-path="url(#clip0_1781_11716)">
<path d="M88.8 52.1399C87.9806 52.1879 87.1611 52.1399 86.3899 52.332C83.4495 53.0043 80.8465 54.3011 79.1112 56.9425C78.9183 57.2307 78.7255 57.3267 78.3881 57.2787C77.5686 57.1346 76.7492 57.0866 75.9297 56.9905C75.7851 56.9905 75.6405 56.9425 75.2549 56.8945C75.5441 56.6544 75.6887 56.4623 75.8815 56.4142C79.2558 55.0215 82.4372 53.3405 85.5704 51.4675C85.8114 51.3234 86.1006 51.2754 86.3417 51.2754C87.6914 51.3714 88.9929 51.5155 90.3425 51.6596C90.6318 51.7076 90.921 51.8517 91.2102 51.9478C90.921 52.0918 90.6318 52.2359 90.3425 52.332C90.1979 52.38 90.0051 52.332 89.6677 52.38C89.9087 52.5241 90.0533 52.5721 90.1497 52.6201C91.4512 52.9563 92.5117 53.6767 93.3794 54.6853C93.8132 55.2136 93.8132 55.6458 93.2348 55.982C91.8369 56.8945 90.3425 57.4228 88.7036 56.8945C88.2698 56.7504 87.836 56.6063 87.3539 56.5583C85.5222 56.2221 83.7869 57.9991 83.5941 59.7281C83.5459 60.2564 83.4977 60.7846 83.4495 61.2649C83.3531 62.4175 83.8833 63.282 84.7992 63.9544C86.4863 65.2511 88.4626 65.8274 90.5354 66.0676C92.7527 66.3077 95.0183 66.3557 97.2356 66.5959C99.8868 66.884 102.442 67.5564 104.563 69.2373C106.925 71.1584 107.889 73.6077 107.31 76.5854C106.925 78.6025 105.478 79.8992 103.743 80.9078C103.598 81.0038 103.261 80.9558 103.116 80.8117C101.96 79.9472 100.754 79.3229 99.3566 78.9867C99.212 78.9387 99.1156 78.8426 98.8263 78.6985C99.212 78.6025 99.453 78.5064 99.6458 78.4584C100.851 78.2183 101.911 77.642 102.779 76.7775C103.502 76.1051 103.647 75.3367 103.357 74.4242C102.972 73.1275 102.104 72.215 100.899 71.7827C99.694 71.3505 98.4407 71.0143 97.1874 70.8222C95.3557 70.5821 93.4758 70.534 91.5958 70.438C89.2339 70.2939 86.8719 69.9097 84.7027 68.9972C82.9192 68.2288 81.3767 67.1241 80.2198 65.5393C77.424 61.8893 78.8701 56.2701 83.112 54.0609C84.5581 53.2925 86.1489 52.9083 87.7396 52.7162C88.077 52.6682 88.3662 52.5241 88.7036 52.428C88.8482 52.2839 88.8 52.2359 88.8 52.1399ZM90.2943 53.7728C90.1015 53.5807 89.9569 53.4366 89.8605 53.4366C89.7641 53.4366 89.6677 53.5807 89.5231 53.6767C89.6195 53.7728 89.7159 53.9168 89.8123 53.9649C89.9569 54.0129 90.1015 53.8688 90.2943 53.7728Z" fill="#1AA484"/>
<path d="M71.3026 136.234C71.3026 139.02 71.3026 141.805 71.3026 144.591C71.3026 145.599 71.0134 145.84 70.0493 145.84C69.4709 145.84 68.9406 145.84 68.3622 145.84C67.6391 145.84 67.2053 145.503 67.2053 144.783C67.2053 142.718 67.2053 140.605 67.2535 138.539C67.2535 137.723 67.3017 137.675 66.4823 137.675C64.6505 137.675 62.7706 137.675 60.9389 137.675C60.3122 137.675 60.2158 137.867 60.2158 138.443C60.264 140.509 60.2158 142.622 60.2158 144.687C60.2158 145.599 59.9266 145.84 59.0107 145.888C58.3841 145.888 57.7574 145.888 57.1308 145.888C56.4077 145.888 56.0703 145.551 56.0703 144.831C56.0703 144.015 56.0703 143.246 56.0703 142.43C56.0703 137.675 56.0703 132.92 56.0703 128.166C56.0703 126.869 56.3113 126.629 57.6128 126.629C58.0949 126.629 58.5769 126.629 59.0589 126.629C59.9266 126.629 60.2158 126.917 60.2158 127.782C60.2158 129.607 60.2158 131.432 60.2158 133.257C60.2158 133.449 60.2158 133.641 60.2158 133.785C60.1676 134.169 60.3604 134.313 60.746 134.313C62.7706 134.313 64.7469 134.313 66.7715 134.313C67.1089 134.313 67.2535 134.217 67.2535 133.833C67.2053 131.912 67.2053 129.943 67.2053 128.022C67.2053 126.965 67.5427 126.629 68.6514 126.629C69.1816 126.629 69.7119 126.629 70.2903 126.629C71.0134 126.629 71.3026 126.917 71.3508 127.637C71.399 128.214 71.3508 128.79 71.3508 129.366C71.3026 131.576 71.3026 133.881 71.3026 136.234Z" fill="#1AA484"/>
<path d="M132.955 145.792C132.569 145.792 132.183 145.743 131.798 145.792C131.123 145.888 130.834 145.551 130.641 144.975C130.304 143.967 130.014 142.958 129.629 141.949C129.532 141.709 129.243 141.469 129.002 141.469C126.833 141.421 124.712 141.421 122.543 141.469C122.35 141.469 122.109 141.709 122.013 141.901C121.579 143.006 121.193 144.111 120.807 145.215C120.663 145.599 120.422 145.792 119.988 145.792C119.169 145.743 118.397 145.743 117.578 145.792C117.144 145.792 116.951 145.647 116.951 145.263C116.999 144.735 117.048 144.207 117.192 143.726C118.108 141.181 119.024 138.588 119.94 136.042C120.904 133.353 121.868 130.615 122.88 127.926C122.928 127.782 123.025 127.686 123.073 127.541C123.362 126.725 123.844 126.389 124.76 126.437C125.676 126.533 126.592 126.485 127.508 126.437C128.086 126.389 128.472 126.677 128.665 127.205C129.147 128.454 129.629 129.703 130.062 130.951C130.737 132.872 131.412 134.841 132.087 136.763C132.858 138.972 133.678 141.181 134.449 143.39C134.642 143.967 134.835 144.543 134.931 145.119C135.027 145.503 134.786 145.743 134.353 145.743C133.967 145.792 133.485 145.792 132.955 145.792ZM125.869 130.567C125.821 130.567 125.772 130.567 125.724 130.567C124.808 133.161 123.941 135.802 123.025 138.443C124.905 138.443 126.688 138.443 128.52 138.443C127.652 135.802 126.785 133.161 125.869 130.567Z" fill="#1AA484"/>
<path d="M107.31 126.534C107.792 126.534 108.322 126.582 108.804 126.534C109.383 126.486 109.768 126.774 109.961 127.303C110.443 128.551 110.925 129.8 111.359 131.049C112.034 132.97 112.709 134.939 113.384 136.86C114.155 139.021 114.926 141.23 115.697 143.392C115.89 143.92 116.083 144.496 116.179 145.025C116.276 145.553 116.035 145.793 115.456 145.793C114.589 145.745 113.673 145.745 112.805 145.793C112.323 145.793 112.034 145.649 111.889 145.217C111.552 144.208 111.166 143.2 110.829 142.143C110.684 141.663 110.443 141.471 109.961 141.471C107.937 141.471 105.864 141.471 103.839 141.471C103.454 141.471 103.309 141.615 103.165 141.951C102.827 143.055 102.393 144.16 102.008 145.217C101.863 145.601 101.622 145.793 101.188 145.745C100.369 145.697 99.5975 145.697 98.778 145.745C98.3442 145.745 98.1514 145.553 98.1514 145.217C98.1514 144.784 98.1996 144.4 98.3442 144.016C99.3565 141.134 100.417 138.253 101.429 135.371C102.297 132.97 103.116 130.569 103.984 128.167C104.611 126.486 104.611 126.486 106.394 126.486C106.78 126.534 107.069 126.534 107.31 126.534ZM107.069 130.569C107.021 130.569 106.973 130.569 106.924 130.569C106.009 133.162 105.141 135.803 104.225 138.445C106.105 138.445 107.888 138.445 109.72 138.445C108.853 135.803 107.985 133.162 107.069 130.569Z" fill="#1AA484"/>
<path d="M78.581 46.3294C79.5932 45.9452 80.4609 45.609 81.3286 45.2728C81.2804 45.2248 81.2322 45.1767 81.2322 45.0807C80.0753 45.2728 78.9184 45.5129 77.7615 45.705C75.5924 46.0892 73.4232 46.0412 71.3987 45.1767C70.772 44.9366 70.2418 44.5044 69.6633 44.1202C69.2777 43.832 69.2777 43.4958 69.7115 43.2076C73.3268 40.9024 77.0385 38.7892 81.0876 37.3484C81.9552 37.0603 82.9193 36.7721 83.8351 36.7721C86.7756 36.676 87.7396 38.1168 87.595 40.7583C87.5468 41.7188 87.4986 42.7274 87.4986 43.6879C87.595 46.2333 89.3785 48.0583 91.9815 48.1064C92.8492 48.1064 93.3312 48.4425 93.6204 49.211C93.9097 49.8353 94.1989 50.4597 94.5363 51.084C94.3917 51.132 94.2953 51.18 94.1989 51.18C92.2707 51.18 90.3908 51.18 88.4627 51.18C88.2699 51.18 88.077 51.036 87.8842 50.9399C87.9324 50.7958 88.0288 50.6518 88.1253 50.4116C87.9324 50.4116 87.6914 50.4116 87.4986 50.4116C86.6791 50.5077 85.9561 50.5077 85.233 49.8833C84.7992 49.4991 84.1726 49.259 83.6423 48.9228C83.4977 48.8267 83.3531 48.7307 83.0639 48.5866C83.8351 48.3465 84.4136 48.1064 85.0402 47.9142C85.0402 47.8662 84.992 47.7702 84.992 47.7221C84.4136 47.7702 83.8351 47.8662 83.2567 47.9142C82.6783 47.9623 82.0998 48.0583 81.5214 48.1064C81.3286 48.1064 81.1358 48.1544 80.9911 48.0583C80.2681 47.53 79.4968 46.9537 78.581 46.3294Z" fill="#1AA484"/>
<path d="M108.13 45.273C108.997 45.6092 109.865 45.9454 110.781 46.2815C109.479 47.4822 108.226 48.5388 106.298 47.9144C105.671 47.7223 104.996 47.7704 104.322 47.6743C104.322 47.7223 104.273 47.7704 104.273 47.8184C104.9 48.0585 105.478 48.2987 106.25 48.6348C105.671 48.923 105.237 49.1631 104.852 49.4033C104.659 49.4993 104.37 49.5954 104.225 49.7875C103.454 50.652 102.49 50.5559 101.526 50.4118C101.333 50.3638 101.092 50.4118 100.851 50.5559C101.044 50.6039 101.237 50.7 101.574 50.796C101.381 50.9881 101.188 51.1802 101.044 51.2283C99.0192 51.2763 97.0428 51.2283 94.9219 51.2283C94.9701 50.9401 95.0183 50.748 95.0665 50.6039C95.3075 50.0756 95.5967 49.5473 95.8377 48.971C96.127 48.3467 96.5126 48.1546 97.1874 48.1066C98.7781 48.0585 100.128 47.5302 101.044 46.1375C101.622 45.273 101.863 44.3125 101.863 43.3039C101.863 42.2473 101.767 41.1907 101.767 40.1341C101.67 37.4447 103.55 36.4841 105.816 36.8203C108.756 37.2526 111.359 38.5012 113.914 39.894C115.842 40.9026 117.674 42.1032 119.554 43.2078C120.132 43.544 120.132 43.7361 119.65 44.1684C119.12 44.6006 118.542 44.9848 117.915 45.225C115.649 46.1375 113.287 46.1375 110.925 45.6572C110.01 45.4651 109.045 45.321 108.081 45.1769C108.226 45.1769 108.178 45.225 108.13 45.273Z" fill="#1AA484"/>
<path d="M83.5466 136.284C83.5466 133.642 83.5466 131.001 83.5466 128.359C83.5466 126.919 83.9804 126.486 85.4265 126.486C87.4029 126.486 89.3792 126.486 91.3074 126.486C91.5966 126.486 91.8858 126.678 92.175 126.774C92.3678 126.823 92.5124 126.919 92.657 126.967C95.2118 127.255 96.9471 129.752 96.9471 131.721C96.9471 132.826 96.9472 133.882 96.5615 134.987C95.9831 136.428 95.0672 137.532 93.6211 138.157C93.1391 138.349 92.5606 138.349 92.175 138.637C90.8735 139.502 89.4756 138.925 88.1741 139.069C87.7403 139.117 87.5957 139.261 87.5957 139.694C87.5957 141.327 87.5957 142.959 87.5957 144.592C87.5957 145.553 87.3065 145.793 86.3424 145.793C85.7158 145.793 85.0409 145.745 84.4143 145.793C83.884 145.841 83.643 145.553 83.5466 145.073C83.4984 144.736 83.4502 144.4 83.4502 144.064C83.5466 141.471 83.5466 138.877 83.5466 136.284ZM87.6921 132.778C87.6921 133.594 87.6921 134.459 87.6921 135.275C87.6921 136.14 87.6921 136.14 88.5116 136.14C88.8972 136.14 89.2828 136.092 89.6684 136.14C91.1627 136.284 92.5606 135.083 92.657 133.642C92.7052 132.922 92.7052 132.153 92.6088 131.433C92.416 130.376 91.2109 129.464 90.1023 129.464C89.5238 129.464 88.8972 129.464 88.3187 129.464C87.8367 129.464 87.7403 129.608 87.7403 130.04C87.6921 130.953 87.6921 131.865 87.6921 132.778Z" fill="#1AA484"/>
<path d="M89.6202 71.1583C88.7525 71.7346 87.8367 72.2149 87.0654 72.8873C85.5711 74.28 85.8121 76.1531 87.4992 77.3057C89.0418 78.3623 90.7771 78.6985 92.6088 78.8425C94.4887 78.9866 96.3687 79.0827 98.2486 79.3228C101.767 79.8511 104.37 82.5886 104.756 86.0946C104.997 88.2077 104.081 89.8886 102.346 91.0893C102.153 91.2334 101.767 91.2334 101.575 91.1373C100.514 90.609 99.5019 90.0327 98.3932 89.4564C98.5378 89.4084 98.6342 89.3123 98.7306 89.2643C98.827 89.2163 98.9235 89.2163 99.0199 89.1683C101.478 88.4959 101.96 86.863 100.755 84.6538C100.225 83.7413 99.3091 83.1649 98.2968 83.0209C97.3327 82.8768 96.3687 82.7807 95.4528 82.7327C92.7534 82.6847 90.054 82.5406 87.451 81.532C85.9085 80.9557 84.5106 80.1393 83.4502 78.8425C81.6184 76.5373 81.763 72.9353 83.7394 70.4379C83.884 70.2458 83.9804 70.0537 84.1732 69.9576C84.3178 69.8616 84.607 69.7655 84.7517 69.8136C86.2942 70.4379 87.8367 70.9182 89.4756 71.0622C89.572 71.1103 89.6202 71.1583 89.6202 71.1583Z" fill="#1AA484"/>
<path d="M96.6094 99.5907C98.6339 98.6782 100.562 97.6696 99.5016 94.9801C98.9232 93.5393 97.0914 92.5308 95.6453 92.7709C95.6453 93.7314 95.6453 94.74 95.6453 95.7005C95.6453 96.6611 95.6453 97.5736 95.6453 98.5341C95.6453 99.0144 95.5007 99.2545 94.9705 99.2545C93.8618 99.2545 93.8136 99.2545 93.8136 98.1499C93.7654 96.613 93.7654 95.1242 93.7172 93.5874C93.7172 93.1071 93.8618 92.867 94.392 92.915C94.5849 92.915 94.7777 92.915 94.9705 92.8189C93.9582 92.7709 92.8977 92.7229 91.8855 92.6268C90.4394 92.4828 89.0415 92.1466 87.74 91.4262C85.5708 90.2255 84.5103 87.9202 85.0888 85.4709C85.3298 84.4143 85.86 83.4057 86.2939 82.4452C86.3903 82.2531 86.7759 82.061 86.9687 82.109C88.1256 82.4452 89.2825 82.8294 90.3912 83.1656C90.4394 83.1656 90.4876 83.2617 90.584 83.3097C89.5717 83.6939 88.9451 84.3663 88.5594 85.3268C87.8846 87.0077 88.3666 88.1604 90.0055 88.9288C91.2106 89.4571 92.4639 89.6012 93.669 89.6492C93.6208 87.6321 93.5726 85.663 93.5726 83.6939C93.5726 83.5498 93.8136 83.4057 93.91 83.3097H93.9582C95.8381 83.1656 95.8863 83.1656 95.8381 85.0386C95.8381 86.3354 95.7899 87.6321 95.7417 88.9288C95.7417 89.361 95.5971 89.5051 95.1633 89.4571C94.8259 89.4091 94.5366 89.4571 94.1992 89.5531C95.0669 89.6492 95.9828 89.7452 96.8504 89.8893C99.6462 90.3216 101.767 92.3867 102.346 95.0282C102.779 97.1894 101.767 99.4466 99.8872 100.599C99.6944 100.695 99.4534 100.791 99.2606 100.743C98.3929 100.407 97.5253 100.023 96.6094 99.5907Z" fill="#1AA484"/>
<path d="M46.0439 48.6343C53.7083 47.7218 61.1798 46.233 68.4585 43.9277C69.0852 45.9448 70.8687 46.137 72.604 46.4251C73.1343 46.5212 73.6645 46.5212 74.1947 46.5692C74.3393 46.5692 74.5322 46.6172 74.6768 46.8093C74.2429 46.9534 73.8573 47.0975 73.4235 47.2416C69.2298 48.9225 64.9879 50.3153 60.6014 51.2278C58.6732 51.612 56.6969 51.8521 54.7206 51.9962C52.7924 52.1403 50.8643 51.9001 49.0326 51.1797C48.0203 50.7955 47.2008 50.1712 46.4778 49.3067C46.3332 49.1146 46.2368 48.9225 46.0439 48.6343Z" fill="#1AA484"/>
<path d="M114.638 46.6169C115.65 46.5209 116.566 46.4729 117.433 46.2807C118.06 46.1847 118.687 45.9446 119.313 45.7044C119.988 45.4163 120.567 44.984 120.808 44.2636C120.904 43.9755 121.049 43.8794 121.386 43.9755C124.182 44.7439 126.93 45.6564 129.774 46.2807C133.582 47.0972 137.438 47.6735 141.294 48.3459C141.921 48.4419 142.499 48.538 143.222 48.6821C143.126 48.8262 143.078 48.9702 142.981 49.0663C141.391 50.7472 139.414 51.7077 137.1 51.8999C134.787 52.14 132.521 51.8038 130.304 51.3716C126.11 50.6031 122.013 49.3544 117.964 47.9136C116.903 47.5294 115.843 47.1933 114.782 46.809C114.782 46.809 114.734 46.761 114.638 46.6169Z" fill="#1AA484"/>
<path d="M99.5493 65.9239C100.176 65.7798 100.706 65.6358 101.285 65.4917C102.586 65.2035 103.743 64.6752 104.803 63.8588C105.864 63.0423 106.298 61.9857 106.105 60.641C106.057 60.4009 106.057 60.2088 106.057 59.9686C106.009 58.4318 105.189 57.3752 103.936 56.6548C103.116 56.1745 102.201 56.3186 101.381 56.6548C99.935 57.1831 98.537 56.943 97.1874 56.3666C97.0427 56.3186 96.8499 56.2226 96.7053 56.0785C95.7895 55.4541 95.7895 55.1179 96.5125 54.2535C98.0068 52.5245 99.8867 52.1883 102.056 52.5725C103.839 52.9087 105.575 53.341 107.117 54.3015C109.094 55.5502 110.299 57.3752 110.54 59.6805C110.636 60.7371 110.636 61.7936 110.443 62.8502C110.009 65.1555 108.419 66.5963 106.635 67.893C105.816 68.5173 105.189 68.4693 104.273 67.9891C102.827 67.2206 101.285 66.6923 99.7421 66.068C99.7421 66.116 99.7421 66.068 99.5493 65.9239ZM100.176 53.9173C100.176 53.8212 100.176 53.6772 100.224 53.5811C99.9832 53.5811 99.7421 53.5331 99.5011 53.5331C99.5011 53.5331 99.4529 53.7732 99.4529 53.8693C99.6939 53.9173 99.935 53.9173 100.176 53.9173Z" fill="#1AA484"/>
<path d="M54.7201 52.8125C55.3467 52.7164 55.9734 52.6684 56.6 52.5724C62.5772 51.5638 68.3616 49.9309 73.9532 47.5776C74.4835 47.3375 75.0137 47.0493 75.5922 46.8092C76.6044 46.3289 77.5685 46.425 78.4362 47.1934C78.9664 47.6256 79.4966 48.0579 80.1233 48.5381C80.1233 48.5381 80.0751 48.6822 79.9787 48.7302C76.2188 51.1316 72.2179 53.0526 67.8796 54.1092C64.2644 54.9737 60.6491 54.9737 57.0338 54.0612C56.2144 53.8691 55.4431 53.4368 54.6719 53.1007C54.6719 53.0046 54.7201 52.9085 54.7201 52.8125Z" fill="#1AA484"/>
<path d="M134.69 53.0525C133.533 53.4367 132.424 53.869 131.268 54.1571C127.218 55.1177 123.266 54.6854 119.361 53.3887C116.083 52.2841 112.95 50.8433 110.01 49.0183C109.817 48.8742 109.576 48.8262 109.335 48.6821C109.431 48.538 109.48 48.442 109.576 48.3459C110.058 47.9617 110.588 47.6255 111.022 47.1933C111.938 46.4249 112.902 46.3288 113.962 46.8571C117.722 48.6821 121.675 50.0269 125.724 51.0354C128.182 51.6598 130.689 52.14 133.196 52.6683C133.678 52.7644 134.16 52.7644 134.642 52.8124C134.642 52.8604 134.642 52.9565 134.69 53.0525Z" fill="#1AA484"/>
<path d="M79.4971 136.235C79.4971 139.02 79.4971 141.806 79.4971 144.591C79.4971 145.552 79.2078 145.84 78.2438 145.84C77.6653 145.84 77.0869 145.84 76.5084 145.84C75.689 145.84 75.3998 145.504 75.3516 144.687C75.3516 142.622 75.3516 140.509 75.3516 138.444C75.3516 134.986 75.3516 131.48 75.3516 128.022C75.3516 126.821 75.5926 126.533 76.8459 126.533C77.3761 126.533 77.9063 126.533 78.3884 126.533C79.1596 126.533 79.4489 126.821 79.4971 127.638C79.4971 128.454 79.4971 129.319 79.4971 130.135C79.4971 132.152 79.4971 134.169 79.4971 136.235Z" fill="#1AA484"/>
<path d="M124.327 55.2138C123.362 56.0302 122.35 56.3664 121.29 56.5585C117.819 57.1828 114.541 56.4624 111.456 54.9256C109.094 53.7249 106.732 52.4282 104.37 51.1795C104.033 50.9874 103.985 50.7473 104.274 50.6032C105.238 50.0749 106.202 49.4986 107.263 49.0664C107.841 48.7782 108.468 48.9703 109.046 49.3065C111.986 51.0354 115.071 52.6203 118.349 53.6289C120.181 54.2052 122.061 54.5894 123.941 55.0217C123.989 55.1177 124.085 55.1657 124.327 55.2138Z" fill="#1AA484"/>
<path d="M65.1328 55.1665C65.7595 55.0705 66.2415 55.0225 66.7235 54.9264C70.5316 54.158 74.0504 52.7172 77.4729 50.9402C78.3887 50.4599 79.3528 49.9797 80.2205 49.4034C81.1363 48.827 82.004 48.827 82.9199 49.2593C83.7393 49.6435 84.4624 50.1718 85.2336 50.652C85.33 50.7001 85.2818 51.0843 85.2336 51.1323C82.0522 52.8132 78.9672 54.7823 75.5448 55.935C72.9418 56.7994 70.2906 57.0396 67.5912 56.4152C66.7235 56.2711 65.9041 55.935 65.1328 55.1665Z" fill="#1AA484"/>
<path d="M91.403 93.4911C91.162 93.6832 91.0174 93.8273 90.8728 93.9233C89.4267 95.172 89.4749 97.2852 91.0174 98.4378C92.3189 99.4464 93.8132 99.7345 95.4039 99.9266C97.0428 100.167 98.5371 100.647 99.5494 102.088C101.188 104.393 100.08 107.419 97.9587 108.619C97.7659 108.715 97.4766 108.715 97.2838 108.667C96.8982 108.571 96.4644 108.427 96.0787 108.283C95.9823 108.235 95.8377 108.139 95.7895 108.043C95.7895 107.995 95.8859 107.851 95.9823 107.803C96.2715 107.659 96.5608 107.515 96.85 107.371C97.7177 106.842 98.2479 106.074 98.3443 105.017C98.4407 103.433 97.2356 102.28 95.3557 102.232C93.7168 102.184 92.1743 101.896 90.7282 101.175C88.7518 100.167 87.4021 98.678 87.2575 96.3727C87.1611 95.076 87.5949 93.9233 88.2698 92.8667C88.3662 92.7227 88.7036 92.5786 88.8482 92.6266C89.6195 92.8667 90.4389 93.1549 91.403 93.4911Z" fill="#1AA484"/>
<path d="M93.7656 110.204C92.3195 111.453 91.9821 112.894 92.657 114.575C92.9462 115.247 93.4282 115.679 94.2477 115.919C94.2477 115.439 94.2477 115.103 94.2477 114.719C94.1995 113.47 94.1995 112.221 94.1031 110.925C94.1031 110.396 94.2959 110.252 94.7779 110.252C95.3081 110.252 95.2599 110.588 95.2599 110.877C95.2117 112.317 95.2117 113.806 95.1635 115.247C95.1635 115.439 95.1635 115.631 95.1635 115.871C95.8866 115.871 96.4168 115.535 96.7543 115.007C97.9593 113.182 97.3327 110.348 94.7779 109.676C93.621 109.34 92.4159 109.003 91.4037 108.331C89.5719 107.226 88.9453 104.873 89.6684 102.856C90.1022 101.703 90.3914 101.559 91.5001 102.04C91.8857 102.184 92.2231 102.328 92.8016 102.568C92.6088 102.664 92.5124 102.712 92.4159 102.712C91.018 103.24 90.9216 105.594 91.9339 106.602C92.657 107.371 93.621 107.755 94.5851 108.091C96.2722 108.619 97.6701 109.484 98.2004 111.261C98.586 112.461 98.345 113.662 97.8629 114.767C97.4291 115.679 96.6578 116.159 95.6938 116.304C95.1635 116.4 95.0189 116.688 95.0671 117.168C95.1153 118.08 95.0671 118.993 95.0671 119.905C95.0671 120.098 95.0189 120.29 95.0189 120.482C94.9707 120.482 94.8743 120.53 94.8261 120.53C94.7297 120.29 94.5851 120.05 94.5369 119.761C94.4405 118.849 94.3923 117.888 94.3923 116.976C94.3923 116.592 94.2477 116.4 93.9103 116.255C91.3555 115.343 90.4396 112.125 92.0785 109.916C92.4641 109.532 92.898 109.58 93.7656 110.204Z" fill="#1AA484"/>
<path d="M98.3448 39.0291C98.2483 41.5264 96.3202 42.583 94.7295 42.583C92.6086 42.535 91.0178 40.806 91.1624 38.7409C91.2589 37.2041 92.4639 35.235 95.3079 35.4751C96.9951 35.6192 98.4412 37.2521 98.3448 39.0291Z" fill="#1AA484"/>
<path d="M94.8258 54.541C94.9704 54.8772 95.0668 55.2134 95.2596 55.5496C95.9827 56.8943 96.2237 58.2871 96.1273 59.8239C96.0309 61.5049 96.0791 63.2338 96.1273 64.9147C96.1273 65.443 95.9345 65.6351 95.4042 65.5871C94.9222 65.5391 94.392 65.5871 93.9099 65.5871C93.5243 65.5871 93.3797 65.443 93.4279 65.1069C93.4279 62.6575 93.4279 60.2081 93.4279 57.8068C93.4279 57.7108 93.4279 57.6147 93.4761 57.5187C93.8617 56.5581 94.2956 55.5976 94.6812 54.589C94.7294 54.541 94.7776 54.541 94.8258 54.541Z" fill="#1AA484"/>
<path d="M95.9825 74.8568C95.9825 75.8174 95.9343 76.7779 95.9825 77.7384C95.9825 78.2187 95.7897 78.4108 95.3559 78.4108C94.8738 78.4108 94.3918 78.4108 93.9098 78.4108C93.5723 78.4108 93.4277 78.2667 93.4277 77.8825C93.4277 75.8654 93.4277 73.8963 93.4277 71.8792C93.4277 71.4469 93.5723 71.2068 94.0544 71.2548C94.4882 71.3029 94.922 71.3029 95.3559 71.2548C95.7897 71.2068 95.9825 71.3509 95.9825 71.8312C95.9825 72.8397 96.0307 73.8483 95.9825 74.8568Z" fill="#1AA484"/>
<path d="M114.059 56.8468C112.999 56.9909 111.986 57.135 110.926 57.231C110.685 57.231 110.396 56.9909 110.251 56.7508C108.612 54.2534 106.202 52.8606 103.31 52.3323C102.105 52.0922 100.803 52.2843 99.55 52.2363C99.2125 52.2363 98.8751 52.2363 98.5377 52.1882C98.4413 52.1882 98.2485 51.9961 98.2967 51.9481C98.2967 51.804 98.4413 51.66 98.5377 51.6119C98.7305 51.5639 98.9233 51.5639 99.1161 51.5639C100.466 51.4198 101.864 51.2757 103.213 51.1797C103.454 51.1797 103.695 51.2277 103.888 51.3238C107.07 53.1488 110.251 54.8777 113.625 56.3185C113.818 56.4146 114.011 56.5587 114.156 56.6547C114.107 56.7508 114.059 56.7988 114.059 56.8468Z" fill="#1AA484"/>
<path d="M94.8737 49.9783C94.8255 49.9303 94.729 49.9303 94.6808 49.8822C93.9578 48.6335 92.9937 47.3848 93.3311 45.8C93.3794 45.5118 93.5722 45.1756 93.8132 45.0315C94.9219 44.3111 96.1752 45.0315 96.2234 46.3283C96.2716 47.0006 96.1269 47.577 95.7895 48.1533C95.5003 48.7296 95.2111 49.3539 94.8737 49.9783Z" fill="#1AA484"/>
<path d="M95.5005 102.568C95.5005 103.481 95.5005 104.297 95.5005 105.114C95.5005 105.834 95.4523 106.603 95.4523 107.323C95.4523 107.707 95.2595 107.851 94.9221 107.851C94.5847 107.803 94.1026 107.995 94.0544 107.371C94.0062 105.93 93.958 104.489 93.958 103.097C93.958 102.76 94.1026 102.568 94.4882 102.616C94.7293 102.616 95.0667 102.568 95.5005 102.568Z" fill="#1AA484"/>
<path d="M92.1742 42.4863C92.4634 42.5344 92.8008 42.5344 93.09 42.5824C94.1987 42.9666 95.3074 42.9666 96.4643 42.5824C96.7053 42.4863 97.0427 42.5824 97.2837 42.6304C97.2355 42.8705 97.2355 43.2067 97.0909 43.3988C96.5125 44.2633 95.6448 44.7436 94.5843 44.6475C93.4275 44.5515 92.608 43.8791 92.1742 42.8225C92.1742 42.7745 92.126 42.7265 92.126 42.6304C92.126 42.6304 92.126 42.5824 92.1742 42.4863Z" fill="#1AA484"/>
<path d="M94.8262 52.6689C94.9708 51.4682 94.8262 51.5643 95.9831 51.6123C96.5615 51.6603 97.1399 51.9485 97.7184 52.1886C98.0076 52.3327 98.0076 52.5728 97.7666 52.813C97.1399 53.3412 96.5133 53.9176 95.8866 54.4459C95.7902 54.4939 95.4046 54.3978 95.4046 54.3018C95.1636 53.7735 95.019 53.1972 94.8262 52.6689Z" fill="#1AA484"/>
<path d="M94.0546 54.3498C93.91 54.2537 93.8136 54.1577 93.669 54.1096C93.0423 53.6294 92.4157 53.1491 91.789 52.6688C91.4516 52.4287 91.4034 52.1886 91.789 52.0925C92.5603 51.8524 93.3315 51.7083 94.1028 51.5642C94.2474 51.5162 94.4884 51.7083 94.5366 51.8044C94.6812 52.6688 94.5848 53.5333 94.0546 54.3498Z" fill="#1AA484"/>
</g>
<defs>
<filter id="filter0_d_1781_11716" x="0" y="0" width="188" height="188" filterUnits="userSpaceOnUse" color-interpolation-filters="sRGB">
<feFlood flood-opacity="0" result="BackgroundImageFix"/>
<feColorMatrix in="SourceAlpha" type="matrix" values="0 0 0 0 0 0 0 0 0 0 0 0 0 0 0 0 0 0 127 0" result="hardAlpha"/>
<feOffset dy="4"/>
<feGaussianBlur stdDeviation="2"/>
<feComposite in2="hardAlpha" operator="out"/>
<feColorMatrix type="matrix" values="0 0 0 0 0 0 0 0 0 0 0 0 0 0 0 0 0 0 0.25 0"/>
<feBlend mode="normal" in2="BackgroundImageFix" result="effect1_dropShadow_1781_11716"/>
<feBlend mode="normal" in="SourceGraphic" in2="effect1_dropShadow_1781_11716" result="shape"/>
</filter>
<clipPath id="clip0_1781_11716">
<rect width="97.2263" height="110.365" fill="white" transform="translate(46.0439 35.4746)"/>
</clipPath>
</defs>
</svg>
