<svg width="80" height="80" viewBox="0 0 80 80" fill="none" xmlns="http://www.w3.org/2000/svg">
<circle cx="40" cy="40" r="40" fill="white"/>
<path d="M33.6825 51.3575V33.5775C33.6825 32.8775 33.8925 32.195 34.2775 31.6175L39.055 24.5125C39.8075 23.375 41.68 22.57 43.2725 23.165C44.9875 23.7425 46.125 25.6675 45.7575 27.3825L44.8475 33.105C44.7775 33.63 44.9175 34.1025 45.215 34.47C45.5125 34.8025 45.95 35.0125 46.4225 35.0125H53.615C54.9975 35.0125 56.1875 35.5725 56.8875 36.5525C57.5525 37.4975 57.675 38.7225 57.2375 39.965L52.9325 53.0725C52.39 55.2425 50.0275 57.01 47.6825 57.01H40.8575C39.685 57.01 38.04 56.6075 37.2875 55.855L35.0475 54.1225C34.19 53.475 33.6825 52.4425 33.6825 51.3575Z" fill="#16CA9F"/>
<path d="M28.1175 30.165H26.315C23.6025 30.165 22.5 31.215 22.5 33.805V51.41C22.5 54 23.6025 55.05 26.315 55.05H28.1175C30.83 55.05 31.9325 54 31.9325 51.41V33.805C31.9325 31.215 30.83 30.165 28.1175 30.165Z" fill="#16CA9F"/>
</svg>
