<svg width="80" height="80" viewBox="0 0 80 80" fill="none" xmlns="http://www.w3.org/2000/svg">
<circle cx="40" cy="40" r="40" fill="white"/>
<path fill-rule="evenodd" clip-rule="evenodd" d="M38.25 24.25H41.75C50.4485 24.25 57.5 31.3015 57.5 40C57.5 48.6985 50.4485 55.75 41.75 55.75H29.5C25.634 55.75 22.5 52.616 22.5 48.75V40C22.5 31.3015 29.5515 24.25 38.25 24.25ZM40 34.3125C38.7919 34.3125 37.8125 35.2919 37.8125 36.5V38.25H42.1875V36.5C42.1875 35.2919 41.2081 34.3125 40 34.3125ZM35.1875 38.25C35.1875 38.3338 35.1954 38.4158 35.2104 38.4952C33.9156 39.0087 33 40.2724 33 41.75V43.5C33 45.433 34.567 47 36.5 47H43.5C45.433 47 47 45.433 47 43.5V41.75C47 40.2724 46.0844 39.0087 44.7896 38.4952C44.8046 38.4158 44.8125 38.3338 44.8125 38.25V36.5C44.8125 33.8421 42.6579 31.6875 40 31.6875C37.3421 31.6875 35.1875 33.8421 35.1875 36.5V38.25Z" fill="#16CA9F"/>
</svg>
