<svg width="60" height="60" viewBox="0 0 60 60" fill="none" xmlns="http://www.w3.org/2000/svg">
<path opacity="0.4" d="M55 45V25C55 19.4772 50.5228 15 45 15H25H15C9.47715 15 5 19.4772 5 25V45C5 50.5228 9.47715 55 15 55H45C50.5228 55 55 50.5228 55 45Z" fill="#16CA9F"/>
<path fill-rule="evenodd" clip-rule="evenodd" d="M20 25.625C21.0355 25.625 21.875 26.4645 21.875 27.5V33.125H27.5C28.5355 33.125 29.375 33.9645 29.375 35C29.375 36.0355 28.5355 36.875 27.5 36.875H21.875V42.5C21.875 43.5355 21.0355 44.375 20 44.375C18.9645 44.375 18.125 43.5355 18.125 42.5V36.875H12.5C11.4645 36.875 10.625 36.0355 10.625 35C10.625 33.9645 11.4645 33.125 12.5 33.125H18.125V27.5C18.125 26.4645 18.9645 25.625 20 25.625Z" fill="#16CA9F"/>
<path fill-rule="evenodd" clip-rule="evenodd" d="M49.375 30C49.375 31.0355 48.5355 31.875 47.5 31.875H35C33.9645 31.875 33.125 31.0355 33.125 30C33.125 28.9645 33.9645 28.125 35 28.125H47.5C48.5355 28.125 49.375 28.9645 49.375 30Z" fill="#16CA9F"/>
<path fill-rule="evenodd" clip-rule="evenodd" d="M44.375 40C44.375 41.0355 43.5355 41.875 42.5 41.875H35C33.9645 41.875 33.125 41.0355 33.125 40C33.125 38.9645 33.9645 38.125 35 38.125H42.5C43.5355 38.125 44.375 38.9645 44.375 40Z" fill="#16CA9F"/>
<path d="M25 12.5C25 9.73858 27.2386 7.5 30 7.5C32.7614 7.5 35 9.73858 35 12.5V17.5C35 20.2614 32.7614 22.5 30 22.5C27.2386 22.5 25 20.2614 25 17.5V12.5Z" fill="#16CA9F"/>
</svg>
