<svg width="60" height="60" viewBox="0 0 60 60" fill="none" xmlns="http://www.w3.org/2000/svg">
<path opacity="0.4" d="M42.5 5H17.5C13.3579 5 10 8.35786 10 12.5V47.5H50V12.5C50 8.35786 46.6421 5 42.5 5Z" fill="#16CA9F"/>
<path fill-rule="evenodd" clip-rule="evenodd" d="M30 13.125C31.0355 13.125 31.875 13.9645 31.875 15L31.875 20.625H37.5C38.5355 20.625 39.375 21.4645 39.375 22.5C39.375 23.5355 38.5355 24.375 37.5 24.375H31.875V30C31.875 31.0355 31.0355 31.875 30 31.875C28.9645 31.875 28.125 31.0355 28.125 30L28.125 24.375H22.5C21.4645 24.375 20.625 23.5355 20.625 22.5C20.625 21.4645 21.4645 20.625 22.5 20.625H28.125L28.125 15C28.125 13.9645 28.9645 13.125 30 13.125Z" fill="#16CA9F"/>
<path d="M50 40H17.5C13.3579 40 10 43.3579 10 47.5C10 51.6421 13.3579 55 17.5 55H42.5C46.6421 55 50 51.6421 50 47.5V40Z" fill="#16CA9F"/>
</svg>
