<svg width="60" height="60" viewBox="0 0 60 60" fill="none" xmlns="http://www.w3.org/2000/svg">
<path fill-rule="evenodd" clip-rule="evenodd" d="M38.2211 9.40758C38.5486 8.42519 39.6104 7.89426 40.5928 8.22173L40.9777 8.35002C46.0167 10.0297 49.9707 13.9837 51.6504 19.0227L51.7787 19.4076C52.1061 20.39 51.5752 21.4518 50.5928 21.7793C49.6104 22.1068 48.5486 21.5758 48.2211 20.5934L48.0928 20.2086C46.7864 16.2894 43.711 13.214 39.7918 11.9076L39.407 11.7793C38.4246 11.4518 37.8937 10.39 38.2211 9.40758Z" fill="#16CA9F"/>
<path d="M30 52.5C33.4626 52.5 36.4083 50.413 37.5 47.5H22.5C23.5917 50.413 26.5374 52.5 30 52.5Z" fill="#16CA9F"/>
<path opacity="0.4" d="M14.1991 26.9851C15.1346 18.7271 21.9274 12.5 30 12.5C38.0726 12.5 44.8654 18.7271 45.8009 26.9851L46.6631 34.5962C46.8773 36.4875 47.6438 38.2672 48.8613 39.7001C51.4448 42.741 49.348 47.5 45.4247 47.5H14.5753C10.652 47.5 8.55522 42.741 11.1387 39.7001C12.3562 38.2672 13.1227 36.4875 13.3369 34.5962L14.1991 26.9851Z" fill="#16CA9F"/>
<path fill-rule="evenodd" clip-rule="evenodd" d="M21.7789 9.40758C21.4514 8.42519 20.3896 7.89426 19.4072 8.22173L19.0223 8.35002C13.9833 10.0297 10.0293 13.9837 8.34961 19.0227L8.22132 19.4076C7.89386 20.39 8.42478 21.4518 9.40717 21.7793C10.3896 22.1068 11.4514 21.5758 11.7789 20.5934L11.9072 20.2086C13.2136 16.2894 16.289 13.214 20.2082 11.9076L20.593 11.7793C21.5754 11.4518 22.1063 10.39 21.7789 9.40758Z" fill="#16CA9F"/>
</svg>
