<svg width="60" height="60" viewBox="0 0 60 60" fill="none" xmlns="http://www.w3.org/2000/svg">
<path fill-rule="evenodd" clip-rule="evenodd" d="M31.875 45V53.125H35C36.0355 53.125 36.875 53.9645 36.875 55C36.875 56.0355 36.0355 56.875 35 56.875H30.0015L29.9985 56.875H25C23.9645 56.875 23.125 56.0355 23.125 55C23.125 53.9645 23.9645 53.125 25 53.125H28.125V45H31.875Z" fill="#16CA9F"/>
<path opacity="0.4" d="M5 15C5 9.47715 9.47715 5 15 5H45C50.5228 5 55 9.47715 55 15V35C55 40.5228 50.5228 45 45 45H15C9.47715 45 5 40.5228 5 35V15Z" fill="#16CA9F"/>
<path fill-rule="evenodd" clip-rule="evenodd" d="M26.25 16.875C25.2145 16.875 24.375 17.7145 24.375 18.75V20C24.375 23.797 21.297 26.875 17.5 26.875H15C13.9645 26.875 13.125 26.0355 13.125 25C13.125 23.9645 13.9645 23.125 15 23.125H17.5C19.2259 23.125 20.625 21.7259 20.625 20V18.75C20.625 15.6434 23.1434 13.125 26.25 13.125C29.3566 13.125 31.875 15.6434 31.875 18.75V31.25C31.875 32.2855 32.7145 33.125 33.75 33.125C34.7855 33.125 35.625 32.2855 35.625 31.25V30C35.625 26.203 38.703 23.125 42.5 23.125H45C46.0355 23.125 46.875 23.9645 46.875 25C46.875 26.0355 46.0355 26.875 45 26.875H42.5C40.7741 26.875 39.375 28.2741 39.375 30V31.25C39.375 34.3566 36.8566 36.875 33.75 36.875C30.6434 36.875 28.125 34.3566 28.125 31.25V18.75C28.125 17.7145 27.2855 16.875 26.25 16.875Z" fill="#16CA9F"/>
</svg>
