<svg width="100" height="100" viewBox="0 0 100 100" fill="none" xmlns="http://www.w3.org/2000/svg">
<circle cx="50" cy="50" r="50" fill="white" style="fill:white;fill:white;fill-opacity:1;"/>
<path d="M69.333 59.6666V37.9166C69.333 36.6347 68.8238 35.4053 67.9173 34.4989C67.0109 33.5925 65.7815 33.0833 64.4997 33.0833H35.4997C34.2178 33.0833 32.9884 33.5925 32.082 34.4989C31.1756 35.4053 30.6663 36.6347 30.6663 37.9166V59.6666M69.333 59.6666H30.6663M69.333 59.6666L72.4263 65.8291C72.6126 66.1988 72.7009 66.6102 72.6825 67.0238C72.6641 67.4374 72.5398 67.8393 72.3215 68.1911C72.1032 68.5429 71.7981 68.8326 71.4356 69.0326C71.0731 69.2326 70.6653 69.3361 70.2513 69.3333H29.748C29.334 69.3361 28.9262 69.2326 28.5637 69.0326C28.2012 68.8326 27.8962 68.5429 27.6778 68.1911C27.4595 67.8393 27.3352 67.4374 27.3168 67.0238C27.2985 66.6102 27.3867 66.1988 27.573 65.8291L30.6663 59.6666" stroke="#16CA9F" style="stroke:#16CA9F;stroke:color(display-p3 0.0863 0.7922 0.6235);stroke-opacity:1;" stroke-width="3" stroke-linecap="round" stroke-linejoin="round"/>
<path d="M39 47C39 47 42.3 39 50 39C57.7 39 61 47 61 47C61 47 57.7 55 50 55C42.3 55 39 47 39 47Z" stroke="#16CA9F" style="stroke:#16CA9F;stroke:color(display-p3 0.0863 0.7922 0.6235);stroke-opacity:1;" stroke-width="3" stroke-linecap="round" stroke-linejoin="round"/>
<path d="M50 50C51.6569 50 53 48.6569 53 47C53 45.3431 51.6569 44 50 44C48.3431 44 47 45.3431 47 47C47 48.6569 48.3431 50 50 50Z" stroke="#16CA9F" style="stroke:#16CA9F;stroke:color(display-p3 0.0863 0.7922 0.6235);stroke-opacity:1;" stroke-width="3" stroke-linecap="round" stroke-linejoin="round"/>
</svg>
