<svg width="61" height="60" viewBox="0 0 61 60" fill="none" xmlns="http://www.w3.org/2000/svg">
<path opacity="0.4" d="M26.4391 6.80524L13.9445 12.3584C10.3304 13.9646 7.94547 17.5617 8.17545 21.51C9.07453 36.9455 13.5946 43.7409 25.3399 51.6926C28.4514 53.7991 32.5529 53.8042 35.662 51.6943C47.4435 43.6993 51.8018 36.8079 52.7799 21.5634C53.0349 17.5891 50.6461 13.9538 47.0068 12.3364L34.5618 6.80524C31.9762 5.65606 29.0247 5.65607 26.4391 6.80524Z" fill="#16CA9F"/>
<path fill-rule="evenodd" clip-rule="evenodd" d="M39.2348 23.5889C40.0141 24.2708 40.0931 25.4554 39.4112 26.2347L32.2364 34.4345C30.6947 36.1964 28.039 36.4324 26.2108 34.9698L21.8288 31.4642C21.0201 30.8173 20.889 29.6373 21.5359 28.8287C22.1828 28.0201 23.3628 27.889 24.1714 28.5359L28.5534 32.0415C28.8146 32.2505 29.194 32.2168 29.4142 31.9651L36.589 23.7653C37.2709 22.986 38.4554 22.907 39.2348 23.5889Z" fill="#16CA9F"/>
</svg>
