<svg width="123" height="35" viewBox="0 0 123 35" fill="none" xmlns="http://www.w3.org/2000/svg">
<path d="M29.8058 25.7169C28.5313 25.1704 27.5225 24.424 26.7864 23.4711C26.0503 22.5181 25.6345 21.4518 25.5459 20.2723H31.2167C31.2849 20.9054 31.5848 21.4185 32.1233 21.8117C32.6617 22.2049 33.3229 22.4048 34.0999 22.4048C34.8155 22.4048 35.3676 22.2715 35.763 21.9916C36.1515 21.7184 36.3491 21.3652 36.3491 20.9254C36.3491 20.3989 36.0697 20.0124 35.5108 19.7591C34.9519 19.5059 34.0453 19.226 32.7912 18.9195C31.4485 18.6129 30.3307 18.293 29.4378 17.9532C28.5449 17.6133 27.7679 17.0802 27.1204 16.3471C26.4729 15.6141 26.1457 14.6278 26.1457 13.3816C26.1457 12.3286 26.4388 11.3757 27.0318 10.5093C27.6248 9.643 28.4972 8.96326 29.6491 8.45678C30.801 7.95697 32.171 7.70374 33.7591 7.70374C36.1106 7.70374 37.9577 8.27019 39.314 9.40975C40.6636 10.5493 41.4474 12.0554 41.6451 13.9347H36.3423C36.2537 13.3016 35.9674 12.7951 35.4835 12.4286C34.9996 12.0554 34.3725 11.8688 33.5887 11.8688C32.9207 11.8688 32.4027 11.9954 32.0483 12.2487C31.687 12.5019 31.5098 12.8418 31.5098 13.2816C31.5098 13.8081 31.7961 14.2013 32.3686 14.4612C32.9412 14.7211 33.8272 14.9876 35.0337 15.2475C36.4173 15.6007 37.5487 15.9406 38.4212 16.2805C39.2936 16.6203 40.057 17.1668 40.7181 17.9198C41.3793 18.6729 41.7201 19.6858 41.7405 20.952C41.7405 22.0249 41.4338 22.9779 40.8204 23.8243C40.2069 24.6639 39.3209 25.3304 38.169 25.8102C37.0171 26.29 35.6812 26.5299 34.1612 26.5299C32.5254 26.5299 31.0736 26.2567 29.799 25.7102L29.8058 25.7169Z" fill="white" style="fill:white;fill:white;fill-opacity:1;"/>
<path d="M45.6866 5.19801C45.0459 4.61823 44.7324 3.90517 44.7324 3.05216C44.7324 2.19915 45.0528 1.45277 45.6866 0.872989C46.3273 0.29321 47.1453 0.00665283 48.154 0.00665283C49.1628 0.00665283 49.9466 0.299874 50.5873 0.872989C51.228 1.45277 51.5415 2.17916 51.5415 3.05216C51.5415 3.92516 51.2212 4.61823 50.5873 5.19801C49.9466 5.77779 49.1423 6.06434 48.154 6.06434C47.1657 6.06434 46.3273 5.77779 45.6866 5.19801ZM51.0031 7.97029V26.2766H45.2641V7.97029H51.0031Z" fill="white" style="fill:white;fill:white;fill-opacity:1;"/>
<path d="M84.6059 9.84292C85.9828 11.2224 86.6712 13.135 86.6712 15.5807V26.2767H80.9662V16.3404C80.9662 15.1609 80.6459 14.2479 80.012 13.6015C79.3713 12.9551 78.4989 12.6352 77.3811 12.6352C76.2633 12.6352 75.384 12.9551 74.7501 13.6015C74.1094 14.2479 73.7959 15.1609 73.7959 16.3404V26.2767H68.091V16.3404C68.091 15.1609 67.7706 14.2479 67.1368 13.6015C66.4961 12.9551 65.6236 12.6352 64.5058 12.6352C63.388 12.6352 62.5087 12.9551 61.8749 13.6015C61.2342 14.2479 60.9206 15.1609 60.9206 16.3404V26.2767H55.1816V7.9703H60.9206V10.2694C61.5 9.50305 62.2634 8.89661 63.204 8.45012C64.1446 8.00362 65.2079 7.77704 66.3938 7.77704C67.8047 7.77704 69.0588 8.07026 70.1698 8.66337C71.274 9.25647 72.1465 10.0962 72.7667 11.1891C73.4142 10.1828 74.3003 9.3631 75.4181 8.73001C76.5359 8.09692 77.756 7.77704 79.0782 7.77704C81.4025 7.77704 83.2564 8.46344 84.6332 9.84292H84.6059Z" fill="white" style="fill:white;fill:white;fill-opacity:1;"/>
<path d="M98.7488 8.49676C99.7303 7.97029 100.882 7.71039 102.204 7.71039C103.745 7.71039 105.142 8.09024 106.396 8.85662C107.65 9.62299 108.639 10.7159 109.368 12.1354C110.097 13.5548 110.459 15.2075 110.459 17.0868C110.459 18.9661 110.097 20.6255 109.368 22.0583C108.639 23.491 107.65 24.5973 106.396 25.3703C105.142 26.15 103.745 26.5366 102.204 26.5366C100.909 26.5366 99.7576 26.2766 98.7624 25.7502C97.7673 25.2237 96.9903 24.5506 96.4314 23.7176V35H90.6924V7.97029H96.4314V10.5626C96.9903 9.70963 97.7605 9.02322 98.7488 8.49676ZM103.431 13.7947C102.634 12.995 101.659 12.5952 100.494 12.5952C99.3282 12.5952 98.3876 13.0017 97.5901 13.8081C96.7926 14.6144 96.3973 15.7207 96.3973 17.1201C96.3973 18.5196 96.7926 19.6258 97.5901 20.4322C98.3807 21.2386 99.3486 21.6451 100.494 21.6451C101.639 21.6451 102.607 21.2319 103.411 20.4122C104.215 19.5925 104.617 18.4796 104.617 17.0802C104.617 15.6807 104.222 14.5811 103.425 13.7814L103.431 13.7947Z" fill="white" style="fill:white;fill:white;fill-opacity:1;"/>
<path d="M119.211 1.99924V26.27H113.472V1.99924H119.211Z" fill="white" style="fill:white;fill:white;fill-opacity:1;"/>
<path d="M13.755 12.2753C13.755 12.2753 4.35583 18.3863 6.27791 25.9101C6.27791 25.9101 26.4189 26.8564 21.2866 0.266571C21.2866 0.266571 20.5436 2.78561 17.5855 4.62491C14.3411 6.64414 -3.33934 10.1428 0.559362 24.5507C0.559362 24.5507 1.7317 29.6087 8.8407 34.7334C8.8407 34.7334 -4.88655 21.7317 13.755 12.2753Z" fill="white" style="fill:white;fill:white;fill-opacity:1;"/>
</svg>
