<svg width="41" height="42" viewBox="0 0 41 42" fill="none" xmlns="http://www.w3.org/2000/svg">
<g clip-path="url(#clip0_532_559)">
<path d="M37.965 0.5H3.02695C1.35332 0.5 0 1.82129 0 3.45488V38.5371C0 40.1707 1.35332 41.5 3.02695 41.5H37.965C39.6387 41.5 41 40.1707 41 38.5451V3.45488C41 1.82129 39.6387 0.5 37.965 0.5ZM12.1639 35.4381H6.07793V15.867H12.1639V35.4381ZM9.1209 13.2004C7.16699 13.2004 5.58945 11.6229 5.58945 9.67695C5.58945 7.73105 7.16699 6.15352 9.1209 6.15352C11.0668 6.15352 12.6443 7.73105 12.6443 9.67695C12.6443 11.6148 11.0668 13.2004 9.1209 13.2004ZM34.9381 35.4381H28.8602V25.9248C28.8602 23.6586 28.8201 20.7357 25.6971 20.7357C22.534 20.7357 22.0535 23.2102 22.0535 25.7646V35.4381H15.9836V15.867H21.8133V18.5416H21.8934C22.7021 17.0041 24.6881 15.3785 27.643 15.3785C33.801 15.3785 34.9381 19.4305 34.9381 24.6996V35.4381Z" fill="white" style="fill:white;fill:white;fill-opacity:1;"/>
</g>
<defs>
<clipPath id="clip0_532_559">
<rect width="41" height="41" fill="white" style="fill:white;fill:white;fill-opacity:1;" transform="translate(0 0.5)"/>
</clipPath>
</defs>
</svg>
