<svg width="41" height="42" viewBox="0 0 41 42" fill="none" xmlns="http://www.w3.org/2000/svg">
<g clip-path="url(#clip0_532_556)">
<path d="M41 21C41 9.67815 31.8218 0.5 20.5 0.5C9.17815 0.5 0 9.67815 0 21C0 31.232 7.49651 39.7131 17.2969 41.251V26.9258H12.0918V21H17.2969V16.4836C17.2969 11.3458 20.3575 8.50781 25.04 8.50781C27.2822 8.50781 29.6289 8.9082 29.6289 8.9082V13.9531H27.044C24.4975 13.9531 23.7031 15.5335 23.7031 17.1562V21H29.3887L28.4798 26.9258H23.7031V41.251C33.5035 39.7131 41 31.232 41 21Z" fill="white" style="fill:white;fill:white;fill-opacity:1;"/>
</g>
<defs>
<clipPath id="clip0_532_556">
<rect width="41" height="41" fill="white" style="fill:white;fill:white;fill-opacity:1;" transform="translate(0 0.5)"/>
</clipPath>
</defs>
</svg>
