<svg width="80" height="80" viewBox="0 0 80 80" fill="none" xmlns="http://www.w3.org/2000/svg">
<circle cx="40" cy="40" r="40" fill="white"/>
<rect x="19" y="19" width="42" height="42" rx="21" fill="#16CA9F"/>
<path d="M51.0001 44.4C51.0001 45.615 50.0151 46.6 48.8001 46.6C47.5851 46.6 46.6001 45.615 46.6001 44.4C46.6001 43.1849 47.5851 42.2 48.8001 42.2C50.0151 42.2 51.0001 43.1849 51.0001 44.4Z" stroke="white" stroke-width="1.25714"/>
<path d="M31.2 30.1H30.2571C29.5628 30.1 29 30.6628 29 31.3571V37.9571C29 39.6929 30.4071 41.1 32.1429 41.1H36.8571C38.5929 41.1 40 39.6929 40 37.9571V31.3571C40 30.6628 39.4372 30.1 38.7429 30.1H37.8" stroke="white" stroke-width="1.25714" stroke-linecap="round" stroke-linejoin="round"/>
<path d="M34.5 41.1V47.8572C34.5 49.5929 35.9071 51 37.6429 51H39.6071C41.3429 51 42.75 49.5929 42.75 47.8572V39.6858C42.75 38.6443 43.5943 37.8 44.6357 37.8H46.9143C47.9557 37.8 48.8 38.6443 48.8 39.6858V42.2" stroke="white" stroke-width="1.25714" stroke-linecap="round" stroke-linejoin="round"/>
<path d="M37.8 29V31.2" stroke="white" stroke-width="1.25714" stroke-linecap="round" stroke-linejoin="round"/>
<path d="M31.2 29V31.2" stroke="white" stroke-width="1.25714" stroke-linecap="round" stroke-linejoin="round"/>
</svg>
