<svg width="61" height="61" viewBox="0 0 61 61" fill="none" xmlns="http://www.w3.org/2000/svg">
<path opacity="0.4" fill-rule="evenodd" clip-rule="evenodd" d="M43.625 27.375C40.8636 27.375 38.625 29.6136 38.625 32.375V46.125C38.625 52.3382 33.5882 57.375 27.375 57.375C21.1618 57.375 16.125 52.3382 16.125 46.125V33C16.125 31.9645 16.9645 31.125 18 31.125C19.0355 31.125 19.875 31.9645 19.875 33V46.125C19.875 50.2671 23.2329 53.625 27.375 53.625C31.5171 53.625 34.875 50.2671 34.875 46.125V32.375C34.875 27.5425 38.7925 23.625 43.625 23.625C48.4575 23.625 52.375 27.5425 52.375 32.375V35.5C52.375 36.5355 51.5355 37.375 50.5 37.375C49.4645 37.375 48.625 36.5355 48.625 35.5V32.375C48.625 29.6136 46.3864 27.375 43.625 27.375Z" fill="#16CA9F"/>
<path d="M55.5 40.5C55.5 43.2614 53.2614 45.5 50.5 45.5C47.7386 45.5 45.5 43.2614 45.5 40.5C45.5 37.7386 47.7386 35.5 50.5 35.5C53.2614 35.5 55.5 37.7386 55.5 40.5Z" fill="#16CA9F"/>
<path fill-rule="evenodd" clip-rule="evenodd" d="M8.625 6.38379C5.73937 7.19995 3.625 9.85306 3.625 13V20.5C3.625 28.4391 10.0609 34.875 18 34.875C25.9391 34.875 32.375 28.4391 32.375 20.5V13C32.375 9.85306 30.2606 7.19995 27.375 6.38379V10.4998C28.134 11.0699 28.625 11.9776 28.625 13V20.5C28.625 26.368 23.868 31.125 18 31.125C12.132 31.125 7.375 26.368 7.375 20.5V13C7.375 11.9776 7.86597 11.0699 8.625 10.4998V6.38379Z" fill="#16CA9F"/>
<path opacity="0.4" fill-rule="evenodd" clip-rule="evenodd" d="M25.5 3.625C26.5355 3.625 27.375 4.46447 27.375 5.5V10.5C27.375 11.5355 26.5355 12.375 25.5 12.375C24.4645 12.375 23.625 11.5355 23.625 10.5V5.5C23.625 4.46447 24.4645 3.625 25.5 3.625Z" fill="#16CA9F"/>
<path opacity="0.4" fill-rule="evenodd" clip-rule="evenodd" d="M10.5 3.625C11.5355 3.625 12.375 4.46447 12.375 5.5V10.5C12.375 11.5355 11.5355 12.375 10.5 12.375C9.46447 12.375 8.625 11.5355 8.625 10.5V5.5C8.625 4.46447 9.46447 3.625 10.5 3.625Z" fill="#16CA9F"/>
</svg>
