<svg width="60" height="60" viewBox="0 0 60 60" fill="none" xmlns="http://www.w3.org/2000/svg">
<path opacity="0.4" d="M51.25 33.75C51.25 45.486 41.736 55 30 55C18.2639 55 8.75 45.486 8.75 33.75C8.75 22.0139 18.2639 12.5 30 12.5C41.736 12.5 51.25 22.0139 51.25 33.75Z" fill="#16CA9F"/>
<path fill-rule="evenodd" clip-rule="evenodd" d="M30 6.875C27.5742 6.875 25.23 7.21156 23.0103 7.83938C22.0138 8.12122 20.9776 7.54191 20.6958 6.54546C20.4139 5.54902 20.9932 4.51277 21.9897 4.23094C24.5383 3.51011 27.2257 3.125 30 3.125C32.7743 3.125 35.4617 3.51011 38.0103 4.23094C39.0067 4.51277 39.586 5.54902 39.3042 6.54546C39.0224 7.54191 37.9861 8.12122 36.9897 7.83938C34.7699 7.21156 32.4258 6.875 30 6.875Z" fill="#16CA9F"/>
<path d="M35 35C35 37.7614 32.7614 40 30 40C27.2386 40 25 37.7614 25 35C25 32.2386 27.2386 30 30 30C32.7614 30 35 32.2386 35 35Z" fill="#16CA9F"/>
<path fill-rule="evenodd" clip-rule="evenodd" d="M30 20.625C31.0355 20.625 31.875 21.4645 31.875 22.5V32.5C31.875 33.5355 31.0355 34.375 30 34.375C28.9645 34.375 28.125 33.5355 28.125 32.5V22.5C28.125 21.4645 28.9645 20.625 30 20.625Z" fill="#16CA9F"/>
<path fill-rule="evenodd" clip-rule="evenodd" d="M40.625 47.5C40.625 46.4645 41.4645 45.625 42.5 45.625H52.5C53.5355 45.625 54.375 46.4645 54.375 47.5C54.375 48.5355 53.5355 49.375 52.5 49.375H42.5C41.4645 49.375 40.625 48.5355 40.625 47.5Z" fill="#16CA9F"/>
<path fill-rule="evenodd" clip-rule="evenodd" d="M35.625 55C35.625 53.9645 36.4645 53.125 37.5 53.125L52.5 53.125C53.5355 53.125 54.375 53.9645 54.375 55C54.375 56.0355 53.5355 56.875 52.5 56.875L37.5 56.875C36.4645 56.875 35.625 56.0355 35.625 55Z" fill="#16CA9F"/>
<path fill-rule="evenodd" clip-rule="evenodd" d="M45.625 40C45.625 38.9645 46.4645 38.125 47.5 38.125H52.5C53.5355 38.125 54.375 38.9645 54.375 40C54.375 41.0355 53.5355 41.875 52.5 41.875H47.5C46.4645 41.875 45.625 41.0355 45.625 40Z" fill="#16CA9F"/>
</svg>
