<svg width="60" height="60" viewBox="0 0 60 60" fill="none" xmlns="http://www.w3.org/2000/svg">
<path opacity="0.4" d="M45 5H15C9.47715 5 5 9.47715 5 15V45C5 50.5228 9.47715 55 15 55H45C50.5228 55 55 50.5228 55 45V15C55 9.47715 50.5228 5 45 5Z" fill="#16CA9F"/>
<path fill-rule="evenodd" clip-rule="evenodd" d="M30 13.125C31.0355 13.125 31.875 13.9645 31.875 15V26.25C31.875 27.2855 31.0355 28.125 30 28.125C28.9645 28.125 28.125 27.2855 28.125 26.25V15C28.125 13.9645 28.9645 13.125 30 13.125ZM27.5758 32.4242C28.3081 33.1564 28.3081 34.3436 27.5758 35.0758L23.8258 38.8258C23.0936 39.5581 21.9064 39.5581 21.1742 38.8258C20.4419 38.0936 20.4419 36.9064 21.1742 36.1742L24.9242 32.4242C25.6564 31.6919 26.8436 31.6919 27.5758 32.4242Z" fill="#16CA9F"/>
<path d="M35 30C35 32.7614 32.7614 35 30 35C27.2386 35 25 32.7614 25 30C25 27.2386 27.2386 25 30 25C32.7614 25 35 27.2386 35 30Z" fill="#16CA9F"/>
<path fill-rule="evenodd" clip-rule="evenodd" d="M56.2348 43.5889C57.0141 44.2708 57.0931 45.4554 56.4112 46.2347L49.2364 54.4345C47.6947 56.1964 45.039 56.4324 43.2108 54.9698L38.8288 51.4642C38.0201 50.8173 37.889 49.6373 38.5359 48.8287C39.1828 48.0201 40.3628 47.889 41.1714 48.5359L45.5534 52.0415C45.8146 52.2505 46.194 52.2168 46.4142 51.9651L53.589 43.7653C54.2709 42.986 55.4554 42.907 56.2348 43.5889Z" fill="#16CA9F"/>
</svg>
