<svg width="60" height="60" viewBox="0 0 60 60" fill="none" xmlns="http://www.w3.org/2000/svg">
<path opacity="0.4" fill-rule="evenodd" clip-rule="evenodd" d="M28.125 5C28.125 3.96447 28.9645 3.125 30 3.125C44.8427 3.125 56.875 15.1573 56.875 30C56.875 31.0355 56.0355 31.875 55 31.875C53.9645 31.875 53.125 31.0355 53.125 30C53.125 17.2284 42.7716 6.875 30 6.875C28.9645 6.875 28.125 6.03553 28.125 5Z" fill="#16CA9F"/>
<path fill-rule="evenodd" clip-rule="evenodd" d="M22.8332 5.96843C23.2027 6.9358 22.7181 8.01954 21.7507 8.38904C21.3459 8.54366 20.9465 8.70935 20.5529 8.88574C19.608 9.30925 18.4986 8.88652 18.0751 7.94154C17.6516 6.99657 18.0743 5.8872 19.0193 5.46369C19.4771 5.25853 19.9416 5.06579 20.4126 4.8859C21.38 4.51639 22.4637 5.00106 22.8332 5.96843ZM14.1873 10.5449C14.8989 11.2973 14.8658 12.484 14.1134 13.1955C13.799 13.4928 13.493 13.7989 13.1957 14.1133C12.4841 14.8656 11.2974 14.8987 10.5451 14.1872C9.79269 13.4757 9.7596 12.2889 10.4711 11.5366C10.8164 11.1715 11.1717 10.8162 11.5367 10.471C12.2891 9.75944 13.4758 9.79254 14.1873 10.5449ZM7.9417 18.0749C8.88667 18.4984 9.3094 19.6078 8.88589 20.5528C8.70951 20.9464 8.54382 21.3457 8.3892 21.7505C8.0197 22.7179 6.93595 23.2026 5.96858 22.8331C5.00122 22.4636 4.51655 21.3798 4.88605 20.4125C5.06594 19.9415 5.25869 19.4769 5.46385 19.0191C5.88736 18.0742 6.99673 17.6514 7.9417 18.0749ZM5.06145 27.4225C6.09659 27.4511 6.91256 28.3134 6.88398 29.3485C6.87801 29.5649 6.875 29.782 6.875 29.9998C6.875 30.2177 6.87801 30.4348 6.88398 30.6511C6.91256 31.6863 6.09659 32.5486 5.06145 32.5772C4.02631 32.6058 3.16399 31.7898 3.13541 30.7547C3.12848 30.5038 3.125 30.2522 3.125 29.9998C3.125 29.7475 3.12848 29.4958 3.13541 29.245C3.16399 28.2099 4.02631 27.3939 5.06145 27.4225ZM5.96858 37.1666C6.93595 36.7971 8.0197 37.2818 8.3892 38.2492C8.54382 38.654 8.70951 39.0533 8.88589 39.4469C9.3094 40.3919 8.88667 41.5013 7.9417 41.9248C6.99673 42.3483 5.88736 41.9255 5.46385 40.9806C5.25869 40.5228 5.06595 40.0582 4.88605 39.5872C4.51655 38.6199 5.00122 37.5361 5.96858 37.1666ZM54.0314 37.1666C54.9988 37.5361 55.4835 38.6199 55.1139 39.5872C54.9341 40.0582 54.7413 40.5228 54.5362 40.9806C54.1126 41.9255 53.0033 42.3483 52.0583 41.9248C51.1133 41.5012 50.6906 40.3919 51.1141 39.4469C51.2905 39.0533 51.4562 38.654 51.6108 38.2492C51.9803 37.2818 53.0641 36.7971 54.0314 37.1666ZM10.5451 45.8125C11.2974 45.101 12.4841 45.1341 13.1957 45.8864C13.493 46.2008 13.799 46.5068 14.1134 46.8042C14.8658 47.5157 14.8989 48.7024 14.1873 49.4548C13.4758 50.2072 12.2891 50.2402 11.5367 49.5287C11.1717 49.1835 10.8164 48.8281 10.4711 48.4631C9.7596 47.7108 9.79269 46.524 10.5451 45.8125ZM49.455 45.8125C50.2073 46.524 50.2404 47.7108 49.5289 48.4631C49.1836 48.8281 48.8283 49.1835 48.4633 49.5287C47.7109 50.2402 46.5242 50.2072 45.8127 49.4548C45.1011 48.7024 45.1342 47.5157 45.8866 46.8042C46.201 46.5068 46.507 46.2008 46.8043 45.8864C47.5159 45.1341 48.7026 45.101 49.455 45.8125ZM41.9249 52.0581C42.3484 53.0031 41.9257 54.1125 40.9807 54.536C40.5229 54.7412 40.0584 54.9339 39.5874 55.1138C38.62 55.4833 37.5363 54.9986 37.1668 54.0313C36.7973 53.0639 37.2819 51.9801 38.2493 51.6106C38.6541 51.456 39.0535 51.2903 39.4471 51.114C40.392 50.6904 41.5014 51.1132 41.9249 52.0581ZM18.0751 52.0581C18.4986 51.1132 19.608 50.6904 20.5529 51.114C20.9465 51.2903 21.3459 51.456 21.7507 51.6106C22.7181 51.9801 23.2027 53.0639 22.8332 54.0313C22.4637 54.9986 21.38 55.4833 20.4126 55.1138C19.9416 54.9339 19.4771 54.7412 19.0193 54.536C18.0743 54.1125 17.6516 53.0031 18.0751 52.0581ZM27.4227 54.9384C27.4512 53.9033 28.3136 53.0873 29.3487 53.1159C29.565 53.1218 29.7821 53.1248 30 53.1248C30.2179 53.1248 30.435 53.1218 30.6513 53.1159C31.6864 53.0873 32.5488 53.9033 32.5773 54.9384C32.6059 55.9735 31.7899 56.8359 30.7548 56.8644C30.504 56.8714 30.2524 56.8748 30 56.8748C29.7476 56.8748 29.496 56.8714 29.2452 56.8644C28.2101 56.8359 27.3941 55.9735 27.4227 54.9384Z" fill="#16CA9F"/>
<path fill-rule="evenodd" clip-rule="evenodd" d="M30 13.125C28.9645 13.125 28.125 13.9645 28.125 15V26.25C28.125 27.2855 28.9645 28.125 30 28.125C31.0355 28.125 31.875 27.2855 31.875 26.25V15C31.875 13.9645 31.0355 13.125 30 13.125ZM41.875 30C41.875 28.9645 41.0355 28.125 40 28.125H33.75C32.7145 28.125 31.875 28.9645 31.875 30C31.875 31.0355 32.7145 31.875 33.75 31.875H40C41.0355 31.875 41.875 31.0355 41.875 30Z" fill="#16CA9F"/>
<path opacity="0.4" d="M35 30C35 32.7614 32.7614 35 30 35C27.2386 35 25 32.7614 25 30C25 27.2386 27.2386 25 30 25C32.7614 25 35 27.2386 35 30Z" fill="#16CA9F"/>
</svg>
